<svg id="Background" xmlns="http://www.w3.org/2000/svg" viewBox="0 0 500 110"><defs><style>.cls-1{fill:#fff;}.cls-2{fill:#f9662b;}</style></defs><rect class="cls-1" width="500" height="110"/><path d="M61.15,37.51,31,12.94a1.48,1.48,0,0,0-2.41,1.13V65.51L17.16,71.94a9.17,9.17,0,0,0-4.66,8V96.26a1.15,1.15,0,0,0,1.7,1l14.34-8.12,7.08-4a9.18,9.18,0,0,0,4.66-8V35.67L64,55V43.54A7.77,7.77,0,0,0,61.15,37.51Z"/><path class="cls-2" d="M113.85,12.74,99.52,20.86l-7.09,4a9.22,9.22,0,0,0-4.65,8V74.33L64,55V66.46a7.76,7.76,0,0,0,2.87,6L97.11,97.06a1.48,1.48,0,0,0,2.41-1.13V44.49l11.38-6.43a9.14,9.14,0,0,0,4.68-8V13.74A1.17,1.17,0,0,0,113.85,12.74Z"/><path d="M168.38,35.28a3.16,3.16,0,0,0-3.13,3.19V67.33L144.39,37.2a4.57,4.57,0,0,0-3.58-1.92h-.74a4.3,4.3,0,0,0-4.26,4.32V73.53a3.13,3.13,0,0,0,3.12,3.13,3.16,3.16,0,0,0,3.19-3.13V44.61l21,30.29a4.31,4.31,0,0,0,3.47,1.76h.68a4.3,4.3,0,0,0,4.32-4.26V38.47A3.23,3.23,0,0,0,168.38,35.28Z"/><path d="M216.47,41.54a3,3,0,0,0,3-3,3,3,0,0,0-3-3H193.68a3.16,3.16,0,0,0-3.13,3.19v34.5a3.13,3.13,0,0,0,3.13,3.13h22.79a3,3,0,1,0,0-6H196.86V58.93h17.56a3,3,0,1,0,0-6H196.86V41.54Z"/><path d="M253.64,35c-12,0-20.28,8.42-20.52,21,.24,12.54,8.49,21,20.52,21s20.28-8.43,20.52-21v0C273.92,43.42,265.68,35,253.64,35Zm0,36c-8.49,0-14.2-6-14.2-15s5.71-15,14.2-15,14.21,6,14.21,15S262.14,71,253.64,71Z"/><path d="M309.35,41.08a20,20,0,0,1,10.15,2.61,3,3,0,0,0,1.28.29,2.89,2.89,0,0,0,2.1-.86,2.93,2.93,0,0,0-.8-4.53A25.49,25.49,0,0,0,308.84,35c-12.24,0-20.46,8.43-20.46,21s8.22,21,20.46,21a25.32,25.32,0,0,0,13.23-3.6,2.77,2.77,0,0,0,1.55-2.51h0a2.77,2.77,0,0,0-.74-2,2.86,2.86,0,0,0-2.1-.87,2.94,2.94,0,0,0-1.29.3,20,20,0,0,1-10.14,2.6c-9,0-14.66-5.7-14.66-14.89S300.31,41.08,309.35,41.08Z"/><path d="M375.29,47.67c0-7.69-5.84-12.11-16-12.11H346a3.16,3.16,0,0,0-3.13,3.19V73.53a3.16,3.16,0,0,0,6.31,0V60.92h11.2c7.3,0,8.24,5.83,8.24,10.91v1.7a3,3,0,0,0,3.18,3.13A3.13,3.13,0,0,0,375,73.53V70.92c0-2.51-.47-10.39-6.08-13A11.12,11.12,0,0,0,375.29,47.67Zm-6.31.4c0,4.27-3.76,6.82-10.06,6.82H349.2V41.59h9.44C367.8,41.59,369,45.05,369,48.07Z"/><path d="M424.57,35.28a3.18,3.18,0,0,0-2.74,1.56L410.42,53.43,399,36.84a3.2,3.2,0,0,0-2.75-1.56,3,3,0,0,0-3.07,3.19,3.42,3.42,0,0,0,.56,1.86l13.48,18.89V73.53a3.16,3.16,0,0,0,6.31,0V59.22L427.1,40.3a3.38,3.38,0,0,0,.54-1.81,3,3,0,0,0-3.07-3.21Z"/><path d="M483.24,35.28h-1.88a4.42,4.42,0,0,0-4,2.75L465,68.88,452.62,38a4.42,4.42,0,0,0-4-2.74h-1.87a4.3,4.3,0,0,0-4.27,4.32V73.53a3.16,3.16,0,0,0,6.31,0V44.18l12,29.75a4.54,4.54,0,0,0,8.33,0l12-29.74V73.53a3.16,3.16,0,0,0,6.31,0V39.6A4.3,4.3,0,0,0,483.24,35.28Z"/></svg>