<svg xmlns="http://www.w3.org/2000/svg" viewBox="0 0 1200 675"><defs><style>.cls-1{fill:#131416;}.cls-2{fill:#ededec;}.cls-3{fill:#f77239;}</style></defs><g id="Background"><rect class="cls-1" width="1200" height="675"/></g><g id="Text"><path class="cls-2" d="M163.87,122H153.29l-17.08-29.7H136q.51,7.86.51,11.22V122H129V82.75h10.5l17.05,29.4h.19q-.41-7.65-.41-10.82V82.75h7.5Z"/><path class="cls-2" d="M185.76,122.55q-7.26,0-11.33-4t-4.09-11.33q0-7.54,3.78-11.67t10.43-4.12q6.36,0,9.91,3.63t3.54,10v4H178.64a7.88,7.88,0,0,0,2.07,5.45,7.27,7.27,0,0,0,5.42,2,22.85,22.85,0,0,0,5.13-.56,25.87,25.87,0,0,0,5.05-1.8v6.33a19,19,0,0,1-4.59,1.6A28.87,28.87,0,0,1,185.76,122.55Zm-1.16-25.3a5.21,5.21,0,0,0-4.08,1.65,7.64,7.64,0,0,0-1.69,4.69h11.49a6.8,6.8,0,0,0-1.58-4.69A5.37,5.37,0,0,0,184.6,97.25Z"/><path class="cls-2" d="M231,106.94q0,7.34-3.86,11.47t-10.77,4.14a15,15,0,0,1-7.63-1.9,12.54,12.54,0,0,1-5.07-5.44,18.15,18.15,0,0,1-1.78-8.27q0-7.35,3.84-11.44t10.8-4.08a15.22,15.22,0,0,1,7.63,1.88,12.5,12.5,0,0,1,5.07,5.4A18.09,18.09,0,0,1,231,106.94Zm-20.75,0c0,3,.48,5.22,1.46,6.74a5.22,5.22,0,0,0,4.77,2.29,5.16,5.16,0,0,0,4.71-2.27q1.44-2.28,1.44-6.76c0-3-.49-5.2-1.45-6.68a6.17,6.17,0,0,0-9.48,0Q210.26,102.46,210.26,106.94Z"/><path class="cls-2" d="M249,122.55q-14,0-14-15.39,0-7.65,3.81-11.7t10.93-4a20.85,20.85,0,0,1,9.35,2l-2.42,6.34c-1.29-.52-2.48-.94-3.6-1.28a11.58,11.58,0,0,0-3.33-.49q-6.39,0-6.39,9.07,0,8.82,6.39,8.81a14.58,14.58,0,0,0,4.38-.63,16,16,0,0,0,4-2v7a13.11,13.11,0,0,1-4,1.74A22.75,22.75,0,0,1,249,122.55Z"/><path class="cls-2" d="M281,91.42a13.21,13.21,0,0,1,2.76.24l-.61,7.68a9.39,9.39,0,0,0-2.42-.27,8.71,8.71,0,0,0-6.11,2,7.27,7.27,0,0,0-2.19,5.64V122h-8.19V92h6.2l1.21,5H272A11.34,11.34,0,0,1,275.78,93,9.37,9.37,0,0,1,281,91.42Z"/><path class="cls-2" d="M283.94,92h9l5.67,16.9a23,23,0,0,1,1,5.21h.17a22.74,22.74,0,0,1,1.15-5.21L306.44,92h8.78l-12.7,33.87a14.66,14.66,0,0,1-5,7,12.63,12.63,0,0,1-7.56,2.33,19.37,19.37,0,0,1-4.17-.45v-6.5a14.21,14.21,0,0,0,3.23.35,5.87,5.87,0,0,0,3.8-1.33,8.7,8.7,0,0,0,2.54-4l.48-1.48Z"/><path class="cls-2" d="M345.47,122h-8.19V104.47a8.87,8.87,0,0,0-1.09-4.87A3.83,3.83,0,0,0,332.76,98a5,5,0,0,0-4.56,2.31c-.95,1.54-1.43,4.08-1.43,7.6V122h-8.19V92h6.26l1.1,3.85h.46a8.3,8.3,0,0,1,3.49-3.24,11.33,11.33,0,0,1,5.24-1.17q6.74,0,9.13,4.41H345a8.1,8.1,0,0,1,3.56-3.25,11.89,11.89,0,0,1,5.3-1.16c3.41,0,6,.87,7.73,2.62s2.61,4.54,2.61,8.39V122H356V104.47a8.87,8.87,0,0,0-1.09-4.87A3.82,3.82,0,0,0,351.46,98a5.11,5.11,0,0,0-4.5,2.15c-1,1.43-1.49,3.71-1.49,6.82Z"/><path class="cls-2" d="M384.66,84.22c0-2.66,1.48-4,4.46-4s4.45,1.34,4.45,4a3.91,3.91,0,0,1-1.11,3,4.67,4.67,0,0,1-3.34,1.06C386.14,88.25,384.66,86.91,384.66,84.22ZM393.2,122H385V92h8.19Z"/><path class="cls-2" d="M421.8,113.09a8.27,8.27,0,0,1-3.21,7c-2.13,1.61-5.34,2.42-9.6,2.42a29.67,29.67,0,0,1-5.58-.45,21.16,21.16,0,0,1-4.33-1.3V114a28.21,28.21,0,0,0,5.15,1.8,20.45,20.45,0,0,0,5,.73q4.46,0,4.46-2.58a2.15,2.15,0,0,0-.59-1.57,8.4,8.4,0,0,0-2-1.37c-1-.51-2.26-1.11-3.87-1.79a24.09,24.09,0,0,1-5.09-2.68,7.59,7.59,0,0,1-2.36-2.84A9.34,9.34,0,0,1,399,99.8a7.12,7.12,0,0,1,3.1-6.19q3.11-2.19,8.8-2.19a25,25,0,0,1,10.55,2.36L419,99.69c-1.5-.64-2.91-1.17-4.22-1.58a13.26,13.26,0,0,0-4-.62c-2.41,0-3.62.65-3.62,2a2.32,2.32,0,0,0,1.17,1.91,32.3,32.3,0,0,0,5.11,2.39,23.41,23.41,0,0,1,5.16,2.66,7.89,7.89,0,0,1,2.42,2.84A8.92,8.92,0,0,1,421.8,113.09Z"/><path class="cls-2" d="M459.68,122l-1.58-4.08h-.22a12.16,12.16,0,0,1-4.26,3.61,13.76,13.76,0,0,1-5.7,1,9.26,9.26,0,0,1-6.81-2.47q-2.49-2.47-2.49-7,0-4.79,3.35-7.05t10.08-2.51l5.21-.16V102c0-3-1.55-4.56-4.67-4.56a21.28,21.28,0,0,0-8.46,2.17l-2.71-5.53a24.38,24.38,0,0,1,11.49-2.71c4,0,7.12.87,9.27,2.63s3.22,4.42,3.22,8v20Zm-2.42-13.91-3.17.11a10.18,10.18,0,0,0-5.31,1.28,4,4,0,0,0-1.75,3.6q0,3.47,4,3.47a6.32,6.32,0,0,0,4.55-1.64,5.77,5.77,0,0,0,1.7-4.35Z"/><path class="cls-3" d="M504,91a15.45,15.45,0,0,1,2.6.22l.59.11-.94,9.91a15.09,15.09,0,0,0-3.57-.33c-2.29,0-4,.53-5,1.58a6.13,6.13,0,0,0-1.56,4.52v15h-10.5V91.58h7.81L495,96.44h.51a10.48,10.48,0,0,1,3.67-3.9A8.7,8.7,0,0,1,504,91Z"/><path class="cls-3" d="M525.14,122.55q-7.6,0-11.8-4T509.13,107q0-7.71,3.9-11.83T524.15,91q6.87,0,10.62,3.59T538.52,105v4.67H519.74a5.22,5.22,0,0,0,1.87,4,7.29,7.29,0,0,0,4.79,1.45,23.08,23.08,0,0,0,5.09-.52,25.43,25.43,0,0,0,5-1.79v7.55a18.55,18.55,0,0,1-5.1,1.74A35.54,35.54,0,0,1,525.14,122.55Zm-.62-24.36a4.36,4.36,0,0,0-3.1,1.17A5.46,5.46,0,0,0,520,103h9a5.19,5.19,0,0,0-1.25-3.52A4.12,4.12,0,0,0,524.52,98.19Z"/><path class="cls-3" d="M557.37,122.55q-7.46,0-11.32-4t-3.85-11.58q0-7.57,4.16-11.73T558.21,91a22.21,22.21,0,0,1,10,2.31l-3.09,7.77a31.83,31.83,0,0,0-3.52-1.33,11.32,11.32,0,0,0-3.35-.5,4.53,4.53,0,0,0-4,2,9.65,9.65,0,0,0-1.4,5.61q0,7.31,5.4,7.3a16.32,16.32,0,0,0,8.86-2.68v8.35A17.25,17.25,0,0,1,557.37,122.55Z"/><path class="cls-3" d="M601.29,106.73q0,7.47-4,11.64T586,122.55q-6.93,0-11-4.27t-4.1-11.55q0-7.44,4-11.56T586.19,91A16.13,16.13,0,0,1,594.12,93a13,13,0,0,1,5.3,5.47A17.68,17.68,0,0,1,601.29,106.73Zm-19.72,0a13.47,13.47,0,0,0,1,6,3.65,3.65,0,0,0,3.52,2.06,3.54,3.54,0,0,0,3.45-2.06,14,14,0,0,0,1-6,13.25,13.25,0,0,0-1-5.88,4,4,0,0,0-7,0A13,13,0,0,0,581.57,106.73Z"/><path class="cls-3" d="M624.71,91a15.45,15.45,0,0,1,2.6.22l.6.11-.95,9.91a15,15,0,0,0-3.57-.33q-3.43,0-5,1.58a6.13,6.13,0,0,0-1.56,4.52v15h-10.5V91.58h7.82l1.63,4.86h.51a10.48,10.48,0,0,1,3.67-3.9A8.75,8.75,0,0,1,624.71,91Z"/><path class="cls-3" d="M640.67,122.55a9.07,9.07,0,0,1-5.68-1.86,11.67,11.67,0,0,1-3.76-5.45,24.12,24.12,0,0,1-1.33-8.4c0-5,1-8.81,3-11.61A9.53,9.53,0,0,1,641.07,91a9.28,9.28,0,0,1,4.47,1A9.8,9.8,0,0,1,649,95.5h.22a50.43,50.43,0,0,1-.51-7.14V80.22h10.58V122h-7.92l-2.26-3.84h-.4A8.89,8.89,0,0,1,640.67,122.55Zm4.29-8.3a3.91,3.91,0,0,0,3.56-1.59,9.55,9.55,0,0,0,1.12-4.88v-.84q0-4-1.16-5.73a4.06,4.06,0,0,0-3.62-1.71,3.55,3.55,0,0,0-3.21,2,11.1,11.1,0,0,0-1.14,5.55,10.26,10.26,0,0,0,1.15,5.39A3.67,3.67,0,0,0,645,114.25Z"/><path class="cls-3" d="M689.5,122H679V80.22h10.5Z"/><path class="cls-3" d="M715.69,122l-2-4h-.21a12.07,12.07,0,0,1-4.32,3.6,14.39,14.39,0,0,1-5.7,1,8.91,8.91,0,0,1-6.76-2.58q-2.48-2.58-2.47-7.25c0-3.24,1.12-5.66,3.38-7.24s5.52-2.48,9.8-2.67l5.08-.16v-.43q0-3.77-3.71-3.76a22.21,22.21,0,0,0-8.46,2.25l-3-6.93Q702.58,91,710.69,91q5.87,0,9.07,2.91t3.21,8.11v20Zm-7.79-6.88a4.74,4.74,0,0,0,3.26-1.2,4,4,0,0,0,1.36-3.15v-2.36l-2.42.11q-5.18.18-5.18,3.81C704.92,114.2,705.91,115.13,707.9,115.13Z"/><path class="cls-3" d="M747.76,91a9.13,9.13,0,0,1,7.88,4.17q2.91,4.16,2.91,11.52t-2.94,11.61a9.4,9.4,0,0,1-8.17,4.21,11.43,11.43,0,0,1-3-.37,8.76,8.76,0,0,1-2.35-1,12.31,12.31,0,0,1-2.4-2.15H739l-1.66,3h-8.2V80.22h10.51v9.45c0,1.13-.13,3.08-.38,5.83h.38A9,9,0,0,1,747.76,91Zm-3.84,8.25a3.59,3.59,0,0,0-3.22,1.53,8.85,8.85,0,0,0-1,4.81v1.47q0,3.74,1,5.36a3.64,3.64,0,0,0,3.33,1.63,3.09,3.09,0,0,0,2.84-1.9,12.2,12.2,0,0,0,1-5.57Q747.87,99.29,743.92,99.29Z"/><path class="cls-3" d="M778.3,122.55q-7.6,0-11.8-4T762.29,107q0-7.71,3.9-11.83T777.3,91q6.88,0,10.63,3.59T791.67,105v4.67H772.9a5.19,5.19,0,0,0,1.87,4,7.29,7.29,0,0,0,4.79,1.45,23.15,23.15,0,0,0,5.09-.52,25.43,25.43,0,0,0,5-1.79v7.55a18.5,18.5,0,0,1-5.11,1.74A35.42,35.42,0,0,1,778.3,122.55Zm-.62-24.36a4.36,4.36,0,0,0-3.1,1.17,5.46,5.46,0,0,0-1.46,3.66h9a5.24,5.24,0,0,0-1.25-3.52A4.15,4.15,0,0,0,777.68,98.19Z"/><path class="cls-3" d="M807.17,122h-10.5V80.22h10.5Z"/><path class="cls-2" d="M141,182a17.7,17.7,0,0,0,5.16-.94v6.1a18.47,18.47,0,0,1-7.52,1.37q-4.92,0-7.16-2.49c-1.5-1.65-2.24-4.14-2.24-7.45V164.13h-3.92v-3.46l4.51-2.74,2.36-6.34h5.24V158h8.4v6.15h-8.4v14.48a3.19,3.19,0,0,0,1,2.58A3.87,3.87,0,0,0,141,182Z"/><path class="cls-2" d="M179,188h-8.19V170.47q0-6.5-4.83-6.5a5.5,5.5,0,0,0-5,2.34q-1.53,2.34-1.53,7.57V188h-8.19V146.22h8.19v8.52c0,.66-.06,2.22-.19,4.67l-.19,2.42h.43q2.75-4.41,8.71-4.41c3.52,0,6.2,1,8,2.85s2.74,4.62,2.74,8.16Z"/><path class="cls-2" d="M205.61,188,204,183.93h-.22a12.16,12.16,0,0,1-4.26,3.61,13.76,13.76,0,0,1-5.7,1,9.26,9.26,0,0,1-6.81-2.47q-2.49-2.47-2.49-7,0-4.78,3.35-7T198,169.48l5.21-.16V168q0-4.56-4.67-4.56a21.28,21.28,0,0,0-8.46,2.17l-2.71-5.53a24.35,24.35,0,0,1,11.49-2.71c4,0,7.12.87,9.27,2.63s3.22,4.42,3.22,8v20Zm-2.42-13.91-3.17.11a10.18,10.18,0,0,0-5.31,1.28,4,4,0,0,0-1.75,3.6q0,3.47,4,3.47a6.32,6.32,0,0,0,4.55-1.64,5.77,5.77,0,0,0,1.7-4.35Z"/><path class="cls-2" d="M231.48,182a17.59,17.59,0,0,0,5.15-.94v6.1a18.44,18.44,0,0,1-7.52,1.37c-3.27,0-5.66-.83-7.15-2.49s-2.25-4.14-2.25-7.45V164.13h-3.92v-3.46l4.51-2.74,2.37-6.34h5.23V158h8.41v6.15H227.9v14.48a3.23,3.23,0,0,0,1,2.58A3.92,3.92,0,0,0,231.48,182Z"/><path class="cls-2" d="M276.39,188l-1.1-3.84h-.43a8.59,8.59,0,0,1-3.74,3.23,12.58,12.58,0,0,1-5.5,1.15q-5.3,0-8-2.84c-1.79-1.89-2.68-4.6-2.68-8.15V158h8.19v17.54a8.45,8.45,0,0,0,1.15,4.88A4.21,4.21,0,0,0,268,182a5.54,5.54,0,0,0,5-2.3c1-1.53,1.53-4.06,1.53-7.61V158h8.19v30Z"/><path class="cls-2" d="M311.28,179.09a8.27,8.27,0,0,1-3.21,7q-3.21,2.42-9.6,2.42a29.71,29.71,0,0,1-5.59-.45,20.88,20.88,0,0,1-4.32-1.3V180a27.84,27.84,0,0,0,5.14,1.8,20.59,20.59,0,0,0,5,.73q4.45,0,4.46-2.58a2.12,2.12,0,0,0-.6-1.57,8.2,8.2,0,0,0-2-1.37c-1-.51-2.25-1.11-3.86-1.79a24.09,24.09,0,0,1-5.09-2.68,7.62,7.62,0,0,1-2.37-2.84,9.35,9.35,0,0,1-.73-3.93,7.12,7.12,0,0,1,3.1-6.19q3.11-2.19,8.79-2.19A25.06,25.06,0,0,1,311,159.78l-2.47,5.91c-1.51-.64-2.91-1.17-4.22-1.58a13.31,13.31,0,0,0-4-.62c-2.42,0-3.63.65-3.63,2a2.32,2.32,0,0,0,1.17,1.91,32.56,32.56,0,0,0,5.12,2.39,23.53,23.53,0,0,1,5.15,2.66,7.89,7.89,0,0,1,2.42,2.84A8.77,8.77,0,0,1,311.28,179.09Z"/><path class="cls-2" d="M330.32,188.55q-7.24,0-11.33-4t-4.08-11.33q0-7.54,3.77-11.67t10.44-4.12q6.36,0,9.91,3.63t3.54,10v4H323.21a7.88,7.88,0,0,0,2.07,5.45,7.23,7.23,0,0,0,5.42,2,22.85,22.85,0,0,0,5.13-.56,26.34,26.34,0,0,0,5.05-1.8v6.33a19,19,0,0,1-4.59,1.6A28.91,28.91,0,0,1,330.32,188.55Zm-1.15-25.3a5.18,5.18,0,0,0-4.08,1.65,7.58,7.58,0,0,0-1.69,4.69h11.49a6.8,6.8,0,0,0-1.59-4.69A5.33,5.33,0,0,0,329.17,163.25Z"/><path class="cls-2" d="M369.24,179.09a8.27,8.27,0,0,1-3.21,7q-3.21,2.42-9.6,2.42a29.67,29.67,0,0,1-5.58-.45,21.16,21.16,0,0,1-4.33-1.3V180a28,28,0,0,0,5.15,1.8,20.45,20.45,0,0,0,5,.73q4.46,0,4.46-2.58a2.15,2.15,0,0,0-.59-1.57,8.61,8.61,0,0,0-2-1.37c-1-.51-2.26-1.11-3.87-1.79a24.09,24.09,0,0,1-5.09-2.68,7.59,7.59,0,0,1-2.36-2.84,9.19,9.19,0,0,1-.74-3.93,7.12,7.12,0,0,1,3.1-6.19q3.1-2.19,8.8-2.19a25,25,0,0,1,10.55,2.36l-2.47,5.91c-1.5-.64-2.91-1.17-4.22-1.58a13.26,13.26,0,0,0-4-.62c-2.42,0-3.62.65-3.62,2a2.32,2.32,0,0,0,1.17,1.91,32.3,32.3,0,0,0,5.11,2.39,23.41,23.41,0,0,1,5.16,2.66,7.86,7.86,0,0,1,2.41,2.84A8.77,8.77,0,0,1,369.24,179.09Z"/><path class="cls-3" d="M407.23,188l-2-4H405a12,12,0,0,1-4.33,3.6,14.3,14.3,0,0,1-5.69,1,8.94,8.94,0,0,1-6.77-2.58q-2.47-2.58-2.47-7.25c0-3.24,1.13-5.66,3.38-7.24s5.53-2.48,9.81-2.67l5.07-.16v-.43q0-3.76-3.7-3.76a22.21,22.21,0,0,0-8.46,2.25l-3-6.93q5.32-2.73,13.43-2.74c3.9,0,6.93,1,9.06,2.91s3.21,4.63,3.21,8.11V188Zm-7.79-6.88a4.74,4.74,0,0,0,3.26-1.2,4,4,0,0,0,1.36-3.15v-2.36l-2.42.11c-3.46.12-5.18,1.39-5.18,3.81C396.46,180.2,397.45,181.13,399.44,181.13Z"/><path class="cls-3" d="M439.08,157a15.66,15.66,0,0,1,2.61.22l.59.11-.94,9.91a15.09,15.09,0,0,0-3.57-.33c-2.3,0-4,.53-5,1.58a6.13,6.13,0,0,0-1.56,4.52v15h-10.5V157.58h7.82l1.64,4.86h.51a10.46,10.46,0,0,1,3.66-3.9A8.75,8.75,0,0,1,439.08,157Z"/><path class="cls-3" d="M460.49,180.25a15.63,15.63,0,0,0,5.08-1.05v7.65a20.85,20.85,0,0,1-4.05,1.31,22.81,22.81,0,0,1-4.49.39q-5.29,0-7.63-2.6c-1.56-1.72-2.34-4.38-2.34-8V165.45h-3.68v-4.27l4.68-3.3,2.71-6.39h6.87v6.09h7.47v7.87h-7.47v11.84C457.64,179.26,458.59,180.25,460.49,180.25Z"/><path class="cls-3" d="M469.73,150a4.43,4.43,0,0,1,1.32-3.52,8.35,8.35,0,0,1,8.51,0,4.39,4.39,0,0,1,1.35,3.49q0,4.62-5.62,4.62C471.59,154.63,469.73,153.09,469.73,150Zm10.77,38H470V157.58h10.5Z"/><path class="cls-3" d="M505.48,165.45H499V188h-10.5V165.45h-4v-5.16l4.24-2.57v-.51c0-4,.82-6.9,2.46-8.65s4.27-2.63,7.88-2.63a22.89,22.89,0,0,1,4,.32,30.43,30.43,0,0,1,4.33,1.13l-2.25,6.79a14,14,0,0,0-3.79-.54,2.07,2.07,0,0,0-1.76.74,4.18,4.18,0,0,0-.55,2.41v.8h6.47ZM509.4,150a4.43,4.43,0,0,1,1.32-3.52,8.35,8.35,0,0,1,8.51,0,4.39,4.39,0,0,1,1.35,3.49q0,4.62-5.62,4.62C511.26,154.63,509.4,153.09,509.4,150Zm10.77,38h-10.5V157.58h10.5Z"/><path class="cls-3" d="M540.4,188.55q-7.47,0-11.32-4t-3.85-11.58q0-7.58,4.16-11.73T541.23,157a22.22,22.22,0,0,1,10,2.31l-3.09,7.77a32.6,32.6,0,0,0-3.52-1.33,11.34,11.34,0,0,0-3.36-.5,4.52,4.52,0,0,0-3.94,2,9.57,9.57,0,0,0-1.4,5.61q0,7.31,5.4,7.3a16.32,16.32,0,0,0,8.86-2.68v8.35A17.25,17.25,0,0,1,540.4,188.55Z"/><path class="cls-3" d="M555,150a4.43,4.43,0,0,1,1.32-3.52,8.35,8.35,0,0,1,8.51,0,4.39,4.39,0,0,1,1.34,3.49q0,4.62-5.61,4.62T555,150Zm10.77,38h-10.5V157.58h10.5Z"/><path class="cls-3" d="M592.05,188l-2-4h-.22a11.91,11.91,0,0,1-4.32,3.6,14.37,14.37,0,0,1-5.69,1A8.93,8.93,0,0,1,573,186q-2.47-2.58-2.47-7.25c0-3.24,1.13-5.66,3.38-7.24s5.53-2.48,9.81-2.67l5.07-.16v-.43c0-2.51-1.23-3.76-3.71-3.76a22.13,22.13,0,0,0-8.45,2.25l-3-6.93q5.32-2.73,13.43-2.74,5.85,0,9.06,2.91t3.21,8.11V188Zm-7.78-6.88a4.76,4.76,0,0,0,3.26-1.2,4,4,0,0,0,1.35-3.15v-2.36l-2.41.11c-3.46.12-5.18,1.39-5.18,3.81C581.29,180.2,582.28,181.13,584.27,181.13Z"/><path class="cls-3" d="M616,188h-10.5V146.22H616Z"/><path class="cls-3" d="M635.52,150a4.43,4.43,0,0,1,1.32-3.52,8.35,8.35,0,0,1,8.51,0,4.42,4.42,0,0,1,1.34,3.49q0,4.62-5.61,4.62T635.52,150Zm10.77,38h-10.5V157.58h10.5Z"/><path class="cls-3" d="M671.89,188v-16.6a9.43,9.43,0,0,0-.88-4.58,3,3,0,0,0-2.8-1.54,4.07,4.07,0,0,0-3.84,2.12c-.79,1.42-1.18,3.84-1.18,7.28V188h-10.5V157.58h7.92l1.31,3.76h.62a8.34,8.34,0,0,1,3.72-3.22,13.12,13.12,0,0,1,5.47-1.08q5,0,7.85,2.93t2.81,8.25V188Z"/><path class="cls-3" d="M703.5,180.25a15.58,15.58,0,0,0,5.08-1.05v7.65a21,21,0,0,1-4,1.31,22.84,22.84,0,0,1-4.5.39q-5.29,0-7.63-2.6c-1.56-1.72-2.34-4.38-2.34-8V165.45h-3.68v-4.27l4.68-3.3,2.71-6.39h6.87v6.09h7.47v7.87h-7.47v11.84C700.65,179.26,701.6,180.25,703.5,180.25Z"/><path class="cls-3" d="M727.65,188.55q-7.6,0-11.8-4.05T711.64,173q0-7.71,3.9-11.83T726.66,157q6.87,0,10.62,3.59T741,171v4.67H722.25a5.22,5.22,0,0,0,1.87,4,7.29,7.29,0,0,0,4.79,1.45,23.08,23.08,0,0,0,5.09-.52,25.43,25.43,0,0,0,5-1.79v7.55a18.5,18.5,0,0,1-5.11,1.74A35.42,35.42,0,0,1,727.65,188.55ZM727,164.19a4.36,4.36,0,0,0-3.1,1.17,5.46,5.46,0,0,0-1.46,3.66h9a5.24,5.24,0,0,0-1.25-3.52A4.14,4.14,0,0,0,727,164.19Z"/><path class="cls-3" d="M756.52,188H746V146.22h10.5Z"/><path class="cls-3" d="M773.37,188h-10.5V146.22h10.5Z"/><path class="cls-3" d="M779.49,150a4.43,4.43,0,0,1,1.32-3.52,8.35,8.35,0,0,1,8.51,0,4.39,4.39,0,0,1,1.35,3.49q0,4.62-5.62,4.62C781.35,154.63,779.49,153.09,779.49,150Zm10.77,38h-10.5V157.58h10.5Z"/><path class="cls-3" d="M825.37,157.58v5.08l-4.16,1.53a7.42,7.42,0,0,1,.86,3.62,9.15,9.15,0,0,1-3.45,7.63q-3.47,2.72-10.3,2.71a13.59,13.59,0,0,1-2.69-.21,2.77,2.77,0,0,0-.38,1.31c0,.52.43.92,1.27,1.2a10.68,10.68,0,0,0,3.3.42h5q10.23,0,10.23,8.62a9.76,9.76,0,0,1-4.74,8.64q-4.74,3.09-13.31,3.09-6.46,0-10-2.16a6.89,6.89,0,0,1-3.51-6.22q0-5.44,6.77-7a6.15,6.15,0,0,1-2.43-1.91,4.11,4.11,0,0,1-.26-5.12,11.87,11.87,0,0,1,3.25-2.59,8.12,8.12,0,0,1-3.71-3.27,10.23,10.23,0,0,1-1.36-5.43,9.38,9.38,0,0,1,3.38-7.71q3.39-2.73,9.67-2.74c.56,0,1.51.07,2.87.19s2.37.24,3,.35ZM802.44,191.8a2.35,2.35,0,0,0,1.39,2.08,7.54,7.54,0,0,0,3.73.79,16.31,16.31,0,0,0,6.11-.95c1.54-.64,2.3-1.46,2.3-2.46a1.78,1.78,0,0,0-1.4-1.71,12.53,12.53,0,0,0-4-.49h-4.11a5,5,0,0,0-2.86.79A2.3,2.3,0,0,0,802.44,191.8Zm3.3-24.26q0,4.68,3.25,4.68a2.69,2.69,0,0,0,2.32-1.16,6,6,0,0,0,.82-3.46q0-4.72-3.14-4.73T805.74,167.54Z"/><path class="cls-3" d="M843.74,188.55q-7.59,0-11.8-4.05t-4.2-11.5q0-7.71,3.89-11.83T842.75,157q6.87,0,10.62,3.59T857.12,171v4.67H838.35a5.21,5.21,0,0,0,1.86,4,7.3,7.3,0,0,0,4.8,1.45,23.15,23.15,0,0,0,5.09-.52,25.58,25.58,0,0,0,5-1.79v7.55a18.55,18.55,0,0,1-5.1,1.74A35.54,35.54,0,0,1,843.74,188.55Zm-.62-24.36a4.38,4.38,0,0,0-3.1,1.17,5.46,5.46,0,0,0-1.46,3.66h9a5.24,5.24,0,0,0-1.24-3.52A4.16,4.16,0,0,0,843.12,164.19Z"/><path class="cls-3" d="M881.32,188v-16.6a9.56,9.56,0,0,0-.87-4.58,3,3,0,0,0-2.81-1.54,4.07,4.07,0,0,0-3.84,2.12c-.79,1.42-1.18,3.84-1.18,7.28V188h-10.5V157.58H870l1.32,3.76H872a8.34,8.34,0,0,1,3.72-3.22,13.12,13.12,0,0,1,5.47-1.08q5,0,7.85,2.93t2.81,8.25V188Z"/><path class="cls-3" d="M911.88,188.55c-5,0-8.75-1.35-11.31-4s-3.86-6.55-3.86-11.58,1.39-9,4.17-11.73S907.6,157,912.72,157a22.14,22.14,0,0,1,10,2.31l-3.09,7.77a31.83,31.83,0,0,0-3.52-1.33,11.32,11.32,0,0,0-3.35-.5,4.54,4.54,0,0,0-4,2,9.65,9.65,0,0,0-1.4,5.61q0,7.31,5.4,7.3a16.32,16.32,0,0,0,8.86-2.68v8.35A17.25,17.25,0,0,1,911.88,188.55Z"/><path class="cls-3" d="M941.43,188.55q-7.59,0-11.8-4.05t-4.2-11.5q0-7.71,3.89-11.83T940.44,157q6.87,0,10.62,3.59T954.8,171v4.67H936a5.25,5.25,0,0,0,1.87,4,7.29,7.29,0,0,0,4.79,1.45,23.08,23.08,0,0,0,5.09-.52,25.43,25.43,0,0,0,5-1.79v7.55a18.5,18.5,0,0,1-5.11,1.74A35.34,35.34,0,0,1,941.43,188.55Zm-.62-24.36a4.36,4.36,0,0,0-3.1,1.17,5.46,5.46,0,0,0-1.46,3.66h9A5.19,5.19,0,0,0,944,165.5,4.12,4.12,0,0,0,940.81,164.19Z"/><path class="cls-2" d="M141,248a17.7,17.7,0,0,0,5.16-.94v6.1a18.47,18.47,0,0,1-7.52,1.37q-4.92,0-7.16-2.49c-1.5-1.65-2.24-4.14-2.24-7.45V230.13h-3.92v-3.46l4.51-2.74,2.36-6.34h5.24V224h8.4v6.15h-8.4v14.48a3.19,3.19,0,0,0,1,2.58A3.87,3.87,0,0,0,141,248Z"/><path class="cls-2" d="M178.62,238.94q0,7.34-3.87,11.47T164,254.55a15,15,0,0,1-7.63-1.9,12.54,12.54,0,0,1-5.07-5.44,18.15,18.15,0,0,1-1.78-8.27q0-7.35,3.84-11.44t10.8-4.08a15.22,15.22,0,0,1,7.63,1.88,12.5,12.5,0,0,1,5.07,5.4A18.09,18.09,0,0,1,178.62,238.94Zm-20.76,0c0,3,.48,5.22,1.46,6.74a5.21,5.21,0,0,0,4.77,2.29,5.16,5.16,0,0,0,4.71-2.27q1.44-2.28,1.44-6.76c0-3-.49-5.2-1.45-6.68a6.17,6.17,0,0,0-9.48,0Q157.86,234.46,157.86,238.94Z"/><path class="cls-2" d="M214.4,230.13h-7.09V254h-8.19V230.13H194.6v-3.94l4.52-2.21v-2.2c0-3.42.84-5.91,2.52-7.49s4.38-2.36,8.08-2.36a21.08,21.08,0,0,1,7.55,1.26l-2.1,6a15.45,15.45,0,0,0-4.56-.77,3,3,0,0,0-2.53,1,4.33,4.33,0,0,0-.77,2.64V224h7.09Zm4.35-13.91c0-2.66,1.48-4,4.46-4s4.45,1.34,4.45,4a3.91,3.91,0,0,1-1.11,3,4.68,4.68,0,0,1-3.34,1.06C220.23,220.25,218.75,218.91,218.75,216.22ZM227.29,254H219.1V224h8.19Z"/><path class="cls-2" d="M262.63,254h-8.19V236.47a8.42,8.42,0,0,0-1.15-4.87,4.19,4.19,0,0,0-3.68-1.63,5.54,5.54,0,0,0-5,2.3q-1.53,2.29-1.53,7.61V254h-8.19V224h6.26l1.1,3.85h.45a8.65,8.65,0,0,1,3.78-3.29,12.72,12.72,0,0,1,5.46-1.12c3.49,0,6.14,1,8,2.83s2.71,4.62,2.71,8.18Z"/><path class="cls-2" d="M279.64,254.55a9.74,9.74,0,0,1-8.31-4.11q-3-4.11-3-11.39t3.08-11.51a10,10,0,0,1,8.47-4.12,9.8,9.8,0,0,1,8.65,4.41h.27a33.75,33.75,0,0,1-.62-6v-9.62h8.22V254h-6.29l-1.58-3.89h-.35A9.38,9.38,0,0,1,279.64,254.55Zm2.87-6.53a5.55,5.55,0,0,0,4.61-1.83q1.45-1.81,1.59-6.2v-.89c0-3.22-.49-5.53-1.49-6.92s-2.6-2.1-4.84-2.1a4.82,4.82,0,0,0-4.26,2.32,12.42,12.42,0,0,0-1.52,6.76c0,3,.51,5.17,1.53,6.64A5,5,0,0,0,282.51,248Z"/><path class="cls-2" d="M336.42,254l-1.58-4.08h-.22a12.22,12.22,0,0,1-4.25,3.61,13.81,13.81,0,0,1-5.71,1,9.27,9.27,0,0,1-6.81-2.47c-1.66-1.65-2.48-4-2.48-7s1.11-5.54,3.34-7,5.59-2.35,10.08-2.51l5.21-.16V234c0-3-1.55-4.56-4.67-4.56a21.28,21.28,0,0,0-8.46,2.17l-2.71-5.53a24.38,24.38,0,0,1,11.49-2.71c4,0,7.12.87,9.27,2.63s3.22,4.42,3.22,8v20ZM334,240.1l-3.17.11a10.18,10.18,0,0,0-5.31,1.28,4,4,0,0,0-1.75,3.6q0,3.47,4,3.47a6.32,6.32,0,0,0,4.55-1.64,5.73,5.73,0,0,0,1.7-4.35Z"/><path class="cls-2" d="M377.35,254h-8.19V236.47A8.42,8.42,0,0,0,368,231.6a4.19,4.19,0,0,0-3.68-1.63,5.54,5.54,0,0,0-5,2.3q-1.53,2.29-1.53,7.61V254h-8.19V224h6.26l1.1,3.85h.45a8.65,8.65,0,0,1,3.78-3.29,12.72,12.72,0,0,1,5.46-1.12c3.49,0,6.14,1,7.95,2.83s2.71,4.62,2.71,8.18Z"/><path class="cls-2" d="M394.36,254.55a9.74,9.74,0,0,1-8.31-4.11q-3-4.11-3-11.39t3.08-11.51a10,10,0,0,1,8.47-4.12,9.8,9.8,0,0,1,8.65,4.41h.27a33.75,33.75,0,0,1-.62-6v-9.62h8.22V254H404.8l-1.58-3.89h-.35A9.38,9.38,0,0,1,394.36,254.55Zm2.87-6.53a5.55,5.55,0,0,0,4.61-1.83q1.46-1.81,1.59-6.2v-.89c0-3.22-.49-5.53-1.49-6.92s-2.61-2.1-4.84-2.1a4.82,4.82,0,0,0-4.26,2.32,12.42,12.42,0,0,0-1.52,6.76c0,3,.51,5.17,1.53,6.64A5,5,0,0,0,397.23,248Z"/><path class="cls-3" d="M449.66,254.55A9.52,9.52,0,0,1,441.9,251h-.48a38.83,38.83,0,0,1,.48,4v12.22H431.4V223.58h8.54l1.48,3.87h.48a9.6,9.6,0,0,1,16-.22q2.86,4.2,2.87,11.5t-3,11.59A9.46,9.46,0,0,1,449.66,254.55Zm-3.52-23.26a3.39,3.39,0,0,0-3.23,1.65,10.88,10.88,0,0,0-1,4.9v.83q0,3.93,1.05,5.67a3.58,3.58,0,0,0,3.3,1.75,3.08,3.08,0,0,0,2.93-1.74,13.07,13.07,0,0,0,.91-5.73,12.71,12.71,0,0,0-.91-5.63A3.18,3.18,0,0,0,446.14,231.29Z"/><path class="cls-3" d="M484.2,223a15.57,15.57,0,0,1,2.61.22l.59.11-.94,9.91a15.09,15.09,0,0,0-3.57-.33q-3.43,0-5,1.58a6.13,6.13,0,0,0-1.56,4.52v15h-10.5V223.58h7.82l1.64,4.86h.51a10.46,10.46,0,0,1,3.66-3.9A8.75,8.75,0,0,1,484.2,223Z"/><path class="cls-3" d="M519.77,238.73q0,7.47-4,11.64t-11.24,4.18q-6.93,0-11-4.27t-4.1-11.55q0-7.44,4-11.56T504.67,223A16.13,16.13,0,0,1,512.6,225a13,13,0,0,1,5.3,5.47A17.68,17.68,0,0,1,519.77,238.73Zm-19.72,0a13.47,13.47,0,0,0,1.05,6,3.65,3.65,0,0,0,3.52,2.06,3.54,3.54,0,0,0,3.45-2.06,14,14,0,0,0,1-6,13.25,13.25,0,0,0-1-5.88,4,4,0,0,0-7,0A13,13,0,0,0,500.05,238.73Z"/><path class="cls-3" d="M562.18,254V237.47a10,10,0,0,0-.85-4.64,2.82,2.82,0,0,0-2.67-1.54,3.76,3.76,0,0,0-3.55,2.07c-.75,1.38-1.13,3.53-1.13,6.47V254H543.46V237.47a10.34,10.34,0,0,0-.81-4.64,2.72,2.72,0,0,0-2.6-1.54,3.77,3.77,0,0,0-3.6,2.2q-1.12,2.2-1.13,7.2V254h-10.5V223.58h7.92l1.32,3.76h.62a7.81,7.81,0,0,1,3.5-3.19A11.84,11.84,0,0,1,543.4,223q6.58,0,9.24,4h.83a8.52,8.52,0,0,1,3.59-2.94,11.89,11.89,0,0,1,5.06-1.07c3.6,0,6.26.93,8,2.77s2.58,4.65,2.58,8.41V254Z"/><path class="cls-3" d="M607.94,238.73q0,7.47-4,11.64t-11.24,4.18q-6.93,0-11-4.27t-4.09-11.55q0-7.44,4-11.56T592.85,223a16.06,16.06,0,0,1,7.92,1.91,13,13,0,0,1,5.3,5.47A17.56,17.56,0,0,1,607.94,238.73Zm-19.71,0a13.47,13.47,0,0,0,1,6,3.63,3.63,0,0,0,3.51,2.06,3.56,3.56,0,0,0,3.46-2.06,14,14,0,0,0,1-6,13.25,13.25,0,0,0-1-5.88,4,4,0,0,0-7,0A13,13,0,0,0,588.23,238.73Z"/><path class="cls-3" d="M627.9,246.25A15.53,15.53,0,0,0,633,245.2v7.65a20.55,20.55,0,0,1-4,1.31,22.81,22.81,0,0,1-4.49.39q-5.3,0-7.63-2.6c-1.56-1.72-2.34-4.38-2.34-8V231.45h-3.68v-4.27l4.67-3.3,2.72-6.39h6.87v6.09h7.47v7.87h-7.47v11.84C625.05,245.26,626,246.25,627.9,246.25Z"/><path class="cls-3" d="M652.05,254.55q-7.6,0-11.8-4.05T636,239q0-7.71,3.9-11.83T651.05,223q6.88,0,10.63,3.59T665.42,237v4.67H646.65a5.19,5.19,0,0,0,1.87,4,7.29,7.29,0,0,0,4.79,1.45,23.15,23.15,0,0,0,5.09-.52,25.43,25.43,0,0,0,5-1.79v7.55a18.5,18.5,0,0,1-5.11,1.74A35.42,35.42,0,0,1,652.05,254.55Zm-.62-24.36a4.36,4.36,0,0,0-3.1,1.17,5.46,5.46,0,0,0-1.46,3.66h9a5.24,5.24,0,0,0-1.25-3.52A4.15,4.15,0,0,0,651.43,230.19Z"/><path class="cls-2" d="M141,314a17.7,17.7,0,0,0,5.16-.94v6.1a18.47,18.47,0,0,1-7.52,1.37q-4.92,0-7.16-2.49c-1.5-1.65-2.24-4.14-2.24-7.45V296.13h-3.92v-3.46l4.51-2.74,2.36-6.34h5.24V290h8.4v6.15h-8.4v14.48a3.19,3.19,0,0,0,1,2.58A3.87,3.87,0,0,0,141,314Z"/><path class="cls-2" d="M179,320h-8.19V302.47q0-6.5-4.83-6.5a5.5,5.5,0,0,0-5,2.34q-1.53,2.34-1.53,7.57V320h-8.19V278.22h8.19v8.52c0,.66-.06,2.22-.19,4.67l-.19,2.42h.43q2.75-4.41,8.71-4.41c3.52,0,6.2.95,8,2.85s2.74,4.62,2.74,8.16Z"/><path class="cls-2" d="M200.13,320.55q-7.24,0-11.33-4t-4.08-11.33q0-7.54,3.77-11.67t10.43-4.12q6.38,0,9.91,3.63t3.55,10v4H193a7.88,7.88,0,0,0,2.07,5.45,7.27,7.27,0,0,0,5.43,2,22.92,22.92,0,0,0,5.13-.56,26.34,26.34,0,0,0,5.05-1.8v6.33a19.27,19.27,0,0,1-4.6,1.6A28.8,28.8,0,0,1,200.13,320.55ZM199,295.25a5.22,5.22,0,0,0-4.09,1.65,7.71,7.71,0,0,0-1.69,4.69h11.5a6.85,6.85,0,0,0-1.59-4.69A5.36,5.36,0,0,0,199,295.25Z"/><path class="cls-2" d="M256.13,320l-2.31-10.5-3.11-13.27h-.19L245,320h-8.81l-8.54-30h8.17l3.46,13.3q.84,3.57,1.69,9.85h.17a53.94,53.94,0,0,1,.94-6.47l.42-2.28,3.71-14.4h9l3.51,14.4c.07.39.19,1,.34,1.74s.3,1.59.44,2.46.27,1.72.39,2.55.18,1.5.2,2h.16c.16-1.29.45-3.05.86-5.3s.71-3.76.89-4.55l3.6-13.3h8l-8.65,30Z"/><path class="cls-2" d="M304.88,304.94q0,7.33-3.86,11.47t-10.77,4.14a15,15,0,0,1-7.63-1.9,12.57,12.57,0,0,1-5.08-5.44,18.28,18.28,0,0,1-1.77-8.27q0-7.35,3.84-11.44t10.8-4.08A15.16,15.16,0,0,1,298,291.3a12.46,12.46,0,0,1,5.08,5.4A18.09,18.09,0,0,1,304.88,304.94Zm-20.76,0c0,3,.49,5.22,1.47,6.74a6.07,6.07,0,0,0,9.48,0q1.43-2.28,1.43-6.76t-1.45-6.68a6.17,6.17,0,0,0-9.48,0C284.61,299.72,284.12,302,284.12,304.94Z"/><path class="cls-2" d="M327.47,289.42a13.38,13.38,0,0,1,2.77.24l-.62,7.68a9.34,9.34,0,0,0-2.42-.27,8.71,8.71,0,0,0-6.11,2,7.27,7.27,0,0,0-2.18,5.64V320h-8.2V290h6.21l1.21,5h.4A11.34,11.34,0,0,1,322.3,291,9.4,9.4,0,0,1,327.47,289.42Z"/><path class="cls-2" d="M343,320h-8.19V278.22H343Z"/><path class="cls-2" d="M360.11,320.55a9.74,9.74,0,0,1-8.31-4.11q-3-4.11-3-11.39t3.07-11.51a10,10,0,0,1,8.48-4.12,9.78,9.78,0,0,1,8.64,4.41h.27a33.75,33.75,0,0,1-.62-6v-9.62h8.22V320h-6.28L369,316.12h-.35A9.37,9.37,0,0,1,360.11,320.55ZM363,314a5.53,5.53,0,0,0,4.6-1.83q1.47-1.81,1.6-6.2v-.89q0-4.83-1.49-6.92t-4.85-2.1a4.85,4.85,0,0,0-4.26,2.32q-1.51,2.33-1.51,6.76c0,2.95.51,5.17,1.53,6.64A5,5,0,0,0,363,314Z"/><path class="cls-2" d="M391.08,280.75l.38.59a82.87,82.87,0,0,1-4.73,12.86h-5.88q1.84-7.95,2.69-13.45Z"/><path class="cls-2" d="M416.41,311.09a8.27,8.27,0,0,1-3.21,7q-3.21,2.42-9.6,2.42a29.78,29.78,0,0,1-5.59-.45,20.88,20.88,0,0,1-4.32-1.3V312a28.1,28.1,0,0,0,5.14,1.8,20.59,20.59,0,0,0,5,.73q4.45,0,4.46-2.58a2.15,2.15,0,0,0-.59-1.57,8.61,8.61,0,0,0-2-1.37c-1-.51-2.26-1.11-3.87-1.79a24.09,24.09,0,0,1-5.09-2.68,7.59,7.59,0,0,1-2.36-2.84,9.19,9.19,0,0,1-.74-3.93,7.12,7.12,0,0,1,3.1-6.19q3.11-2.19,8.79-2.19a25.06,25.06,0,0,1,10.56,2.36l-2.47,5.91c-1.51-.64-2.91-1.17-4.22-1.58a13.31,13.31,0,0,0-4-.62c-2.42,0-3.63.65-3.63,2a2.32,2.32,0,0,0,1.17,1.91,33,33,0,0,0,5.12,2.39,23.53,23.53,0,0,1,5.15,2.66,7.79,7.79,0,0,1,2.42,2.84A8.77,8.77,0,0,1,416.41,311.09Z"/><path class="cls-2" d="M461.35,290v4.17l-4.7,1.21a8.16,8.16,0,0,1,1.29,4.51,9.1,9.1,0,0,1-3.37,7.53q-3.37,2.7-9.36,2.7l-1.48-.08-1.21-.14a2.75,2.75,0,0,0-1.26,2.15c0,1.18,1.51,1.78,4.51,1.78h5.11c3.29,0,5.8.7,7.53,2.12a7.57,7.57,0,0,1,2.59,6.23,9.22,9.22,0,0,1-4.39,8.16q-4.39,2.9-12.61,2.9-6.28,0-9.6-2.19a7,7,0,0,1-3.32-6.13,6.43,6.43,0,0,1,1.7-4.54,9.56,9.56,0,0,1,5-2.61,5.4,5.4,0,0,1-2.2-1.76,4.13,4.13,0,0,1-.94-2.59,4.18,4.18,0,0,1,1-2.86,11.22,11.22,0,0,1,2.87-2.24,8,8,0,0,1-3.75-3.28,10,10,0,0,1-1.38-5.31,9.35,9.35,0,0,1,3.2-7.6q3.19-2.69,9.13-2.69a23.7,23.7,0,0,1,3,.23q1.72.23,2.22.33Zm-23.18,34.27a3,3,0,0,0,1.63,2.66,8.87,8.87,0,0,0,4.55,1,16.17,16.17,0,0,0,6.9-1.21c1.67-.81,2.5-1.91,2.5-3.3a2.34,2.34,0,0,0-1.48-2.34,12,12,0,0,0-4.56-.65h-4.25a6.4,6.4,0,0,0-3.77,1.07A3.26,3.26,0,0,0,438.17,324.25Zm3-24.44a6.14,6.14,0,0,0,1.12,3.87,4,4,0,0,0,3.4,1.42,4,4,0,0,0,3.38-1.42,6.26,6.26,0,0,0,1.07-3.87q0-5.42-4.45-5.42T441.15,299.81Z"/><path class="cls-2" d="M482.11,289.42a13.31,13.31,0,0,1,2.77.24l-.62,7.68a9.31,9.31,0,0,0-2.41-.27,8.69,8.69,0,0,0-6.11,2,7.27,7.27,0,0,0-2.19,5.64V320h-8.19V290h6.2l1.21,5h.4a11.34,11.34,0,0,1,3.77-4.07A9.4,9.4,0,0,1,482.11,289.42Z"/><path class="cls-2" d="M503,320.55c-4.84,0-8.61-1.34-11.34-4s-4.08-6.44-4.08-11.33,1.26-8.92,3.77-11.67,6-4.12,10.44-4.12q6.36,0,9.91,3.63t3.54,10v4H495.87a7.88,7.88,0,0,0,2.07,5.45,7.27,7.27,0,0,0,5.42,2,22.85,22.85,0,0,0,5.13-.56,26.1,26.1,0,0,0,5-1.8v6.33A19,19,0,0,1,509,320,28.87,28.87,0,0,1,503,320.55Zm-1.16-25.3a5.18,5.18,0,0,0-4.08,1.65,7.58,7.58,0,0,0-1.69,4.69h11.49A6.8,6.8,0,0,0,506,296.9,5.37,5.37,0,0,0,501.83,295.25Z"/><path class="cls-2" d="M540,320l-1.58-4.08h-.22a12,12,0,0,1-4.25,3.61,13.78,13.78,0,0,1-5.71,1,9.27,9.27,0,0,1-6.81-2.47q-2.48-2.47-2.48-7,0-4.79,3.34-7.05t10.09-2.51l5.21-.16V300q0-4.56-4.68-4.56a21.32,21.32,0,0,0-8.46,2.17l-2.71-5.53a24.42,24.42,0,0,1,11.5-2.71c4,0,7.11.87,9.26,2.63s3.22,4.42,3.22,8v20Zm-2.41-13.91-3.17.11a10.25,10.25,0,0,0-5.32,1.28,4.06,4.06,0,0,0-1.74,3.6q0,3.46,4,3.47a6.3,6.3,0,0,0,4.55-1.64,5.74,5.74,0,0,0,1.71-4.35Z"/><path class="cls-2" d="M565.89,314a17.7,17.7,0,0,0,5.16-.94v6.1a18.44,18.44,0,0,1-7.52,1.37c-3.28,0-5.66-.83-7.16-2.49s-2.24-4.14-2.24-7.45V296.13h-3.92v-3.46l4.51-2.74,2.36-6.34h5.24V290h8.4v6.15h-8.4v14.48a3.19,3.19,0,0,0,1,2.58A3.89,3.89,0,0,0,565.89,314Z"/><path class="cls-2" d="M589.77,320.55q-7.24,0-11.33-4t-4.08-11.33q0-7.54,3.77-11.67t10.43-4.12q6.36,0,9.91,3.63t3.55,10v4H582.65a7.88,7.88,0,0,0,2.07,5.45,7.27,7.27,0,0,0,5.43,2,22.92,22.92,0,0,0,5.13-.56,26,26,0,0,0,5-1.8v6.33a19,19,0,0,1-4.59,1.6A28.8,28.8,0,0,1,589.77,320.55Zm-1.15-25.3a5.22,5.22,0,0,0-4.09,1.65,7.71,7.71,0,0,0-1.69,4.69h11.5a6.85,6.85,0,0,0-1.59-4.69A5.36,5.36,0,0,0,588.62,295.25Z"/><path class="cls-2" d="M628.69,311.09a8.27,8.27,0,0,1-3.21,7q-3.21,2.42-9.6,2.42a29.78,29.78,0,0,1-5.59-.45,20.88,20.88,0,0,1-4.32-1.3V312a28.1,28.1,0,0,0,5.14,1.8,20.59,20.59,0,0,0,5,.73q4.46,0,4.46-2.58a2.15,2.15,0,0,0-.59-1.57,8.5,8.5,0,0,0-2-1.37c-1-.51-2.25-1.11-3.86-1.79a24.09,24.09,0,0,1-5.09-2.68,7.62,7.62,0,0,1-2.37-2.84,9.35,9.35,0,0,1-.73-3.93,7.12,7.12,0,0,1,3.1-6.19q3.11-2.19,8.79-2.19a25.06,25.06,0,0,1,10.56,2.36l-2.47,5.91c-1.51-.64-2.91-1.17-4.22-1.58a13.31,13.31,0,0,0-4-.62c-2.42,0-3.63.65-3.63,2a2.32,2.32,0,0,0,1.17,1.91,33,33,0,0,0,5.12,2.39,23.53,23.53,0,0,1,5.15,2.66,7.79,7.79,0,0,1,2.42,2.84A8.77,8.77,0,0,1,628.69,311.09Z"/><path class="cls-2" d="M646.79,314a17.59,17.59,0,0,0,5.16-.94v6.1a18.44,18.44,0,0,1-7.52,1.37c-3.27,0-5.66-.83-7.15-2.49s-2.25-4.14-2.25-7.45V296.13h-3.92v-3.46l4.51-2.74,2.37-6.34h5.23V290h8.41v6.15h-8.41v14.48a3.23,3.23,0,0,0,1,2.58A3.91,3.91,0,0,0,646.79,314Z"/><path class="cls-3" d="M707.12,320V303.47a10,10,0,0,0-.84-4.64,2.84,2.84,0,0,0-2.68-1.54,3.75,3.75,0,0,0-3.54,2.07c-.75,1.38-1.13,3.53-1.13,6.47V320H688.4V303.47a10.5,10.5,0,0,0-.8-4.64,2.73,2.73,0,0,0-2.61-1.54,3.78,3.78,0,0,0-3.6,2.2q-1.12,2.2-1.12,7.2V320h-10.5V289.58h7.92l1.31,3.76h.62a7.89,7.89,0,0,1,3.51-3.19,11.84,11.84,0,0,1,5.22-1.11q6.58,0,9.24,4h.83a8.46,8.46,0,0,1,3.59-2.94,11.85,11.85,0,0,1,5.06-1.07c3.6,0,6.26.93,8,2.77s2.58,4.65,2.58,8.41V320Z"/><path class="cls-3" d="M745.5,320l-1.31-3.79h-.62a8.51,8.51,0,0,1-3.67,3.21,12.76,12.76,0,0,1-5.52,1.12c-3.34,0-6-1-7.81-2.92s-2.79-4.68-2.79-8.23V289.58h10.5v16.63a9.62,9.62,0,0,0,.84,4.51,2.94,2.94,0,0,0,2.78,1.53,4,4,0,0,0,3.87-2.14q1.15-2.13,1.16-7.21V289.58h10.5V320Z"/><path class="cls-3" d="M783.24,310.66q0,4.89-3.33,7.39t-9.56,2.5a41.56,41.56,0,0,1-5.88-.37,24.32,24.32,0,0,1-5.1-1.33v-8.4a30.51,30.51,0,0,0,5.35,1.77,22.44,22.44,0,0,0,5.2.7c2.27,0,3.41-.52,3.41-1.56a1.78,1.78,0,0,0-1-1.44,45.12,45.12,0,0,0-5.55-2.45,13.85,13.85,0,0,1-5.85-3.91,8.91,8.91,0,0,1-1.67-5.55,7.66,7.66,0,0,1,3.28-6.6q3.27-2.37,9.26-2.37a23.36,23.36,0,0,1,5.66.66,34.05,34.05,0,0,1,5.49,1.92l-2.85,6.77a31.77,31.77,0,0,0-4.43-1.6,14.73,14.73,0,0,0-3.81-.66c-1.72,0-2.58.43-2.58,1.27a1.58,1.58,0,0,0,.9,1.33,50.89,50.89,0,0,0,5.19,2.24,20.21,20.21,0,0,1,4.77,2.58,7.69,7.69,0,0,1,2.31,3A10.48,10.48,0,0,1,783.24,310.66Z"/><path class="cls-3" d="M787.92,282a4.46,4.46,0,0,1,1.31-3.52,8.37,8.37,0,0,1,8.52,0,4.42,4.42,0,0,1,1.34,3.49q0,4.62-5.61,4.62T787.92,282Zm10.77,38h-10.5V289.58h10.5Z"/><path class="cls-3" d="M818.94,320.55q-7.47,0-11.32-4t-3.85-11.58q0-7.57,4.16-11.73T819.77,289a22.22,22.22,0,0,1,10,2.31l-3.09,7.77a32.6,32.6,0,0,0-3.52-1.33,11.39,11.39,0,0,0-3.36-.5,4.55,4.55,0,0,0-3.95,2,9.65,9.65,0,0,0-1.39,5.61q0,7.31,5.4,7.3a16.32,16.32,0,0,0,8.86-2.68v8.35A17.25,17.25,0,0,1,818.94,320.55Z"/><path class="cls-3" d="M833.58,282a4.43,4.43,0,0,1,1.32-3.52,8.35,8.35,0,0,1,8.51,0,4.39,4.39,0,0,1,1.34,3.49q0,4.62-5.61,4.62C835.44,286.63,833.58,285.09,833.58,282Zm10.77,38h-10.5V289.58h10.5Z"/><path class="cls-3" d="M870.59,320l-2-4h-.21a12,12,0,0,1-4.33,3.6,14.34,14.34,0,0,1-5.69,1,8.93,8.93,0,0,1-6.77-2.58q-2.48-2.58-2.47-7.25c0-3.24,1.13-5.66,3.38-7.24s5.53-2.48,9.81-2.67l5.07-.16v-.43q0-3.77-3.7-3.76a22.17,22.17,0,0,0-8.46,2.25l-3-6.93Q857.5,289,865.6,289q5.85,0,9.06,2.91t3.21,8.11V320Zm-7.78-6.88a4.76,4.76,0,0,0,3.26-1.2,4,4,0,0,0,1.36-3.15v-2.36l-2.42.11c-3.46.12-5.18,1.39-5.18,3.81C859.83,312.2,860.82,313.13,862.81,313.13Z"/><path class="cls-3" d="M903.28,320v-16.6a9.56,9.56,0,0,0-.87-4.58,3,3,0,0,0-2.81-1.54,4.07,4.07,0,0,0-3.84,2.12c-.79,1.42-1.18,3.84-1.18,7.28V320h-10.5V289.58H892l1.32,3.76h.62a8.24,8.24,0,0,1,3.72-3.22,13,13,0,0,1,5.46-1.08q5.05,0,7.86,2.93t2.8,8.25V320Z"/><path class="cls-3" d="M943.49,310.66q0,4.89-3.33,7.39t-9.56,2.5a41.56,41.56,0,0,1-5.88-.37,24.32,24.32,0,0,1-5.1-1.33v-8.4a30.51,30.51,0,0,0,5.35,1.77,22.44,22.44,0,0,0,5.2.7c2.27,0,3.41-.52,3.41-1.56a1.78,1.78,0,0,0-1-1.44,45.12,45.12,0,0,0-5.55-2.45,13.85,13.85,0,0,1-5.85-3.91,8.91,8.91,0,0,1-1.67-5.55,7.66,7.66,0,0,1,3.28-6.6q3.27-2.37,9.26-2.37a23.36,23.36,0,0,1,5.66.66,34.05,34.05,0,0,1,5.49,1.92l-2.85,6.77a31.77,31.77,0,0,0-4.43-1.6,14.73,14.73,0,0,0-3.81-.66c-1.72,0-2.58.43-2.58,1.27a1.58,1.58,0,0,0,.9,1.33,50.89,50.89,0,0,0,5.19,2.24,20.21,20.21,0,0,1,4.77,2.58,7.69,7.69,0,0,1,2.31,3A10.48,10.48,0,0,1,943.49,310.66Z"/><path class="cls-3" d="M947.07,315.55a4.88,4.88,0,0,1,1.46-3.81,6.07,6.07,0,0,1,4.26-1.35,5.71,5.71,0,0,1,4.08,1.35,5,5,0,0,1,1.42,3.81,4.9,4.9,0,0,1-1.46,3.77,5.71,5.71,0,0,1-4,1.36,6.15,6.15,0,0,1-4.19-1.34A4.78,4.78,0,0,1,947.07,315.55Z"/><path class="cls-2" d="M167.28,452H157.8l-5.32-20.63c-.2-.73-.53-2.25-1-4.55s-.75-3.84-.82-4.63c-.1,1-.37,2.52-.8,4.66s-.76,3.66-1,4.58L143.56,452h-9.45l-10-39.26h8.19l5,21.43q1.31,5.93,1.9,10.28c.11-1,.36-2.6.74-4.74s.75-3.8,1.09-5l5.72-22h7.87l5.72,22c.25,1,.56,2.49.94,4.51s.66,3.76.86,5.21c.18-1.39.46-3.13.86-5.22s.75-3.77,1.07-5.06l5-21.43h8.19Z"/><path class="cls-2" d="M199.7,452l-1.59-4.08h-.21a12.16,12.16,0,0,1-4.26,3.61,13.78,13.78,0,0,1-5.71,1,9.23,9.23,0,0,1-6.8-2.47q-2.49-2.47-2.49-7,0-4.79,3.35-7.05c2.22-1.51,5.59-2.35,10.08-2.51l5.21-.16V432q0-4.56-4.67-4.56a21.28,21.28,0,0,0-8.46,2.17l-2.72-5.53a24.42,24.42,0,0,1,11.5-2.71c4,0,7.11.87,9.26,2.63s3.23,4.42,3.23,8v20Zm-2.42-13.91-3.17.11a10.25,10.25,0,0,0-5.32,1.28,4.06,4.06,0,0,0-1.74,3.6q0,3.46,4,3.47a6.29,6.29,0,0,0,4.55-1.64,5.74,5.74,0,0,0,1.71-4.35Z"/><path class="cls-2" d="M240.63,452h-8.19V434.47a8.41,8.41,0,0,0-1.16-4.87A4.18,4.18,0,0,0,227.6,428a5.52,5.52,0,0,0-5,2.3q-1.53,2.3-1.53,7.61V452h-8.2V422h6.26l1.1,3.85h.46a8.63,8.63,0,0,1,3.77-3.29,12.76,12.76,0,0,1,5.47-1.12c3.49,0,6.14.95,7.95,2.83s2.71,4.62,2.71,8.18Z"/><path class="cls-2" d="M260.78,446a17.59,17.59,0,0,0,5.15-.94v6.1a18.44,18.44,0,0,1-7.52,1.37c-3.27,0-5.66-.83-7.15-2.49s-2.25-4.14-2.25-7.45V428.13h-3.92v-3.46l4.51-2.74,2.37-6.34h5.23V422h8.41v6.15H257.2v14.48a3.23,3.23,0,0,0,1,2.58A3.92,3.92,0,0,0,260.78,446Z"/><path class="cls-2" d="M297.07,446a17.59,17.59,0,0,0,5.15-.94v6.1a18.41,18.41,0,0,1-7.52,1.37c-3.27,0-5.66-.83-7.15-2.49s-2.25-4.14-2.25-7.45V428.13h-3.92v-3.46l4.52-2.74,2.36-6.34h5.24V422h8.4v6.15h-8.4v14.48a3.19,3.19,0,0,0,1,2.58A3.87,3.87,0,0,0,297.07,446Z"/><path class="cls-2" d="M334.64,436.94q0,7.33-3.86,11.47T320,452.55a15,15,0,0,1-7.63-1.9,12.62,12.62,0,0,1-5.08-5.44,18.28,18.28,0,0,1-1.77-8.27q0-7.35,3.84-11.44t10.8-4.08a15.16,15.16,0,0,1,7.62,1.88,12.46,12.46,0,0,1,5.08,5.4A18.09,18.09,0,0,1,334.64,436.94Zm-20.76,0c0,3,.49,5.22,1.47,6.74a6.07,6.07,0,0,0,9.48,0c1-1.52,1.43-3.77,1.43-6.76s-.48-5.2-1.45-6.68a6.17,6.17,0,0,0-9.48,0C314.37,431.72,313.88,434,313.88,436.94Z"/><path class="cls-2" d="M362,452h-8.19V410.22H362Z"/><path class="cls-2" d="M383.27,452.55q-7.26,0-11.34-4t-4.08-11.33q0-7.54,3.77-11.67t10.44-4.12q6.36,0,9.91,3.63t3.54,10v4H376.15a7.88,7.88,0,0,0,2.07,5.45,7.25,7.25,0,0,0,5.42,2,22.85,22.85,0,0,0,5.13-.56,26.1,26.1,0,0,0,5.05-1.8v6.33a19,19,0,0,1-4.59,1.6A28.87,28.87,0,0,1,383.27,452.55Zm-1.16-25.3A5.2,5.2,0,0,0,378,428.9a7.58,7.58,0,0,0-1.69,4.69h11.49a6.84,6.84,0,0,0-1.58-4.69A5.37,5.37,0,0,0,382.11,427.25Z"/><path class="cls-2" d="M420.3,452l-1.58-4.08h-.21a12.16,12.16,0,0,1-4.26,3.61,13.78,13.78,0,0,1-5.71,1,9.27,9.27,0,0,1-6.81-2.47q-2.48-2.47-2.48-7,0-4.79,3.34-7.05t10.09-2.51l5.21-.16V432q0-4.56-4.68-4.56a21.27,21.27,0,0,0-8.45,2.17L402,424.08a24.42,24.42,0,0,1,11.5-2.71c4,0,7.11.87,9.26,2.63s3.23,4.42,3.23,8v20Zm-2.41-13.91-3.17.11a10.22,10.22,0,0,0-5.32,1.28,4.06,4.06,0,0,0-1.74,3.6q0,3.46,4,3.47a6.3,6.3,0,0,0,4.55-1.64,5.74,5.74,0,0,0,1.71-4.35Z"/><path class="cls-2" d="M450.28,421.42a13.38,13.38,0,0,1,2.77.24l-.62,7.68a9.34,9.34,0,0,0-2.42-.27,8.71,8.71,0,0,0-6.11,2,7.27,7.27,0,0,0-2.19,5.64V452h-8.19V422h6.21l1.2,5h.41a11.34,11.34,0,0,1,3.77-4.07A9.4,9.4,0,0,1,450.28,421.42Z"/><path class="cls-2" d="M485.28,452h-8.19V434.47a8.41,8.41,0,0,0-1.16-4.87,4.18,4.18,0,0,0-3.68-1.63,5.51,5.51,0,0,0-5,2.3q-1.55,2.3-1.54,7.61V452h-8.19V422h6.26l1.1,3.85h.46a8.63,8.63,0,0,1,3.77-3.29,12.76,12.76,0,0,1,5.47-1.12c3.49,0,6.14.95,7.94,2.83s2.72,4.62,2.72,8.18Z"/><path class="cls-2" d="M525.2,452l-1.59-4.08h-.22a12,12,0,0,1-4.25,3.61,13.78,13.78,0,0,1-5.71,1,9.27,9.27,0,0,1-6.81-2.47q-2.47-2.47-2.48-7,0-4.79,3.34-7.05t10.09-2.51l5.21-.16V432q0-4.56-4.67-4.56a21.36,21.36,0,0,0-8.47,2.17l-2.71-5.53a24.42,24.42,0,0,1,11.5-2.71c4,0,7.11.87,9.26,2.63s3.22,4.42,3.22,8v20Zm-2.42-13.91-3.17.11a10.25,10.25,0,0,0-5.32,1.28,4.07,4.07,0,0,0-1.75,3.6q0,3.46,4,3.47a6.29,6.29,0,0,0,4.55-1.64,5.74,5.74,0,0,0,1.71-4.35Z"/><path class="cls-2" d="M555.12,421.42a9.69,9.69,0,0,1,8.32,4.15q3,4.15,3,11.37,0,7.44-3.1,11.52a10.83,10.83,0,0,1-16.75.25H546l-1.37,3.3h-6.26V410.22h8.19v9.72c0,1.24-.1,3.22-.32,5.94h.32A9.5,9.5,0,0,1,555.12,421.42ZM552.48,428a5.19,5.19,0,0,0-4.43,1.87c-.93,1.24-1.41,3.3-1.45,6.16v.89q0,4.83,1.44,6.93a5.15,5.15,0,0,0,4.55,2.09,4.57,4.57,0,0,0,4-2.32,12.6,12.6,0,0,0,1.49-6.75c0-3-.5-5.17-1.51-6.65A4.71,4.71,0,0,0,552.48,428Z"/><path class="cls-2" d="M599.57,436.94q0,7.33-3.87,11.47t-10.77,4.14a15,15,0,0,1-7.63-1.9,12.54,12.54,0,0,1-5.07-5.44,18.28,18.28,0,0,1-1.77-8.27q0-7.35,3.84-11.44t10.79-4.08a15.2,15.2,0,0,1,7.63,1.88,12.5,12.5,0,0,1,5.07,5.4A18,18,0,0,1,599.57,436.94Zm-20.76,0c0,3,.49,5.22,1.46,6.74A5.23,5.23,0,0,0,585,446a5.16,5.16,0,0,0,4.71-2.27q1.44-2.28,1.44-6.76t-1.45-6.68a6.17,6.17,0,0,0-9.48,0Q578.8,432.46,578.81,436.94Z"/><path class="cls-2" d="M626.67,452l-1.1-3.84h-.43a8.62,8.62,0,0,1-3.73,3.23,12.66,12.66,0,0,1-5.51,1.15c-3.52,0-6.19-.95-8-2.84s-2.69-4.6-2.69-8.15V422h8.19v17.54a8.45,8.45,0,0,0,1.16,4.88,4.19,4.19,0,0,0,3.67,1.62,5.53,5.53,0,0,0,5-2.3c1-1.53,1.53-4.06,1.53-7.61V422H633v30Z"/><path class="cls-2" d="M653.26,446a17.7,17.7,0,0,0,5.16-.94v6.1a18.44,18.44,0,0,1-7.52,1.37c-3.28,0-5.66-.83-7.16-2.49s-2.24-4.14-2.24-7.45V428.13h-3.92v-3.46l4.51-2.74,2.36-6.34h5.24V422h8.41v6.15h-8.41v14.48a3.23,3.23,0,0,0,1,2.58A3.89,3.89,0,0,0,653.26,446Z"/><path class="cls-2" d="M704.62,452h-8.19V434.47q0-6.5-4.84-6.5a5.48,5.48,0,0,0-5,2.34q-1.53,2.34-1.53,7.57V452h-8.2V410.22h8.2v8.52c0,.66-.07,2.22-.19,4.67l-.19,2.42h.43c1.82-2.94,4.73-4.41,8.7-4.41,3.53,0,6.2.95,8,2.85s2.74,4.62,2.74,8.16Z"/><path class="cls-2" d="M739.4,436.94q0,7.33-3.86,11.47t-10.77,4.14a15,15,0,0,1-7.63-1.9,12.57,12.57,0,0,1-5.08-5.44,18.28,18.28,0,0,1-1.77-8.27q0-7.35,3.84-11.44t10.8-4.08a15.16,15.16,0,0,1,7.62,1.88,12.46,12.46,0,0,1,5.08,5.4A18.09,18.09,0,0,1,739.4,436.94Zm-20.76,0c0,3,.49,5.22,1.47,6.74a6.07,6.07,0,0,0,9.48,0q1.42-2.28,1.43-6.76t-1.45-6.68a6.17,6.17,0,0,0-9.48,0C719.13,431.72,718.64,434,718.64,436.94Z"/><path class="cls-2" d="M769.91,452l-2.3-10.5-3.12-13.27h-.19L758.82,452H750l-8.55-30h8.17l3.46,13.3q.84,3.57,1.69,9.85H755a53.94,53.94,0,0,1,.94-6.47l.43-2.28L760,422h9l3.52,14.4c.07.39.19,1,.34,1.74s.3,1.59.44,2.46.27,1.72.39,2.55a17.52,17.52,0,0,1,.2,2h.16c.17-1.29.45-3.05.86-5.3s.71-3.76.89-4.55l3.6-13.3h8l-8.65,30Z"/><path class="cls-2" d="M829.41,452l-2.31-10.5L824,428.24h-.18L818.32,452h-8.81L801,422h8.16l3.47,13.3c.55,2.38,1.12,5.66,1.69,9.85h.16a56.12,56.12,0,0,1,.94-6.47l.43-2.28,3.71-14.4h9l3.52,14.4c.07.39.18,1,.33,1.74s.3,1.59.45,2.46.27,1.72.39,2.55.18,1.5.2,2h.16c.16-1.29.45-3.05.86-5.3s.71-3.76.88-4.55l3.6-13.3h8l-8.65,30Z"/><path class="cls-2" d="M864.46,452.55q-7.25,0-11.33-4T849,437.21q0-7.54,3.78-11.67t10.43-4.12q6.36,0,9.91,3.63t3.55,10v4H857.34a7.88,7.88,0,0,0,2.07,5.45,7.27,7.27,0,0,0,5.43,2,22.83,22.83,0,0,0,5.12-.56,25.87,25.87,0,0,0,5-1.8v6.33a19,19,0,0,1-4.59,1.6A28.8,28.8,0,0,1,864.46,452.55Zm-1.16-25.3a5.21,5.21,0,0,0-4.08,1.65,7.71,7.71,0,0,0-1.69,4.69H869a6.85,6.85,0,0,0-1.59-4.69A5.37,5.37,0,0,0,863.3,427.25Z"/><path class="cls-2" d="M921.92,422v4.17l-4.71,1.21a8.16,8.16,0,0,1,1.29,4.51,9.1,9.1,0,0,1-3.37,7.53q-3.36,2.7-9.35,2.7L904.3,442l-1.21-.14a2.75,2.75,0,0,0-1.26,2.15c0,1.18,1.5,1.78,4.51,1.78h5.1c3.3,0,5.81.7,7.53,2.12a7.57,7.57,0,0,1,2.6,6.23,9.24,9.24,0,0,1-4.39,8.16q-4.39,2.9-12.61,2.9-6.29,0-9.61-2.19a6.94,6.94,0,0,1-3.31-6.13,6.42,6.42,0,0,1,1.69-4.54,9.59,9.59,0,0,1,5-2.61,5.33,5.33,0,0,1-2.2-1.76,4.13,4.13,0,0,1-.94-2.59,4.22,4.22,0,0,1,1-2.86A11.29,11.29,0,0,1,899,440.3a8,8,0,0,1-3.75-3.28,10,10,0,0,1-1.39-5.31,9.38,9.38,0,0,1,3.2-7.6c2.13-1.79,5.18-2.69,9.13-2.69a24,24,0,0,1,3,.23c1.15.15,1.89.26,2.21.33Zm-23.18,34.27a3,3,0,0,0,1.62,2.66,8.91,8.91,0,0,0,4.56,1,16.23,16.23,0,0,0,6.9-1.21q2.49-1.21,2.49-3.3a2.34,2.34,0,0,0-1.47-2.34,12.11,12.11,0,0,0-4.57-.65H904a6.4,6.4,0,0,0-3.77,1.07A3.24,3.24,0,0,0,898.74,456.25Zm3-24.44a6.14,6.14,0,0,0,1.11,3.87,4.06,4.06,0,0,0,3.4,1.42,4,4,0,0,0,3.39-1.42,6.33,6.33,0,0,0,1.07-3.87q0-5.42-4.46-5.42T901.72,431.81Z"/><path class="cls-2" d="M953.21,436.94q0,7.33-3.87,11.47t-10.77,4.14a15,15,0,0,1-7.63-1.9,12.54,12.54,0,0,1-5.07-5.44,18.28,18.28,0,0,1-1.77-8.27q0-7.35,3.84-11.44t10.79-4.08a15.2,15.2,0,0,1,7.63,1.88,12.5,12.5,0,0,1,5.07,5.4A18,18,0,0,1,953.21,436.94Zm-20.76,0c0,3,.49,5.22,1.46,6.74a5.23,5.23,0,0,0,4.77,2.29,5.16,5.16,0,0,0,4.71-2.27q1.44-2.28,1.44-6.76c0-3-.49-5.2-1.45-6.68a6.17,6.17,0,0,0-9.48,0Q932.45,432.46,932.45,436.94Z"/><path class="cls-2" d="M966.18,452l-11.44-30h8.57l5.8,17.11a30.87,30.87,0,0,1,1.21,6.15h.16a26.55,26.55,0,0,1,1.21-6.15L977.46,422H986l-11.44,30Z"/><path class="cls-2" d="M1003,452.55q-7.26,0-11.33-4t-4.09-11.33q0-7.54,3.78-11.67t10.43-4.12q6.36,0,9.91,3.63t3.54,10v4H995.86a7.88,7.88,0,0,0,2.07,5.45,7.27,7.27,0,0,0,5.43,2,22.83,22.83,0,0,0,5.12-.56,25.87,25.87,0,0,0,5-1.8v6.33a19,19,0,0,1-4.59,1.6A28.87,28.87,0,0,1,1003,452.55Zm-1.16-25.3a5.21,5.21,0,0,0-4.08,1.65,7.64,7.64,0,0,0-1.69,4.69h11.49a6.8,6.8,0,0,0-1.58-4.69A5.37,5.37,0,0,0,1001.82,427.25Z"/><path class="cls-2" d="M1037.71,421.42a13.21,13.21,0,0,1,2.76.24l-.61,7.68a9.34,9.34,0,0,0-2.42-.27,8.71,8.71,0,0,0-6.11,2,7.27,7.27,0,0,0-2.19,5.64V452H1021V422h6.2l1.21,5h.41a11.34,11.34,0,0,1,3.77-4.07A9.37,9.37,0,0,1,1037.71,421.42Z"/><path class="cls-2" d="M1072.71,452h-8.2V434.47a8.42,8.42,0,0,0-1.15-4.87,4.19,4.19,0,0,0-3.68-1.63,5.54,5.54,0,0,0-5,2.3q-1.53,2.3-1.53,7.61V452H1045V422h6.26l1.1,3.85h.45a8.71,8.71,0,0,1,3.78-3.29,12.72,12.72,0,0,1,5.46-1.12c3.5,0,6.15.95,8,2.83s2.72,4.62,2.72,8.18Z"/><path class="cls-2" d="M155.68,502.94q0,7.33-3.87,11.47T141,518.55a15,15,0,0,1-7.63-1.9,12.54,12.54,0,0,1-5.07-5.44,18.15,18.15,0,0,1-1.78-8.27q0-7.35,3.84-11.44t10.8-4.08a15.22,15.22,0,0,1,7.63,1.88,12.5,12.5,0,0,1,5.07,5.4A18.09,18.09,0,0,1,155.68,502.94Zm-20.76,0c0,3,.48,5.22,1.46,6.74a5.22,5.22,0,0,0,4.77,2.29,5.16,5.16,0,0,0,4.71-2.27q1.44-2.28,1.44-6.76c0-3-.49-5.2-1.45-6.68a6.17,6.17,0,0,0-9.48,0Q134.92,498.46,134.92,502.94Z"/><path class="cls-2" d="M182.78,518l-1.1-3.84h-.43a8.64,8.64,0,0,1-3.74,3.23,12.58,12.58,0,0,1-5.5,1.15q-5.3,0-8-2.84c-1.79-1.89-2.68-4.6-2.68-8.15V488h8.19v17.54a8.45,8.45,0,0,0,1.15,4.88,4.21,4.21,0,0,0,3.68,1.62,5.54,5.54,0,0,0,5-2.3c1-1.53,1.53-4.06,1.53-7.61V488h8.19v30Z"/><path class="cls-2" d="M213.48,487.42a13.21,13.21,0,0,1,2.76.24l-.61,7.68a9.39,9.39,0,0,0-2.42-.27,8.71,8.71,0,0,0-6.11,2,7.27,7.27,0,0,0-2.19,5.64V518h-8.19V488h6.2l1.21,5h.41a11.25,11.25,0,0,1,3.77-4.07A9.37,9.37,0,0,1,213.48,487.42Z"/><path class="cls-2" d="M241.71,509.09a8.27,8.27,0,0,1-3.21,7q-3.21,2.42-9.6,2.42a29.71,29.71,0,0,1-5.59-.45,20.88,20.88,0,0,1-4.32-1.3V510a27.84,27.84,0,0,0,5.14,1.8,20.59,20.59,0,0,0,5,.73q4.46,0,4.45-2.58a2.11,2.11,0,0,0-.59-1.57,8.2,8.2,0,0,0-2-1.37c-1-.51-2.25-1.11-3.87-1.79a24.22,24.22,0,0,1-5.08-2.68,7.62,7.62,0,0,1-2.37-2.84,9.34,9.34,0,0,1-.74-3.93,7.13,7.13,0,0,1,3.11-6.19c2.06-1.46,5-2.19,8.79-2.19a25.06,25.06,0,0,1,10.56,2.36l-2.47,5.91c-1.51-.64-2.91-1.17-4.22-1.58a13.31,13.31,0,0,0-4-.62c-2.42,0-3.63.65-3.63,2a2.32,2.32,0,0,0,1.17,1.91,32.56,32.56,0,0,0,5.12,2.39,23.53,23.53,0,0,1,5.15,2.66,7.89,7.89,0,0,1,2.42,2.84A8.77,8.77,0,0,1,241.71,509.09Z"/><path class="cls-2" d="M260.75,518.55q-7.25,0-11.33-4t-4.08-11.33q0-7.54,3.77-11.67t10.43-4.12q6.38,0,9.92,3.63t3.54,10v4H253.64a7.88,7.88,0,0,0,2.07,5.45,7.23,7.23,0,0,0,5.42,2,22.85,22.85,0,0,0,5.13-.56,26.34,26.34,0,0,0,5.05-1.8v6.33a19.12,19.12,0,0,1-4.6,1.6A28.74,28.74,0,0,1,260.75,518.55Zm-1.15-25.3a5.18,5.18,0,0,0-4.08,1.65,7.65,7.65,0,0,0-1.7,4.69h11.5a6.85,6.85,0,0,0-1.59-4.69A5.36,5.36,0,0,0,259.6,493.25Z"/><path class="cls-2" d="M286.92,518h-8.2V476.22h8.2Z"/><path class="cls-2" d="M301.72,518l-11.44-30h8.56l5.81,17.11a30.82,30.82,0,0,1,1.2,6.15H306a26.47,26.47,0,0,1,1.2-6.15L313,488h8.56l-11.44,30Z"/><path class="cls-2" d="M338.52,518.55q-7.26,0-11.34-4t-4.08-11.33q0-7.54,3.77-11.67t10.44-4.12q6.36,0,9.91,3.63t3.54,10v4H331.4a7.88,7.88,0,0,0,2.07,5.45,7.25,7.25,0,0,0,5.42,2,22.85,22.85,0,0,0,5.13-.56,26.34,26.34,0,0,0,5.05-1.8v6.33a19,19,0,0,1-4.59,1.6A28.87,28.87,0,0,1,338.52,518.55Zm-1.16-25.3a5.18,5.18,0,0,0-4.08,1.65,7.58,7.58,0,0,0-1.69,4.69h11.49a6.84,6.84,0,0,0-1.58-4.69A5.37,5.37,0,0,0,337.36,493.25Z"/><path class="cls-2" d="M377.43,509.09a8.27,8.27,0,0,1-3.21,7q-3.21,2.42-9.6,2.42a29.67,29.67,0,0,1-5.58-.45,21.16,21.16,0,0,1-4.33-1.3V510a28.21,28.21,0,0,0,5.15,1.8,20.45,20.45,0,0,0,5,.73q4.46,0,4.46-2.58a2.15,2.15,0,0,0-.59-1.57,8.2,8.2,0,0,0-2-1.37c-1-.51-2.26-1.11-3.87-1.79a24.35,24.35,0,0,1-5.09-2.68,7.59,7.59,0,0,1-2.36-2.84,9.34,9.34,0,0,1-.74-3.93,7.12,7.12,0,0,1,3.1-6.19q3.11-2.19,8.8-2.19a25,25,0,0,1,10.55,2.36l-2.47,5.91c-1.5-.64-2.91-1.17-4.22-1.58a13.26,13.26,0,0,0-4-.62c-2.41,0-3.62.65-3.62,2a2.32,2.32,0,0,0,1.17,1.91,32.3,32.3,0,0,0,5.11,2.39,23.41,23.41,0,0,1,5.16,2.66,7.86,7.86,0,0,1,2.41,2.84A8.77,8.77,0,0,1,377.43,509.09Z"/><path class="cls-2" d="M386,505v-2a8.77,8.77,0,0,1,1.1-4.49,14.32,14.32,0,0,1,4-4.05,17.08,17.08,0,0,0,3.72-3.28,4.74,4.74,0,0,0,.9-2.82,3.06,3.06,0,0,0-1.29-2.66,6.09,6.09,0,0,0-3.59-.91,20.73,20.73,0,0,0-9.19,2.63l-2.93-5.88a25.6,25.6,0,0,1,12.71-3.36c3.68,0,6.62.89,8.79,2.66a8.68,8.68,0,0,1,3.27,7.09,9.38,9.38,0,0,1-1.35,5.1,18.86,18.86,0,0,1-5.1,4.84,15.54,15.54,0,0,0-3.26,2.9,4.47,4.47,0,0,0-.69,2.6V505Zm-.86,9.19a4.53,4.53,0,0,1,1.2-3.41,4.91,4.91,0,0,1,3.52-1.16,4.74,4.74,0,0,1,3.45,1.19,4.45,4.45,0,0,1,1.22,3.38,4.49,4.49,0,0,1-1.23,3.34,4.65,4.65,0,0,1-3.44,1.22,4.81,4.81,0,0,1-3.49-1.19A4.49,4.49,0,0,1,385.15,514.17Z"/><path class="cls-3" d="M682.61,584h-12l-7.76-15-3.14,1.88V584H649.07V544.75h10.66v17a46.4,46.4,0,0,1,3.25-5l8.24-12h11.61l-12.38,17.59Z"/><path class="cls-3" d="M700,584.55q-7.59,0-11.8-4T684,569q0-7.71,3.89-11.83T699,553q6.87,0,10.62,3.59T713.37,567v4.67H694.59a5.25,5.25,0,0,0,1.87,4,7.29,7.29,0,0,0,4.79,1.45,23.08,23.08,0,0,0,5.09-.52,25.43,25.43,0,0,0,5-1.79v7.55a18.55,18.55,0,0,1-5.1,1.74A35.54,35.54,0,0,1,700,584.55Zm-.62-24.36a4.38,4.38,0,0,0-3.1,1.17,5.46,5.46,0,0,0-1.46,3.66h9a5.19,5.19,0,0,0-1.25-3.52A4.12,4.12,0,0,0,699.37,560.19Z"/><path class="cls-3" d="M733.05,584.55q-7.59,0-11.8-4t-4.2-11.5q0-7.71,3.89-11.83T732.06,553c4.58,0,8.13,1.2,10.62,3.59s3.75,5.83,3.75,10.33v4.67H727.66a5.21,5.21,0,0,0,1.86,4,7.31,7.31,0,0,0,4.8,1.45,23.15,23.15,0,0,0,5.09-.52,25.36,25.36,0,0,0,5-1.79v7.55a18.55,18.55,0,0,1-5.1,1.74A35.54,35.54,0,0,1,733.05,584.55Zm-.61-24.36a4.35,4.35,0,0,0-3.1,1.17,5.46,5.46,0,0,0-1.47,3.66h9a5.3,5.3,0,0,0-1.25-3.52A4.15,4.15,0,0,0,732.44,560.19Z"/><path class="cls-3" d="M769.69,584.55a9.52,9.52,0,0,1-7.76-3.52h-.48a38.83,38.83,0,0,1,.48,4v12.22h-10.5V553.58H760l1.48,3.87h.48a9.6,9.6,0,0,1,16-.22q2.87,4.2,2.87,11.5t-3,11.59A9.43,9.43,0,0,1,769.69,584.55Zm-3.52-23.26a3.38,3.38,0,0,0-3.23,1.65,10.75,10.75,0,0,0-1,4.9v.83q0,3.93,1.05,5.67a3.58,3.58,0,0,0,3.3,1.75,3.08,3.08,0,0,0,2.93-1.74,13.07,13.07,0,0,0,.91-5.73,12.71,12.71,0,0,0-.91-5.63A3.18,3.18,0,0,0,766.17,561.29Z"/><path class="cls-3" d="M817.58,553a15.48,15.48,0,0,1,2.61.22l.59.11-.94,9.91a15.09,15.09,0,0,0-3.57-.33q-3.43,0-5,1.58a6.16,6.16,0,0,0-1.55,4.52v15H799.21V553.58H807l1.64,4.86h.51a10.48,10.48,0,0,1,3.67-3.9A8.7,8.7,0,0,1,817.58,553Z"/><path class="cls-3" d="M838.78,584.55q-7.6,0-11.8-4T822.77,569q0-7.71,3.9-11.83T837.79,553q6.87,0,10.62,3.59T852.15,567v4.67H833.38a5.19,5.19,0,0,0,1.87,4,7.29,7.29,0,0,0,4.79,1.45,23.15,23.15,0,0,0,5.09-.52,25.43,25.43,0,0,0,5-1.79v7.55a18.5,18.5,0,0,1-5.11,1.74A35.42,35.42,0,0,1,838.78,584.55Zm-.62-24.36a4.36,4.36,0,0,0-3.1,1.17A5.46,5.46,0,0,0,833.6,565h9a5.24,5.24,0,0,0-1.25-3.52A4.15,4.15,0,0,0,838.16,560.19Z"/><path class="cls-3" d="M877,584l-2-4h-.21a12,12,0,0,1-4.32,3.6,14.39,14.39,0,0,1-5.7,1A8.94,8.94,0,0,1,858,582a10.1,10.1,0,0,1-2.47-7.25c0-3.24,1.13-5.66,3.39-7.24s5.52-2.48,9.8-2.67l5.08-.16v-.43q0-3.76-3.71-3.76a22.21,22.21,0,0,0-8.46,2.25l-3-6.93q5.31-2.73,13.42-2.74,5.87,0,9.07,2.9a10.39,10.39,0,0,1,3.21,8.12v20Zm-7.79-6.88a4.7,4.7,0,0,0,3.26-1.21,4,4,0,0,0,1.36-3.14v-2.36l-2.42.11q-5.17.18-5.18,3.81C866.23,576.2,867.22,577.13,869.21,577.13Z"/><path class="cls-3" d="M899.94,584.55a9.07,9.07,0,0,1-5.68-1.86,11.67,11.67,0,0,1-3.76-5.45,24.14,24.14,0,0,1-1.33-8.41q0-7.41,3-11.6a9.53,9.53,0,0,1,8.19-4.19,9.28,9.28,0,0,1,4.47,1,9.9,9.9,0,0,1,3.51,3.43h.21a50.43,50.43,0,0,1-.51-7.14v-8.14H918.6V584h-7.92l-2.26-3.84H908A8.89,8.89,0,0,1,899.94,584.55Zm4.29-8.3a3.91,3.91,0,0,0,3.56-1.59,9.55,9.55,0,0,0,1.12-4.88v-.84q0-4-1.16-5.73a4.05,4.05,0,0,0-3.62-1.71,3.55,3.55,0,0,0-3.21,2,11.1,11.1,0,0,0-1.14,5.55,10.26,10.26,0,0,0,1.15,5.39A3.67,3.67,0,0,0,904.23,576.25Z"/><path class="cls-3" d="M924.7,546a4.43,4.43,0,0,1,1.32-3.52,8.29,8.29,0,0,1,8.51,0,4.38,4.38,0,0,1,1.35,3.49q0,4.62-5.62,4.62C926.56,550.63,924.7,549.09,924.7,546Zm10.77,38H925V553.58h10.5Z"/><path class="cls-3" d="M961.07,584v-16.6a9.56,9.56,0,0,0-.87-4.58,3,3,0,0,0-2.81-1.54,4.07,4.07,0,0,0-3.84,2.12c-.79,1.42-1.18,3.84-1.18,7.28V584h-10.5V553.58h7.92l1.32,3.76h.61a8.31,8.31,0,0,1,3.73-3.22,13,13,0,0,1,5.46-1.08c3.37,0,6,1,7.86,2.93s2.8,4.7,2.8,8.25V584Z"/><path class="cls-3" d="M1006.49,553.58v5.08l-4.16,1.53a7.4,7.4,0,0,1,.86,3.62,9.13,9.13,0,0,1-3.46,7.63q-3.45,2.71-10.29,2.71a13.59,13.59,0,0,1-2.69-.21,2.77,2.77,0,0,0-.38,1.31c0,.52.42.92,1.27,1.2a10.68,10.68,0,0,0,3.3.42h5q10.23,0,10.23,8.62a9.76,9.76,0,0,1-4.74,8.64q-4.74,3.09-13.31,3.09-6.46,0-10-2.16a6.89,6.89,0,0,1-3.51-6.22q0-5.45,6.77-7A6.15,6.15,0,0,1,979,579.9a4.07,4.07,0,0,1-.26-5.12,11.87,11.87,0,0,1,3.25-2.59,8.2,8.2,0,0,1-3.72-3.27,10.32,10.32,0,0,1-1.35-5.43,9.38,9.38,0,0,1,3.38-7.71q3.39-2.73,9.67-2.74c.55,0,1.51.07,2.87.19s2.37.24,3,.35ZM983.55,587.8a2.36,2.36,0,0,0,1.4,2.08,7.63,7.63,0,0,0,3.73.79,16.31,16.31,0,0,0,6.11-.95c1.53-.64,2.3-1.46,2.3-2.46a1.78,1.78,0,0,0-1.4-1.71,12.53,12.53,0,0,0-4-.49h-4.11a5,5,0,0,0-2.86.79A2.32,2.32,0,0,0,983.55,587.8Zm3.31-24.26q0,4.68,3.25,4.68a2.69,2.69,0,0,0,2.32-1.16,6,6,0,0,0,.82-3.46q0-4.73-3.14-4.73T986.86,563.54Z"/><path class="cls-3" d="M1008.86,579.55a4.88,4.88,0,0,1,1.46-3.81,6.07,6.07,0,0,1,4.26-1.35,5.71,5.71,0,0,1,4.08,1.35,5,5,0,0,1,1.42,3.81,4.9,4.9,0,0,1-1.46,3.77,5.71,5.71,0,0,1-4,1.36,6.15,6.15,0,0,1-4.19-1.34A4.78,4.78,0,0,1,1008.86,579.55Z"/><path class="cls-3" d="M1023.82,579.55a4.88,4.88,0,0,1,1.47-3.81,6,6,0,0,1,4.25-1.35,5.71,5.71,0,0,1,4.08,1.35,5,5,0,0,1,1.43,3.81,4.87,4.87,0,0,1-1.47,3.77,5.68,5.68,0,0,1-4,1.36,6.16,6.16,0,0,1-4.19-1.34A4.78,4.78,0,0,1,1023.82,579.55Z"/><path class="cls-3" d="M1038.78,579.55a4.88,4.88,0,0,1,1.47-3.81,6,6,0,0,1,4.25-1.35,5.72,5.72,0,0,1,4.09,1.35,5,5,0,0,1,1.42,3.81,4.87,4.87,0,0,1-1.47,3.77,5.68,5.68,0,0,1-4,1.36,6.18,6.18,0,0,1-4.19-1.34A4.78,4.78,0,0,1,1038.78,579.55Z"/></g></svg>