<?xml version="1.0" encoding="UTF-8"?><svg id="Background" xmlns="http://www.w3.org/2000/svg" viewBox="0 0 500 110"><defs><style>.cls-1{fill:#f9662b;}.cls-2{fill:#fff;}.cls-3{fill:#1a1c1e;}</style></defs><rect class="cls-3" width="500" height="110"/><g><g><path class="cls-2" d="m61.15,37.51L30.95,12.94c-.96-.78-2.41-.1-2.41,1.13v51.43l-11.39,6.44c-2.88,1.62-4.66,4.68-4.66,7.98v16.33c0,.86.94,1.43,1.7,1l14.34-8.12,7.08-4.01c2.88-1.62,4.66-4.68,4.66-8v-41.45l23.75,19.33v-11.46c0-2.33-1.06-4.56-2.88-6.03Z"/><path class="cls-1" d="m113.85,12.74l-14.34,8.12-7.08,4.01c-2.88,1.62-4.66,4.7-4.66,8v41.45l-23.75-19.33v11.46c0,2.33,1.06,4.56,2.88,6.03l30.21,24.57c.98.78,2.41.1,2.41-1.13v-51.43l11.39-6.44c2.9-1.62,4.68-4.68,4.68-7.98V13.74c0-.86-.96-1.43-1.72-1Z"/></g><g><path class="cls-2" d="m168.38,35.28c-1.72,0-3.13,1.43-3.13,3.18v28.87l-20.86-30.13c-.97-1.24-2.24-1.92-3.58-1.92h-.74c-2.35,0-4.26,1.94-4.26,4.32v33.93c0,1.72,1.4,3.13,3.13,3.13s3.18-1.4,3.18-3.13v-28.92l20.97,30.29c.84,1.12,2.1,1.76,3.47,1.76h.68c2.38,0,4.32-1.91,4.32-4.26v-33.93c0-1.73-1.46-3.18-3.18-3.18Z"/><path class="cls-2" d="m216.47,41.54c1.69,0,3.01-1.3,3.01-2.96s-1.32-3.01-3.01-3.01h-22.79c-1.72,0-3.13,1.43-3.13,3.18v34.5c0,1.72,1.4,3.13,3.13,3.13h22.79c1.69,0,3.01-1.3,3.01-2.96s-1.32-3.01-3.01-3.01h-19.61v-11.48h17.56c1.69,0,3.01-1.3,3.01-2.96s-1.32-3.01-3.01-3.01h-17.56v-11.42h19.61Z"/><path class="cls-2" d="m253.64,35c-12.03,0-20.28,8.42-20.52,20.99.24,12.54,8.49,20.96,20.52,20.96s20.28-8.42,20.52-20.96v-.02c-.24-12.54-8.49-20.96-20.52-20.96Zm0,35.98c-8.5,0-14.21-6.03-14.21-15s5.71-15,14.21-15,14.21,6.03,14.21,15-5.71,15-14.21,15Z"/><path class="cls-2" d="m309.35,41.08c4.32,0,7.17,1.04,10.15,2.61.52.26,1.07.29,1.28.29.82,0,1.57-.31,2.1-.86.51-.53.78-1.26.74-2.01-.06-1.18-.56-1.98-1.54-2.51-3.15-1.78-7.19-3.6-13.24-3.6-12.24,0-20.46,8.43-20.46,20.97s8.22,20.97,20.46,20.97c6.05,0,10.09-1.82,13.23-3.59.99-.54,1.49-1.34,1.55-2.52h0c.04-.75-.24-1.48-.74-2.01-.53-.56-1.28-.86-2.1-.86-.21,0-.76.03-1.29.29-2.96,1.56-5.82,2.61-10.14,2.61-9.04,0-14.66-5.71-14.66-14.89s5.62-14.89,14.66-14.89Z"/><path class="cls-2" d="m375.29,47.67c0-7.69-5.84-12.11-16.03-12.11h-13.24c-1.72,0-3.13,1.43-3.13,3.18v34.78c0,1.72,1.4,3.13,3.13,3.13s3.18-1.4,3.18-3.13v-12.62h11.2c7.3,0,8.24,5.83,8.24,10.91v1.7c0,1.87,1.28,3.13,3.18,3.13,1.72,0,3.13-1.4,3.13-3.13v-2.61c0-2.51-.47-10.39-6.08-12.99,4-1.92,6.42-5.73,6.42-10.25Zm-6.31.4c0,4.27-3.76,6.82-10.06,6.82h-9.72v-13.3h9.43c9.17,0,10.34,3.46,10.34,6.48Z"/><path class="cls-2" d="m424.57,35.28c-1.13,0-2.06.52-2.75,1.56l-11.41,16.59-11.4-16.59c-.69-1.04-1.61-1.56-2.75-1.56-.85,0-1.64.33-2.22.93-.58.61-.89,1.42-.85,2.25,0,.64.18,1.26.56,1.87l13.48,18.89v14.31c0,1.72,1.43,3.13,3.18,3.13s3.13-1.4,3.13-3.13v-14.31l13.55-18.92c.36-.57.54-1.19.54-1.81.03-.86-.27-1.67-.85-2.28-.58-.6-1.37-.93-2.22-.93Z"/><path class="cls-2" d="m483.24,35.28h-1.88c-1.71,0-3.31,1.1-4,2.74l-12.37,30.85-12.38-30.86c-.68-1.64-2.29-2.74-3.99-2.74h-1.88c-2.35,0-4.26,1.94-4.26,4.32v33.93c0,1.72,1.4,3.13,3.13,3.13s3.18-1.4,3.18-3.13v-29.35l12.04,29.75c.74,1.68,2.33,2.73,4.16,2.73s3.42-1.05,4.17-2.74l12.03-29.74v29.35c0,1.72,1.43,3.13,3.19,3.13s3.13-1.4,3.13-3.13v-33.93c0-2.38-1.91-4.32-4.26-4.32Z"/></g></g></svg>