<svg xmlns="http://www.w3.org/2000/svg" viewBox="0 0 1500 500"><defs><style>.cls-1{fill:#131416;}.cls-2{fill:#ededec;}.cls-3{fill:#f77239;}</style></defs><g id="Background"><rect class="cls-1" width="1500" height="500"/></g><g id="Text"><path class="cls-2" d="M420.07,177.14h-9.23l-14.91-25.93h-.21q.45,6.87.45,9.8v16.13h-6.49V142.87h9.16l14.88,25.66h.17c-.24-4.45-.35-7.6-.35-9.44V142.87h6.53Z"/><path class="cls-2" d="M439.18,177.6q-6.33,0-9.89-3.49t-3.56-9.89q0-6.58,3.29-10.18t9.1-3.6c3.71,0,6.59,1.06,8.65,3.16s3.1,5,3.1,8.75v3.47H433a6.89,6.89,0,0,0,1.8,4.75,6.38,6.38,0,0,0,4.74,1.71,19.44,19.44,0,0,0,4.47-.49,22.35,22.35,0,0,0,4.41-1.57v5.53a16.86,16.86,0,0,1-4,1.4A25.59,25.59,0,0,1,439.18,177.6Zm-1-22.07a4.54,4.54,0,0,0-3.56,1.44,6.69,6.69,0,0,0-1.48,4.09h10a6,6,0,0,0-1.38-4.09A4.68,4.68,0,0,0,438.17,155.53Z"/><path class="cls-2" d="M478.68,164q0,6.39-3.38,10t-9.4,3.6a13.15,13.15,0,0,1-6.65-1.65,11,11,0,0,1-4.43-4.74,16,16,0,0,1-1.55-7.22q0-6.42,3.35-10t9.42-3.56a13.26,13.26,0,0,1,6.66,1.64,11,11,0,0,1,4.43,4.71A15.85,15.85,0,0,1,478.68,164Zm-18.12,0a11,11,0,0,0,1.28,5.88,4.56,4.56,0,0,0,4.16,2,4.5,4.5,0,0,0,4.11-2,11.1,11.1,0,0,0,1.25-5.89,10.87,10.87,0,0,0-1.26-5.84,5.39,5.39,0,0,0-8.27,0A10.76,10.76,0,0,0,460.56,164Z"/><path class="cls-2" d="M494.41,177.6q-12.24,0-12.24-13.43,0-6.67,3.33-10.2t9.54-3.53a18.18,18.18,0,0,1,8.16,1.78l-2.11,5.53c-1.13-.45-2.17-.82-3.14-1.11a10.11,10.11,0,0,0-2.91-.43q-5.58,0-5.58,7.92,0,7.68,5.58,7.69a12.59,12.59,0,0,0,3.82-.56,13.77,13.77,0,0,0,3.52-1.72v6.12a11.65,11.65,0,0,1-3.51,1.52A19.79,19.79,0,0,1,494.41,177.6Z"/><path class="cls-2" d="M522.25,150.44a11.63,11.63,0,0,1,2.42.21l-.54,6.7a8.5,8.5,0,0,0-2.11-.23,7.58,7.58,0,0,0-5.33,1.76,6.36,6.36,0,0,0-1.91,4.92v13.34h-7.15V150.93H513l1.06,4.41h.35a9.85,9.85,0,0,1,3.29-3.55A8.13,8.13,0,0,1,522.25,150.44Z"/><path class="cls-2" d="M524.86,150.93h7.83l4.94,14.74a19.78,19.78,0,0,1,.87,4.55h.14a20.11,20.11,0,0,1,1-4.55l4.85-14.74h7.67l-11.09,29.56a12.8,12.8,0,0,1-4.35,6.14,11,11,0,0,1-6.6,2,17,17,0,0,1-3.63-.4V182.6a12.42,12.42,0,0,0,2.81.3,5.09,5.09,0,0,0,3.32-1.16,7.54,7.54,0,0,0,2.22-3.5l.42-1.29Z"/><path class="cls-2" d="M578.56,177.14h-7.15V161.83a7.62,7.62,0,0,0-.95-4.25,3.33,3.33,0,0,0-3-1.42,4.34,4.34,0,0,0-4,2q-1.25,2-1.24,6.64v12.33H555.1V150.93h5.46l1,3.35h.4a7.25,7.25,0,0,1,3.05-2.82,9.86,9.86,0,0,1,4.57-1q5.88,0,8,3.84h.63a7.12,7.12,0,0,1,3.1-2.83,10.39,10.39,0,0,1,4.63-1q4.46,0,6.74,2.29c1.52,1.52,2.29,4,2.29,7.32v17.09h-7.18V161.83a7.72,7.72,0,0,0-.94-4.25,3.34,3.34,0,0,0-3-1.42,4.47,4.47,0,0,0-3.93,1.87q-1.3,1.88-1.3,6Z"/><path class="cls-2" d="M612.76,144.16q0-3.49,3.9-3.49t3.89,3.49a3.41,3.41,0,0,1-1,2.59,4.07,4.07,0,0,1-2.91.92Q612.76,147.67,612.76,144.16Zm7.46,33h-7.15V150.93h7.15Z"/><path class="cls-2" d="M645.18,169.35a7.23,7.23,0,0,1-2.8,6.15q-2.8,2.1-8.38,2.1a26.15,26.15,0,0,1-4.87-.38,18.68,18.68,0,0,1-3.78-1.14v-5.91a25.34,25.34,0,0,0,4.49,1.58,18.3,18.3,0,0,0,4.4.63q3.88,0,3.89-2.25a1.85,1.85,0,0,0-.52-1.37,7.64,7.64,0,0,0-1.78-1.2c-.84-.44-2-1-3.37-1.56a21.1,21.1,0,0,1-4.45-2.34,6.64,6.64,0,0,1-2.06-2.47,8.19,8.19,0,0,1-.64-3.44,6.22,6.22,0,0,1,2.7-5.4q2.72-1.9,7.68-1.91a21.83,21.83,0,0,1,9.21,2.06l-2.15,5.16c-1.32-.56-2.54-1-3.68-1.38a11.62,11.62,0,0,0-3.5-.54c-2.11,0-3.16.57-3.16,1.71a2,2,0,0,0,1,1.66,27.54,27.54,0,0,0,4.46,2.09,20.62,20.62,0,0,1,4.5,2.32A6.83,6.83,0,0,1,644.5,166,7.56,7.56,0,0,1,645.18,169.35Z"/><path class="cls-2" d="M678.24,177.14l-1.38-3.57h-.19a10.6,10.6,0,0,1-3.72,3.16,12.09,12.09,0,0,1-5,.87,8.05,8.05,0,0,1-5.94-2.15,8.32,8.32,0,0,1-2.17-6.14,6.92,6.92,0,0,1,2.92-6.15q2.93-2,8.8-2.2l4.55-.14v-1.15q0-4-4.08-4a18.53,18.53,0,0,0-7.38,1.9l-2.37-4.83a21.29,21.29,0,0,1,10-2.37c3.52,0,6.21.77,8.09,2.3s2.81,3.86,2.81,7v17.47ZM676.13,165l-2.77.09a8.94,8.94,0,0,0-4.64,1.12,3.55,3.55,0,0,0-1.52,3.14q0,3,3.47,3a5.51,5.51,0,0,0,4-1.43,5,5,0,0,0,1.49-3.8Z"/><path class="cls-3" d="M716.87,150.11a12.83,12.83,0,0,1,2.28.19l.51.09-.82,8.65a13.37,13.37,0,0,0-3.12-.28,6,6,0,0,0-4.36,1.37,5.41,5.41,0,0,0-1.36,4v13.06h-9.16V150.58h6.82l1.43,4.24h.45a9.18,9.18,0,0,1,3.2-3.41A7.68,7.68,0,0,1,716.87,150.11Z"/><path class="cls-3" d="M735.37,177.6q-6.63,0-10.3-3.52T721.4,164q0-6.72,3.4-10.32t9.7-3.6q6,0,9.27,3.13t3.27,9v4.08H730.66a4.5,4.5,0,0,0,1.63,3.49,6.34,6.34,0,0,0,4.18,1.27,19.85,19.85,0,0,0,4.44-.46,21.49,21.49,0,0,0,4.4-1.56v6.59a16.35,16.35,0,0,1-4.46,1.52A30.93,30.93,0,0,1,735.37,177.6Zm-.54-21.25a3.82,3.82,0,0,0-2.71,1,4.78,4.78,0,0,0-1.27,3.2h7.87a4.51,4.51,0,0,0-1.09-3.07A3.58,3.58,0,0,0,734.83,156.35Z"/><path class="cls-3" d="M763.5,177.6q-6.53,0-9.88-3.51T750.26,164q0-6.62,3.63-10.24t10.33-3.64a19.3,19.3,0,0,1,8.7,2l-2.7,6.77a29.58,29.58,0,0,0-3.07-1.16,9.8,9.8,0,0,0-2.93-.43,4,4,0,0,0-3.44,1.73,8.47,8.47,0,0,0-1.22,4.9q0,6.38,4.71,6.38A14.3,14.3,0,0,0,772,168v7.29A15.09,15.09,0,0,1,763.5,177.6Z"/><path class="cls-3" d="M801.82,163.8q0,6.51-3.5,10.16t-9.81,3.64a12.71,12.71,0,0,1-9.62-3.72q-3.57-3.74-3.57-10.08,0-6.5,3.5-10.09t9.83-3.6a14,14,0,0,1,6.92,1.67,11.31,11.31,0,0,1,4.62,4.77A15.32,15.32,0,0,1,801.82,163.8Zm-17.2,0a11.76,11.76,0,0,0,.91,5.21,3.18,3.18,0,0,0,3.07,1.8,3.09,3.09,0,0,0,3-1.8,12.26,12.26,0,0,0,.88-5.21,11.44,11.44,0,0,0-.9-5.13,3.13,3.13,0,0,0-3-1.74,3.17,3.17,0,0,0-3,1.73A11.28,11.28,0,0,0,784.62,163.8Z"/><path class="cls-3" d="M822.26,150.11a12.83,12.83,0,0,1,2.28.19l.51.09-.82,8.65a13.33,13.33,0,0,0-3.11-.28,6,6,0,0,0-4.36,1.37,5.37,5.37,0,0,0-1.36,4v13.06h-9.17V150.58h6.82l1.43,4.24h.45a9.18,9.18,0,0,1,3.2-3.41A7.7,7.7,0,0,1,822.26,150.11Z"/><path class="cls-3" d="M836.19,177.6a8,8,0,0,1-5-1.61,10.37,10.37,0,0,1-3.28-4.76,21.22,21.22,0,0,1-1.16-7.34q0-6.46,2.6-10.12a8.31,8.31,0,0,1,7.15-3.66,8.19,8.19,0,0,1,3.9.89,8.69,8.69,0,0,1,3.06,3h.19a43.5,43.5,0,0,1-.44-6.23v-7.1h9.23v36.47h-6.91l-2-3.36h-.35A7.76,7.76,0,0,1,836.19,177.6Zm3.75-7.24a3.44,3.44,0,0,0,3.11-1.38,8.37,8.37,0,0,0,1-4.27V164c0-2.35-.34-4-1-5a3.55,3.55,0,0,0-3.16-1.48,3.08,3.08,0,0,0-2.8,1.69,9.62,9.62,0,0,0-1,4.84,9,9,0,0,0,1,4.72A3.21,3.21,0,0,0,839.94,170.36Z"/><path class="cls-3" d="M878.81,177.14h-9.17V140.67h9.17Z"/><path class="cls-3" d="M901.67,177.14l-1.76-3.52h-.19a10.39,10.39,0,0,1-3.77,3.14,12.52,12.52,0,0,1-5,.84,7.81,7.81,0,0,1-5.91-2.25,8.74,8.74,0,0,1-2.15-6.32,7.19,7.19,0,0,1,3-6.32q3-2.07,8.55-2.33l4.43-.14v-.38q0-3.29-3.23-3.28a19.35,19.35,0,0,0-7.38,2l-2.65-6.05a25.51,25.51,0,0,1,11.72-2.39c3.4,0,6,.85,7.91,2.53a9.09,9.09,0,0,1,2.8,7.08v17.42Zm-6.8-6a4.16,4.16,0,0,0,2.85-1.06,3.53,3.53,0,0,0,1.18-2.74v-2.06l-2.11.09c-3,.11-4.52,1.22-4.52,3.33C892.27,170.32,893.13,171.14,894.87,171.14Z"/><path class="cls-3" d="M929.65,150.11a8,8,0,0,1,6.88,3.64q2.55,3.63,2.55,10.05t-2.57,10.14a8.23,8.23,0,0,1-7.14,3.66,9.91,9.91,0,0,1-2.62-.31,7.78,7.78,0,0,1-2-.88,10.65,10.65,0,0,1-2.1-1.88H922l-1.46,2.61h-7.15V140.67h9.17v8.25c0,1-.11,2.68-.33,5.08h.33a7.84,7.84,0,0,1,7-3.89Zm-3.35,7.2a3.13,3.13,0,0,0-2.81,1.33,7.76,7.76,0,0,0-.89,4.2v1.29a9.18,9.18,0,0,0,.89,4.67,3.16,3.16,0,0,0,2.91,1.42,2.71,2.71,0,0,0,2.48-1.65,10.71,10.71,0,0,0,.87-4.86Q929.75,157.31,926.3,157.31Z"/><path class="cls-3" d="M956.31,177.6q-6.64,0-10.3-3.52T942.34,164q0-6.72,3.4-10.32t9.7-3.6q6,0,9.27,3.13t3.27,9v4.08H951.6a4.52,4.52,0,0,0,1.62,3.49,6.37,6.37,0,0,0,4.19,1.27,19.85,19.85,0,0,0,4.44-.46,21.22,21.22,0,0,0,4.39-1.56v6.59a16.17,16.17,0,0,1-4.45,1.52A30.93,30.93,0,0,1,956.31,177.6Zm-.54-21.25a3.82,3.82,0,0,0-2.71,1,4.78,4.78,0,0,0-1.28,3.2h7.88a4.56,4.56,0,0,0-1.09-3.07A3.59,3.59,0,0,0,955.77,156.35Z"/><path class="cls-3" d="M981.51,177.14h-9.17V140.67h9.17Z"/><path class="cls-2" d="M400.15,229.51a15.39,15.39,0,0,0,4.5-.82V234a16,16,0,0,1-6.56,1.19q-4.29,0-6.25-2.16t-1.95-6.51V213.9h-3.43v-3l3.94-2.39,2.06-5.54H397v5.58h7.33v5.37H397v12.63a2.78,2.78,0,0,0,.85,2.25A3.34,3.34,0,0,0,400.15,229.51Z"/><path class="cls-2" d="M433.32,234.74h-7.15V219.43c0-3.78-1.4-5.67-4.22-5.67a4.79,4.79,0,0,0-4.33,2q-1.33,2-1.34,6.61v12.33h-7.15V198.27h7.15v7.43c0,.57,0,1.93-.16,4.07l-.17,2.11h.38q2.39-3.84,7.59-3.84,4.62,0,7,2.48t2.39,7.13Z"/><path class="cls-2" d="M456.5,234.74l-1.38-3.57h-.19a10.58,10.58,0,0,1-3.71,3.16,12.09,12.09,0,0,1-5,.87,8,8,0,0,1-5.94-2.15,8.27,8.27,0,0,1-2.17-6.14,6.93,6.93,0,0,1,2.92-6.16c1.94-1.32,4.88-2.05,8.8-2.19l4.55-.14v-1.15q0-4-4.08-4a18.53,18.53,0,0,0-7.39,1.9l-2.36-4.83a21.27,21.27,0,0,1,10-2.37c3.51,0,6.21.77,8.08,2.3s2.82,3.86,2.82,7v17.47Zm-2.1-12.15-2.77.1a8.89,8.89,0,0,0-4.64,1.12,3.53,3.53,0,0,0-1.52,3.14q0,3,3.46,3a5.52,5.52,0,0,0,4-1.43,5,5,0,0,0,1.49-3.8Z"/><path class="cls-2" d="M479.08,229.51a15.39,15.39,0,0,0,4.5-.82V234A16,16,0,0,1,477,235.2q-4.29,0-6.25-2.16c-1.3-1.45-2-3.62-2-6.51V213.9h-3.42v-3l3.94-2.39,2.06-5.54H476v5.58h7.34v5.37H476v12.63a2.78,2.78,0,0,0,.86,2.25A3.34,3.34,0,0,0,479.08,229.51Z"/><path class="cls-2" d="M518.28,234.74l-1-3.36h-.37a7.59,7.59,0,0,1-3.26,2.83,11.16,11.16,0,0,1-4.8,1q-4.62,0-7-2.47t-2.35-7.11V208.53h7.15v15.31a7.34,7.34,0,0,0,1,4.25,3.65,3.65,0,0,0,3.21,1.42,4.84,4.84,0,0,0,4.34-2c.89-1.33,1.33-3.55,1.33-6.64V208.53h7.15v26.21Z"/><path class="cls-2" d="M548.72,227a7.19,7.19,0,0,1-2.8,6.14c-1.86,1.41-4.66,2.11-8.38,2.11a26.15,26.15,0,0,1-4.87-.38,18.58,18.58,0,0,1-3.77-1.14v-5.91a24.2,24.2,0,0,0,4.48,1.57,17.87,17.87,0,0,0,4.4.64q3.88,0,3.89-2.25a1.85,1.85,0,0,0-.52-1.37,7.14,7.14,0,0,0-1.78-1.2c-.84-.44-2-1-3.37-1.56a20.72,20.72,0,0,1-4.44-2.34,6.58,6.58,0,0,1-2.07-2.47,8.19,8.19,0,0,1-.64-3.44,6.2,6.2,0,0,1,2.71-5.4q2.7-1.9,7.67-1.91a21.83,21.83,0,0,1,9.21,2.06l-2.15,5.16c-1.32-.56-2.54-1-3.68-1.38a11.56,11.56,0,0,0-3.49-.54c-2.11,0-3.17.57-3.17,1.71a2,2,0,0,0,1,1.66,27.35,27.35,0,0,0,4.47,2.09,21.11,21.11,0,0,1,4.5,2.32,6.89,6.89,0,0,1,2.1,2.48A7.56,7.56,0,0,1,548.72,227Z"/><path class="cls-2" d="M565.35,235.2q-6.33,0-9.89-3.49t-3.57-9.89q0-6.58,3.3-10.18t9.1-3.6q5.57,0,8.65,3.16T576,220v3.47H559.14a6.84,6.84,0,0,0,1.8,4.75,6.35,6.35,0,0,0,4.73,1.71,19.53,19.53,0,0,0,4.48-.49,22.35,22.35,0,0,0,4.41-1.57v5.53a16.86,16.86,0,0,1-4,1.4A25.65,25.65,0,0,1,565.35,235.2Zm-1-22.07a4.53,4.53,0,0,0-3.56,1.44,6.63,6.63,0,0,0-1.48,4.09h10a6,6,0,0,0-1.38-4.09A4.69,4.69,0,0,0,564.34,213.13Z"/><path class="cls-2" d="M599.31,227a7.19,7.19,0,0,1-2.8,6.14q-2.81,2.11-8.38,2.11a26.15,26.15,0,0,1-4.87-.38,18.68,18.68,0,0,1-3.78-1.14v-5.91a24.58,24.58,0,0,0,4.49,1.57,17.87,17.87,0,0,0,4.4.64q3.89,0,3.89-2.25a1.9,1.9,0,0,0-.52-1.37,7.34,7.34,0,0,0-1.78-1.2c-.84-.44-2-1-3.38-1.56a21.24,21.24,0,0,1-4.44-2.34,6.64,6.64,0,0,1-2.06-2.47,8.19,8.19,0,0,1-.64-3.44,6.22,6.22,0,0,1,2.7-5.4q2.72-1.9,7.68-1.91A21.83,21.83,0,0,1,599,210.1l-2.16,5.16c-1.31-.56-2.54-1-3.68-1.38a11.51,11.51,0,0,0-3.49-.54c-2.11,0-3.16.57-3.16,1.71a2,2,0,0,0,1,1.66A27.54,27.54,0,0,0,592,218.8a20.62,20.62,0,0,1,4.5,2.32,6.83,6.83,0,0,1,2.11,2.48A7.7,7.7,0,0,1,599.31,227Z"/><path class="cls-3" d="M632.46,234.74l-1.76-3.52h-.18a10.49,10.49,0,0,1-3.78,3.14,12.52,12.52,0,0,1-5,.84,7.77,7.77,0,0,1-5.9-2.25,8.76,8.76,0,0,1-2.16-6.32,7.22,7.22,0,0,1,2.95-6.32q3-2.07,8.56-2.33l4.43-.14v-.38q0-3.28-3.24-3.28a19.44,19.44,0,0,0-7.38,2l-2.65-6.05a25.54,25.54,0,0,1,11.72-2.39c3.41,0,6,.85,7.91,2.53a9.05,9.05,0,0,1,2.8,7.08v17.42Zm-6.8-6a4.16,4.16,0,0,0,2.85-1.06,3.5,3.5,0,0,0,1.19-2.74v-2.06l-2.11.09q-4.53.17-4.53,3.33C623.06,227.92,623.93,228.74,625.66,228.74Z"/><path class="cls-3" d="M660.26,207.71a12.83,12.83,0,0,1,2.28.19l.51.09-.82,8.65a13.37,13.37,0,0,0-3.12-.28,6,6,0,0,0-4.36,1.37,5.41,5.41,0,0,0-1.36,4v13.06h-9.16V208.18h6.82l1.43,4.24h.45a9.23,9.23,0,0,1,3.19-3.41A7.74,7.74,0,0,1,660.26,207.71Z"/><path class="cls-3" d="M679,228a13.62,13.62,0,0,0,4.43-.91v6.68a17.72,17.72,0,0,1-3.53,1.13,19.76,19.76,0,0,1-3.93.34c-3.08,0-5.29-.75-6.65-2.26s-2-3.82-2-6.95V215.05H664v-3.73l4.07-2.88,2.37-5.58h6v5.32H683v6.87h-6.52v10.33Q676.46,228,679,228Z"/><path class="cls-3" d="M687,201.57a3.9,3.9,0,0,1,1.15-3.07,7.28,7.28,0,0,1,7.43,0,3.86,3.86,0,0,1,1.17,3q0,4-4.9,4T687,201.57Zm9.4,33.17h-9.16V208.18h9.16Z"/><path class="cls-3" d="M718.21,215.05h-5.65v19.69H703.4V215.05h-3.52v-4.5l3.71-2.25v-.45q0-5.25,2.14-7.54c1.43-1.54,3.73-2.3,6.88-2.3a20.12,20.12,0,0,1,3.46.28,29.15,29.15,0,0,1,3.78,1l-2,5.93a12.33,12.33,0,0,0-3.3-.46,1.81,1.81,0,0,0-1.54.64,3.57,3.57,0,0,0-.48,2.1v.7h5.65Zm3.42-13.48a3.9,3.9,0,0,1,1.15-3.07,7.28,7.28,0,0,1,7.43,0,3.86,3.86,0,0,1,1.17,3q0,4-4.89,4T721.63,201.57Zm9.4,33.17h-9.16V208.18H731Z"/><path class="cls-3" d="M748.69,235.2q-6.53,0-9.88-3.51t-3.37-10.1q0-6.61,3.64-10.25t10.33-3.63a19.3,19.3,0,0,1,8.7,2l-2.7,6.77a30.46,30.46,0,0,0-3.07-1.16,9.85,9.85,0,0,0-2.93-.43,4,4,0,0,0-3.44,1.73,8.39,8.39,0,0,0-1.22,4.9q0,6.38,4.71,6.38a14.26,14.26,0,0,0,7.73-2.35v7.29A15.06,15.06,0,0,1,748.69,235.2Z"/><path class="cls-3" d="M761.46,201.57a3.9,3.9,0,0,1,1.15-3.07,7.28,7.28,0,0,1,7.43,0,3.86,3.86,0,0,1,1.17,3q0,4-4.89,4T761.46,201.57Zm9.4,33.17H761.7V208.18h9.16Z"/><path class="cls-3" d="M793.76,234.74,792,231.22h-.19a10.47,10.47,0,0,1-3.77,3.14,12.55,12.55,0,0,1-5,.84,7.81,7.81,0,0,1-5.91-2.25,8.76,8.76,0,0,1-2.16-6.32,7.2,7.2,0,0,1,3-6.32q3-2.07,8.55-2.33l4.43-.14v-.38q0-3.28-3.23-3.28a19.44,19.44,0,0,0-7.39,2l-2.64-6.05a25.51,25.51,0,0,1,11.72-2.39c3.4,0,6,.85,7.91,2.53a9.09,9.09,0,0,1,2.8,7.08v17.42Zm-6.79-6a4.16,4.16,0,0,0,2.85-1.06,3.53,3.53,0,0,0,1.18-2.74v-2.06l-2.11.09c-3,.11-4.52,1.22-4.52,3.33C784.37,227.92,785.23,228.74,787,228.74Z"/><path class="cls-3" d="M814.7,234.74h-9.17V198.27h9.17Z"/><path class="cls-3" d="M831.7,201.57a3.86,3.86,0,0,1,1.15-3.07,5.55,5.55,0,0,1,3.7-1,5.61,5.61,0,0,1,3.73,1,3.86,3.86,0,0,1,1.17,3q0,4-4.9,4T831.7,201.57Zm9.4,33.17h-9.17V208.18h9.17Z"/><path class="cls-3" d="M863.44,234.74V220.25a8.44,8.44,0,0,0-.76-4,2.62,2.62,0,0,0-2.45-1.34,3.52,3.52,0,0,0-3.35,1.85q-1,1.85-1,6.35v11.63h-9.16V208.18h6.91l1.15,3.28h.54a7.24,7.24,0,0,1,3.25-2.81,11.38,11.38,0,0,1,4.77-.94,9,9,0,0,1,6.85,2.56c1.64,1.7,2.45,4.1,2.45,7.19v17.28Z"/><path class="cls-3" d="M891,228a13.62,13.62,0,0,0,4.43-.91v6.68a17.72,17.72,0,0,1-3.53,1.13,19.76,19.76,0,0,1-3.93.34q-4.61,0-6.65-2.26c-1.36-1.51-2-3.82-2-6.95V215.05H876.1v-3.73l4.08-2.88,2.36-5.58h6v5.32h6.52v6.87h-6.52v10.33Q888.54,228,891,228Z"/><path class="cls-3" d="M912.1,235.2q-6.63,0-10.3-3.52t-3.67-10.05q0-6.72,3.4-10.32t9.71-3.6q6,0,9.27,3.13t3.27,9v4.08H907.39a4.56,4.56,0,0,0,1.63,3.49,6.35,6.35,0,0,0,4.19,1.27,20,20,0,0,0,4.44-.46,21.42,21.42,0,0,0,4.39-1.56v6.59a16.29,16.29,0,0,1-4.45,1.52A31,31,0,0,1,912.1,235.2ZM911.56,214a3.8,3.8,0,0,0-2.7,1,4.78,4.78,0,0,0-1.28,3.2h7.88a4.66,4.66,0,0,0-1.09-3.08A3.63,3.63,0,0,0,911.56,214Z"/><path class="cls-3" d="M937.3,234.74h-9.16V198.27h9.16Z"/><path class="cls-3" d="M952,234.74h-9.16V198.27H952Z"/><path class="cls-3" d="M957.35,201.57a3.86,3.86,0,0,1,1.15-3.07,7.28,7.28,0,0,1,7.43,0,3.86,3.86,0,0,1,1.17,3q0,4-4.9,4T957.35,201.57Zm9.4,33.17h-9.17V208.18h9.17Z"/><path class="cls-3" d="M997.39,208.18v4.43L993.75,214a6.42,6.42,0,0,1,.75,3.16,8,8,0,0,1-3,6.66c-2,1.57-5,2.36-9,2.36a12.05,12.05,0,0,1-2.34-.18,2.4,2.4,0,0,0-.33,1.14c0,.46.37.81,1.1,1a9.57,9.57,0,0,0,2.89.36h4.4q8.92,0,8.93,7.52a8.52,8.52,0,0,1-4.14,7.55q-4.12,2.7-11.61,2.7c-3.76,0-6.67-.63-8.71-1.89a6,6,0,0,1-3.05-5.43q0-4.75,5.9-6.14a5.25,5.25,0,0,1-2.12-1.66,3.57,3.57,0,0,1-.22-4.47,10.21,10.21,0,0,1,2.83-2.26,7.08,7.08,0,0,1-3.24-2.86,8.9,8.9,0,0,1-1.19-4.73,8.18,8.18,0,0,1,3-6.73q3-2.39,8.44-2.39c.48,0,1.32.06,2.5.17s2.07.21,2.63.3Zm-20,29.86a2.07,2.07,0,0,0,1.22,1.82,6.61,6.61,0,0,0,3.26.69,14.25,14.25,0,0,0,5.33-.83c1.33-.56,2-1.27,2-2.15a1.54,1.54,0,0,0-1.22-1.49,10.85,10.85,0,0,0-3.49-.43h-3.58a4.35,4.35,0,0,0-2.5.69A2,2,0,0,0,977.37,238Zm2.88-21.16q0,4.06,2.84,4.07a2.35,2.35,0,0,0,2-1,5.32,5.32,0,0,0,.71-3q0-4.12-2.74-4.12T980.25,216.88Z"/><path class="cls-3" d="M1013.42,235.2q-6.63,0-10.3-3.52t-3.67-10.05q0-6.72,3.4-10.32t9.7-3.6q6,0,9.27,3.13t3.27,9v4.08h-16.38a4.53,4.53,0,0,0,1.63,3.49,6.34,6.34,0,0,0,4.18,1.27,19.85,19.85,0,0,0,4.44-.46,21.29,21.29,0,0,0,4.4-1.56v6.59a16.29,16.29,0,0,1-4.45,1.52A31,31,0,0,1,1013.42,235.2Zm-.54-21.25a3.78,3.78,0,0,0-2.7,1,4.74,4.74,0,0,0-1.28,3.2h7.87a4.56,4.56,0,0,0-1.09-3.08A3.6,3.6,0,0,0,1012.88,214Z"/><path class="cls-3" d="M1046.21,234.74V220.25a8.32,8.32,0,0,0-.76-4,2.6,2.6,0,0,0-2.45-1.34,3.54,3.54,0,0,0-3.35,1.85q-1,1.85-1,6.35v11.63h-9.16V208.18h6.91l1.15,3.28h.54a7.22,7.22,0,0,1,3.24-2.81,11.44,11.44,0,0,1,4.77-.94,9,9,0,0,1,6.86,2.56q2.44,2.55,2.45,7.19v17.28Z"/><path class="cls-3" d="M1072.89,235.2q-6.51,0-9.88-3.51t-3.36-10.1q0-6.61,3.63-10.25t10.34-3.63a19.26,19.26,0,0,1,8.69,2l-2.69,6.77a31.39,31.39,0,0,0-3.07-1.16,9.89,9.89,0,0,0-2.93-.43,4,4,0,0,0-3.45,1.73,8.47,8.47,0,0,0-1.22,4.9q0,6.38,4.71,6.38a14.3,14.3,0,0,0,7.74-2.35v7.29A15.09,15.09,0,0,1,1072.89,235.2Z"/><path class="cls-3" d="M1098.68,235.2q-6.65,0-10.3-3.52t-3.67-10.05q0-6.72,3.4-10.32t9.7-3.6q6,0,9.27,3.13t3.27,9v4.08H1094a4.52,4.52,0,0,0,1.62,3.49,6.37,6.37,0,0,0,4.19,1.27,19.85,19.85,0,0,0,4.44-.46,21.22,21.22,0,0,0,4.39-1.56v6.59a16.17,16.17,0,0,1-4.45,1.52A30.93,30.93,0,0,1,1098.68,235.2Zm-.54-21.25a3.82,3.82,0,0,0-2.71,1,4.78,4.78,0,0,0-1.28,3.2H1102a4.61,4.61,0,0,0-1.09-3.08A3.62,3.62,0,0,0,1098.14,214Z"/><path class="cls-2" d="M400.15,287.11a15.39,15.39,0,0,0,4.5-.82v5.32a16,16,0,0,1-6.56,1.19q-4.29,0-6.25-2.16t-1.95-6.51V271.5h-3.43v-3l3.94-2.39,2.06-5.54H397v5.58h7.33v5.37H397v12.63a2.78,2.78,0,0,0,.85,2.25A3.34,3.34,0,0,0,400.15,287.11Z"/><path class="cls-2" d="M433,279.19q0,6.39-3.38,10t-9.4,3.6a13.15,13.15,0,0,1-6.65-1.65,10.93,10.93,0,0,1-4.43-4.74,15.86,15.86,0,0,1-1.55-7.22q0-6.42,3.35-10c2.23-2.37,5.38-3.56,9.42-3.56a13.26,13.26,0,0,1,6.66,1.64A11,11,0,0,1,431.4,272,15.85,15.85,0,0,1,433,279.19Zm-18.12,0a10.92,10.92,0,0,0,1.28,5.88,4.55,4.55,0,0,0,4.16,2,4.5,4.5,0,0,0,4.11-2,11.2,11.2,0,0,0,1.25-5.89,10.87,10.87,0,0,0-1.26-5.84,5.4,5.4,0,0,0-8.28,0A10.86,10.86,0,0,0,414.83,279.19Z"/><path class="cls-2" d="M464.17,271.5H458v20.84h-7.15V271.5H446.9v-3.45l3.94-1.92v-1.92q0-4.47,2.2-6.54t7-2.06a18.47,18.47,0,0,1,6.59,1.1L464.85,262a13.35,13.35,0,0,0-4-.68,2.57,2.57,0,0,0-2.2.9,3.71,3.71,0,0,0-.68,2.31v1.64h6.18Zm3.8-12.14q0-3.5,3.89-3.49t3.89,3.49a3.4,3.4,0,0,1-1,2.59,4.08,4.08,0,0,1-2.92.93C469.27,262.88,468,261.7,468,259.36Zm7.45,33h-7.15V266.13h7.15Z"/><path class="cls-2" d="M506.27,292.34h-7.15V277a7.26,7.26,0,0,0-1-4.25,3.65,3.65,0,0,0-3.21-1.42,4.83,4.83,0,0,0-4.33,2c-.89,1.34-1.34,3.55-1.34,6.65v12.33h-7.15V266.13h5.46l1,3.35h.4a7.62,7.62,0,0,1,3.3-2.87,11.14,11.14,0,0,1,4.77-1c3,0,5.36.82,6.93,2.47s2.37,4,2.37,7.14Z"/><path class="cls-2" d="M521.11,292.8a8.5,8.5,0,0,1-7.25-3.58q-2.64-3.59-2.64-9.94t2.68-10a8.73,8.73,0,0,1,7.4-3.6,8.56,8.56,0,0,1,7.55,3.84h.23a29.09,29.09,0,0,1-.54-5.22v-8.39h7.17v36.47h-5.48l-1.38-3.4h-.31A8.16,8.16,0,0,1,521.11,292.8Zm2.51-5.69a4.85,4.85,0,0,0,4-1.59c.85-1.07,1.32-2.87,1.39-5.42v-.77q0-4.21-1.3-6.05a4.81,4.81,0,0,0-4.23-1.83,4.19,4.19,0,0,0-3.71,2,10.76,10.76,0,0,0-1.33,5.9,10.27,10.27,0,0,0,1.34,5.8A4.38,4.38,0,0,0,523.62,287.11Z"/><path class="cls-2" d="M570.67,292.34l-1.39-3.57h-.18a10.6,10.6,0,0,1-3.72,3.16,12.09,12.09,0,0,1-5,.87,8.05,8.05,0,0,1-5.94-2.15,8.27,8.27,0,0,1-2.17-6.14,6.9,6.9,0,0,1,2.92-6.15c1.95-1.32,4.88-2.06,8.8-2.2l4.55-.14v-1.14q0-4-4.08-4a18.49,18.49,0,0,0-7.38,1.9L554.73,268a21.29,21.29,0,0,1,10-2.37c3.52,0,6.21.77,8.09,2.3s2.81,3.86,2.81,7v17.46Zm-2.11-12.14-2.77.09a8.91,8.91,0,0,0-4.64,1.12,3.55,3.55,0,0,0-1.52,3.14c0,2,1.15,3,3.47,3a5.51,5.51,0,0,0,4-1.43,5,5,0,0,0,1.49-3.8Z"/><path class="cls-2" d="M606.39,292.34h-7.15V277a7.26,7.26,0,0,0-1-4.25,3.65,3.65,0,0,0-3.21-1.42,4.83,4.83,0,0,0-4.33,2c-.89,1.34-1.34,3.55-1.34,6.65v12.33H582.2V266.13h5.46l1,3.35h.4a7.62,7.62,0,0,1,3.3-2.87,11.12,11.12,0,0,1,4.76-1q4.57,0,6.94,2.47t2.37,7.14Z"/><path class="cls-2" d="M621.23,292.8a8.49,8.49,0,0,1-7.25-3.58q-2.64-3.59-2.64-9.94t2.68-10a8.73,8.73,0,0,1,7.4-3.6,8.54,8.54,0,0,1,7.54,3.84h.24a29.09,29.09,0,0,1-.54-5.22v-8.39h7.17v36.47h-5.48l-1.39-3.4h-.3A8.16,8.16,0,0,1,621.23,292.8Zm2.51-5.69a4.85,4.85,0,0,0,4-1.59c.85-1.07,1.31-2.87,1.39-5.42v-.77q0-4.21-1.3-6.05a4.84,4.84,0,0,0-4.23-1.83,4.19,4.19,0,0,0-3.71,2,10.76,10.76,0,0,0-1.33,5.9,10.27,10.27,0,0,0,1.34,5.8A4.38,4.38,0,0,0,623.74,287.11Z"/><path class="cls-3" d="M669.5,292.8a9.33,9.33,0,0,1-3.61-.66,9.21,9.21,0,0,1-3.17-2.41h-.42a34,34,0,0,1,.42,3.47v10.67h-9.16V265.78H661l1.29,3.38h.42a8,8,0,0,1,7.06-3.85,7.94,7.94,0,0,1,6.91,3.66q2.5,3.66,2.51,10t-2.61,10.11A8.26,8.26,0,0,1,669.5,292.8Zm-3.07-20.29A3,3,0,0,0,663.6,274a9.48,9.48,0,0,0-.88,4.28V279a10.06,10.06,0,0,0,.92,4.95,3.12,3.12,0,0,0,2.88,1.52,2.67,2.67,0,0,0,2.55-1.51,11.32,11.32,0,0,0,.8-5,10.9,10.9,0,0,0-.8-4.91A2.75,2.75,0,0,0,666.43,272.51Z"/><path class="cls-3" d="M699.64,265.31a13.84,13.84,0,0,1,2.28.19l.51.09-.82,8.65a13.37,13.37,0,0,0-3.12-.28,6,6,0,0,0-4.36,1.37,5.41,5.41,0,0,0-1.36,3.95v13.06h-9.16V265.78h6.82l1.43,4.24h.45a9.23,9.23,0,0,1,3.19-3.41A7.74,7.74,0,0,1,699.64,265.31Z"/><path class="cls-3" d="M730.68,279q0,6.51-3.51,10.16t-9.81,3.64a12.73,12.73,0,0,1-9.62-3.72q-3.57-3.74-3.57-10.08,0-6.5,3.5-10.09t9.83-3.6a14,14,0,0,1,6.92,1.67,11.39,11.39,0,0,1,4.63,4.77A15.44,15.44,0,0,1,730.68,279Zm-17.21,0a11.74,11.74,0,0,0,.92,5.21,3.17,3.17,0,0,0,3.07,1.8,3.09,3.09,0,0,0,3-1.8,12.11,12.11,0,0,0,.88-5.21,11.6,11.6,0,0,0-.89-5.13,3.52,3.52,0,0,0-6.07,0A11.26,11.26,0,0,0,713.47,279Z"/><path class="cls-3" d="M767.69,292.34V277.9a8.64,8.64,0,0,0-.74-4,2.47,2.47,0,0,0-2.33-1.35,3.27,3.27,0,0,0-3.09,1.8,12.28,12.28,0,0,0-1,5.65v12.38h-9.19V277.9a9,9,0,0,0-.7-4,2.38,2.38,0,0,0-2.27-1.35,3.28,3.28,0,0,0-3.14,1.92q-1,1.92-1,6.28v11.63h-9.16V265.78H742l1.15,3.28h.54a6.81,6.81,0,0,1,3.06-2.79,10.39,10.39,0,0,1,4.56-1c3.82,0,6.51,1.17,8.06,3.49h.73a7.56,7.56,0,0,1,3.12-2.56,10.39,10.39,0,0,1,4.42-.93q4.71,0,7,2.42t2.25,7.33v17.28Z"/><path class="cls-3" d="M807.63,279q0,6.51-3.5,10.16t-9.81,3.64a12.71,12.71,0,0,1-9.62-3.72q-3.59-3.74-3.58-10.08,0-6.5,3.51-10.09t9.83-3.6a14,14,0,0,1,6.91,1.67,11.33,11.33,0,0,1,4.63,4.77A15.32,15.32,0,0,1,807.63,279Zm-17.2,0a11.76,11.76,0,0,0,.91,5.21,3.17,3.17,0,0,0,3.07,1.8,3.08,3.08,0,0,0,3-1.8,12.11,12.11,0,0,0,.88-5.21,11.46,11.46,0,0,0-.89-5.13,3.14,3.14,0,0,0-3-1.74,3.17,3.17,0,0,0-3,1.73A11.28,11.28,0,0,0,790.43,279Z"/><path class="cls-3" d="M825.05,285.56a13.62,13.62,0,0,0,4.43-.91v6.68a17.52,17.52,0,0,1-3.53,1.13,19.66,19.66,0,0,1-3.92.34q-4.62,0-6.66-2.26t-2-7V272.65h-3.21v-3.73L814.2,266l2.37-5.58h6v5.32h6.51v6.87h-6.51V283C822.57,284.7,823.39,285.56,825.05,285.56Z"/><path class="cls-3" d="M846.12,292.8q-6.63,0-10.3-3.52t-3.66-10q0-6.72,3.39-10.32t9.71-3.6q6,0,9.27,3.13t3.27,9v4.08H841.41A4.56,4.56,0,0,0,843,285a6.37,6.37,0,0,0,4.19,1.27,19.92,19.92,0,0,0,4.44-.46,21.42,21.42,0,0,0,4.39-1.56v6.59a16.29,16.29,0,0,1-4.45,1.52A31,31,0,0,1,846.12,292.8Zm-.54-21.25a3.8,3.8,0,0,0-2.7,1,4.78,4.78,0,0,0-1.28,3.2h7.88a4.61,4.61,0,0,0-1.09-3.07A3.6,3.6,0,0,0,845.58,271.55Z"/><path class="cls-2" d="M400.15,344.71a15.39,15.39,0,0,0,4.5-.82v5.32a16,16,0,0,1-6.56,1.19q-4.29,0-6.25-2.16t-1.95-6.51V329.1h-3.43v-3l3.94-2.39,2.06-5.54H397v5.58h7.33v5.37H397v12.63a2.78,2.78,0,0,0,.85,2.25A3.34,3.34,0,0,0,400.15,344.71Z"/><path class="cls-2" d="M433.32,349.94h-7.15V334.63c0-3.78-1.4-5.67-4.22-5.67a4.79,4.79,0,0,0-4.33,2q-1.33,2-1.34,6.61v12.33h-7.15V313.47h7.15v7.43c0,.57,0,1.93-.16,4.07l-.17,2.11h.38q2.39-3.84,7.59-3.84,4.62,0,7,2.48t2.39,7.13Z"/><path class="cls-2" d="M451.72,350.4q-6.33,0-9.89-3.49T438.27,337q0-6.58,3.29-10.18t9.11-3.6q5.55,0,8.65,3.16t3.09,8.75v3.47h-16.9a6.85,6.85,0,0,0,1.81,4.75,6.34,6.34,0,0,0,4.73,1.71,19.59,19.59,0,0,0,4.48-.49,22.5,22.5,0,0,0,4.4-1.57v5.53a16.78,16.78,0,0,1-4,1.4A25.76,25.76,0,0,1,451.72,350.4Zm-1-22.07a4.55,4.55,0,0,0-3.57,1.44,6.62,6.62,0,0,0-1.47,4.09h10a6,6,0,0,0-1.38-4.09A4.71,4.71,0,0,0,450.72,328.33Z"/><path class="cls-2" d="M500.6,349.94l-2-9.17-2.72-11.58h-.16l-4.78,20.75h-7.69l-7.45-26.21h7.12l3,11.6q.72,3.12,1.47,8.61h.14a50.88,50.88,0,0,1,.82-5.65l.38-2L492,323.73h7.88l3.07,12.56c.06.35.16.86.29,1.53s.26,1.39.39,2.14.24,1.5.34,2.23a16.49,16.49,0,0,1,.17,1.75h.14c.15-1.13.4-2.67.75-4.63s.62-3.29.78-4l3.14-11.6h7l-7.55,26.21Z"/><path class="cls-2" d="M543.14,336.79q0,6.39-3.37,10t-9.4,3.61a13.16,13.16,0,0,1-6.66-1.65,11,11,0,0,1-4.43-4.74,16,16,0,0,1-1.54-7.22q0-6.42,3.35-10t9.42-3.56a13.28,13.28,0,0,1,6.66,1.64,11,11,0,0,1,4.43,4.71A15.85,15.85,0,0,1,543.14,336.79Zm-18.11,0a11,11,0,0,0,1.27,5.88,4.56,4.56,0,0,0,4.16,2,4.51,4.51,0,0,0,4.12-2,11.2,11.2,0,0,0,1.25-5.89,10.77,10.77,0,0,0-1.27-5.84,5.39,5.39,0,0,0-8.27,0A10.86,10.86,0,0,0,525,336.79Z"/><path class="cls-2" d="M562.86,323.24a11.52,11.52,0,0,1,2.41.21l-.54,6.7a8.5,8.5,0,0,0-2.11-.23,7.58,7.58,0,0,0-5.33,1.76,6.36,6.36,0,0,0-1.91,4.92v13.34h-7.15V323.73h5.42l1.05,4.41h.35a9.87,9.87,0,0,1,3.3-3.55A8.09,8.09,0,0,1,562.86,323.24Z"/><path class="cls-2" d="M576.36,349.94h-7.15V313.47h7.15Z"/><path class="cls-2" d="M591.34,350.4a8.5,8.5,0,0,1-7.25-3.58q-2.64-3.58-2.64-9.94t2.69-10a8.7,8.7,0,0,1,7.39-3.6,8.56,8.56,0,0,1,7.55,3.84h.23a29.09,29.09,0,0,1-.54-5.22v-8.39h7.17v36.47h-5.48l-1.38-3.4h-.31A8.16,8.16,0,0,1,591.34,350.4Zm2.51-5.69a4.85,4.85,0,0,0,4-1.59c.85-1.07,1.32-2.87,1.39-5.42v-.77q0-4.21-1.3-6.05a4.81,4.81,0,0,0-4.23-1.83,4.19,4.19,0,0,0-3.71,2,10.84,10.84,0,0,0-1.33,5.89,10.28,10.28,0,0,0,1.34,5.81A4.38,4.38,0,0,0,593.85,344.71Z"/><path class="cls-2" d="M618.37,315.67l.33.52a71.83,71.83,0,0,1-4.13,11.22h-5.13q1.62-6.93,2.35-11.74Z"/><path class="cls-2" d="M640.48,342.15a7.22,7.22,0,0,1-2.8,6.14q-2.8,2.11-8.38,2.11a26.26,26.26,0,0,1-4.88-.38,18.58,18.58,0,0,1-3.77-1.14V343a24.31,24.31,0,0,0,4.49,1.57,17.8,17.8,0,0,0,4.39.64q3.88,0,3.89-2.25a1.89,1.89,0,0,0-.51-1.37,7.75,7.75,0,0,0-1.79-1.2c-.84-.44-2-1-3.37-1.56a20.72,20.72,0,0,1-4.44-2.34,6.55,6.55,0,0,1-2.06-2.47,8.18,8.18,0,0,1-.65-3.44,6.2,6.2,0,0,1,2.71-5.4q2.7-1.9,7.67-1.91a21.91,21.91,0,0,1,9.22,2.06L638,330.46c-1.31-.56-2.54-1-3.68-1.38a11.56,11.56,0,0,0-3.49-.54c-2.11,0-3.17.57-3.17,1.71a2,2,0,0,0,1,1.66,27.35,27.35,0,0,0,4.47,2.09,21.11,21.11,0,0,1,4.5,2.32,7,7,0,0,1,2.11,2.48A7.7,7.7,0,0,1,640.48,342.15Z"/><path class="cls-2" d="M679.7,323.73v3.64l-4.11,1.05a7.14,7.14,0,0,1,1.13,3.94,8,8,0,0,1-2.94,6.57c-2,1.57-4.69,2.36-8.17,2.36l-1.29-.07-1.05-.12a2.36,2.36,0,0,0-1.1,1.87c0,1,1.31,1.55,3.93,1.55h4.46q4.31,0,6.57,1.85a6.62,6.62,0,0,1,2.26,5.44,8.09,8.09,0,0,1-3.83,7.13q-3.84,2.52-11,2.53-5.49,0-8.38-1.91a6.08,6.08,0,0,1-2.9-5.36,5.57,5.57,0,0,1,1.48-4,8.36,8.36,0,0,1,4.33-2.27,4.92,4.92,0,0,1-1.92-1.54,3.77,3.77,0,0,1,.05-4.76,10,10,0,0,1,2.51-1.95,7,7,0,0,1-3.27-2.86,8.67,8.67,0,0,1-1.21-4.64,8.21,8.21,0,0,1,2.79-6.64q2.79-2.34,8-2.34a21,21,0,0,1,2.61.2c1,.13,1.65.23,1.94.29Zm-20.23,29.91a2.59,2.59,0,0,0,1.42,2.32,7.81,7.81,0,0,0,4,.84,14.11,14.11,0,0,0,6-1.05c1.46-.71,2.18-1.67,2.18-2.88a2,2,0,0,0-1.29-2,10.36,10.36,0,0,0-4-.57h-3.7a5.61,5.61,0,0,0-3.3.93A2.86,2.86,0,0,0,659.47,353.64Zm2.6-21.33a5.41,5.41,0,0,0,1,3.38,3.56,3.56,0,0,0,3,1.24,3.47,3.47,0,0,0,3-1.24,5.47,5.47,0,0,0,.94-3.38c0-3.16-1.3-4.73-3.89-4.73S662.07,329.15,662.07,332.31Z"/><path class="cls-2" d="M697.82,323.24a11.52,11.52,0,0,1,2.41.21l-.54,6.7a8.5,8.5,0,0,0-2.11-.23,7.58,7.58,0,0,0-5.33,1.76,6.36,6.36,0,0,0-1.91,4.92v13.34h-7.15V323.73h5.42l1,4.41H690a9.87,9.87,0,0,1,3.3-3.55A8.09,8.09,0,0,1,697.82,323.24Z"/><path class="cls-2" d="M716,350.4q-6.33,0-9.89-3.49T702.58,337q0-6.58,3.29-10.18t9.11-3.6q5.55,0,8.65,3.16t3.09,8.75v3.47h-16.9a6.85,6.85,0,0,0,1.81,4.75,6.34,6.34,0,0,0,4.73,1.71,19.59,19.59,0,0,0,4.48-.49,22.5,22.5,0,0,0,4.4-1.57v5.53a16.78,16.78,0,0,1-4,1.4A25.76,25.76,0,0,1,716,350.4Zm-1-22.07a4.55,4.55,0,0,0-3.57,1.44,6.62,6.62,0,0,0-1.47,4.09h10a5.9,5.9,0,0,0-1.39-4.09A4.67,4.67,0,0,0,715,328.33Z"/><path class="cls-2" d="M748.36,349.94,747,346.37h-.18a10.6,10.6,0,0,1-3.72,3.16,12.09,12.09,0,0,1-5,.87,8.05,8.05,0,0,1-5.94-2.15,8.32,8.32,0,0,1-2.17-6.14A6.92,6.92,0,0,1,732.9,336q2.93-2,8.8-2.2l4.55-.14v-1.15q0-4-4.08-4a18.53,18.53,0,0,0-7.38,1.9l-2.37-4.83a21.29,21.29,0,0,1,10-2.37c3.52,0,6.21.77,8.09,2.3s2.81,3.86,2.81,7v17.47Zm-2.11-12.15-2.77.1a8.91,8.91,0,0,0-4.64,1.12,3.55,3.55,0,0,0-1.52,3.14c0,2,1.15,3,3.47,3a5.51,5.51,0,0,0,4-1.43,5,5,0,0,0,1.49-3.8Z"/><path class="cls-2" d="M770.93,344.71a15.39,15.39,0,0,0,4.5-.82v5.32a16,16,0,0,1-6.56,1.19q-4.29,0-6.25-2.16t-2-6.51V329.1h-3.42v-3l3.93-2.39,2.07-5.54h4.57v5.58h7.33v5.37h-7.33v12.63a2.78,2.78,0,0,0,.85,2.25A3.36,3.36,0,0,0,770.93,344.71Z"/><path class="cls-2" d="M791.77,350.4q-6.33,0-9.89-3.49T778.32,337q0-6.58,3.29-10.18t9.11-3.6q5.55,0,8.65,3.16t3.09,8.75v3.47h-16.9a6.85,6.85,0,0,0,1.81,4.75,6.34,6.34,0,0,0,4.73,1.71,19.59,19.59,0,0,0,4.48-.49A22.5,22.5,0,0,0,801,343v5.53a16.78,16.78,0,0,1-4,1.4A25.76,25.76,0,0,1,791.77,350.4Zm-1-22.07a4.54,4.54,0,0,0-3.56,1.44,6.62,6.62,0,0,0-1.47,4.09h10a6,6,0,0,0-1.39-4.09A4.68,4.68,0,0,0,790.76,328.33Z"/><path class="cls-2" d="M825.74,342.15a7.22,7.22,0,0,1-2.8,6.14q-2.81,2.11-8.38,2.11a26.26,26.26,0,0,1-4.88-.38,18.58,18.58,0,0,1-3.77-1.14V343a24.31,24.31,0,0,0,4.49,1.57,17.8,17.8,0,0,0,4.39.64c2.6,0,3.89-.75,3.89-2.25a1.89,1.89,0,0,0-.51-1.37,7.87,7.87,0,0,0-1.78-1.2c-.85-.44-2-1-3.38-1.56a21,21,0,0,1-4.44-2.34,6.55,6.55,0,0,1-2.06-2.47,8.18,8.18,0,0,1-.65-3.44,6.2,6.2,0,0,1,2.71-5.4q2.7-1.9,7.68-1.91a21.9,21.9,0,0,1,9.21,2.06l-2.16,5.16c-1.31-.56-2.54-1-3.68-1.38a11.51,11.51,0,0,0-3.49-.54c-2.11,0-3.17.57-3.17,1.71a2,2,0,0,0,1,1.66,27.35,27.35,0,0,0,4.47,2.09,20.62,20.62,0,0,1,4.5,2.32,7,7,0,0,1,2.11,2.48A7.7,7.7,0,0,1,825.74,342.15Z"/><path class="cls-2" d="M841.54,344.71a15.39,15.39,0,0,0,4.5-.82v5.32a16,16,0,0,1-6.56,1.19q-4.29,0-6.25-2.16c-1.3-1.45-2-3.62-2-6.51V329.1h-3.42v-3l3.94-2.39,2.06-5.54h4.57v5.58h7.34v5.37h-7.34v12.63a2.78,2.78,0,0,0,.86,2.25A3.34,3.34,0,0,0,841.54,344.71Z"/><path class="cls-3" d="M894.19,349.94V335.5a8.64,8.64,0,0,0-.74-4,2.47,2.47,0,0,0-2.33-1.35,3.29,3.29,0,0,0-3.1,1.8,12.43,12.43,0,0,0-1,5.65v12.38h-9.19V335.5a9,9,0,0,0-.7-4,2.38,2.38,0,0,0-2.27-1.35,3.28,3.28,0,0,0-3.14,1.92q-1,1.92-1,6.28v11.63h-9.16V323.38h6.91l1.15,3.28h.54a6.81,6.81,0,0,1,3.06-2.79,10.39,10.39,0,0,1,4.56-1c3.82,0,6.51,1.17,8.06,3.49h.72a7.59,7.59,0,0,1,3.13-2.56,10.39,10.39,0,0,1,4.42-.93q4.71,0,7,2.42t2.25,7.33v17.28Z"/><path class="cls-3" d="M927.68,349.94l-1.14-3.31H926a7.47,7.47,0,0,1-3.2,2.8,11.12,11.12,0,0,1-4.82,1,9,9,0,0,1-6.82-2.54c-1.62-1.69-2.44-4.09-2.44-7.18v-17.3h9.17v14.51a8.26,8.26,0,0,0,.74,3.94,2.55,2.55,0,0,0,2.42,1.33,3.54,3.54,0,0,0,3.38-1.86q1-1.86,1-6.29V323.38h9.17v26.56Z"/><path class="cls-3" d="M960.62,341.78a7.54,7.54,0,0,1-2.91,6.44c-1.93,1.46-4.72,2.18-8.34,2.18a36.38,36.38,0,0,1-5.13-.31,21.92,21.92,0,0,1-4.46-1.16v-7.34a27.61,27.61,0,0,0,4.68,1.55,20,20,0,0,0,4.53.61c2,0,3-.46,3-1.36a1.56,1.56,0,0,0-.83-1.26A39.56,39.56,0,0,0,946.3,339a12.08,12.08,0,0,1-5.11-3.41,7.76,7.76,0,0,1-1.45-4.84A6.71,6.71,0,0,1,942.6,325c1.9-1.37,4.6-2.06,8.08-2.06a20.09,20.09,0,0,1,4.94.58,29.83,29.83,0,0,1,4.79,1.67l-2.49,5.91a27.91,27.91,0,0,0-3.86-1.4,13,13,0,0,0-3.33-.57c-1.5,0-2.25.37-2.25,1.1a1.38,1.38,0,0,0,.78,1.16,44.36,44.36,0,0,0,4.54,2,17.13,17.13,0,0,1,4.16,2.25,6.75,6.75,0,0,1,2,2.59A9.08,9.08,0,0,1,960.62,341.78Z"/><path class="cls-3" d="M964.7,316.77a3.86,3.86,0,0,1,1.15-3.07,7.28,7.28,0,0,1,7.43,0,3.86,3.86,0,0,1,1.17,3q0,4-4.9,4T964.7,316.77Zm9.4,33.17h-9.16V323.38h9.16Z"/><path class="cls-3" d="M991.78,350.4q-6.53,0-9.88-3.51t-3.37-10.1q0-6.62,3.64-10.25t10.33-3.63a19.3,19.3,0,0,1,8.7,2l-2.7,6.77a30.46,30.46,0,0,0-3.07-1.16,9.85,9.85,0,0,0-2.93-.43,4,4,0,0,0-3.44,1.73,8.39,8.39,0,0,0-1.22,4.9q0,6.38,4.71,6.38a14.26,14.26,0,0,0,7.73-2.35v7.29A15.06,15.06,0,0,1,991.78,350.4Z"/><path class="cls-3" d="M1004.55,316.77a3.9,3.9,0,0,1,1.15-3.07,7.28,7.28,0,0,1,7.43,0,3.86,3.86,0,0,1,1.17,3q0,4-4.89,4T1004.55,316.77Zm9.4,33.17h-9.16V323.38H1014Z"/><path class="cls-3" d="M1036.85,349.94l-1.75-3.52h-.19a10.47,10.47,0,0,1-3.77,3.14,12.55,12.55,0,0,1-5,.84,7.81,7.81,0,0,1-5.91-2.25,8.76,8.76,0,0,1-2.16-6.32,7.2,7.2,0,0,1,3-6.32q3-2.07,8.55-2.33L1034,333v-.38q0-3.29-3.23-3.28a19.44,19.44,0,0,0-7.39,2l-2.64-6.05a25.51,25.51,0,0,1,11.72-2.39c3.4,0,6,.85,7.91,2.53a9.09,9.09,0,0,1,2.8,7.08v17.42Zm-6.79-6a4.16,4.16,0,0,0,2.85-1.06,3.53,3.53,0,0,0,1.18-2.74v-2.06l-2.11.09c-3,.11-4.52,1.22-4.52,3.33C1027.46,343.12,1028.32,343.94,1030.06,343.94Z"/><path class="cls-3" d="M1065.38,349.94V335.45a8.25,8.25,0,0,0-.76-4,2.6,2.6,0,0,0-2.45-1.35,3.53,3.53,0,0,0-3.35,1.85q-1,1.85-1,6.35v11.63h-9.17V323.38h6.92l1.15,3.28h.54a7.22,7.22,0,0,1,3.24-2.81,11.44,11.44,0,0,1,4.77-.94,9,9,0,0,1,6.86,2.56q2.45,2.55,2.45,7.19v17.28Z"/><path class="cls-3" d="M1100.47,341.78a7.56,7.56,0,0,1-2.9,6.44c-1.94,1.46-4.72,2.18-8.35,2.18a36.38,36.38,0,0,1-5.13-.31,21.84,21.84,0,0,1-4.45-1.16v-7.34a27.5,27.5,0,0,0,4.67,1.55,20.12,20.12,0,0,0,4.54.61c2,0,3-.46,3-1.36a1.53,1.53,0,0,0-.83-1.26,38.79,38.79,0,0,0-4.84-2.14,12.08,12.08,0,0,1-5.11-3.41,7.76,7.76,0,0,1-1.45-4.84,6.71,6.71,0,0,1,2.86-5.77c1.91-1.37,4.6-2.06,8.09-2.06a20,20,0,0,1,4.93.58,29.17,29.17,0,0,1,4.79,1.67l-2.48,5.91a28.53,28.53,0,0,0-3.87-1.4,13,13,0,0,0-3.33-.57c-1.5,0-2.25.37-2.25,1.1a1.37,1.37,0,0,0,.79,1.16,42.69,42.69,0,0,0,4.53,2,16.94,16.94,0,0,1,4.16,2.25,6.68,6.68,0,0,1,2,2.59A9.09,9.09,0,0,1,1100.47,341.78Z"/><path class="cls-3" d="M1103.59,346a4.29,4.29,0,0,1,1.28-3.32,5.32,5.32,0,0,1,3.72-1.18,5,5,0,0,1,3.56,1.18,4.34,4.34,0,0,1,1.24,3.32,4.25,4.25,0,0,1-1.28,3.3,5,5,0,0,1-3.52,1.18,5.36,5.36,0,0,1-3.66-1.17A4.17,4.17,0,0,1,1103.59,346Z"/></g></svg>