<svg xmlns="http://www.w3.org/2000/svg" viewBox="0 0 1128 191"><defs><style>.cls-1{fill:#131416;}.cls-2{fill:#ededec;}.cls-3{fill:#f77239;}</style></defs><g id="Background"><rect class="cls-1" width="1128" height="191"/></g><g id="Text"><path class="cls-2" d="M440.28,68.18h-3.47l-5.59-9.72h-.07c.11,1.71.16,2.94.16,3.67v6.05h-2.43V55.33h3.43L437.9,65H438c-.09-1.67-.13-2.85-.13-3.54V55.33h2.45Z"/><path class="cls-2" d="M447.44,68.35A5,5,0,0,1,443.73,67a5,5,0,0,1-1.33-3.71,5.48,5.48,0,0,1,1.23-3.82,4.44,4.44,0,0,1,3.42-1.34,4.31,4.31,0,0,1,3.24,1.18,4.51,4.51,0,0,1,1.16,3.28v1.3h-6.34a2.57,2.57,0,0,0,.68,1.78,2.36,2.36,0,0,0,1.77.65,7.45,7.45,0,0,0,1.68-.19,8.31,8.31,0,0,0,1.66-.59v2.08a6.26,6.26,0,0,1-1.51.52A9.74,9.74,0,0,1,447.44,68.35Zm-.38-8.28a1.7,1.7,0,0,0-1.33.54,2.54,2.54,0,0,0-.56,1.54h3.77a2.3,2.3,0,0,0-.52-1.54A1.78,1.78,0,0,0,447.06,60.07Z"/><path class="cls-2" d="M462.25,63.25A5.3,5.3,0,0,1,461,67a4.61,4.61,0,0,1-3.53,1.35,4.85,4.85,0,0,1-2.49-.62A4,4,0,0,1,453.31,66a5.9,5.9,0,0,1-.58-2.7A5.25,5.25,0,0,1,454,59.5a4.63,4.63,0,0,1,3.54-1.33,4.94,4.94,0,0,1,2.49.61,4.06,4.06,0,0,1,1.66,1.77A5.84,5.84,0,0,1,462.25,63.25Zm-6.79,0a4.1,4.1,0,0,0,.48,2.2,1.71,1.71,0,0,0,1.56.75,1.69,1.69,0,0,0,1.54-.74,4.25,4.25,0,0,0,.47-2.21,4.1,4.1,0,0,0-.47-2.19,2,2,0,0,0-3.11,0A4.16,4.16,0,0,0,455.46,63.25Z"/><path class="cls-2" d="M468.15,68.35q-4.59,0-4.59-5a5.38,5.38,0,0,1,1.25-3.83,4.69,4.69,0,0,1,3.58-1.32,6.88,6.88,0,0,1,3.06.66l-.79,2.08c-.42-.17-.82-.31-1.18-.42a3.74,3.74,0,0,0-1.09-.16c-1.39,0-2.09,1-2.09,3s.7,2.88,2.09,2.88a4.66,4.66,0,0,0,1.43-.21,5,5,0,0,0,1.32-.64v2.29a4.05,4.05,0,0,1-1.31.57A7.19,7.19,0,0,1,468.15,68.35Z"/><path class="cls-2" d="M478.6,58.17a4.56,4.56,0,0,1,.9.07l-.2,2.52a3,3,0,0,0-.79-.09,2.84,2.84,0,0,0-2,.66,2.37,2.37,0,0,0-.72,1.84v5h-2.68V58.35h2l.4,1.65h.13a3.65,3.65,0,0,1,1.23-1.33A3,3,0,0,1,478.6,58.17Z"/><path class="cls-2" d="M479.57,58.35h2.94l1.85,5.53a7.65,7.65,0,0,1,.33,1.7h.05a7.14,7.14,0,0,1,.38-1.7l1.82-5.53h2.87l-4.16,11.08A4.77,4.77,0,0,1,484,71.74a4.09,4.09,0,0,1-2.47.76,6.16,6.16,0,0,1-1.36-.15V70.22a4.32,4.32,0,0,0,1.05.12,1.93,1.93,0,0,0,1.25-.44,2.88,2.88,0,0,0,.83-1.31l.15-.48Z"/><path class="cls-2" d="M499.71,68.18H497V62.44a2.89,2.89,0,0,0-.36-1.6,1.25,1.25,0,0,0-1.12-.53,1.61,1.61,0,0,0-1.49.76,4.93,4.93,0,0,0-.47,2.48v4.63h-2.68V58.35h2l.36,1.26h.15a2.66,2.66,0,0,1,1.14-1.06,3.66,3.66,0,0,1,1.72-.38,3.07,3.07,0,0,1,3,1.44h.24a2.65,2.65,0,0,1,1.17-1.07,3.89,3.89,0,0,1,1.73-.37A3.42,3.42,0,0,1,505,59a3.78,3.78,0,0,1,.86,2.75v6.41h-2.69V62.44a2.89,2.89,0,0,0-.36-1.6,1.26,1.26,0,0,0-1.12-.53,1.65,1.65,0,0,0-1.47.7,4,4,0,0,0-.49,2.24Z"/><path class="cls-2" d="M512.54,55.81c0-.87.48-1.31,1.46-1.31s1.45.44,1.45,1.31a1.28,1.28,0,0,1-.36,1,1.53,1.53,0,0,1-1.09.35C513,57.13,512.54,56.69,512.54,55.81Zm2.79,12.37h-2.68V58.35h2.68Z"/><path class="cls-2" d="M524.69,65.26a2.7,2.7,0,0,1-1.05,2.3,5.15,5.15,0,0,1-3.14.79,10.65,10.65,0,0,1-1.83-.14,7,7,0,0,1-1.41-.43V65.57a9.18,9.18,0,0,0,1.68.58,6.7,6.7,0,0,0,1.65.24c1,0,1.46-.28,1.46-.84a.73.73,0,0,0-.2-.52,2.55,2.55,0,0,0-.66-.44c-.32-.17-.74-.37-1.27-.59a8.06,8.06,0,0,1-1.66-.88,2.48,2.48,0,0,1-.78-.92,3.1,3.1,0,0,1-.24-1.29,2.33,2.33,0,0,1,1-2,4.89,4.89,0,0,1,2.87-.71,8.11,8.11,0,0,1,3.46.77l-.81,1.93c-.49-.21-.95-.38-1.38-.52a4.48,4.48,0,0,0-1.31-.2c-.79,0-1.19.22-1.19.64a.77.77,0,0,0,.39.63,11.15,11.15,0,0,0,1.67.78,7.77,7.77,0,0,1,1.69.87,2.66,2.66,0,0,1,.79.93A2.86,2.86,0,0,1,524.69,65.26Z"/><path class="cls-2" d="M537.09,68.18l-.52-1.34h-.07A4,4,0,0,1,535.11,68a4.51,4.51,0,0,1-1.87.33,3,3,0,0,1-2.23-.81,3.1,3.1,0,0,1-.81-2.3,2.6,2.6,0,0,1,1.09-2.31,6.37,6.37,0,0,1,3.3-.82l1.71,0v-.43a1.34,1.34,0,0,0-1.53-1.5,6.89,6.89,0,0,0-2.77.72L531.11,59a7.9,7.9,0,0,1,3.76-.89,4.69,4.69,0,0,1,3,.86A3.19,3.19,0,0,1,539,61.63v6.55Zm-.79-4.56-1,0a3.26,3.26,0,0,0-1.74.42,1.33,1.33,0,0,0-.57,1.18c0,.75.43,1.13,1.3,1.13a2.09,2.09,0,0,0,1.49-.53,1.91,1.91,0,0,0,.56-1.43Z"/><path class="cls-3" d="M551.58,58a5.73,5.73,0,0,1,.85.07l.19,0-.31,3.24a5.08,5.08,0,0,0-1.16-.1,2.25,2.25,0,0,0-1.64.51,2,2,0,0,0-.51,1.48v4.9h-3.44v-10h2.56l.54,1.59h.17a3.35,3.35,0,0,1,1.2-1.28A2.89,2.89,0,0,1,551.58,58Z"/><path class="cls-3" d="M558.51,68.35A5.35,5.35,0,0,1,554.65,67a5,5,0,0,1-1.38-3.77,5.43,5.43,0,0,1,1.28-3.87,5.63,5.63,0,0,1,7.11-.17,4.43,4.43,0,0,1,1.23,3.37v1.53h-6.14a1.66,1.66,0,0,0,.61,1.31,2.36,2.36,0,0,0,1.57.48,7.84,7.84,0,0,0,1.66-.17,8.27,8.27,0,0,0,1.65-.59v2.47a5.8,5.8,0,0,1-1.67.57A11.12,11.12,0,0,1,558.51,68.35Zm-.2-8a1.48,1.48,0,0,0-1,.38,1.79,1.79,0,0,0-.47,1.2h2.95a1.71,1.71,0,0,0-.41-1.15A1.34,1.34,0,0,0,558.31,60.38Z"/><path class="cls-3" d="M569.06,68.35a4.87,4.87,0,0,1-3.7-1.32,5.26,5.26,0,0,1-1.26-3.78,5.2,5.2,0,0,1,1.36-3.85A5.27,5.27,0,0,1,569.33,58a7.14,7.14,0,0,1,3.26.76l-1,2.54a11.48,11.48,0,0,0-1.15-.44,3.66,3.66,0,0,0-1.1-.16,1.51,1.51,0,0,0-1.29.65,3.2,3.2,0,0,0-.46,1.84c0,1.59.59,2.39,1.77,2.39a5.29,5.29,0,0,0,2.9-.88v2.73A5.61,5.61,0,0,1,569.06,68.35Z"/><path class="cls-3" d="M583.43,63.17A5.29,5.29,0,0,1,582.12,67a4.87,4.87,0,0,1-3.68,1.36,4.75,4.75,0,0,1-3.61-1.4,5.24,5.24,0,0,1-1.34-3.78,5.18,5.18,0,0,1,1.32-3.78A4.89,4.89,0,0,1,578.49,58a5.24,5.24,0,0,1,2.6.63,4.16,4.16,0,0,1,1.73,1.79A5.7,5.7,0,0,1,583.43,63.17Zm-6.45,0a4.57,4.57,0,0,0,.34,2,1.2,1.2,0,0,0,1.16.67,1.16,1.16,0,0,0,1.13-.67,4.59,4.59,0,0,0,.33-2,4.37,4.37,0,0,0-.34-1.92,1.18,1.18,0,0,0-1.14-.65,1.2,1.2,0,0,0-1.14.65A4.34,4.34,0,0,0,577,63.17Z"/><path class="cls-3" d="M591.1,58a5.73,5.73,0,0,1,.85.07l.19,0-.3,3.24a5.12,5.12,0,0,0-1.17-.1,2.25,2.25,0,0,0-1.64.51,2,2,0,0,0-.51,1.48v4.9h-3.43v-10h2.55l.54,1.59h.17a3.43,3.43,0,0,1,1.2-1.28A2.91,2.91,0,0,1,591.1,58Z"/><path class="cls-3" d="M596.32,68.35a3,3,0,0,1-1.86-.6A3.87,3.87,0,0,1,593.23,66a7.9,7.9,0,0,1-.43-2.75,6.48,6.48,0,0,1,1-3.8A3.13,3.13,0,0,1,596.45,58a3,3,0,0,1,1.47.34,3.11,3.11,0,0,1,1.14,1.12h.07a16.73,16.73,0,0,1-.16-2.34V54.5h3.46V68.18h-2.59l-.74-1.26H599A2.93,2.93,0,0,1,596.32,68.35Zm1.41-2.71a1.28,1.28,0,0,0,1.16-.52,3.11,3.11,0,0,0,.37-1.6v-.27a3.5,3.5,0,0,0-.38-1.88,1.34,1.34,0,0,0-1.19-.56,1.16,1.16,0,0,0-1.05.64,3.6,3.6,0,0,0-.37,1.81,3.3,3.3,0,0,0,.38,1.77A1.21,1.21,0,0,0,597.73,65.64Z"/><path class="cls-3" d="M612.3,68.18h-3.43V54.5h3.43Z"/><path class="cls-3" d="M620.87,68.18l-.66-1.32h-.07A4,4,0,0,1,618.73,68a4.69,4.69,0,0,1-1.86.31,2.94,2.94,0,0,1-2.22-.84,3.3,3.3,0,0,1-.81-2.38A2.68,2.68,0,0,1,615,62.77a6.1,6.1,0,0,1,3.21-.88l1.66,0V61.7a1.08,1.08,0,0,0-1.21-1.23,7.11,7.11,0,0,0-2.77.74l-1-2.27a9.54,9.54,0,0,1,4.4-.9,4.29,4.29,0,0,1,3,1,3.4,3.4,0,0,1,1,2.66v6.53Zm-2.54-2.25a1.55,1.55,0,0,0,1.06-.4,1.31,1.31,0,0,0,.45-1v-.77l-.79,0c-1.13,0-1.7.46-1.7,1.25C617.35,65.62,617.67,65.93,618.33,65.93Z"/><path class="cls-3" d="M631.37,58A3,3,0,0,1,634,59.4a6.55,6.55,0,0,1,.95,3.77,6.59,6.59,0,0,1-1,3.81,3.09,3.09,0,0,1-2.68,1.37,3.65,3.65,0,0,1-1-.12,3,3,0,0,1-.77-.33,4.11,4.11,0,0,1-.79-.7h-.21l-.54,1h-2.68V54.5h3.43v3.09c0,.37,0,1-.12,1.91h.12A2.93,2.93,0,0,1,631.37,58Zm-1.26,2.7a1.17,1.17,0,0,0-1.05.5,2.93,2.93,0,0,0-.34,1.57v.49a3.45,3.45,0,0,0,.34,1.75,1.17,1.17,0,0,0,1.09.53,1,1,0,0,0,.93-.62,4,4,0,0,0,.32-1.82Q631.4,60.74,630.11,60.74Z"/><path class="cls-3" d="M641.36,68.35A5.36,5.36,0,0,1,637.5,67a5,5,0,0,1-1.37-3.77,5.42,5.42,0,0,1,1.27-3.87A4.76,4.76,0,0,1,641,58a4.81,4.81,0,0,1,3.48,1.18,4.46,4.46,0,0,1,1.22,3.37v1.53H639.6a1.66,1.66,0,0,0,.61,1.31,2.38,2.38,0,0,0,1.57.48,7.77,7.77,0,0,0,1.66-.17,8.27,8.27,0,0,0,1.65-.59v2.47a5.7,5.7,0,0,1-1.67.57A11.12,11.12,0,0,1,641.36,68.35Zm-.2-8a1.44,1.44,0,0,0-1,.38,1.8,1.8,0,0,0-.48,1.2h3a1.71,1.71,0,0,0-.41-1.15A1.34,1.34,0,0,0,641.16,60.38Z"/><path class="cls-3" d="M650.81,68.18h-3.43V54.5h3.43Z"/><path class="cls-2" d="M432.81,87.82a5.91,5.91,0,0,0,1.68-.31v2A5.94,5.94,0,0,1,432,90a3,3,0,0,1-2.34-.81A3.54,3.54,0,0,1,429,86.7V82h-1.29V80.83l1.48-.9.77-2.07h1.72V80h2.75v2h-2.75V86.7a1,1,0,0,0,.32.84A1.23,1.23,0,0,0,432.81,87.82Z"/><path class="cls-2" d="M445.24,89.78h-2.68V84c0-1.42-.52-2.13-1.58-2.13a1.8,1.8,0,0,0-1.62.76,4.63,4.63,0,0,0-.5,2.48v4.63h-2.69V76.1h2.69v2.79c0,.21,0,.72-.07,1.53l-.06.79h.14a3.11,3.11,0,0,1,2.85-1.44,3.48,3.48,0,0,1,2.63.93,3.68,3.68,0,0,1,.89,2.67Z"/><path class="cls-2" d="M453.94,89.78l-.52-1.34h-.07A4,4,0,0,1,452,89.62a4.51,4.51,0,0,1-1.87.33,3,3,0,0,1-2.23-.81,3.1,3.1,0,0,1-.81-2.3,2.6,2.6,0,0,1,1.09-2.31,6.37,6.37,0,0,1,3.3-.82l1.71,0v-.43a1.34,1.34,0,0,0-1.53-1.5,6.89,6.89,0,0,0-2.77.72L448,80.64a7.9,7.9,0,0,1,3.76-.89,4.74,4.74,0,0,1,3,.86,3.19,3.19,0,0,1,1.05,2.62v6.55Zm-.79-4.56-1,0a3.26,3.26,0,0,0-1.74.42,1.33,1.33,0,0,0-.57,1.18c0,.75.43,1.13,1.3,1.13a2.09,2.09,0,0,0,1.49-.53,1.91,1.91,0,0,0,.56-1.43Z"/><path class="cls-2" d="M462.4,87.82a6,6,0,0,0,1.69-.31v2a6,6,0,0,1-2.46.45,3,3,0,0,1-2.34-.81,3.54,3.54,0,0,1-.74-2.44V82h-1.28V80.83l1.48-.9.77-2.07h1.72V80H464v2h-2.75V86.7a1,1,0,0,0,.32.84A1.2,1.2,0,0,0,462.4,87.82Z"/><path class="cls-2" d="M477.1,89.78l-.36-1.26h-.14a2.81,2.81,0,0,1-1.22,1.06,4.17,4.17,0,0,1-1.8.37A3.41,3.41,0,0,1,471,89a3.68,3.68,0,0,1-.88-2.66V80h2.68v5.74a2.74,2.74,0,0,0,.38,1.59,1.36,1.36,0,0,0,1.2.54,1.81,1.81,0,0,0,1.63-.76,4.69,4.69,0,0,0,.5-2.49V80h2.68v9.83Z"/><path class="cls-2" d="M488.52,86.86a2.7,2.7,0,0,1-1,2.3,5.17,5.17,0,0,1-3.14.79,10.48,10.48,0,0,1-1.83-.14,7,7,0,0,1-1.41-.43V87.17a8.69,8.69,0,0,0,1.68.58,6.7,6.7,0,0,0,1.65.24c1,0,1.46-.28,1.46-.84a.73.73,0,0,0-.2-.52,2.65,2.65,0,0,0-.67-.44,13.26,13.26,0,0,0-1.26-.59,7.72,7.72,0,0,1-1.67-.88,2.5,2.5,0,0,1-.77-.93,3,3,0,0,1-.24-1.28,2.35,2.35,0,0,1,1-2,5,5,0,0,1,2.88-.71,8.11,8.11,0,0,1,3.46.77l-.81,1.93c-.49-.21-.95-.38-1.38-.52a4.53,4.53,0,0,0-1.31-.2c-.79,0-1.19.22-1.19.64a.78.78,0,0,0,.38.63,12,12,0,0,0,1.68.78,7.77,7.77,0,0,1,1.69.87,2.66,2.66,0,0,1,.79.93A2.86,2.86,0,0,1,488.52,86.86Z"/><path class="cls-2" d="M494.75,90A5.06,5.06,0,0,1,491,88.64a5,5,0,0,1-1.33-3.71,5.48,5.48,0,0,1,1.23-3.82,4.42,4.42,0,0,1,3.42-1.34A4.31,4.31,0,0,1,497.6,81a4.47,4.47,0,0,1,1.16,3.28v1.3h-6.33a2.61,2.61,0,0,0,.67,1.79,2.42,2.42,0,0,0,1.78.64,7,7,0,0,0,1.68-.19,8.46,8.46,0,0,0,1.65-.59v2.08a6.34,6.34,0,0,1-1.5.52A9.92,9.92,0,0,1,494.75,90Zm-.37-8.28a1.7,1.7,0,0,0-1.34.54,2.47,2.47,0,0,0-.55,1.54h3.76a2.25,2.25,0,0,0-.52-1.54A1.74,1.74,0,0,0,494.38,81.67Z"/><path class="cls-2" d="M507.49,86.86a2.7,2.7,0,0,1-1.05,2.3,5.17,5.17,0,0,1-3.14.79,10.48,10.48,0,0,1-1.83-.14,7,7,0,0,1-1.41-.43V87.17a8.93,8.93,0,0,0,1.68.58,6.7,6.7,0,0,0,1.65.24c1,0,1.46-.28,1.46-.84a.73.73,0,0,0-.2-.52,2.65,2.65,0,0,0-.67-.44,13.26,13.26,0,0,0-1.26-.59,7.72,7.72,0,0,1-1.67-.88,2.5,2.5,0,0,1-.77-.93,3,3,0,0,1-.24-1.28,2.35,2.35,0,0,1,1-2,5,5,0,0,1,2.88-.71,8.11,8.11,0,0,1,3.46.77l-.81,1.93c-.5-.21-1-.38-1.38-.52a4.53,4.53,0,0,0-1.31-.2c-.79,0-1.19.22-1.19.64a.78.78,0,0,0,.38.63,12,12,0,0,0,1.68.78,7.77,7.77,0,0,1,1.69.87,2.66,2.66,0,0,1,.79.93A2.86,2.86,0,0,1,507.49,86.86Z"/><path class="cls-3" d="M519.92,89.78l-.66-1.32h-.07a4,4,0,0,1-1.41,1.18,4.71,4.71,0,0,1-1.87.31,2.93,2.93,0,0,1-2.21-.84,3.29,3.29,0,0,1-.81-2.37A2.68,2.68,0,0,1,514,84.37a6.1,6.1,0,0,1,3.21-.88l1.66,0V83.3a1.08,1.08,0,0,0-1.22-1.23,7.12,7.12,0,0,0-2.76.74l-1-2.27a9.54,9.54,0,0,1,4.4-.9,4.28,4.28,0,0,1,3,1,3.4,3.4,0,0,1,1,2.66v6.53Zm-2.55-2.25a1.56,1.56,0,0,0,1.07-.4,1.3,1.3,0,0,0,.44-1v-.77l-.79,0c-1.13,0-1.69.46-1.69,1.25C516.4,87.22,516.72,87.53,517.37,87.53Z"/><path class="cls-3" d="M530.35,79.64a5.73,5.73,0,0,1,.85.07l.19,0-.3,3.24a5.17,5.17,0,0,0-1.17-.1,2.25,2.25,0,0,0-1.64.51,2,2,0,0,0-.51,1.48v4.9h-3.43v-10h2.55l.54,1.59h.17a3.35,3.35,0,0,1,1.2-1.28A2.83,2.83,0,0,1,530.35,79.64Z"/><path class="cls-3" d="M537.35,87.24a5.14,5.14,0,0,0,1.67-.35V89.4a6.53,6.53,0,0,1-1.33.42,7.11,7.11,0,0,1-1.47.13,3.22,3.22,0,0,1-2.5-.85,3.77,3.77,0,0,1-.76-2.6V82.39h-1.2V81l1.53-1.08.88-2.1h2.25v2h2.45v2.57h-2.45v3.88C536.42,86.91,536.73,87.24,537.35,87.24Z"/><path class="cls-3" d="M540.38,77.34a1.43,1.43,0,0,1,.43-1.15,2.72,2.72,0,0,1,2.79,0,1.45,1.45,0,0,1,.44,1.14c0,1-.62,1.51-1.84,1.51S540.38,78.35,540.38,77.34Zm3.52,12.44h-3.43v-10h3.43Z"/><path class="cls-3" d="M552.08,82.39H550v7.39h-3.44V82.39h-1.31V80.71l1.38-.85V79.7a4,4,0,0,1,.81-2.83A3.36,3.36,0,0,1,550,76a7.68,7.68,0,0,1,1.3.11,9.6,9.6,0,0,1,1.41.37L552,78.7a4.57,4.57,0,0,0-1.24-.17.67.67,0,0,0-.58.24,1.32,1.32,0,0,0-.18.78v.27h2.12Zm1.28-5a1.46,1.46,0,0,1,.43-1.15,2.1,2.1,0,0,1,1.39-.38,2.07,2.07,0,0,1,1.4.39,1.45,1.45,0,0,1,.44,1.14c0,1-.61,1.51-1.84,1.51S553.36,78.35,553.36,77.34Zm3.53,12.44h-3.44v-10h3.44Z"/><path class="cls-3" d="M563.51,90a4.9,4.9,0,0,1-3.71-1.32,5.23,5.23,0,0,1,4-9,7.2,7.2,0,0,1,3.26.76l-1,2.54c-.42-.18-.8-.33-1.15-.44a3.66,3.66,0,0,0-1.1-.16,1.48,1.48,0,0,0-1.29.65,3.13,3.13,0,0,0-.46,1.84c0,1.59.59,2.39,1.77,2.39a5.34,5.34,0,0,0,2.9-.88v2.73A5.63,5.63,0,0,1,563.51,90Z"/><path class="cls-3" d="M568.3,77.34a1.43,1.43,0,0,1,.43-1.15,2.72,2.72,0,0,1,2.79,0,1.45,1.45,0,0,1,.44,1.14c0,1-.62,1.51-1.84,1.51S568.3,78.35,568.3,77.34Zm3.52,12.44h-3.43v-10h3.43Z"/><path class="cls-3" d="M580.41,89.78l-.66-1.32h-.07a4,4,0,0,1-1.41,1.18,4.71,4.71,0,0,1-1.87.31,2.93,2.93,0,0,1-2.21-.84,3.29,3.29,0,0,1-.81-2.37,2.68,2.68,0,0,1,1.11-2.37,6.08,6.08,0,0,1,3.21-.88l1.66,0V83.3a1.08,1.08,0,0,0-1.22-1.23,7.07,7.07,0,0,0-2.76.74l-1-2.27a9.54,9.54,0,0,1,4.4-.9,4.28,4.28,0,0,1,3,1,3.4,3.4,0,0,1,1,2.66v6.53Zm-2.55-2.25a1.58,1.58,0,0,0,1.07-.4,1.3,1.3,0,0,0,.44-1v-.77l-.79,0c-1.13,0-1.69.46-1.69,1.25C576.89,87.22,577.21,87.53,577.86,87.53Z"/><path class="cls-3" d="M588.26,89.78h-3.43V76.1h3.43Z"/><path class="cls-3" d="M594.64,77.34a1.43,1.43,0,0,1,.43-1.15,2.7,2.7,0,0,1,2.78,0,1.42,1.42,0,0,1,.44,1.14c0,1-.61,1.51-1.83,1.51S594.64,78.35,594.64,77.34Zm3.52,12.44h-3.44v-10h3.44Z"/><path class="cls-3" d="M606.54,89.78V84.34a3.06,3.06,0,0,0-.29-1.49,1,1,0,0,0-.92-.51,1.31,1.31,0,0,0-1.25.7,5.19,5.19,0,0,0-.39,2.38v4.36h-3.44v-10h2.6l.43,1.23h.2A2.74,2.74,0,0,1,604.7,80a4.36,4.36,0,0,1,1.79-.35,3.39,3.39,0,0,1,2.57,1,3.76,3.76,0,0,1,.92,2.7v6.48Z"/><path class="cls-3" d="M616.88,87.24a5.14,5.14,0,0,0,1.67-.35V89.4a6.53,6.53,0,0,1-1.33.42,7.11,7.11,0,0,1-1.47.13,3.19,3.19,0,0,1-2.49-.85,3.77,3.77,0,0,1-.77-2.6V82.39h-1.2V81l1.53-1.08.88-2.1H616v2h2.45v2.57H616v3.88C616,86.91,616.26,87.24,616.88,87.24Z"/><path class="cls-3" d="M624.79,90a5.33,5.33,0,0,1-3.86-1.32,5,5,0,0,1-1.38-3.77A5.42,5.42,0,0,1,620.82,81a5.65,5.65,0,0,1,7.12-.17,4.44,4.44,0,0,1,1.23,3.38v1.52H623a1.69,1.69,0,0,0,.61,1.31,2.39,2.39,0,0,0,1.57.48,7.94,7.94,0,0,0,1.67-.17,8.42,8.42,0,0,0,1.64-.59v2.47a5.6,5.6,0,0,1-1.67.57A11.07,11.07,0,0,1,624.79,90Zm-.2-8a1.45,1.45,0,0,0-1,.38,1.85,1.85,0,0,0-.48,1.2H626a1.71,1.71,0,0,0-.4-1.15A1.34,1.34,0,0,0,624.59,82Z"/><path class="cls-3" d="M634.24,89.78H630.8V76.1h3.44Z"/><path class="cls-3" d="M639.75,89.78h-3.44V76.1h3.44Z"/><path class="cls-3" d="M641.76,77.34a1.43,1.43,0,0,1,.43-1.15,2.7,2.7,0,0,1,2.78,0,1.42,1.42,0,0,1,.44,1.14c0,1-.61,1.51-1.83,1.51S641.76,78.35,641.76,77.34Zm3.52,12.44h-3.44v-10h3.44Z"/><path class="cls-3" d="M656.77,79.82v1.66l-1.36.5a2.52,2.52,0,0,1,.28,1.19,3,3,0,0,1-1.13,2.49,5.4,5.4,0,0,1-3.37.89,4.16,4.16,0,0,1-.88-.07.94.94,0,0,0-.12.43c0,.17.13.3.41.39a3.54,3.54,0,0,0,1.08.14h1.65q3.34,0,3.35,2.82a3.2,3.2,0,0,1-1.55,2.83,8,8,0,0,1-4.35,1,6.25,6.25,0,0,1-3.27-.71,2.26,2.26,0,0,1-1.15-2c0-1.19.74-2,2.22-2.3a2,2,0,0,1-.8-.63,1.42,1.42,0,0,1-.34-.85,1.36,1.36,0,0,1,.26-.82,3.71,3.71,0,0,1,1.06-.85,2.75,2.75,0,0,1-1.22-1.07,3.43,3.43,0,0,1-.44-1.78,3.06,3.06,0,0,1,1.11-2.52,4.9,4.9,0,0,1,3.16-.9c.18,0,.5,0,.94.06s.78.08,1,.12ZM649.26,91a.79.79,0,0,0,.46.68,2.51,2.51,0,0,0,1.22.26,5.26,5.26,0,0,0,2-.32c.5-.2.75-.47.75-.8a.58.58,0,0,0-.45-.56,4.11,4.11,0,0,0-1.31-.16h-1.35a1.62,1.62,0,0,0-.93.26A.74.74,0,0,0,649.26,91Zm1.08-7.94c0,1,.36,1.53,1.07,1.53a.88.88,0,0,0,.76-.38,1.94,1.94,0,0,0,.27-1.13c0-1-.35-1.55-1-1.55S650.34,82.06,650.34,83.08Z"/><path class="cls-3" d="M662.78,90a5.35,5.35,0,0,1-3.86-1.32,5,5,0,0,1-1.38-3.77A5.43,5.43,0,0,1,658.82,81a5.63,5.63,0,0,1,7.11-.17,4.44,4.44,0,0,1,1.23,3.38v1.52H661a1.66,1.66,0,0,0,.61,1.31,2.36,2.36,0,0,0,1.57.48,7.84,7.84,0,0,0,1.66-.17,8.27,8.27,0,0,0,1.65-.59v2.47a5.8,5.8,0,0,1-1.67.57A11.12,11.12,0,0,1,662.78,90Zm-.2-8a1.44,1.44,0,0,0-1,.38,1.75,1.75,0,0,0-.48,1.2H664a1.71,1.71,0,0,0-.41-1.15A1.34,1.34,0,0,0,662.58,82Z"/><path class="cls-3" d="M675.08,89.78V84.34a3.06,3.06,0,0,0-.29-1.49,1,1,0,0,0-.91-.51,1.33,1.33,0,0,0-1.26.7,5.19,5.19,0,0,0-.39,2.38v4.36H668.8v-10h2.59l.43,1.23h.2A2.74,2.74,0,0,1,673.24,80a4.36,4.36,0,0,1,1.79-.35,3.39,3.39,0,0,1,2.57,1,3.76,3.76,0,0,1,.92,2.7v6.48Z"/><path class="cls-3" d="M685.08,90a4.89,4.89,0,0,1-3.7-1.32,5.26,5.26,0,0,1-1.26-3.78A5.2,5.2,0,0,1,681.48,81a5.28,5.28,0,0,1,3.88-1.36,7.2,7.2,0,0,1,3.26.76l-1,2.54c-.42-.18-.8-.33-1.15-.44a3.71,3.71,0,0,0-1.1-.16,1.51,1.51,0,0,0-1.3.65,3.21,3.21,0,0,0-.45,1.84c0,1.59.59,2.39,1.76,2.39a5.29,5.29,0,0,0,2.9-.88v2.73A5.59,5.59,0,0,1,685.08,90Z"/><path class="cls-3" d="M694.75,90a5.36,5.36,0,0,1-3.86-1.32,5,5,0,0,1-1.37-3.77A5.42,5.42,0,0,1,690.79,81a5.63,5.63,0,0,1,7.11-.17,4.44,4.44,0,0,1,1.23,3.38v1.52H693A1.66,1.66,0,0,0,693.6,87a2.36,2.36,0,0,0,1.57.48,7.77,7.77,0,0,0,1.66-.17,8.27,8.27,0,0,0,1.65-.59v2.47a5.8,5.8,0,0,1-1.67.57A11.12,11.12,0,0,1,694.75,90Zm-.2-8a1.44,1.44,0,0,0-1,.38,1.75,1.75,0,0,0-.48,1.2h3a1.71,1.71,0,0,0-.41-1.15A1.34,1.34,0,0,0,694.55,82Z"/><path class="cls-2" d="M432.81,109.42a5.91,5.91,0,0,0,1.68-.31v2a5.94,5.94,0,0,1-2.46.45,3,3,0,0,1-2.34-.81,3.54,3.54,0,0,1-.73-2.44v-4.74h-1.29v-1.13l1.48-.9.77-2.07h1.72v2.09h2.75v2h-2.75v4.74a1,1,0,0,0,.32.84A1.23,1.23,0,0,0,432.81,109.42Z"/><path class="cls-2" d="M445.1,106.45a5.3,5.3,0,0,1-1.26,3.75,4.61,4.61,0,0,1-3.53,1.35,4.85,4.85,0,0,1-2.49-.62,4,4,0,0,1-1.66-1.78,5.9,5.9,0,0,1-.58-2.7,5.29,5.29,0,0,1,1.25-3.75,4.63,4.63,0,0,1,3.54-1.33,4.94,4.94,0,0,1,2.49.61,4.06,4.06,0,0,1,1.66,1.77A5.84,5.84,0,0,1,445.1,106.45Zm-6.79,0a4.1,4.1,0,0,0,.48,2.2,1.71,1.71,0,0,0,1.56.75,1.69,1.69,0,0,0,1.54-.74,4.15,4.15,0,0,0,.47-2.21,4.1,4.1,0,0,0-.47-2.19,1.72,1.72,0,0,0-1.56-.73,1.7,1.7,0,0,0-1.54.72A4.06,4.06,0,0,0,438.31,106.45Z"/><path class="cls-2" d="M456.81,103.56h-2.32v7.82h-2.68v-7.82h-1.47v-1.29l1.47-.72v-.72a3.21,3.21,0,0,1,.83-2.45,3.76,3.76,0,0,1,2.65-.78,6.75,6.75,0,0,1,2.46.42l-.68,2a5,5,0,0,0-1.49-.26,1,1,0,0,0-.83.34,1.38,1.38,0,0,0-.26.86v.62h2.32ZM458.24,99c0-.87.48-1.31,1.46-1.31s1.46.44,1.46,1.31a1.24,1.24,0,0,1-.37,1,1.53,1.53,0,0,1-1.09.35C458.72,100.33,458.24,99.89,458.24,99ZM461,111.38h-2.68v-9.83H461Z"/><path class="cls-2" d="M472.6,111.38h-2.68v-5.74a2.8,2.8,0,0,0-.38-1.6,1.38,1.38,0,0,0-1.2-.53,1.83,1.83,0,0,0-1.63.75,4.69,4.69,0,0,0-.5,2.49v4.63h-2.68v-9.83h2.05l.36,1.26h.15a2.8,2.8,0,0,1,1.23-1.08,4.27,4.27,0,0,1,1.79-.36,3.42,3.42,0,0,1,2.6.92,3.74,3.74,0,0,1,.89,2.68Z"/><path class="cls-2" d="M478.17,111.55a3.2,3.2,0,0,1-2.72-1.34,7.56,7.56,0,0,1,0-7.5,3.29,3.29,0,0,1,2.78-1.34,3.21,3.21,0,0,1,2.83,1.44h.08a11.51,11.51,0,0,1-.2-2V97.7h2.69v13.68h-2.05l-.52-1.28H481A3.06,3.06,0,0,1,478.17,111.55Zm.94-2.13a1.81,1.81,0,0,0,1.5-.6,3.49,3.49,0,0,0,.53-2v-.29a4.06,4.06,0,0,0-.49-2.27,1.82,1.82,0,0,0-1.59-.69,1.57,1.57,0,0,0-1.39.77,4,4,0,0,0-.5,2.21,3.87,3.87,0,0,0,.5,2.17A1.67,1.67,0,0,0,479.11,109.42Z"/><path class="cls-2" d="M496.75,111.38l-.52-1.34h-.07a3.9,3.9,0,0,1-1.39,1.18,4.51,4.51,0,0,1-1.87.33,3,3,0,0,1-2.23-.81,3.1,3.1,0,0,1-.81-2.3,2.6,2.6,0,0,1,1.09-2.31,6.37,6.37,0,0,1,3.3-.82l1.71,0v-.43a1.34,1.34,0,0,0-1.53-1.5,6.89,6.89,0,0,0-2.77.72l-.89-1.81a7.92,7.92,0,0,1,3.77-.89,4.67,4.67,0,0,1,3,.86,3.19,3.19,0,0,1,1.05,2.62v6.55Zm-.79-4.56-1,0a3.26,3.26,0,0,0-1.74.42,1.33,1.33,0,0,0-.57,1.18c0,.75.43,1.13,1.3,1.13a2.09,2.09,0,0,0,1.49-.53,1.91,1.91,0,0,0,.56-1.43Z"/><path class="cls-2" d="M510.15,111.38h-2.69v-5.74a2.8,2.8,0,0,0-.37-1.6,1.41,1.41,0,0,0-1.21-.53,1.8,1.8,0,0,0-1.62.75,4.6,4.6,0,0,0-.5,2.49v4.63h-2.68v-9.83h2l.36,1.26h.15a2.78,2.78,0,0,1,1.24-1.08,4.24,4.24,0,0,1,1.79-.36,3.42,3.42,0,0,1,2.6.92,3.74,3.74,0,0,1,.89,2.68Z"/><path class="cls-2" d="M515.71,111.55a3.21,3.21,0,0,1-2.72-1.34,7.53,7.53,0,0,1,0-7.5,3.28,3.28,0,0,1,2.77-1.34,3.2,3.2,0,0,1,2.83,1.44h.09a10.58,10.58,0,0,1-.2-2V97.7h2.69v13.68h-2.06l-.52-1.28h-.11A3.07,3.07,0,0,1,515.71,111.55Zm.94-2.13a1.81,1.81,0,0,0,1.51-.6,3.49,3.49,0,0,0,.52-2v-.29a4,4,0,0,0-.49-2.27,1.79,1.79,0,0,0-1.58-.69,1.58,1.58,0,0,0-1.4.77,4,4,0,0,0-.49,2.21,3.78,3.78,0,0,0,.5,2.17A1.64,1.64,0,0,0,516.65,109.42Z"/><path class="cls-3" d="M533.81,111.55a3.42,3.42,0,0,1-1.35-.25,3.5,3.5,0,0,1-1.19-.9h-.16a11.65,11.65,0,0,1,.16,1.3v4h-3.44V101.42h2.8l.48,1.26h.16a3.15,3.15,0,0,1,5.24-.07,6.57,6.57,0,0,1,.94,3.77,6.48,6.48,0,0,1-1,3.79A3.09,3.09,0,0,1,533.81,111.55Zm-1.15-7.61a1.11,1.11,0,0,0-1.06.54,3.61,3.61,0,0,0-.33,1.6v.28a3.75,3.75,0,0,0,.34,1.85,1.17,1.17,0,0,0,1.08.57,1,1,0,0,0,1-.56,4.31,4.31,0,0,0,.3-1.88,4.11,4.11,0,0,0-.3-1.84A1,1,0,0,0,532.66,103.94Z"/><path class="cls-3" d="M545.12,101.24a5.85,5.85,0,0,1,.85.07l.19,0-.31,3.24a5.12,5.12,0,0,0-1.17-.1,2.23,2.23,0,0,0-1.63.51,2,2,0,0,0-.51,1.48v4.9H539.1v-10h2.56l.54,1.59h.16a3.51,3.51,0,0,1,1.2-1.28A2.94,2.94,0,0,1,545.12,101.24Z"/><path class="cls-3" d="M556.75,106.38a5.28,5.28,0,0,1-1.31,3.81,4.87,4.87,0,0,1-3.68,1.36,4.75,4.75,0,0,1-3.61-1.4,6,6,0,0,1,0-7.56,4.89,4.89,0,0,1,3.68-1.35,5.24,5.24,0,0,1,2.6.63,4.16,4.16,0,0,1,1.73,1.79A5.72,5.72,0,0,1,556.75,106.38Zm-6.45,0a4.55,4.55,0,0,0,.34,2,1.2,1.2,0,0,0,1.16.67,1.16,1.16,0,0,0,1.13-.67,4.57,4.57,0,0,0,.33-2,4.39,4.39,0,0,0-.34-1.93,1.18,1.18,0,0,0-1.14-.65,1.2,1.2,0,0,0-1.14.65A4.36,4.36,0,0,0,550.3,106.38Z"/><path class="cls-3" d="M570.63,111.38V106a3.28,3.28,0,0,0-.27-1.51.94.94,0,0,0-.88-.51,1.24,1.24,0,0,0-1.16.68,4.67,4.67,0,0,0-.37,2.12v4.64h-3.44V106a3.28,3.28,0,0,0-.27-1.51.89.89,0,0,0-.85-.51,1.24,1.24,0,0,0-1.18.72,5.62,5.62,0,0,0-.37,2.36v4.36h-3.43v-10H561l.43,1.23h.2a2.6,2.6,0,0,1,1.15-1.05,3.9,3.9,0,0,1,1.71-.36,3.36,3.36,0,0,1,3,1.31h.28a2.79,2.79,0,0,1,1.17-1,3.92,3.92,0,0,1,1.66-.35,3.41,3.41,0,0,1,2.61.91,3.92,3.92,0,0,1,.84,2.75v6.48Z"/><path class="cls-3" d="M585.61,106.38a5.32,5.32,0,0,1-1.31,3.81,4.87,4.87,0,0,1-3.68,1.36,4.74,4.74,0,0,1-3.61-1.4,6.05,6.05,0,0,1,0-7.56,4.92,4.92,0,0,1,3.69-1.35,5.2,5.2,0,0,1,2.59.63,4.23,4.23,0,0,1,1.74,1.79A5.72,5.72,0,0,1,585.61,106.38Zm-6.45,0a4.4,4.4,0,0,0,.34,2,1.19,1.19,0,0,0,1.15.67,1.15,1.15,0,0,0,1.13-.67,4.57,4.57,0,0,0,.33-2,4.41,4.41,0,0,0-.33-1.93,1.18,1.18,0,0,0-1.14-.65,1.2,1.2,0,0,0-1.14.65A4.22,4.22,0,0,0,579.16,106.38Z"/><path class="cls-3" d="M592.14,108.84a5,5,0,0,0,1.66-.35V111a6.27,6.27,0,0,1-1.32.42,7.11,7.11,0,0,1-1.47.13,3.22,3.22,0,0,1-2.5-.85,3.77,3.77,0,0,1-.76-2.6V104h-1.21V102.6l1.53-1.09.89-2.09h2.25v2h2.44V104h-2.44v3.88C591.21,108.51,591.52,108.84,592.14,108.84Z"/><path class="cls-3" d="M600.05,111.55a5.37,5.37,0,0,1-3.87-1.32,5,5,0,0,1-1.37-3.77,5.42,5.42,0,0,1,1.27-3.87,4.76,4.76,0,0,1,3.64-1.35,4.81,4.81,0,0,1,3.48,1.18,4.46,4.46,0,0,1,1.22,3.37v1.53h-6.14a1.69,1.69,0,0,0,.61,1.31,2.38,2.38,0,0,0,1.57.48,7.77,7.77,0,0,0,1.66-.17,8.27,8.27,0,0,0,1.65-.59v2.47a5.7,5.7,0,0,1-1.67.57A11.07,11.07,0,0,1,600.05,111.55Zm-.21-8a1.44,1.44,0,0,0-1,.38,1.85,1.85,0,0,0-.48,1.2h2.95a1.71,1.71,0,0,0-.41-1.15A1.34,1.34,0,0,0,599.84,103.58Z"/><path class="cls-2" d="M432.81,131a5.91,5.91,0,0,0,1.68-.31v2a5.94,5.94,0,0,1-2.46.45,3,3,0,0,1-2.34-.81,3.54,3.54,0,0,1-.73-2.44v-4.74h-1.29V124l1.48-.9.77-2.07h1.72v2.09h2.75v2h-2.75v4.74a1,1,0,0,0,.32.84A1.28,1.28,0,0,0,432.81,131Z"/><path class="cls-2" d="M445.24,133h-2.68v-5.74c0-1.42-.52-2.13-1.58-2.13a1.78,1.78,0,0,0-1.62.76,4.63,4.63,0,0,0-.5,2.48V133h-2.69V119.3h2.69v2.79c0,.21,0,.72-.07,1.53l-.06.79h.14a3.12,3.12,0,0,1,2.85-1.45,3.49,3.49,0,0,1,2.63.94,3.68,3.68,0,0,1,.89,2.67Z"/><path class="cls-2" d="M452.15,133.15a5.07,5.07,0,0,1-3.71-1.31,5,5,0,0,1-1.34-3.71,5.44,5.44,0,0,1,1.24-3.82,4.42,4.42,0,0,1,3.41-1.35,4.32,4.32,0,0,1,3.24,1.19,4.47,4.47,0,0,1,1.16,3.28v1.3h-6.33a2.57,2.57,0,0,0,.67,1.78,2.4,2.4,0,0,0,1.78.65A7.58,7.58,0,0,0,454,131a8.24,8.24,0,0,0,1.65-.59v2.08a6.34,6.34,0,0,1-1.5.52A9.88,9.88,0,0,1,452.15,133.15Zm-.38-8.28a1.7,1.7,0,0,0-1.34.54,2.53,2.53,0,0,0-.55,1.54h3.76a2.2,2.2,0,0,0-.52-1.54A1.74,1.74,0,0,0,451.77,124.87Z"/><path class="cls-2" d="M470.47,133l-.75-3.44-1-4.34h-.06l-1.8,7.78H464l-2.79-9.83h2.67L465,127.5c.18.78.37,1.85.56,3.23h.05a17.5,17.5,0,0,1,.31-2.12l.14-.75,1.21-4.71h2.95l1.15,4.71c0,.13.06.32.11.57s.1.52.15.81.09.56.13.83.06.49.06.66h.06c0-.43.14-1,.28-1.74s.23-1.23.29-1.49l1.17-4.35h2.63L473.39,133Z"/><path class="cls-2" d="M486.43,128a5.27,5.27,0,0,1-1.27,3.76,4.59,4.59,0,0,1-3.52,1.35,4.88,4.88,0,0,1-2.5-.62,4.09,4.09,0,0,1-1.66-1.78,5.92,5.92,0,0,1-.58-2.71,5.24,5.24,0,0,1,1.26-3.74,4.61,4.61,0,0,1,3.53-1.34,5,5,0,0,1,2.5.62,4.12,4.12,0,0,1,1.66,1.77A6,6,0,0,1,486.43,128Zm-6.8,0a4.12,4.12,0,0,0,.48,2.21,2,2,0,0,0,3.11,0,4.26,4.26,0,0,0,.47-2.22,4,4,0,0,0-.48-2.18,2,2,0,0,0-3.1,0A4,4,0,0,0,479.63,128Z"/><path class="cls-2" d="M493.82,123a4.58,4.58,0,0,1,.91.08l-.21,2.52a3,3,0,0,0-.79-.09,2.86,2.86,0,0,0-2,.66A2.4,2.4,0,0,0,491,128v5h-2.68v-9.83h2l.39,1.65h.13a3.77,3.77,0,0,1,1.24-1.33A3,3,0,0,1,493.82,123Z"/><path class="cls-2" d="M498.88,133h-2.67V119.3h2.67Z"/><path class="cls-2" d="M504.5,133.15a3.21,3.21,0,0,1-2.72-1.34,7.53,7.53,0,0,1,0-7.5,3.3,3.3,0,0,1,2.77-1.35,3.21,3.21,0,0,1,2.83,1.45h.09a11.51,11.51,0,0,1-.2-2V119.3H510V133h-2.06l-.52-1.28h-.11A3.07,3.07,0,0,1,504.5,133.15Zm.94-2.13a1.81,1.81,0,0,0,1.51-.6,3.49,3.49,0,0,0,.52-2v-.29a4.07,4.07,0,0,0-.48-2.27,1.82,1.82,0,0,0-1.59-.69,1.57,1.57,0,0,0-1.39.77,4,4,0,0,0-.5,2.21,3.87,3.87,0,0,0,.5,2.17A1.64,1.64,0,0,0,505.44,131Z"/><path class="cls-2" d="M514.64,120.13l.12.19a26.64,26.64,0,0,1-1.55,4.21h-1.92c.4-1.74.7-3.2.88-4.4Z"/><path class="cls-2" d="M522.93,130.06a2.7,2.7,0,0,1-1,2.3,5.17,5.17,0,0,1-3.14.79,10.48,10.48,0,0,1-1.83-.14,6.91,6.91,0,0,1-1.42-.43v-2.21a9,9,0,0,0,1.69.58,6.69,6.69,0,0,0,1.64.24c1,0,1.46-.28,1.46-.84a.73.73,0,0,0-.19-.52,2.65,2.65,0,0,0-.67-.44c-.31-.17-.74-.37-1.26-.59a7.92,7.92,0,0,1-1.67-.88,2.55,2.55,0,0,1-.77-.92,3.09,3.09,0,0,1-.25-1.29,2.33,2.33,0,0,1,1-2,4.94,4.94,0,0,1,2.88-.72,8.11,8.11,0,0,1,3.45.78l-.81,1.93c-.49-.21-1-.38-1.38-.52a4.42,4.42,0,0,0-1.31-.2c-.79,0-1.18.22-1.18.64a.78.78,0,0,0,.38.63,11.44,11.44,0,0,0,1.68.78,7.65,7.65,0,0,1,1.68.87,2.56,2.56,0,0,1,.79.93A2.86,2.86,0,0,1,522.93,130.06Z"/><path class="cls-2" d="M537.64,123.15v1.36l-1.54.4a2.68,2.68,0,0,1,.42,1.47,3,3,0,0,1-1.1,2.47,4.79,4.79,0,0,1-3.07.88l-.48,0-.4-.05a.91.91,0,0,0-.41.71c0,.38.49.58,1.48.58h1.67a3.8,3.8,0,0,1,2.46.69,2.46,2.46,0,0,1,.85,2,3,3,0,0,1-1.44,2.67,7.47,7.47,0,0,1-4.12,1,5.68,5.68,0,0,1-3.14-.72,2.24,2.24,0,0,1-1.09-2,2.14,2.14,0,0,1,.55-1.49,3.17,3.17,0,0,1,1.63-.85,1.74,1.74,0,0,1-.72-.58,1.33,1.33,0,0,1-.31-.85,1.36,1.36,0,0,1,.33-.93,3.62,3.62,0,0,1,.94-.74,2.61,2.61,0,0,1-1.23-1.07,3.27,3.27,0,0,1-.45-1.74,3.1,3.1,0,0,1,1-2.49,4.57,4.57,0,0,1,3-.88,7.55,7.55,0,0,1,1,.08l.73.11Zm-7.59,11.21a1,1,0,0,0,.53.87,2.84,2.84,0,0,0,1.49.32,5.34,5.34,0,0,0,2.26-.39,1.21,1.21,0,0,0,.82-1.09.77.77,0,0,0-.48-.76,4.05,4.05,0,0,0-1.5-.21h-1.39a2,2,0,0,0-1.23.35A1.06,1.06,0,0,0,530.05,134.36Zm1-8a2,2,0,0,0,.36,1.26,1.32,1.32,0,0,0,1.11.47,1.29,1.29,0,0,0,1.11-.47,2.07,2.07,0,0,0,.35-1.26c0-1.19-.48-1.78-1.46-1.78S531,125.18,531,126.37Z"/><path class="cls-2" d="M544.43,123a4.58,4.58,0,0,1,.91.08l-.21,2.52a3,3,0,0,0-.79-.09,2.86,2.86,0,0,0-2,.66,2.4,2.4,0,0,0-.71,1.84v5H539v-9.83h2l.39,1.65h.13a3.77,3.77,0,0,1,1.24-1.33A3,3,0,0,1,544.43,123Z"/><path class="cls-2" d="M551.26,133.15a5.09,5.09,0,0,1-3.71-1.31,5,5,0,0,1-1.33-3.71,5.48,5.48,0,0,1,1.23-3.82,4.44,4.44,0,0,1,3.42-1.35,4.33,4.33,0,0,1,3.24,1.19,4.51,4.51,0,0,1,1.16,3.28v1.3h-6.34a2.57,2.57,0,0,0,.68,1.78,2.36,2.36,0,0,0,1.77.65,7.45,7.45,0,0,0,1.68-.19,8.31,8.31,0,0,0,1.66-.59v2.08a6.26,6.26,0,0,1-1.51.52A9.74,9.74,0,0,1,551.26,133.15Zm-.38-8.28a1.7,1.7,0,0,0-1.33.54A2.54,2.54,0,0,0,549,127h3.77a2.3,2.3,0,0,0-.52-1.54A1.78,1.78,0,0,0,550.88,124.87Z"/><path class="cls-2" d="M563.38,133l-.51-1.34h-.08a3.9,3.9,0,0,1-1.39,1.18,4.51,4.51,0,0,1-1.87.33,3,3,0,0,1-2.22-.81,3.07,3.07,0,0,1-.82-2.3,2.61,2.61,0,0,1,1.1-2.31,6.37,6.37,0,0,1,3.3-.82l1.7,0v-.43a1.34,1.34,0,0,0-1.53-1.5,7,7,0,0,0-2.77.72l-.88-1.82a8,8,0,0,1,3.76-.88,4.64,4.64,0,0,1,3,.86,3.19,3.19,0,0,1,1.06,2.62V133Zm-.79-4.56-1,0a3.26,3.26,0,0,0-1.74.42,1.31,1.31,0,0,0-.58,1.18c0,.75.44,1.13,1.3,1.13a2.11,2.11,0,0,0,1.5-.53,1.91,1.91,0,0,0,.55-1.43Z"/><path class="cls-2" d="M571.85,131a6,6,0,0,0,1.69-.31v2a6,6,0,0,1-2.46.45,3,3,0,0,1-2.35-.81,3.54,3.54,0,0,1-.73-2.44v-4.74h-1.28V124l1.47-.9.78-2.07h1.71v2.09h2.75v2h-2.75v4.74a1,1,0,0,0,.32.84A1.28,1.28,0,0,0,571.85,131Z"/><path class="cls-2" d="M579.66,133.15a5.06,5.06,0,0,1-3.7-1.31,4.92,4.92,0,0,1-1.34-3.71,5.48,5.48,0,0,1,1.23-3.82,4.46,4.46,0,0,1,3.42-1.35,4.32,4.32,0,0,1,3.24,1.19,4.47,4.47,0,0,1,1.16,3.28v1.3h-6.34a2.57,2.57,0,0,0,.68,1.78,2.39,2.39,0,0,0,1.78.65,7.58,7.58,0,0,0,1.68-.19,8.46,8.46,0,0,0,1.65-.59v2.08a6.34,6.34,0,0,1-1.5.52A9.92,9.92,0,0,1,579.66,133.15Zm-.37-8.28a1.7,1.7,0,0,0-1.34.54,2.47,2.47,0,0,0-.55,1.54h3.76a2.25,2.25,0,0,0-.52-1.54A1.76,1.76,0,0,0,579.29,124.87Z"/><path class="cls-2" d="M592.4,130.06a2.7,2.7,0,0,1-1,2.3,5.17,5.17,0,0,1-3.14.79,10.48,10.48,0,0,1-1.83-.14,7,7,0,0,1-1.41-.43v-2.21a8.93,8.93,0,0,0,1.68.58,6.7,6.7,0,0,0,1.65.24c1,0,1.46-.28,1.46-.84a.73.73,0,0,0-.2-.52,2.65,2.65,0,0,0-.67-.44,13.26,13.26,0,0,0-1.26-.59,8.19,8.19,0,0,1-1.67-.88,2.55,2.55,0,0,1-.77-.92,3.1,3.1,0,0,1-.24-1.29,2.35,2.35,0,0,1,1-2,4.94,4.94,0,0,1,2.88-.72,8.12,8.12,0,0,1,3.46.78l-.81,1.93c-.49-.21-1-.38-1.38-.52a4.53,4.53,0,0,0-1.31-.2c-.79,0-1.19.22-1.19.64a.78.78,0,0,0,.38.63,12,12,0,0,0,1.68.78,7.77,7.77,0,0,1,1.69.87,2.66,2.66,0,0,1,.79.93A2.86,2.86,0,0,1,592.4,130.06Z"/><path class="cls-2" d="M598.33,131a6,6,0,0,0,1.68-.31v2a5.94,5.94,0,0,1-2.46.45,3,3,0,0,1-2.34-.81,3.54,3.54,0,0,1-.73-2.44v-4.74h-1.29V124l1.48-.9.77-2.07h1.72v2.09h2.75v2h-2.75v4.74a1,1,0,0,0,.32.84A1.26,1.26,0,0,0,598.33,131Z"/><path class="cls-3" d="M618.07,133v-5.42a3.14,3.14,0,0,0-.28-1.51.91.91,0,0,0-.87-.51,1.23,1.23,0,0,0-1.16.68,4.52,4.52,0,0,0-.37,2.11V133h-3.45v-5.42a3.3,3.3,0,0,0-.26-1.51.89.89,0,0,0-.85-.51,1.24,1.24,0,0,0-1.18.72,5.46,5.46,0,0,0-.37,2.36V133h-3.44V123h2.6l.43,1.23h.2a2.55,2.55,0,0,1,1.15-1,3.9,3.9,0,0,1,1.71-.36,3.36,3.36,0,0,1,3,1.31h.27a2.76,2.76,0,0,1,1.18-1,3.9,3.9,0,0,1,1.65-.35,3.38,3.38,0,0,1,2.61.91,3.87,3.87,0,0,1,.85,2.75V133Z"/><path class="cls-3" d="M630.63,133l-.43-1.24H630a2.92,2.92,0,0,1-1.2,1,4.24,4.24,0,0,1-1.81.36,3.37,3.37,0,0,1-2.55-1,3.76,3.76,0,0,1-.92-2.7V123H627v5.44a3.15,3.15,0,0,0,.27,1.47,1,1,0,0,0,.91.51,1.33,1.33,0,0,0,1.27-.7,5.38,5.38,0,0,0,.38-2.36V123h3.43v10Z"/><path class="cls-3" d="M643,129.92a2.81,2.81,0,0,1-1.09,2.41,5.1,5.1,0,0,1-3.13.82,13.3,13.3,0,0,1-1.92-.12,8.22,8.22,0,0,1-1.67-.43v-2.75a11.58,11.58,0,0,0,1.75.58,7.54,7.54,0,0,0,1.7.23c.75,0,1.12-.17,1.12-.51a.58.58,0,0,0-.31-.47,14.29,14.29,0,0,0-1.82-.81,4.44,4.44,0,0,1-1.91-1.28,2.85,2.85,0,0,1-.55-1.81,2.51,2.51,0,0,1,1.07-2.16,5.1,5.1,0,0,1,3-.78,7.41,7.41,0,0,1,1.86.22,10.4,10.4,0,0,1,1.79.63L642,125.9a10.79,10.79,0,0,0-1.45-.52,4.63,4.63,0,0,0-1.25-.22q-.84,0-.84.42a.51.51,0,0,0,.29.43,15.29,15.29,0,0,0,1.7.73,6.35,6.35,0,0,1,1.56.85,2.43,2.43,0,0,1,.76,1A3.41,3.41,0,0,1,643,129.92Z"/><path class="cls-3" d="M644.51,120.54a1.46,1.46,0,0,1,.43-1.15,2.1,2.1,0,0,1,1.39-.38,2.07,2.07,0,0,1,1.4.39,1.44,1.44,0,0,1,.44,1.14c0,1-.61,1.51-1.84,1.51S644.51,121.55,644.51,120.54ZM648,133H644.6V123H648Z"/><path class="cls-3" d="M654.67,133.15a4.9,4.9,0,0,1-3.71-1.32A5.27,5.27,0,0,1,649.7,128a5.19,5.19,0,0,1,1.36-3.84,5.28,5.28,0,0,1,3.88-1.36,7.2,7.2,0,0,1,3.26.76l-1,2.54c-.42-.18-.8-.33-1.15-.44a3.66,3.66,0,0,0-1.1-.16,1.48,1.48,0,0,0-1.29.65,3.13,3.13,0,0,0-.46,1.84c0,1.59.59,2.39,1.77,2.39a5.43,5.43,0,0,0,2.9-.88v2.73A5.63,5.63,0,0,1,654.67,133.15Z"/><path class="cls-3" d="M659.46,120.54a1.43,1.43,0,0,1,.43-1.15,2.08,2.08,0,0,1,1.39-.38,2,2,0,0,1,1.39.39,1.41,1.41,0,0,1,.44,1.14c0,1-.61,1.51-1.83,1.51S659.46,121.55,659.46,120.54ZM663,133h-3.44V123H663Z"/><path class="cls-3" d="M671.57,133l-.66-1.32h-.07a3.89,3.89,0,0,1-1.41,1.17,4.55,4.55,0,0,1-1.87.32,2.92,2.92,0,0,1-2.21-.84,3.3,3.3,0,0,1-.81-2.38,2.67,2.67,0,0,1,1.11-2.36,6,6,0,0,1,3.2-.88l1.67,0v-.14a1.08,1.08,0,0,0-1.22-1.23,7.16,7.16,0,0,0-2.77.74l-1-2.27a9.54,9.54,0,0,1,4.4-.9,4.28,4.28,0,0,1,3,1,3.4,3.4,0,0,1,1.05,2.66V133ZM669,130.73a1.58,1.58,0,0,0,1.07-.4,1.33,1.33,0,0,0,.44-1v-.77l-.79,0c-1.13,0-1.7.46-1.7,1.25C668,130.42,668.37,130.73,669,130.73Z"/><path class="cls-3" d="M682.27,133v-5.44a3.06,3.06,0,0,0-.29-1.49,1,1,0,0,0-.92-.51,1.31,1.31,0,0,0-1.25.69,5.27,5.27,0,0,0-.39,2.39V133H676V123h2.6l.43,1.23h.2a2.74,2.74,0,0,1,1.22-1.06,4.35,4.35,0,0,1,1.78-.35,3.41,3.41,0,0,1,2.58,1,3.76,3.76,0,0,1,.92,2.7V133Z"/><path class="cls-3" d="M695.43,129.92a2.84,2.84,0,0,1-1.09,2.41,5.12,5.12,0,0,1-3.13.82,13.55,13.55,0,0,1-1.93-.12,8.39,8.39,0,0,1-1.67-.43v-2.75a11.71,11.71,0,0,0,1.76.58,7.47,7.47,0,0,0,1.7.23q1.11,0,1.11-.51a.55.55,0,0,0-.31-.47,13.87,13.87,0,0,0-1.81-.81,4.42,4.42,0,0,1-1.92-1.28,2.91,2.91,0,0,1-.54-1.81,2.48,2.48,0,0,1,1.07-2.16,5.06,5.06,0,0,1,3-.78,7.33,7.33,0,0,1,1.85.22,10.2,10.2,0,0,1,1.8.63l-.93,2.21a10.79,10.79,0,0,0-1.45-.52,4.63,4.63,0,0,0-1.25-.22c-.56,0-.85.14-.85.42a.51.51,0,0,0,.3.43,14.41,14.41,0,0,0,1.7.73,6.35,6.35,0,0,1,1.56.85,2.63,2.63,0,0,1,.76,1A3.41,3.41,0,0,1,695.43,129.92Z"/><path class="cls-3" d="M696.6,131.52a1.61,1.61,0,0,1,.48-1.25,2,2,0,0,1,1.39-.44,1.87,1.87,0,0,1,1.33.44,1.86,1.86,0,0,1,0,2.48,1.85,1.85,0,0,1-1.32.45,2,2,0,0,1-1.37-.44A1.56,1.56,0,0,1,696.6,131.52Z"/></g></svg>