<svg id="Background" xmlns="http://www.w3.org/2000/svg" viewBox="0 0 500 500"><defs><style>.cls-1{fill:#f9662b;}</style></defs><path d="M246.36,195.27l-38.15-31a1.85,1.85,0,0,0-3,1.43v64.94l-14.38,8.13a11.57,11.57,0,0,0-5.88,10.08v20.63a1.45,1.45,0,0,0,2.15,1.26l18.11-10.26,8.94-5.06A11.58,11.58,0,0,0,220,245.3V193l30,24.41V202.88A9.83,9.83,0,0,0,246.36,195.27Z"/><path class="cls-1" d="M312.91,164,294.8,174.25l-8.94,5.06A11.62,11.62,0,0,0,280,189.42v52.34l-30-24.4v14.47a9.79,9.79,0,0,0,3.63,7.61l38.14,31a1.86,1.86,0,0,0,3-1.43v-65L309.18,196a11.55,11.55,0,0,0,5.9-10.07V165.26A1.46,1.46,0,0,0,312.91,164Z"/><path d="M97.23,291.76a3.37,3.37,0,0,0-3.34,3.4v30.78L71.65,293.81a4.88,4.88,0,0,0-3.82-2.05h-.78a4.59,4.59,0,0,0-4.55,4.61v36.18a3.37,3.37,0,0,0,6.73,0V301.71L91.59,334a4.6,4.6,0,0,0,3.7,1.87H96a4.57,4.57,0,0,0,4.6-4.54V295.16A3.44,3.44,0,0,0,97.23,291.76Z"/><path d="M148.51,298.43a3.14,3.14,0,0,0,3.21-3.15,3.18,3.18,0,0,0-3.21-3.22H124.2a3.37,3.37,0,0,0-3.33,3.4v36.79a3.33,3.33,0,0,0,3.33,3.33h24.31a3.14,3.14,0,0,0,3.21-3.15,3.18,3.18,0,0,0-3.21-3.22H127.6V317h18.72a3.19,3.19,0,1,0,0-6.37H127.6V298.43Z"/><path d="M188.15,291.46c-12.83,0-21.63,9-21.88,22.38.25,13.36,9,22.35,21.88,22.35s21.62-9,21.88-22.35v0C209.77,300.44,201,291.46,188.15,291.46Zm0,38.36c-9.06,0-15.15-6.43-15.15-16s6.09-16,15.15-16,15.15,6.42,15.15,16S197.21,329.82,188.15,329.82Z"/><path d="M247.55,298a21.33,21.33,0,0,1,10.81,2.78,3.19,3.19,0,0,0,1.37.31,3.07,3.07,0,0,0,2.24-.92,2.92,2.92,0,0,0,.79-2.15,3,3,0,0,0-1.64-2.68A27.17,27.17,0,0,0,247,291.46c-13.05,0-21.82,9-21.82,22.36S234,336.19,247,336.19a27.1,27.1,0,0,0,14.11-3.83,3,3,0,0,0,1.65-2.69h0a2.91,2.91,0,0,0-.79-2.14,3.07,3.07,0,0,0-2.24-.92,3.25,3.25,0,0,0-1.38.31,21.26,21.26,0,0,1-10.8,2.78c-9.65,0-15.64-6.08-15.64-15.88S237.9,298,247.55,298Z"/><path d="M317.85,305c0-8.21-6.23-12.92-17.09-12.92H286.64a3.37,3.37,0,0,0-3.33,3.4v37.09a3.33,3.33,0,0,0,3.33,3.33,3.37,3.37,0,0,0,3.4-3.33V319.1H302c7.78,0,8.78,6.21,8.78,11.63v1.82a3.18,3.18,0,0,0,3.4,3.33,3.34,3.34,0,0,0,3.33-3.33v-2.79c0-2.67-.5-11.08-6.49-13.85A11.85,11.85,0,0,0,317.85,305Zm-6.73.42c0,4.55-4,7.27-10.72,7.27H290V298.49H300.1C309.87,298.49,311.12,302.18,311.12,305.4Z"/><path d="M370.4,291.76a3.38,3.38,0,0,0-2.92,1.66l-12.17,17.69-12.16-17.68a3.38,3.38,0,0,0-2.93-1.67,3.25,3.25,0,0,0-3.27,3.4,3.66,3.66,0,0,0,.6,2l14.37,20.14v15.26a3.37,3.37,0,0,0,6.73,0V317.29l14.45-20.18a3.65,3.65,0,0,0,.58-1.93,3.32,3.32,0,0,0-.91-2.43A3.26,3.26,0,0,0,370.4,291.76Z"/><path d="M433,291.76h-2a4.7,4.7,0,0,0-4.26,2.93L413.5,327.58l-13.2-32.9a4.69,4.69,0,0,0-4.26-2.92h-2a4.59,4.59,0,0,0-4.55,4.61v36.18a3.33,3.33,0,0,0,3.33,3.33,3.36,3.36,0,0,0,3.4-3.33v-31.3L409.06,333a4.84,4.84,0,0,0,8.88,0l12.83-31.71v31.3a3.37,3.37,0,0,0,6.73,0V296.37A4.59,4.59,0,0,0,433,291.76Z"/></svg>