<?xml version="1.0" encoding="UTF-8"?><svg id="Background" xmlns="http://www.w3.org/2000/svg" viewBox="0 0 500 500"><defs><style>.cls-1{fill:#f9662b;}.cls-2{fill:#fff;}.cls-3{fill:#131416;}</style></defs><rect class="cls-3" width="500" height="500"/><g><g><path class="cls-2" d="m100.91,236.19l-23.85-19.4c-.76-.62-1.9-.08-1.9.9v40.6l-8.99,5.08c-2.27,1.28-3.68,3.69-3.68,6.3v12.9c0,.68.74,1.13,1.34.79l11.32-6.41,5.59-3.17c2.27-1.28,3.68-3.69,3.68-6.32v-32.73l18.75,15.26v-9.05c0-1.84-.83-3.6-2.27-4.76Z"/><path class="cls-1" d="m142.52,216.64l-11.32,6.41-5.59,3.17c-2.27,1.28-3.68,3.71-3.68,6.32v32.73l-18.75-15.26v9.05c0,1.84.83,3.6,2.27,4.76l23.85,19.4c.77.62,1.9.08,1.9-.9v-40.6l8.99-5.08c2.29-1.28,3.69-3.69,3.69-6.3v-12.9c0-.68-.76-1.13-1.36-.79Z"/></g><g><path class="cls-2" d="m185.56,234.43c-1.36,0-2.47,1.13-2.47,2.51v22.79l-16.47-23.79c-.76-.98-1.77-1.52-2.82-1.52h-.58c-1.86,0-3.37,1.53-3.37,3.41v26.79c0,1.36,1.11,2.47,2.47,2.47s2.51-1.11,2.51-2.47v-22.83l16.56,23.91c.66.88,1.66,1.39,2.74,1.39h.54c1.88,0,3.41-1.51,3.41-3.37v-26.79c0-1.36-1.15-2.51-2.51-2.51Z"/><path class="cls-2" d="m223.53,239.37c1.33,0,2.38-1.03,2.38-2.33s-1.05-2.38-2.38-2.38h-17.99c-1.36,0-2.47,1.13-2.47,2.51v27.24c0,1.36,1.11,2.47,2.47,2.47h17.99c1.33,0,2.38-1.03,2.38-2.33s-1.05-2.38-2.38-2.38h-15.48v-9.06h13.86c1.33,0,2.38-1.03,2.38-2.33s-1.05-2.38-2.38-2.38h-13.86v-9.02h15.48Z"/><path class="cls-2" d="m252.88,234.21c-9.5,0-16.01,6.65-16.2,16.57.19,9.9,6.7,16.55,16.2,16.55s16.01-6.65,16.2-16.55v-.02c-.19-9.9-6.7-16.55-16.2-16.55Zm0,28.4c-6.71,0-11.22-4.76-11.22-11.84s4.51-11.84,11.22-11.84,11.22,4.76,11.22,11.84-4.51,11.84-11.22,11.84Z"/><path class="cls-2" d="m296.86,239.01c3.41,0,5.66.82,8.01,2.06.41.2.84.23,1.01.23.65,0,1.24-.24,1.66-.68.4-.42.61-1,.59-1.59-.05-.93-.44-1.57-1.22-1.98-2.49-1.4-5.67-2.84-10.45-2.84-9.66,0-16.16,6.65-16.16,16.56s6.49,16.56,16.16,16.56c4.78,0,7.96-1.44,10.44-2.83.78-.42,1.17-1.06,1.22-1.99h0c.03-.59-.19-1.17-.59-1.59-.42-.44-1.01-.68-1.66-.68-.17,0-.6.02-1.02.23-2.34,1.24-4.59,2.06-8,2.06-7.14,0-11.58-4.5-11.58-11.75s4.44-11.76,11.58-11.76Z"/><path class="cls-2" d="m348.91,244.22c0-6.07-4.61-9.56-12.65-9.56h-10.46c-1.36,0-2.47,1.13-2.47,2.51v27.46c0,1.36,1.11,2.47,2.47,2.47s2.51-1.11,2.51-2.47v-9.96h8.84c5.77,0,6.5,4.6,6.5,8.61v1.35c0,1.48,1.01,2.47,2.51,2.47,1.36,0,2.47-1.11,2.47-2.47v-2.06c0-1.98-.37-8.2-4.8-10.26,3.16-1.52,5.07-4.52,5.07-8.09Zm-4.98.31c0,3.37-2.97,5.38-7.94,5.38h-7.67v-10.5h7.45c7.24,0,8.17,2.73,8.17,5.11Z"/><path class="cls-2" d="m387.82,234.43c-.89,0-1.62.41-2.17,1.23l-9.01,13.1-9-13.1c-.54-.82-1.27-1.23-2.17-1.23-.67,0-1.3.26-1.75.73-.46.48-.7,1.12-.67,1.78,0,.51.14,1,.44,1.47l10.64,14.92v11.3c0,1.36,1.13,2.47,2.51,2.47s2.47-1.11,2.47-2.47v-11.3l10.7-14.94c.28-.45.43-.94.43-1.43.03-.68-.21-1.32-.67-1.8-.46-.47-1.08-.73-1.75-.73Z"/><path class="cls-2" d="m434.13,234.43h-1.48c-1.35,0-2.61.87-3.15,2.17l-9.77,24.36-9.77-24.36c-.54-1.29-1.81-2.16-3.15-2.16h-1.48c-1.86,0-3.37,1.53-3.37,3.41v26.79c0,1.36,1.11,2.47,2.47,2.47s2.51-1.11,2.51-2.47v-23.17l9.5,23.49c.58,1.33,1.84,2.15,3.28,2.15s2.7-.83,3.29-2.17l9.5-23.48v23.17c0,1.36,1.13,2.47,2.51,2.47s2.47-1.11,2.47-2.47v-26.79c0-1.88-1.51-3.41-3.37-3.41Z"/></g></g></svg>