<svg xmlns="http://www.w3.org/2000/svg" viewBox="0 0 2048 1152"><defs><style>.cls-1{fill:#131416;}.cls-2{fill:#ededec;}.cls-3{fill:#f77239;}</style></defs><g id="Background"><rect class="cls-1" width="2048" height="1152"/></g><g id="Text"><path class="cls-2" d="M646,492.51H635.38l-17.08-29.7h-.24q.51,7.86.51,11.22v18.48h-7.44V453.25h10.5l17,29.4h.19q-.4-7.65-.4-10.82V453.25H646Z"/><path class="cls-2" d="M667.85,493.05q-7.25,0-11.33-4t-4.08-11.33q0-7.54,3.77-11.67t10.43-4.12q6.38,0,9.91,3.63t3.55,10v4H660.73A7.88,7.88,0,0,0,662.8,485a7.27,7.27,0,0,0,5.43,2,22.85,22.85,0,0,0,5.13-.56,26.34,26.34,0,0,0,5-1.8v6.33a19.27,19.27,0,0,1-4.6,1.6A28.8,28.8,0,0,1,667.85,493.05Zm-1.15-25.3a5.18,5.18,0,0,0-4.08,1.65,7.65,7.65,0,0,0-1.7,4.69h11.5a6.85,6.85,0,0,0-1.59-4.69A5.36,5.36,0,0,0,666.7,467.75Z"/><path class="cls-2" d="M713.11,477.44q0,7.33-3.87,11.47t-10.77,4.14a15,15,0,0,1-7.63-1.9,12.54,12.54,0,0,1-5.07-5.44,18.28,18.28,0,0,1-1.77-8.27q0-7.35,3.84-11.44t10.79-4.08a15.17,15.17,0,0,1,7.63,1.88,12.58,12.58,0,0,1,5.08,5.4A18.09,18.09,0,0,1,713.11,477.44Zm-20.76,0c0,3,.49,5.22,1.46,6.74a5.23,5.23,0,0,0,4.77,2.29,5.16,5.16,0,0,0,4.71-2.27q1.44-2.28,1.44-6.76t-1.45-6.68a6.17,6.17,0,0,0-9.48,0Q692.35,473,692.35,477.44Z"/><path class="cls-2" d="M731.13,493.05q-14,0-14-15.39,0-7.65,3.82-11.7t10.93-4a20.81,20.81,0,0,1,9.34,2l-2.41,6.34c-1.29-.52-2.49-.94-3.6-1.28a11.63,11.63,0,0,0-3.33-.49q-6.39,0-6.39,9.07,0,8.82,6.39,8.81a14.67,14.67,0,0,0,4.38-.63,15.89,15.89,0,0,0,4-2v7a13.11,13.11,0,0,1-4,1.74A22.69,22.69,0,0,1,731.13,493.05Z"/><path class="cls-2" d="M763,461.92a13.38,13.38,0,0,1,2.77.24l-.62,7.68a9.34,9.34,0,0,0-2.42-.27,8.71,8.71,0,0,0-6.11,2,7.31,7.31,0,0,0-2.19,5.64v15.28h-8.19v-30h6.21l1.21,5h.4a11.34,11.34,0,0,1,3.77-4.07A9.4,9.4,0,0,1,763,461.92Z"/><path class="cls-2" d="M766,462.48h9l5.66,16.9a23.07,23.07,0,0,1,1,5.21h.16a23.28,23.28,0,0,1,1.15-5.21l5.56-16.9h8.78l-12.7,33.87a14.66,14.66,0,0,1-5,7,12.63,12.63,0,0,1-7.56,2.33,19.28,19.28,0,0,1-4.16-.45v-6.5a14.12,14.12,0,0,0,3.22.35,5.85,5.85,0,0,0,3.8-1.33,8.7,8.7,0,0,0,2.54-4l.48-1.48Z"/><path class="cls-2" d="M827.56,492.51h-8.19V475a8.78,8.78,0,0,0-1.09-4.87,3.83,3.83,0,0,0-3.42-1.63,5,5,0,0,0-4.57,2.31c-.95,1.54-1.42,4.08-1.42,7.6v14.13h-8.19v-30h6.25l1.11,3.85h.45a8.36,8.36,0,0,1,3.49-3.24,11.33,11.33,0,0,1,5.24-1.17q6.74,0,9.13,4.41h.73a8.08,8.08,0,0,1,3.55-3.25,11.9,11.9,0,0,1,5.31-1.16q5.1,0,7.72,2.62c1.74,1.75,2.62,4.54,2.62,8.39v19.58h-8.22V475A8.78,8.78,0,0,0,837,470.1a3.82,3.82,0,0,0-3.42-1.63,5.11,5.11,0,0,0-4.5,2.15c-1,1.43-1.49,3.71-1.49,6.82Z"/><path class="cls-2" d="M866.75,454.72c0-2.66,1.49-4,4.46-4s4.46,1.34,4.46,4a3.91,3.91,0,0,1-1.12,3,4.65,4.65,0,0,1-3.34,1.06Q866.76,458.75,866.75,454.72Zm8.54,37.79H867.1v-30h8.19Z"/><path class="cls-2" d="M903.9,483.59a8.27,8.27,0,0,1-3.21,7q-3.21,2.42-9.6,2.42a29.71,29.71,0,0,1-5.59-.45,20.88,20.88,0,0,1-4.32-1.3v-6.77a27.84,27.84,0,0,0,5.14,1.8,20.59,20.59,0,0,0,5,.73q4.46,0,4.45-2.58a2.11,2.11,0,0,0-.59-1.57,8.48,8.48,0,0,0-2-1.37c-1-.51-2.25-1.11-3.87-1.79a24.35,24.35,0,0,1-5.09-2.68,7.59,7.59,0,0,1-2.36-2.84,9.34,9.34,0,0,1-.74-3.93,7.15,7.15,0,0,1,3.1-6.19q3.1-2.19,8.8-2.19a25,25,0,0,1,10.55,2.36l-2.47,5.91c-1.5-.64-2.91-1.17-4.21-1.58a13.31,13.31,0,0,0-4-.62c-2.42,0-3.63.65-3.63,2a2.31,2.31,0,0,0,1.17,1.91,32.77,32.77,0,0,0,5.11,2.39,23.41,23.41,0,0,1,5.16,2.66,7.89,7.89,0,0,1,2.42,2.84A8.77,8.77,0,0,1,903.9,483.59Z"/><path class="cls-2" d="M941.77,492.51l-1.58-4.08H940a12.13,12.13,0,0,1-4.25,3.61,13.78,13.78,0,0,1-5.71,1,9.27,9.27,0,0,1-6.81-2.47q-2.48-2.47-2.48-7,0-4.79,3.34-7.05T934.15,474l5.21-.16V472.5q0-4.56-4.68-4.56a21.28,21.28,0,0,0-8.46,2.17l-2.71-5.53a24.42,24.42,0,0,1,11.5-2.71c4,0,7.11.87,9.26,2.63s3.22,4.42,3.22,8v20Zm-2.41-13.91-3.17.11a10.22,10.22,0,0,0-5.32,1.28,4.07,4.07,0,0,0-1.75,3.6q0,3.46,4,3.47a6.3,6.3,0,0,0,4.55-1.64,5.74,5.74,0,0,0,1.71-4.35Z"/><path class="cls-3" d="M986,461.54a15.66,15.66,0,0,1,2.61.22l.59.11-.94,9.91a15.22,15.22,0,0,0-3.58-.32q-3.44,0-5,1.57a6.13,6.13,0,0,0-1.56,4.52v15h-10.5V462.08h7.82l1.63,4.86h.51a10.48,10.48,0,0,1,3.67-3.9A8.75,8.75,0,0,1,986,461.54Z"/><path class="cls-3" d="M1007.23,493.05q-7.59,0-11.8-4.05t-4.2-11.5q0-7.71,3.89-11.83t11.12-4.13q6.87,0,10.62,3.59t3.75,10.33v4.67h-18.77a5.21,5.21,0,0,0,1.86,4,7.31,7.31,0,0,0,4.8,1.45,23.15,23.15,0,0,0,5.09-.52,25.58,25.58,0,0,0,5-1.79v7.55a18.55,18.55,0,0,1-5.1,1.74A35.54,35.54,0,0,1,1007.23,493.05Zm-.61-24.36a4.39,4.39,0,0,0-3.11,1.17,5.46,5.46,0,0,0-1.46,3.66h9a5.3,5.3,0,0,0-1.25-3.52A4.15,4.15,0,0,0,1006.62,468.69Z"/><path class="cls-3" d="M1039.47,493.05q-7.47,0-11.32-4t-3.86-11.58q0-7.57,4.17-11.73t11.84-4.17a22.14,22.14,0,0,1,10,2.31l-3.09,7.77a32.5,32.5,0,0,0-3.51-1.33,11.44,11.44,0,0,0-3.36-.5,4.54,4.54,0,0,0-4,2,9.65,9.65,0,0,0-1.4,5.61q0,7.31,5.4,7.3a16.3,16.3,0,0,0,8.86-2.68v8.35A17.23,17.23,0,0,1,1039.47,493.05Z"/><path class="cls-3" d="M1083.38,477.23q0,7.47-4,11.64t-11.23,4.18q-6.93,0-11-4.27T1053,477.23q0-7.44,4-11.56t11.27-4.13a16.06,16.06,0,0,1,7.92,1.91,13,13,0,0,1,5.3,5.47A17.56,17.56,0,0,1,1083.38,477.23Zm-19.71,0a13.63,13.63,0,0,0,1,6,3.66,3.66,0,0,0,3.52,2.06,3.54,3.54,0,0,0,3.45-2.06,13.84,13.84,0,0,0,1-6,13.25,13.25,0,0,0-1-5.88,3.59,3.59,0,0,0-3.49-2,3.64,3.64,0,0,0-3.47,2A13.14,13.14,0,0,0,1063.67,477.23Z"/><path class="cls-3" d="M1106.8,461.54a15.57,15.57,0,0,1,2.61.22l.59.11-.94,9.91a15.18,15.18,0,0,0-3.57-.32q-3.43,0-5,1.57a6.13,6.13,0,0,0-1.56,4.52v15h-10.5V462.08h7.82l1.64,4.86h.51a10.46,10.46,0,0,1,3.66-3.9A8.75,8.75,0,0,1,1106.8,461.54Z"/><path class="cls-3" d="M1122.76,493.05a9.07,9.07,0,0,1-5.68-1.86,11.74,11.74,0,0,1-3.76-5.45,24.12,24.12,0,0,1-1.33-8.4c0-4.95,1-8.81,3-11.61a9.53,9.53,0,0,1,8.19-4.19,9.28,9.28,0,0,1,4.47,1,9.9,9.9,0,0,1,3.51,3.43h.21a50.43,50.43,0,0,1-.51-7.14v-8.14h10.58v41.79h-7.92l-2.25-3.84h-.41A8.88,8.88,0,0,1,1122.76,493.05Zm4.3-8.3a3.93,3.93,0,0,0,3.56-1.59,9.57,9.57,0,0,0,1.11-4.88v-.84c0-2.68-.39-4.59-1.15-5.73A4.07,4.07,0,0,0,1127,470a3.55,3.55,0,0,0-3.21,1.95,11.1,11.1,0,0,0-1.14,5.55,10.26,10.26,0,0,0,1.15,5.39A3.67,3.67,0,0,0,1127.06,484.75Z"/><path class="cls-3" d="M1171.59,492.51h-10.5V450.72h10.5Z"/><path class="cls-3" d="M1197.78,492.51l-2-4h-.22a11.8,11.8,0,0,1-4.32,3.6,14.37,14.37,0,0,1-5.69,1,8.93,8.93,0,0,1-6.77-2.58q-2.48-2.58-2.47-7.25c0-3.24,1.13-5.66,3.38-7.24s5.53-2.48,9.8-2.67l5.08-.16v-.43q0-3.77-3.71-3.76a22.21,22.21,0,0,0-8.46,2.25l-3-6.93q5.31-2.73,13.43-2.74,5.85,0,9.06,2.91t3.21,8.11v19.95Zm-7.79-6.88a4.77,4.77,0,0,0,3.27-1.2,4,4,0,0,0,1.35-3.15v-2.36l-2.41.11q-5.19.18-5.19,3.81C1187,484.7,1188,485.63,1190,485.63Z"/><path class="cls-3" d="M1229.85,461.54a9.13,9.13,0,0,1,7.88,4.17q2.93,4.16,2.92,11.52t-2.94,11.61a9.42,9.42,0,0,1-8.18,4.21,11,11,0,0,1-3-.37,8.76,8.76,0,0,1-2.35-1,12.31,12.31,0,0,1-2.4-2.15h-.65l-1.66,3h-8.19V450.72h10.5v9.46c0,1.12-.13,3.07-.38,5.82h.38a9,9,0,0,1,8.08-4.46Zm-3.84,8.25a3.59,3.59,0,0,0-3.22,1.53,8.85,8.85,0,0,0-1,4.81v1.47q0,3.73,1,5.36a3.64,3.64,0,0,0,3.33,1.63,3.11,3.11,0,0,0,2.85-1.9,12.36,12.36,0,0,0,1-5.57Q1230,469.79,1226,469.79Z"/><path class="cls-3" d="M1260.39,493.05q-7.59,0-11.8-4.05t-4.2-11.5q0-7.71,3.89-11.83t11.12-4.13q6.87,0,10.62,3.59t3.75,10.33v4.67H1255a5.25,5.25,0,0,0,1.87,4,7.29,7.29,0,0,0,4.79,1.45,23.08,23.08,0,0,0,5.09-.52,25.43,25.43,0,0,0,5-1.79v7.55a18.55,18.55,0,0,1-5.1,1.74A35.54,35.54,0,0,1,1260.39,493.05Zm-.62-24.36a4.36,4.36,0,0,0-3.1,1.17,5.46,5.46,0,0,0-1.46,3.66h9A5.19,5.19,0,0,0,1263,470,4.12,4.12,0,0,0,1259.77,468.69Z"/><path class="cls-3" d="M1289.27,492.51h-10.5V450.72h10.5Z"/><path class="cls-2" d="M623.13,552.52a17.7,17.7,0,0,0,5.16-.94v6.1a18.44,18.44,0,0,1-7.52,1.37c-3.28,0-5.66-.83-7.16-2.49s-2.24-4.14-2.24-7.45V534.63h-3.92v-3.46l4.51-2.74,2.36-6.34h5.24v6.39H628v6.15h-8.41v14.48a3.23,3.23,0,0,0,1,2.58A3.89,3.89,0,0,0,623.13,552.52Z"/><path class="cls-2" d="M661.14,558.51H653V541q0-6.5-4.84-6.5a5.51,5.51,0,0,0-5,2.34q-1.53,2.34-1.53,7.57v14.13h-8.19V516.72h8.19v8.52c0,.66-.06,2.22-.18,4.67l-.19,2.42h.43q2.73-4.41,8.7-4.41c3.53,0,6.2,1,8,2.85s2.74,4.62,2.74,8.16Z"/><path class="cls-2" d="M687.7,558.51l-1.58-4.08h-.22a12.13,12.13,0,0,1-4.25,3.61,13.78,13.78,0,0,1-5.71,1,9.27,9.27,0,0,1-6.81-2.47q-2.48-2.48-2.48-7,0-4.78,3.34-7T680.08,540l5.21-.16V538.5q0-4.56-4.68-4.56a21.28,21.28,0,0,0-8.46,2.17l-2.71-5.53a24.42,24.42,0,0,1,11.5-2.71c4,0,7.11.87,9.26,2.63s3.22,4.42,3.22,8v20Zm-2.41-13.91-3.17.11A10.22,10.22,0,0,0,676.8,546a4,4,0,0,0-1.75,3.6q0,3.46,4,3.47a6.3,6.3,0,0,0,4.55-1.64,5.74,5.74,0,0,0,1.71-4.35Z"/><path class="cls-2" d="M713.57,552.52a17.7,17.7,0,0,0,5.16-.94v6.1a18.47,18.47,0,0,1-7.52,1.37q-4.92,0-7.16-2.49c-1.5-1.65-2.24-4.14-2.24-7.45V534.63h-3.92v-3.46l4.51-2.74,2.36-6.34H710v6.39h8.4v6.15H710v14.48a3.19,3.19,0,0,0,1,2.58A3.89,3.89,0,0,0,713.57,552.52Z"/><path class="cls-2" d="M758.48,558.51l-1.1-3.84H757a8.62,8.62,0,0,1-3.73,3.23,12.63,12.63,0,0,1-5.51,1.15q-5.28,0-8-2.84c-1.79-1.89-2.69-4.6-2.69-8.15V528.48h8.19V546a8.45,8.45,0,0,0,1.16,4.88,4.2,4.2,0,0,0,3.68,1.62,5.5,5.5,0,0,0,5-2.3c1-1.53,1.54-4.06,1.54-7.61V528.48h8.19v30Z"/><path class="cls-2" d="M793.37,549.59a8.27,8.27,0,0,1-3.21,7q-3.21,2.42-9.6,2.42a29.67,29.67,0,0,1-5.58-.45,21.16,21.16,0,0,1-4.33-1.3v-6.77a28.1,28.1,0,0,0,5.14,1.8,20.59,20.59,0,0,0,5,.73q4.45,0,4.46-2.58a2.15,2.15,0,0,0-.59-1.57,8.92,8.92,0,0,0-2-1.37c-1-.51-2.26-1.11-3.87-1.79a24.09,24.09,0,0,1-5.09-2.68,7.59,7.59,0,0,1-2.36-2.84,9.19,9.19,0,0,1-.74-3.93,7.12,7.12,0,0,1,3.1-6.19q3.1-2.19,8.8-2.19a25,25,0,0,1,10.55,2.36l-2.47,5.91c-1.5-.64-2.91-1.17-4.22-1.58a13.26,13.26,0,0,0-4-.62c-2.42,0-3.62.65-3.62,2a2.29,2.29,0,0,0,1.16,1.91,33,33,0,0,0,5.12,2.39,23.65,23.65,0,0,1,5.16,2.66,7.86,7.86,0,0,1,2.41,2.84A8.77,8.77,0,0,1,793.37,549.59Z"/><path class="cls-2" d="M812.42,559.05c-4.84,0-8.61-1.34-11.34-4S797,548.6,797,543.71s1.26-8.92,3.78-11.67,6-4.12,10.43-4.12q6.36,0,9.91,3.63t3.54,10v4H805.3a7.88,7.88,0,0,0,2.07,5.45,7.27,7.27,0,0,0,5.42,2,22.85,22.85,0,0,0,5.13-.56,26.1,26.1,0,0,0,5.05-1.8v6.33a19,19,0,0,1-4.59,1.6A28.87,28.87,0,0,1,812.42,559.05Zm-1.16-25.3a5.21,5.21,0,0,0-4.08,1.65,7.64,7.64,0,0,0-1.69,4.69H817a6.8,6.8,0,0,0-1.58-4.69A5.37,5.37,0,0,0,811.26,533.75Z"/><path class="cls-2" d="M851.34,549.59a8.27,8.27,0,0,1-3.21,7q-3.21,2.42-9.6,2.42a29.71,29.71,0,0,1-5.59-.45,20.88,20.88,0,0,1-4.32-1.3v-6.77a27.84,27.84,0,0,0,5.14,1.8,20.51,20.51,0,0,0,5,.73c3,0,4.46-.86,4.46-2.58a2.15,2.15,0,0,0-.59-1.57,8.48,8.48,0,0,0-2-1.37c-1-.51-2.25-1.11-3.87-1.79a24.35,24.35,0,0,1-5.09-2.68,7.59,7.59,0,0,1-2.36-2.84,9.34,9.34,0,0,1-.74-3.93,7.15,7.15,0,0,1,3.1-6.19q3.11-2.19,8.8-2.19A25,25,0,0,1,851,530.28l-2.47,5.91c-1.5-.64-2.91-1.17-4.21-1.58a13.31,13.31,0,0,0-4-.62c-2.42,0-3.63.65-3.63,2a2.31,2.31,0,0,0,1.17,1.91,32.77,32.77,0,0,0,5.11,2.39,23.41,23.41,0,0,1,5.16,2.66,7.89,7.89,0,0,1,2.42,2.84A8.77,8.77,0,0,1,851.34,549.59Z"/><path class="cls-3" d="M889.32,558.51l-2-4h-.21a11.88,11.88,0,0,1-4.32,3.6,14.39,14.39,0,0,1-5.7,1,8.91,8.91,0,0,1-6.76-2.58q-2.47-2.58-2.48-7.25c0-3.24,1.13-5.66,3.39-7.24s5.52-2.48,9.8-2.67l5.08-.16v-.43q0-3.76-3.71-3.76a22.21,22.21,0,0,0-8.46,2.25l-3-6.93q5.31-2.73,13.42-2.74,5.86,0,9.07,2.91t3.21,8.11v20Zm-7.79-6.88a4.74,4.74,0,0,0,3.26-1.2,4,4,0,0,0,1.36-3.15v-2.36l-2.42.11q-5.18.18-5.18,3.81C878.55,550.7,879.54,551.63,881.53,551.63Z"/><path class="cls-3" d="M921.17,527.54a15.48,15.48,0,0,1,2.61.22l.59.11-.94,9.91a15.18,15.18,0,0,0-3.57-.32q-3.43,0-5,1.57a6.16,6.16,0,0,0-1.55,4.52v15h-10.5V528.08h7.81l1.64,4.86h.51a10.48,10.48,0,0,1,3.67-3.9A8.7,8.7,0,0,1,921.17,527.54Z"/><path class="cls-3" d="M942.58,550.75a15.58,15.58,0,0,0,5.08-1v7.65a20.77,20.77,0,0,1-4,1.31,22.84,22.84,0,0,1-4.5.39c-3.53,0-6.07-.87-7.63-2.59s-2.33-4.39-2.33-8V536h-3.68v-4.27l4.67-3.3,2.71-6.39h6.88v6.09h7.46V536h-7.46v11.84C939.74,549.76,940.69,550.75,942.58,550.75Z"/><path class="cls-3" d="M951.83,520.51a4.46,4.46,0,0,1,1.31-3.52,8.37,8.37,0,0,1,8.52,0,4.42,4.42,0,0,1,1.34,3.49q0,4.62-5.61,4.62T951.83,520.51Zm10.77,38H952.1V528.08h10.5Z"/><path class="cls-3" d="M987.58,536H981.1v22.56H970.6V536h-4v-5.16l4.24-2.57v-.51c0-4,.82-6.9,2.46-8.65s4.26-2.63,7.88-2.63a22.77,22.77,0,0,1,4,.32,30.87,30.87,0,0,1,4.34,1.13l-2.26,6.79a14,14,0,0,0-3.79-.54,2,2,0,0,0-1.75.74,4.09,4.09,0,0,0-.56,2.41v.8h6.48Zm3.92-15.44a4.46,4.46,0,0,1,1.31-3.52,8.37,8.37,0,0,1,8.52,0,4.42,4.42,0,0,1,1.34,3.49q0,4.62-5.61,4.62T991.5,520.51Zm10.77,38h-10.5V528.08h10.5Z"/><path class="cls-3" d="M1022.49,559.05q-7.46,0-11.32-4t-3.85-11.58q0-7.58,4.16-11.73t11.85-4.17a22.21,22.21,0,0,1,10,2.31l-3.09,7.77a31.83,31.83,0,0,0-3.52-1.33,11.32,11.32,0,0,0-3.35-.5,4.53,4.53,0,0,0-4,2,9.65,9.65,0,0,0-1.4,5.61q0,7.3,5.4,7.3a16.32,16.32,0,0,0,8.86-2.68v8.35A17.25,17.25,0,0,1,1022.49,559.05Z"/><path class="cls-3" d="M1037.13,520.51a4.43,4.43,0,0,1,1.32-3.52,8.35,8.35,0,0,1,8.51,0,4.39,4.39,0,0,1,1.35,3.49q0,4.62-5.62,4.62C1039,525.13,1037.13,523.59,1037.13,520.51Zm10.77,38h-10.5V528.08h10.5Z"/><path class="cls-3" d="M1074.15,558.51l-2-4h-.21a11.91,11.91,0,0,1-4.33,3.6,14.3,14.3,0,0,1-5.69,1,8.94,8.94,0,0,1-6.77-2.58,10.1,10.1,0,0,1-2.47-7.25c0-3.24,1.13-5.66,3.39-7.24s5.52-2.48,9.8-2.67l5.07-.16v-.43q0-3.76-3.7-3.76a22.21,22.21,0,0,0-8.46,2.25l-3-6.93q5.33-2.73,13.43-2.74c3.9,0,6.93,1,9.06,2.91s3.21,4.63,3.21,8.11v20Zm-7.79-6.88a4.74,4.74,0,0,0,3.26-1.2,4,4,0,0,0,1.36-3.15v-2.36l-2.42.11q-5.18.18-5.18,3.81C1063.38,550.7,1064.37,551.63,1066.36,551.63Z"/><path class="cls-3" d="M1098.13,558.51h-10.5V516.72h10.5Z"/><path class="cls-3" d="M1117.61,520.51a4.43,4.43,0,0,1,1.32-3.52,8.35,8.35,0,0,1,8.51,0,4.39,4.39,0,0,1,1.35,3.49q0,4.62-5.62,4.62C1119.47,525.13,1117.61,523.59,1117.61,520.51Zm10.77,38h-10.5V528.08h10.5Z"/><path class="cls-3" d="M1154,558.51v-16.6a9.56,9.56,0,0,0-.87-4.58,3,3,0,0,0-2.81-1.54,4.07,4.07,0,0,0-3.84,2.12c-.79,1.42-1.18,3.84-1.18,7.28v13.32h-10.5V528.08h7.92l1.32,3.76h.61a8.4,8.4,0,0,1,3.72-3.22,13.12,13.12,0,0,1,5.47-1.08c3.37,0,6,1,7.85,2.93s2.81,4.7,2.81,8.25v19.79Z"/><path class="cls-3" d="M1185.59,550.75a15.58,15.58,0,0,0,5.08-1v7.65a20.55,20.55,0,0,1-4,1.31,22.84,22.84,0,0,1-4.5.39c-3.53,0-6.07-.87-7.63-2.59s-2.33-4.39-2.33-8V536h-3.68v-4.27l4.67-3.3,2.71-6.39h6.88v6.09h7.46V536h-7.46v11.84C1182.75,549.76,1183.7,550.75,1185.59,550.75Z"/><path class="cls-3" d="M1209.74,559.05q-7.59,0-11.8-4t-4.2-11.5q0-7.71,3.89-11.83t11.12-4.13q6.87,0,10.62,3.59t3.75,10.33v4.67h-18.78a5.25,5.25,0,0,0,1.87,4,7.29,7.29,0,0,0,4.79,1.45,23.08,23.08,0,0,0,5.09-.52,25.43,25.43,0,0,0,5-1.79v7.55a18.55,18.55,0,0,1-5.1,1.74A35.54,35.54,0,0,1,1209.74,559.05Zm-.62-24.36a4.38,4.38,0,0,0-3.1,1.17,5.46,5.46,0,0,0-1.46,3.66h9a5.19,5.19,0,0,0-1.25-3.52A4.12,4.12,0,0,0,1209.12,534.69Z"/><path class="cls-3" d="M1238.62,558.51h-10.5V516.72h10.5Z"/><path class="cls-3" d="M1255.46,558.51H1245V516.72h10.5Z"/><path class="cls-3" d="M1261.59,520.51a4.46,4.46,0,0,1,1.31-3.52,8.37,8.37,0,0,1,8.52,0,4.42,4.42,0,0,1,1.34,3.49q0,4.62-5.61,4.62T1261.59,520.51Zm10.77,38h-10.5V528.08h10.5Z"/><path class="cls-3" d="M1307.46,528.08v5.08l-4.16,1.53a7.42,7.42,0,0,1,.86,3.62,9.15,9.15,0,0,1-3.45,7.63q-3.45,2.71-10.3,2.71a13.66,13.66,0,0,1-2.69-.21,2.75,2.75,0,0,0-.37,1.31q0,.78,1.26,1.2a10.68,10.68,0,0,0,3.3.42h5q10.23,0,10.23,8.62a9.76,9.76,0,0,1-4.74,8.64q-4.74,3.09-13.3,3.09-6.48,0-10-2.16a6.88,6.88,0,0,1-3.5-6.22q0-5.45,6.76-7a6.15,6.15,0,0,1-2.43-1.91,4.23,4.23,0,0,1-1-2.61,4.17,4.17,0,0,1,.78-2.5,11.52,11.52,0,0,1,3.25-2.6,8.1,8.1,0,0,1-3.72-3.27,10.23,10.23,0,0,1-1.36-5.43,9.36,9.36,0,0,1,3.39-7.71q3.38-2.73,9.66-2.74c.56,0,1.52.07,2.88.19s2.36.24,3,.35Zm-22.93,34.22a2.35,2.35,0,0,0,1.39,2.08,7.58,7.58,0,0,0,3.74.79,16.34,16.34,0,0,0,6.11-.95c1.53-.64,2.29-1.46,2.29-2.46a1.77,1.77,0,0,0-1.39-1.71,12.57,12.57,0,0,0-4-.49h-4.11a5,5,0,0,0-2.86.79A2.32,2.32,0,0,0,1284.53,562.3Zm3.3-24.26c0,3.12,1.09,4.68,3.25,4.68a2.67,2.67,0,0,0,2.32-1.16,6,6,0,0,0,.82-3.46c0-3.15-1-4.73-3.14-4.73S1287.83,534.93,1287.83,538Z"/><path class="cls-3" d="M1325.84,559.05q-7.6,0-11.81-4t-4.2-11.5q0-7.71,3.89-11.83t11.12-4.13q6.89,0,10.62,3.59t3.75,10.33v4.67h-18.77a5.19,5.19,0,0,0,1.87,4,7.29,7.29,0,0,0,4.79,1.45,23.15,23.15,0,0,0,5.09-.52,25.14,25.14,0,0,0,5-1.79v7.55a18.33,18.33,0,0,1-5.1,1.74A35.42,35.42,0,0,1,1325.84,559.05Zm-.62-24.36a4.35,4.35,0,0,0-3.1,1.17,5.51,5.51,0,0,0-1.47,3.66h9a5.3,5.3,0,0,0-1.25-3.52A4.15,4.15,0,0,0,1325.22,534.69Z"/><path class="cls-3" d="M1363.41,558.51v-16.6a9.56,9.56,0,0,0-.87-4.58,3,3,0,0,0-2.81-1.54,4.07,4.07,0,0,0-3.84,2.12c-.79,1.42-1.18,3.84-1.18,7.28v13.32h-10.5V528.08h7.92l1.32,3.76h.62a8.3,8.3,0,0,1,3.72-3.22,13,13,0,0,1,5.46-1.08q5.05,0,7.86,2.93t2.8,8.25v19.79Z"/><path class="cls-3" d="M1394,559.05q-7.47,0-11.32-4t-3.85-11.58q0-7.58,4.16-11.73t11.84-4.17a22.22,22.22,0,0,1,10,2.31l-3.09,7.77a32.6,32.6,0,0,0-3.52-1.33,11.39,11.39,0,0,0-3.36-.5,4.54,4.54,0,0,0-4,2,9.65,9.65,0,0,0-1.39,5.61q0,7.3,5.4,7.3a16.35,16.35,0,0,0,8.86-2.68v8.35A17.29,17.29,0,0,1,1394,559.05Z"/><path class="cls-3" d="M1423.52,559.05q-7.59,0-11.8-4t-4.2-11.5q0-7.71,3.89-11.83t11.12-4.13q6.87,0,10.62,3.59t3.75,10.33v4.67h-18.77a5.21,5.21,0,0,0,1.86,4,7.31,7.31,0,0,0,4.8,1.45,23.15,23.15,0,0,0,5.09-.52,25.58,25.58,0,0,0,5-1.79v7.55a18.55,18.55,0,0,1-5.1,1.74A35.54,35.54,0,0,1,1423.52,559.05Zm-.61-24.36a4.39,4.39,0,0,0-3.11,1.17,5.46,5.46,0,0,0-1.46,3.66h9a5.3,5.3,0,0,0-1.25-3.52A4.15,4.15,0,0,0,1422.91,534.69Z"/><path class="cls-2" d="M623.13,618.52a17.7,17.7,0,0,0,5.16-.94v6.1a18.44,18.44,0,0,1-7.52,1.37c-3.28,0-5.66-.83-7.16-2.49s-2.24-4.14-2.24-7.45V600.63h-3.92v-3.46l4.51-2.74,2.36-6.34h5.24v6.39H628v6.15h-8.41v14.48a3.23,3.23,0,0,0,1,2.58A3.89,3.89,0,0,0,623.13,618.52Z"/><path class="cls-2" d="M660.71,609.44q0,7.34-3.87,11.47t-10.77,4.14a15,15,0,0,1-7.62-1.9,12.51,12.51,0,0,1-5.08-5.44,18.28,18.28,0,0,1-1.77-8.27q0-7.35,3.84-11.44t10.79-4.08a15.17,15.17,0,0,1,7.63,1.88,12.58,12.58,0,0,1,5.08,5.4A18.09,18.09,0,0,1,660.71,609.44Zm-20.76,0c0,3,.49,5.22,1.46,6.74a5.23,5.23,0,0,0,4.77,2.29,5.16,5.16,0,0,0,4.71-2.27q1.44-2.28,1.44-6.76t-1.45-6.68a6.17,6.17,0,0,0-9.48,0Q639.94,605,640,609.44Z"/><path class="cls-2" d="M696.49,600.63H689.4v23.88h-8.19V600.63H676.7v-3.94l4.51-2.21v-2.2c0-3.42.84-5.91,2.52-7.49s4.38-2.36,8.09-2.36a21.06,21.06,0,0,1,7.54,1.26l-2.09,6a15.27,15.27,0,0,0-4.57-.78,3,3,0,0,0-2.52,1,4.28,4.28,0,0,0-.78,2.65v1.87h7.09Zm4.35-13.91c0-2.66,1.49-4,4.46-4s4.46,1.34,4.46,4a3.91,3.91,0,0,1-1.12,3,4.67,4.67,0,0,1-3.34,1.06Q700.85,590.75,700.84,586.72Zm8.54,37.79h-8.19v-30h8.19Z"/><path class="cls-2" d="M744.73,624.51h-8.19V607a8.41,8.41,0,0,0-1.16-4.87,4.22,4.22,0,0,0-3.68-1.63,5.54,5.54,0,0,0-5,2.3q-1.53,2.29-1.53,7.61v14.13H717v-30h6.26l1.1,3.85h.46A8.63,8.63,0,0,1,728.6,595a12.72,12.72,0,0,1,5.46-1.12c3.5,0,6.15,1,8,2.83s2.72,4.62,2.72,8.18Z"/><path class="cls-2" d="M761.73,625.05a9.74,9.74,0,0,1-8.31-4.11q-3-4.11-3-11.39T753.47,598a10,10,0,0,1,8.48-4.12,9.78,9.78,0,0,1,8.64,4.41h.27a33.75,33.75,0,0,1-.62-6v-9.62h8.22v41.79h-6.28l-1.59-3.89h-.35A9.38,9.38,0,0,1,761.73,625.05Zm2.88-6.53a5.54,5.54,0,0,0,4.6-1.83q1.47-1.82,1.6-6.2v-.89q0-4.83-1.49-6.92c-1-1.4-2.61-2.1-4.85-2.1a4.83,4.83,0,0,0-4.26,2.32q-1.51,2.33-1.51,6.76c0,3,.51,5.17,1.53,6.64A5,5,0,0,0,764.61,618.52Z"/><path class="cls-2" d="M818.51,624.51l-1.58-4.08h-.22a12,12,0,0,1-4.25,3.61,13.78,13.78,0,0,1-5.71,1,9.27,9.27,0,0,1-6.81-2.47q-2.48-2.48-2.48-7,0-4.78,3.34-7T810.89,606l5.21-.16V604.5q0-4.56-4.68-4.56a21.32,21.32,0,0,0-8.46,2.17l-2.71-5.53a24.42,24.42,0,0,1,11.5-2.71c4,0,7.11.87,9.26,2.63s3.22,4.42,3.22,8v20ZM816.1,610.6l-3.17.11a10.22,10.22,0,0,0-5.32,1.28,4.06,4.06,0,0,0-1.74,3.6q0,3.46,4,3.47a6.3,6.3,0,0,0,4.55-1.64,5.74,5.74,0,0,0,1.71-4.35Z"/><path class="cls-2" d="M859.45,624.51h-8.19V607a8.41,8.41,0,0,0-1.16-4.87,4.22,4.22,0,0,0-3.68-1.63,5.54,5.54,0,0,0-5,2.3q-1.53,2.29-1.53,7.61v14.13h-8.19v-30H838l1.1,3.85h.46a8.63,8.63,0,0,1,3.77-3.29,12.73,12.73,0,0,1,5.47-1.12c3.49,0,6.14,1,7.94,2.83s2.72,4.62,2.72,8.18Z"/><path class="cls-2" d="M876.45,625.05a9.74,9.74,0,0,1-8.31-4.11q-3-4.11-3-11.39T868.19,598a10,10,0,0,1,8.48-4.12,9.78,9.78,0,0,1,8.64,4.41h.27a33.75,33.75,0,0,1-.62-6v-9.62h8.22v41.79H886.9l-1.59-3.89H885A9.38,9.38,0,0,1,876.45,625.05Zm2.87-6.53a5.55,5.55,0,0,0,4.61-1.83q1.47-1.82,1.6-6.2v-.89q0-4.83-1.49-6.92c-1-1.4-2.61-2.1-4.85-2.1a4.83,4.83,0,0,0-4.26,2.32q-1.51,2.33-1.51,6.76c0,3,.51,5.17,1.53,6.64A5,5,0,0,0,879.32,618.52Z"/><path class="cls-3" d="M931.76,625.05a9.52,9.52,0,0,1-7.77-3.52h-.48a38.83,38.83,0,0,1,.48,4v12.22h-10.5V594.08H922l1.48,3.87H924a9.22,9.22,0,0,1,8.09-4.41,9.11,9.11,0,0,1,7.92,4.19q2.88,4.2,2.87,11.5t-3,11.59A9.44,9.44,0,0,1,931.76,625.05Zm-3.52-23.26a3.4,3.4,0,0,0-3.24,1.65,10.88,10.88,0,0,0-1,4.9v.83q0,3.93,1,5.67a3.57,3.57,0,0,0,3.31,1.75,3.08,3.08,0,0,0,2.92-1.73,13.12,13.12,0,0,0,.92-5.74,12.69,12.69,0,0,0-.92-5.63A3.18,3.18,0,0,0,928.24,601.79Z"/><path class="cls-3" d="M966.3,593.54a15.45,15.45,0,0,1,2.6.22l.59.11-.94,9.91a15.18,15.18,0,0,0-3.57-.32c-2.29,0-4,.52-5,1.57a6.13,6.13,0,0,0-1.56,4.52v15h-10.5V594.08h7.81l1.64,4.86h.51a10.48,10.48,0,0,1,3.67-3.9A8.7,8.7,0,0,1,966.3,593.54Z"/><path class="cls-3" d="M1001.86,609.23q0,7.47-4,11.64t-11.23,4.18q-6.93,0-11-4.27t-4.09-11.55q0-7.44,4-11.56t11.27-4.13a16.06,16.06,0,0,1,7.92,1.91,13,13,0,0,1,5.3,5.47A17.56,17.56,0,0,1,1001.86,609.23Zm-19.71,0a13.63,13.63,0,0,0,1,6,3.66,3.66,0,0,0,3.52,2.06,3.54,3.54,0,0,0,3.45-2.06,14,14,0,0,0,1-6,13.25,13.25,0,0,0-1-5.88,3.59,3.59,0,0,0-3.49-2,3.64,3.64,0,0,0-3.47,2A13.14,13.14,0,0,0,982.15,609.23Z"/><path class="cls-3" d="M1044.27,624.51V608a9.88,9.88,0,0,0-.85-4.64,2.82,2.82,0,0,0-2.67-1.54,3.75,3.75,0,0,0-3.54,2.07c-.76,1.38-1.13,3.53-1.13,6.47v14.18h-10.53V608a10.34,10.34,0,0,0-.81-4.64,2.71,2.71,0,0,0-2.6-1.54,3.77,3.77,0,0,0-3.6,2.2q-1.12,2.21-1.13,7.2v13.32h-10.5V594.08h7.92l1.32,3.76h.62a7.81,7.81,0,0,1,3.5-3.19,11.85,11.85,0,0,1,5.23-1.11q6.57,0,9.23,4h.84a8.49,8.49,0,0,1,3.58-2.94,11.89,11.89,0,0,1,5.06-1.07c3.6,0,6.26.93,8,2.77s2.58,4.65,2.58,8.41v19.79Z"/><path class="cls-3" d="M1090,609.23q0,7.47-4,11.64t-11.24,4.18q-6.93,0-11-4.27t-4.1-11.55q0-7.44,4-11.56t11.26-4.13a16.06,16.06,0,0,1,7.92,1.91,13,13,0,0,1,5.31,5.47A17.68,17.68,0,0,1,1090,609.23Zm-19.72,0a13.47,13.47,0,0,0,1,6,3.65,3.65,0,0,0,3.52,2.06,3.54,3.54,0,0,0,3.45-2.06,14,14,0,0,0,1-6,13.25,13.25,0,0,0-1-5.88,4,4,0,0,0-7,0A13,13,0,0,0,1070.32,609.23Z"/><path class="cls-3" d="M1110,616.75a15.58,15.58,0,0,0,5.08-1v7.65a20.77,20.77,0,0,1-4,1.31,22.84,22.84,0,0,1-4.5.39c-3.53,0-6.07-.87-7.63-2.59s-2.33-4.39-2.33-8V602h-3.68v-4.27l4.67-3.3,2.71-6.39h6.88v6.09h7.46V602h-7.46v11.84C1107.15,615.76,1108.1,616.75,1110,616.75Z"/><path class="cls-3" d="M1134.14,625.05q-7.59,0-11.8-4t-4.2-11.5q0-7.71,3.89-11.83t11.12-4.13q6.87,0,10.62,3.59t3.75,10.33v4.67h-18.78a5.25,5.25,0,0,0,1.87,4,7.29,7.29,0,0,0,4.79,1.45,23.08,23.08,0,0,0,5.09-.52,25.43,25.43,0,0,0,5-1.79v7.55a18.55,18.55,0,0,1-5.1,1.74A35.54,35.54,0,0,1,1134.14,625.05Zm-.62-24.36a4.36,4.36,0,0,0-3.1,1.17,5.46,5.46,0,0,0-1.46,3.66h9a5.19,5.19,0,0,0-1.25-3.52A4.12,4.12,0,0,0,1133.52,600.69Z"/><path class="cls-2" d="M623.13,684.52a17.7,17.7,0,0,0,5.16-.94v6.1a18.44,18.44,0,0,1-7.52,1.37c-3.28,0-5.66-.83-7.16-2.49s-2.24-4.14-2.24-7.45V666.63h-3.92v-3.46l4.51-2.74,2.36-6.34h5.24v6.39H628v6.15h-8.41v14.48a3.23,3.23,0,0,0,1,2.58A3.89,3.89,0,0,0,623.13,684.52Z"/><path class="cls-2" d="M661.14,690.51H653V673q0-6.5-4.84-6.5a5.51,5.51,0,0,0-5,2.34q-1.53,2.34-1.53,7.57v14.13h-8.19V648.72h8.19v8.52c0,.66-.06,2.22-.18,4.67l-.19,2.42h.43q2.73-4.41,8.7-4.41c3.53,0,6.2,1,8,2.85s2.74,4.62,2.74,8.16Z"/><path class="cls-2" d="M682.22,691.05q-7.25,0-11.33-4t-4.08-11.33q0-7.55,3.77-11.67T681,659.92q6.36,0,9.91,3.63t3.54,10v4H675.11a7.88,7.88,0,0,0,2.07,5.45,7.23,7.23,0,0,0,5.42,2,22.85,22.85,0,0,0,5.13-.56,26.34,26.34,0,0,0,5-1.8v6.33a19.2,19.2,0,0,1-4.59,1.6A28.91,28.91,0,0,1,682.22,691.05Zm-1.15-25.3A5.18,5.18,0,0,0,677,667.4a7.65,7.65,0,0,0-1.7,4.69h11.5a6.84,6.84,0,0,0-1.58-4.69A5.39,5.39,0,0,0,681.07,665.75Z"/><path class="cls-2" d="M738.23,690.51,735.92,680l-3.12-13.27h-.18l-5.48,23.77h-8.81l-8.54-30H718l3.47,13.3c.55,2.38,1.12,5.67,1.69,9.85h.16a53.94,53.94,0,0,1,.94-6.47l.43-2.28,3.7-14.4h9l3.52,14.4c.07.39.18,1,.33,1.74s.3,1.59.45,2.46.27,1.72.38,2.55.19,1.5.21,2h.16c.16-1.28.44-3,.86-5.3s.7-3.76.88-4.55l3.6-13.3h8l-8.65,30Z"/><path class="cls-2" d="M787,675.44q0,7.34-3.87,11.47t-10.77,4.14a15,15,0,0,1-7.63-1.9,12.54,12.54,0,0,1-5.07-5.44,18.28,18.28,0,0,1-1.78-8.27q0-7.35,3.85-11.44t10.79-4.08a15.2,15.2,0,0,1,7.63,1.88,12.5,12.5,0,0,1,5.07,5.4A18.09,18.09,0,0,1,787,675.44Zm-20.76,0c0,3,.48,5.22,1.46,6.74a5.22,5.22,0,0,0,4.77,2.29,5.16,5.16,0,0,0,4.71-2.27q1.44-2.28,1.44-6.76c0-3-.49-5.2-1.45-6.68a6.17,6.17,0,0,0-9.48,0Q766.22,671,766.22,675.44Z"/><path class="cls-2" d="M809.57,659.92a13.21,13.21,0,0,1,2.76.24l-.62,7.68a9.26,9.26,0,0,0-2.41-.27,8.69,8.69,0,0,0-6.11,2,7.27,7.27,0,0,0-2.19,5.64v15.28h-8.19v-30H799l1.21,5h.4a11.28,11.28,0,0,1,3.78-4.07A9.35,9.35,0,0,1,809.57,659.92Z"/><path class="cls-2" d="M825,690.51h-8.19V648.72H825Z"/><path class="cls-2" d="M842.21,691.05a9.77,9.77,0,0,1-8.32-4.11q-3-4.11-3-11.39T834,664a10,10,0,0,1,8.47-4.12,9.8,9.8,0,0,1,8.65,4.41h.27a32.83,32.83,0,0,1-.62-6v-9.62h8.22v41.79h-6.29l-1.58-3.89h-.35A9.38,9.38,0,0,1,842.21,691.05Zm2.87-6.53a5.53,5.53,0,0,0,4.6-1.83q1.47-1.82,1.6-6.2v-.89c0-3.22-.49-5.53-1.49-6.92s-2.61-2.1-4.85-2.1a4.82,4.82,0,0,0-4.25,2.32,12.42,12.42,0,0,0-1.52,6.76c0,3,.51,5.17,1.53,6.64A5,5,0,0,0,845.08,684.52Z"/><path class="cls-2" d="M873.17,651.25l.38.59a82.5,82.5,0,0,1-4.73,12.86h-5.88q1.86-8,2.69-13.45Z"/><path class="cls-2" d="M898.5,681.59a8.27,8.27,0,0,1-3.21,7q-3.19,2.42-9.6,2.42a29.67,29.67,0,0,1-5.58-.45,21.16,21.16,0,0,1-4.33-1.3v-6.77a28.21,28.21,0,0,0,5.15,1.8,20.45,20.45,0,0,0,5,.73q4.45,0,4.46-2.58a2.15,2.15,0,0,0-.59-1.57,8.48,8.48,0,0,0-2-1.37c-1-.51-2.26-1.11-3.87-1.79a24.35,24.35,0,0,1-5.09-2.68,7.59,7.59,0,0,1-2.36-2.84,9.34,9.34,0,0,1-.74-3.93,7.12,7.12,0,0,1,3.1-6.19q3.1-2.19,8.8-2.19a25,25,0,0,1,10.55,2.36l-2.47,5.91c-1.5-.64-2.91-1.17-4.22-1.58a13.26,13.26,0,0,0-4-.62c-2.41,0-3.62.65-3.62,2a2.31,2.31,0,0,0,1.17,1.91,32.3,32.3,0,0,0,5.11,2.39,23.41,23.41,0,0,1,5.16,2.66,7.76,7.76,0,0,1,2.41,2.84A8.77,8.77,0,0,1,898.5,681.59Z"/><path class="cls-2" d="M943.44,660.48v4.17l-4.7,1.21a8.16,8.16,0,0,1,1.29,4.51,9.1,9.1,0,0,1-3.37,7.53c-2.24,1.8-5.37,2.7-9.36,2.7l-1.47-.08-1.21-.14a2.75,2.75,0,0,0-1.26,2.15c0,1.18,1.5,1.78,4.51,1.78H933c3.29,0,5.8.7,7.53,2.12a7.57,7.57,0,0,1,2.59,6.23,9.22,9.22,0,0,1-4.39,8.16q-4.38,2.91-12.61,2.9c-4.19,0-7.38-.73-9.6-2.19a6.94,6.94,0,0,1-3.31-6.13,6.42,6.42,0,0,1,1.69-4.54,9.59,9.59,0,0,1,5-2.61,5.42,5.42,0,0,1-2.21-1.76,4.34,4.34,0,0,1,.06-5.45,11.64,11.64,0,0,1,2.87-2.24,8,8,0,0,1-3.74-3.28,9.87,9.87,0,0,1-1.39-5.31,9.38,9.38,0,0,1,3.2-7.6q3.2-2.68,9.13-2.69a23.7,23.7,0,0,1,3,.23q1.74.23,2.22.33Zm-23.17,34.27a3,3,0,0,0,1.62,2.66,8.87,8.87,0,0,0,4.55,1,16.25,16.25,0,0,0,6.91-1.21q2.49-1.21,2.49-3.3a2.34,2.34,0,0,0-1.47-2.34,12.11,12.11,0,0,0-4.57-.65h-4.24a6.41,6.41,0,0,0-3.78,1.07A3.25,3.25,0,0,0,920.27,694.75Zm3-24.44a6.14,6.14,0,0,0,1.11,3.87,4.06,4.06,0,0,0,3.4,1.42,3.94,3.94,0,0,0,3.38-1.42,6.26,6.26,0,0,0,1.08-3.87q0-5.41-4.46-5.42T923.25,670.31Z"/><path class="cls-2" d="M964.21,659.92a13.21,13.21,0,0,1,2.76.24l-.61,7.68a9.39,9.39,0,0,0-2.42-.27,8.69,8.69,0,0,0-6.11,2,7.27,7.27,0,0,0-2.19,5.64v15.28h-8.19v-30h6.2l1.21,5h.4a11.37,11.37,0,0,1,3.78-4.07A9.37,9.37,0,0,1,964.21,659.92Z"/><path class="cls-2" d="M985.08,691.05q-7.25,0-11.33-4t-4.09-11.33q0-7.55,3.78-11.67t10.43-4.12q6.36,0,9.91,3.63t3.55,10v4H978A7.88,7.88,0,0,0,980,683a7.27,7.27,0,0,0,5.43,2,22.83,22.83,0,0,0,5.12-.56,25.87,25.87,0,0,0,5-1.8v6.33a19,19,0,0,1-4.59,1.6A28.87,28.87,0,0,1,985.08,691.05Zm-1.16-25.3a5.21,5.21,0,0,0-4.08,1.65,7.64,7.64,0,0,0-1.69,4.69h11.49a6.8,6.8,0,0,0-1.58-4.69A5.37,5.37,0,0,0,983.92,665.75Z"/><path class="cls-2" d="M1022.12,690.51l-1.59-4.08h-.21a12.16,12.16,0,0,1-4.26,3.61,13.78,13.78,0,0,1-5.71,1,9.23,9.23,0,0,1-6.8-2.47q-2.49-2.48-2.49-7,0-4.78,3.35-7c2.22-1.51,5.59-2.35,10.08-2.51l5.21-.16V670.5q0-4.56-4.67-4.56a21.28,21.28,0,0,0-8.46,2.17l-2.71-5.53a24.35,24.35,0,0,1,11.49-2.71c4,0,7.12.87,9.26,2.63s3.23,4.42,3.23,8v20Zm-2.42-13.91-3.17.11a10.25,10.25,0,0,0-5.32,1.28,4.06,4.06,0,0,0-1.74,3.6q0,3.46,4,3.47a6.33,6.33,0,0,0,4.56-1.64,5.77,5.77,0,0,0,1.7-4.35Z"/><path class="cls-2" d="M1048,684.52a17.65,17.65,0,0,0,5.16-.94v6.1a18.44,18.44,0,0,1-7.52,1.37c-3.28,0-5.66-.83-7.16-2.49s-2.24-4.14-2.24-7.45V666.63h-3.92v-3.46l4.51-2.74,2.36-6.34h5.24v6.39h8.41v6.15h-8.41v14.48a3.23,3.23,0,0,0,1,2.58A3.91,3.91,0,0,0,1048,684.52Z"/><path class="cls-2" d="M1071.86,691.05q-7.24,0-11.33-4t-4.08-11.33q0-7.55,3.77-11.67t10.44-4.12q6.36,0,9.91,3.63t3.54,10v4h-19.36a7.88,7.88,0,0,0,2.07,5.45,7.23,7.23,0,0,0,5.42,2,22.85,22.85,0,0,0,5.13-.56,26.34,26.34,0,0,0,5.05-1.8v6.33a19,19,0,0,1-4.59,1.6A28.91,28.91,0,0,1,1071.86,691.05Zm-1.15-25.3a5.18,5.18,0,0,0-4.08,1.65,7.58,7.58,0,0,0-1.69,4.69h11.49a6.84,6.84,0,0,0-1.58-4.69A5.39,5.39,0,0,0,1070.71,665.75Z"/><path class="cls-2" d="M1110.78,681.59a8.27,8.27,0,0,1-3.21,7q-3.21,2.42-9.6,2.42a29.67,29.67,0,0,1-5.58-.45,21.16,21.16,0,0,1-4.33-1.3v-6.77a28,28,0,0,0,5.15,1.8,20.45,20.45,0,0,0,5,.73q4.46,0,4.46-2.58a2.15,2.15,0,0,0-.59-1.57,8.92,8.92,0,0,0-2-1.37c-1-.51-2.26-1.11-3.87-1.79a24.09,24.09,0,0,1-5.09-2.68,7.59,7.59,0,0,1-2.36-2.84,9.19,9.19,0,0,1-.74-3.93,7.12,7.12,0,0,1,3.1-6.19q3.11-2.19,8.8-2.19a25,25,0,0,1,10.55,2.36l-2.47,5.91c-1.5-.64-2.91-1.17-4.22-1.58a13.26,13.26,0,0,0-4-.62c-2.42,0-3.62.65-3.62,2a2.32,2.32,0,0,0,1.16,1.91,33,33,0,0,0,5.12,2.39,23.65,23.65,0,0,1,5.16,2.66,7.86,7.86,0,0,1,2.41,2.84A8.77,8.77,0,0,1,1110.78,681.59Z"/><path class="cls-2" d="M1128.89,684.52a17.59,17.59,0,0,0,5.15-.94v6.1a18.41,18.41,0,0,1-7.52,1.37c-3.27,0-5.66-.83-7.15-2.49s-2.24-4.14-2.24-7.45V666.63h-3.93v-3.46l4.52-2.74,2.36-6.34h5.24v6.39h8.4v6.15h-8.4v14.48a3.19,3.19,0,0,0,1,2.58A3.87,3.87,0,0,0,1128.89,684.52Z"/><path class="cls-3" d="M1189.21,690.51V674a10,10,0,0,0-.84-4.64,2.84,2.84,0,0,0-2.67-1.54,3.76,3.76,0,0,0-3.55,2.07c-.75,1.38-1.13,3.53-1.13,6.47v14.18H1170.5V674a10.34,10.34,0,0,0-.81-4.64,2.72,2.72,0,0,0-2.6-1.54,3.77,3.77,0,0,0-3.6,2.2q-1.12,2.21-1.13,7.2v13.32h-10.5V660.08h7.92l1.32,3.76h.61a7.89,7.89,0,0,1,3.51-3.19,11.84,11.84,0,0,1,5.22-1.11q6.58,0,9.24,4h.83a8.52,8.52,0,0,1,3.59-2.94,11.89,11.89,0,0,1,5.06-1.07c3.6,0,6.26.93,8,2.77s2.58,4.65,2.58,8.41v19.79Z"/><path class="cls-3" d="M1227.6,690.51l-1.32-3.79h-.62a8.48,8.48,0,0,1-3.66,3.21,12.83,12.83,0,0,1-5.52,1.12c-3.35,0-6-1-7.82-2.92s-2.79-4.68-2.79-8.23V660.08h10.5v16.63a9.48,9.48,0,0,0,.85,4.51,2.93,2.93,0,0,0,2.78,1.53,4,4,0,0,0,3.86-2.14q1.16-2.13,1.16-7.21V660.08h10.5v30.43Z"/><path class="cls-3" d="M1265.33,681.16q0,4.89-3.33,7.39t-9.56,2.5a40.31,40.31,0,0,1-5.88-.37,24.65,24.65,0,0,1-5.1-1.33V681a30.63,30.63,0,0,0,5.36,1.77,22.29,22.29,0,0,0,5.19.7c2.28,0,3.41-.52,3.41-1.56a1.73,1.73,0,0,0-1-1.43,42.25,42.25,0,0,0-5.55-2.46,13.85,13.85,0,0,1-5.85-3.91,8.91,8.91,0,0,1-1.67-5.55,7.69,7.69,0,0,1,3.28-6.6c2.19-1.58,5.27-2.37,9.27-2.37a23.28,23.28,0,0,1,5.65.66,34.05,34.05,0,0,1,5.49,1.92l-2.85,6.77a31.31,31.31,0,0,0-4.43-1.6,14.66,14.66,0,0,0-3.81-.66c-1.72,0-2.58.43-2.58,1.27a1.58,1.58,0,0,0,.9,1.33,50.42,50.42,0,0,0,5.2,2.24,20.21,20.21,0,0,1,4.77,2.58,7.76,7.76,0,0,1,2.3,3A10.34,10.34,0,0,1,1265.33,681.16Z"/><path class="cls-3" d="M1270,652.51a4.43,4.43,0,0,1,1.32-3.52,8.35,8.35,0,0,1,8.51,0,4.39,4.39,0,0,1,1.34,3.49q0,4.62-5.61,4.62T1270,652.51Zm10.77,38h-10.5V660.08h10.5Z"/><path class="cls-3" d="M1301,691.05q-7.46,0-11.32-4t-3.85-11.58q0-7.58,4.16-11.73t11.85-4.17a22.21,22.21,0,0,1,10,2.31l-3.09,7.77a31.83,31.83,0,0,0-3.52-1.33,11.32,11.32,0,0,0-3.35-.5,4.54,4.54,0,0,0-3.95,2,9.65,9.65,0,0,0-1.4,5.61q0,7.3,5.4,7.3a16.32,16.32,0,0,0,8.86-2.68v8.35A17.25,17.25,0,0,1,1301,691.05Z"/><path class="cls-3" d="M1315.67,652.51A4.43,4.43,0,0,1,1317,649a8.35,8.35,0,0,1,8.51,0,4.39,4.39,0,0,1,1.35,3.49q0,4.62-5.62,4.62C1317.53,657.13,1315.67,655.59,1315.67,652.51Zm10.77,38h-10.5V660.08h10.5Z"/><path class="cls-3" d="M1352.69,690.51l-2-4h-.21a11.91,11.91,0,0,1-4.33,3.6,14.3,14.3,0,0,1-5.69,1,8.94,8.94,0,0,1-6.77-2.58,10.1,10.1,0,0,1-2.47-7.25c0-3.24,1.13-5.66,3.39-7.24s5.52-2.48,9.8-2.67l5.07-.16v-.43q0-3.76-3.7-3.76a22.21,22.21,0,0,0-8.46,2.25l-3-6.93q5.33-2.73,13.43-2.74,5.86,0,9.07,2.91t3.21,8.11v20Zm-7.79-6.88a4.74,4.74,0,0,0,3.26-1.2,4,4,0,0,0,1.36-3.15v-2.36l-2.42.11q-5.17.18-5.18,3.81C1341.92,682.7,1342.91,683.63,1344.9,683.63Z"/><path class="cls-3" d="M1385.38,690.51v-16.6a9.55,9.55,0,0,0-.88-4.58,3,3,0,0,0-2.8-1.54,4.05,4.05,0,0,0-3.84,2.12c-.79,1.42-1.19,3.84-1.19,7.28v13.32h-10.5V660.08h7.93l1.31,3.76h.62a8.3,8.3,0,0,1,3.72-3.22,13.07,13.07,0,0,1,5.46-1.08q5.05,0,7.86,2.93t2.81,8.25v19.79Z"/><path class="cls-3" d="M1425.58,681.16q0,4.89-3.33,7.39t-9.56,2.5a40.31,40.31,0,0,1-5.88-.37,24.65,24.65,0,0,1-5.1-1.33V681a30.63,30.63,0,0,0,5.36,1.77,22.29,22.29,0,0,0,5.19.7c2.28,0,3.41-.52,3.41-1.56a1.73,1.73,0,0,0-1-1.43,42.25,42.25,0,0,0-5.55-2.46,13.85,13.85,0,0,1-5.85-3.91,8.91,8.91,0,0,1-1.67-5.55,7.69,7.69,0,0,1,3.28-6.6c2.19-1.58,5.27-2.37,9.27-2.37a23.28,23.28,0,0,1,5.65.66,34.05,34.05,0,0,1,5.49,1.92l-2.85,6.77a31.31,31.31,0,0,0-4.43-1.6,14.66,14.66,0,0,0-3.81-.66c-1.72,0-2.58.43-2.58,1.27a1.58,1.58,0,0,0,.9,1.33,50.42,50.42,0,0,0,5.2,2.24,20.21,20.21,0,0,1,4.77,2.58,7.76,7.76,0,0,1,2.3,3A10.34,10.34,0,0,1,1425.58,681.16Z"/><path class="cls-3" d="M1429.16,686.05a4.91,4.91,0,0,1,1.46-3.81,6.08,6.08,0,0,1,4.26-1.35,5.71,5.71,0,0,1,4.08,1.35,5,5,0,0,1,1.42,3.81,4.86,4.86,0,0,1-1.46,3.77,5.68,5.68,0,0,1-4,1.36,6.16,6.16,0,0,1-4.19-1.34A4.78,4.78,0,0,1,1429.16,686.05Z"/></g></svg>