<svg id="Background" xmlns="http://www.w3.org/2000/svg" viewBox="0 0 500 500"><defs><style>.cls-1{fill:#fff;}.cls-2{fill:#f9662b;}</style></defs><path class="cls-1" d="M100.27,236.08l-23.85-19.4a1.16,1.16,0,0,0-1.9.9v40.6l-9,5.08a7.23,7.23,0,0,0-3.67,6.3v12.9a.9.9,0,0,0,1.34.78l11.32-6.4,5.59-3.17a7.25,7.25,0,0,0,3.68-6.32V234.63l18.75,15.26v-9.06A6.15,6.15,0,0,0,100.27,236.08Z"/><path class="cls-2" d="M141.87,216.53l-11.32,6.4L125,226.1a7.26,7.26,0,0,0-3.67,6.32v32.72l-18.75-15.25v9.05a6.11,6.11,0,0,0,2.27,4.75l23.84,19.4a1.16,1.16,0,0,0,1.9-.9v-40.6l9-5.08a7.21,7.21,0,0,0,3.69-6.3v-12.9A.91.91,0,0,0,141.87,216.53Z"/><path class="cls-1" d="M184.92,234.32a2.49,2.49,0,0,0-2.47,2.51v22.79L166,235.84a3.62,3.62,0,0,0-2.83-1.52h-.58a3.39,3.39,0,0,0-3.37,3.41v26.79a2.5,2.5,0,0,0,5,0V241.68l16.55,23.91a3.41,3.41,0,0,0,2.74,1.4H184a3.39,3.39,0,0,0,3.41-3.37V236.83A2.54,2.54,0,0,0,184.92,234.32Z"/><path class="cls-1" d="M222.88,239.26a2.36,2.36,0,1,0,0-4.72h-18a2.5,2.5,0,0,0-2.47,2.52v27.23a2.48,2.48,0,0,0,2.47,2.47h18a2.36,2.36,0,1,0,0-4.71H207.4V253h13.87a2.36,2.36,0,1,0,0-4.72H207.4v-9Z"/><path class="cls-1" d="M252.23,234.09c-9.5,0-16,6.65-16.2,16.57.19,9.9,6.7,16.55,16.2,16.55s16-6.65,16.2-16.55v0C268.24,240.74,261.73,234.09,252.23,234.09Zm0,28.41c-6.71,0-11.21-4.76-11.21-11.85s4.5-11.84,11.21-11.84,11.22,4.76,11.22,11.84S258.94,262.5,252.23,262.5Z"/><path class="cls-1" d="M296.21,238.9a15.75,15.75,0,0,1,8,2.06,2.45,2.45,0,0,0,1,.23,2.27,2.27,0,0,0,1.66-.69,2.3,2.3,0,0,0-.63-3.57,20.08,20.08,0,0,0-10.45-2.84c-9.66,0-16.16,6.66-16.16,16.56s6.5,16.56,16.16,16.56a20.14,20.14,0,0,0,10.44-2.83,2.21,2.21,0,0,0,1.23-2h0a2.19,2.19,0,0,0-.59-1.58,2.26,2.26,0,0,0-1.66-.68,2.36,2.36,0,0,0-1,.23,15.78,15.78,0,0,1-8,2.06c-7.14,0-11.57-4.51-11.57-11.76S289.07,238.9,296.21,238.9Z"/><path class="cls-1" d="M348.27,244.1c0-6.07-4.61-9.56-12.66-9.56H325.16a2.5,2.5,0,0,0-2.47,2.52v27.46a2.49,2.49,0,0,0,5,0v-10h8.84c5.77,0,6.51,4.6,6.51,8.61v1.35a2.36,2.36,0,0,0,2.51,2.47,2.48,2.48,0,0,0,2.47-2.47v-2.07c0-2-.37-8.2-4.8-10.26A8.78,8.78,0,0,0,348.27,244.1Zm-5,.31c0,3.38-3,5.39-7.94,5.39h-7.68V239.3h7.45C342.36,239.3,343.29,242,343.29,244.41Z"/><path class="cls-1" d="M387.18,234.32a2.49,2.49,0,0,0-2.17,1.23l-9,13.1-9-13.1a2.49,2.49,0,0,0-2.17-1.23,2.39,2.39,0,0,0-2.42,2.51,2.68,2.68,0,0,0,.44,1.47l10.64,14.92v11.3A2.5,2.5,0,0,0,376,267a2.47,2.47,0,0,0,2.47-2.47v-11.3l10.7-14.94a2.62,2.62,0,0,0,.43-1.43,2.4,2.4,0,0,0-2.42-2.53Z"/><path class="cls-1" d="M433.49,234.32H432a3.49,3.49,0,0,0-3.16,2.16l-9.76,24.36-9.77-24.36a3.49,3.49,0,0,0-3.16-2.16h-1.48a3.39,3.39,0,0,0-3.36,3.41v26.79a2.47,2.47,0,0,0,2.46,2.47,2.5,2.5,0,0,0,2.52-2.47V241.34l9.5,23.49a3.57,3.57,0,0,0,6.57,0l9.5-23.48v23.18a2.5,2.5,0,0,0,5,0V237.73A3.39,3.39,0,0,0,433.49,234.32Z"/></svg>