<?xml version="1.0" encoding="UTF-8"?><svg id="Background" xmlns="http://www.w3.org/2000/svg" viewBox="0 0 500 500"><defs><style>.cls-1{fill:#f9662b;}.cls-2{fill:#fff;}</style></defs><rect width="500" height="500"/><g><path class="cls-2" d="m241.26,197.05l-91.46-74.4c-2.9-2.37-7.29-.3-7.29,3.44v155.72l-34.47,19.49c-8.71,4.92-14.1,14.16-14.1,24.17v49.46c0,2.61,2.84,4.32,5.15,3.02l43.42-24.58,21.44-12.14c8.71-4.92,14.1-14.16,14.1-24.23v-125.52l71.91,58.52v-34.71c0-7.05-3.2-13.8-8.71-18.24Z"/><path class="cls-1" d="m400.84,122.06l-43.42,24.58-21.44,12.14c-8.71,4.92-14.1,14.22-14.1,24.23v125.51l-71.91-58.52v34.71c0,7.05,3.2,13.8,8.71,18.24l91.46,74.4c2.96,2.37,7.29.3,7.29-3.44v-155.72l34.47-19.49c8.77-4.92,14.16-14.16,14.16-24.17v-49.46c0-2.61-2.9-4.32-5.21-3.02Z"/></g></svg>