<svg xmlns="http://www.w3.org/2000/svg" viewBox="0 0 1168 204"><defs><style>.cls-1{fill:#131416;}.cls-2{fill:#ededec;}.cls-3{fill:#f77239;}</style></defs><g id="Background"><rect class="cls-1" width="1168" height="204"/></g><g id="Text"><path class="cls-2" d="M419,65.57h-4.62l-7.45-13h-.11c.15,2.29.22,3.92.22,4.89v8.07h-3.24V48.43h4.58l7.44,12.84h.08c-.11-2.23-.17-3.8-.17-4.73V48.43H419Z"/><path class="cls-2" d="M428.59,65.8a6.79,6.79,0,0,1-4.95-1.74,6.67,6.67,0,0,1-1.78-5A7.27,7.27,0,0,1,423.51,54a6.69,6.69,0,0,1,8.88-.22,6,6,0,0,1,1.54,4.37v1.74h-8.45a3.43,3.43,0,0,0,.91,2.38,3.16,3.16,0,0,0,2.36.85A10.06,10.06,0,0,0,431,62.9a11.58,11.58,0,0,0,2.21-.79v2.77a8.52,8.52,0,0,1-2,.69A12.11,12.11,0,0,1,428.59,65.8Zm-.5-11a2.28,2.28,0,0,0-1.79.72,3.4,3.4,0,0,0-.73,2.05h5a3,3,0,0,0-.69-2.05A2.34,2.34,0,0,0,428.09,54.76Z"/><path class="cls-2" d="M448.34,59a7,7,0,0,1-1.69,5,6.12,6.12,0,0,1-4.7,1.8,6.58,6.58,0,0,1-3.33-.82,5.53,5.53,0,0,1-2.21-2.38,7.9,7.9,0,0,1-.77-3.61,7,7,0,0,1,1.67-5A6.15,6.15,0,0,1,442,52.22a6.58,6.58,0,0,1,3.33.82,5.43,5.43,0,0,1,2.21,2.36A7.82,7.82,0,0,1,448.34,59Zm-9.06,0a5.44,5.44,0,0,0,.64,2.94,2.65,2.65,0,0,0,4.14,0,5.66,5.66,0,0,0,.62-2.95,5.4,5.4,0,0,0-.63-2.91,2.68,2.68,0,0,0-4.14,0A5.41,5.41,0,0,0,439.28,59Z"/><path class="cls-2" d="M456.2,65.8q-6.1,0-6.11-6.71A7.18,7.18,0,0,1,451.75,54a6.26,6.26,0,0,1,4.77-1.76,9.13,9.13,0,0,1,4.08.89l-1.06,2.77a15.1,15.1,0,0,0-1.57-.56,4.86,4.86,0,0,0-1.45-.22q-2.79,0-2.79,4t2.79,3.85a6.17,6.17,0,0,0,1.91-.28,6.81,6.81,0,0,0,1.76-.86v3.06a5.68,5.68,0,0,1-1.75.76A10,10,0,0,1,456.2,65.8Z"/><path class="cls-2" d="M470.13,52.22a5.11,5.11,0,0,1,1.2.11l-.26,3.35a4.07,4.07,0,0,0-1.06-.12,3.79,3.79,0,0,0-2.67.88,3.18,3.18,0,0,0-.95,2.46v6.67h-3.57V52.47h2.7l.53,2.2h.18a4.84,4.84,0,0,1,1.64-1.78A4.07,4.07,0,0,1,470.13,52.22Z"/><path class="cls-2" d="M471.43,52.47h3.91l2.48,7.37a10.42,10.42,0,0,1,.43,2.27h.07a10.29,10.29,0,0,1,.51-2.27l2.42-7.37h3.83l-5.54,14.77a6.4,6.4,0,0,1-2.17,3.07,5.5,5.5,0,0,1-3.3,1,7.87,7.87,0,0,1-1.82-.2V68.3a6.22,6.22,0,0,0,1.41.15,2.55,2.55,0,0,0,1.66-.58,3.75,3.75,0,0,0,1.1-1.75l.21-.65Z"/><path class="cls-2" d="M498.28,65.57h-3.57V57.92a3.81,3.81,0,0,0-.48-2.13,1.66,1.66,0,0,0-1.49-.71,2.16,2.16,0,0,0-2,1,6.5,6.5,0,0,0-.63,3.31v6.17h-3.57V52.47h2.73l.48,1.67h.2a3.64,3.64,0,0,1,1.52-1.41,5,5,0,0,1,2.29-.51c2,0,3.29.64,4,1.92h.32a3.57,3.57,0,0,1,1.55-1.42,5.3,5.3,0,0,1,2.32-.5,4.6,4.6,0,0,1,3.37,1.14A5,5,0,0,1,506.45,57v8.55h-3.59V57.92a3.91,3.91,0,0,0-.47-2.13,1.69,1.69,0,0,0-1.5-.71,2.22,2.22,0,0,0-2,.94,5.31,5.31,0,0,0-.65,3Z"/><path class="cls-2" d="M515.38,49.08c0-1.16.65-1.75,2-1.75s1.94.59,1.94,1.75a1.7,1.7,0,0,1-.48,1.29,2,2,0,0,1-1.46.47C516,50.84,515.38,50.25,515.38,49.08Zm3.73,16.49h-3.58V52.47h3.58Z"/><path class="cls-2" d="M531.59,61.68a3.63,3.63,0,0,1-1.4,3.07,6.94,6.94,0,0,1-4.19,1,13.21,13.21,0,0,1-2.44-.19,9.15,9.15,0,0,1-1.88-.57v-3a12.48,12.48,0,0,0,2.24.78,9.18,9.18,0,0,0,2.2.32c1.3,0,1.94-.38,1.94-1.13a.92.92,0,0,0-.25-.68,3.73,3.73,0,0,0-.89-.6c-.43-.22-1-.48-1.69-.78A10.36,10.36,0,0,1,523,58.83a3.25,3.25,0,0,1-1-1.24,4,4,0,0,1-.33-1.71A3.14,3.14,0,0,1,523,53.17a6.64,6.64,0,0,1,3.84-1,10.85,10.85,0,0,1,4.6,1l-1.08,2.58a19.62,19.62,0,0,0-1.84-.69,5.75,5.75,0,0,0-1.74-.27c-1.06,0-1.58.28-1.58.85a1,1,0,0,0,.5.84,14.39,14.39,0,0,0,2.24,1,10.33,10.33,0,0,1,2.25,1.16,3.41,3.41,0,0,1,1,1.24A3.79,3.79,0,0,1,531.59,61.68Z"/><path class="cls-2" d="M548.12,65.57l-.69-1.78h-.1a5.33,5.33,0,0,1-1.85,1.57,5.91,5.91,0,0,1-2.49.44,4,4,0,0,1-3-1.08,4.11,4.11,0,0,1-1.09-3.07,3.45,3.45,0,0,1,1.46-3.07,8.44,8.44,0,0,1,4.4-1.1l2.27-.07v-.57a1.78,1.78,0,0,0-2-2,9.39,9.39,0,0,0-3.7.95l-1.18-2.41a10.65,10.65,0,0,1,5-1.18,6.29,6.29,0,0,1,4,1.14,4.25,4.25,0,0,1,1.41,3.5v8.73Zm-1.06-6.07-1.38,0a4.45,4.45,0,0,0-2.32.57,1.75,1.75,0,0,0-.76,1.57c0,1,.58,1.51,1.73,1.51a2.75,2.75,0,0,0,2-.72,2.48,2.48,0,0,0,.74-1.89Z"/><path class="cls-3" d="M567.44,52.06a6.9,6.9,0,0,1,1.13.09l.26.05-.41,4.32a6.91,6.91,0,0,0-1.56-.14,3,3,0,0,0-2.18.69,2.68,2.68,0,0,0-.68,2v6.53h-4.58V52.29h3.41l.72,2.12h.22a4.5,4.5,0,0,1,1.6-1.7A3.76,3.76,0,0,1,567.44,52.06Z"/><path class="cls-3" d="M576.68,65.8A7.16,7.16,0,0,1,571.53,64a6.66,6.66,0,0,1-1.83-5,7.26,7.26,0,0,1,1.7-5.17,6.38,6.38,0,0,1,4.85-1.79,6.46,6.46,0,0,1,4.64,1.56,6,6,0,0,1,1.63,4.51v2h-8.19a2.26,2.26,0,0,0,.81,1.74,3.23,3.23,0,0,0,2.1.63,10.31,10.31,0,0,0,2.22-.22,12.15,12.15,0,0,0,2.19-.78v3.29a8,8,0,0,1-2.22.76A15.54,15.54,0,0,1,576.68,65.8Zm-.26-10.63a1.91,1.91,0,0,0-1.36.51,2.46,2.46,0,0,0-.64,1.6h3.94a2.32,2.32,0,0,0-.54-1.53A1.79,1.79,0,0,0,576.42,55.17Z"/><path class="cls-3" d="M590.75,65.8A6.5,6.5,0,0,1,585.81,64,7,7,0,0,1,584.13,59a6.93,6.93,0,0,1,1.81-5.12,7,7,0,0,1,5.17-1.81,9.71,9.71,0,0,1,4.35,1l-1.35,3.39a13.68,13.68,0,0,0-1.53-.58,5.13,5.13,0,0,0-1.47-.22,2,2,0,0,0-1.72.87,4.21,4.21,0,0,0-.61,2.45c0,2.12.79,3.19,2.36,3.19A7.11,7.11,0,0,0,595,61v3.64A7.52,7.52,0,0,1,590.75,65.8Z"/><path class="cls-3" d="M609.91,58.9A7,7,0,0,1,608.16,64a6.5,6.5,0,0,1-4.9,1.82,6.39,6.39,0,0,1-4.82-1.86,7,7,0,0,1-1.78-5,6.94,6.94,0,0,1,1.75-5,6.59,6.59,0,0,1,4.92-1.79,6.94,6.94,0,0,1,3.45.83,5.73,5.73,0,0,1,2.32,2.38A7.77,7.77,0,0,1,609.91,58.9Zm-8.6,0a5.84,5.84,0,0,0,.46,2.61,1.58,1.58,0,0,0,1.53.89,1.55,1.55,0,0,0,1.51-.89,6.17,6.17,0,0,0,.44-2.61,5.77,5.77,0,0,0-.45-2.57,1.76,1.76,0,0,0-3,0A5.56,5.56,0,0,0,601.31,58.9Z"/><path class="cls-3" d="M620.13,52.06a6.93,6.93,0,0,1,1.14.09l.26.05-.41,4.32a7,7,0,0,0-1.56-.14,3,3,0,0,0-2.18.69,2.68,2.68,0,0,0-.68,2v6.53h-4.58V52.29h3.41l.71,2.12h.22a4.66,4.66,0,0,1,1.6-1.7A3.81,3.81,0,0,1,620.13,52.06Z"/><path class="cls-3" d="M627.1,65.8a4,4,0,0,1-2.48-.81A5.05,5.05,0,0,1,623,62.61,10.45,10.45,0,0,1,622.4,59a8.61,8.61,0,0,1,1.3-5.07,4.16,4.16,0,0,1,3.57-1.82,4.06,4.06,0,0,1,2,.44,4.35,4.35,0,0,1,1.53,1.5h.1a21.84,21.84,0,0,1-.23-3.12V47.33h4.62V65.57h-3.46l-1-1.68h-.18A3.86,3.86,0,0,1,627.1,65.8ZM629,62.18a1.7,1.7,0,0,0,1.55-.69,4.12,4.12,0,0,0,.49-2.13V59a4.71,4.71,0,0,0-.5-2.5,1.8,1.8,0,0,0-1.59-.74,1.55,1.55,0,0,0-1.4.85A4.84,4.84,0,0,0,627,59a4.44,4.44,0,0,0,.5,2.35A1.61,1.61,0,0,0,629,62.18Z"/><path class="cls-3" d="M648.4,65.57h-4.58V47.33h4.58Z"/><path class="cls-3" d="M659.83,65.57,659,63.81h-.09A5.2,5.2,0,0,1,657,65.38a6.25,6.25,0,0,1-2.48.42,3.87,3.87,0,0,1-3-1.12,4.4,4.4,0,0,1-1.08-3.17,3.62,3.62,0,0,1,1.47-3.16,8.05,8.05,0,0,1,4.28-1.16l2.22-.07v-.19a1.44,1.44,0,0,0-1.62-1.64,9.75,9.75,0,0,0-3.69,1l-1.33-3a12.71,12.71,0,0,1,5.86-1.19,5.72,5.72,0,0,1,4,1.26,4.54,4.54,0,0,1,1.4,3.54v8.71Zm-3.4-3a2.09,2.09,0,0,0,1.43-.53,1.76,1.76,0,0,0,.59-1.37v-1l-1.05,0c-1.51.06-2.27.61-2.27,1.67C655.13,62.16,655.57,62.57,656.43,62.57Z"/><path class="cls-3" d="M673.83,52.06a4,4,0,0,1,3.44,1.81,8.72,8.72,0,0,1,1.27,5A8.68,8.68,0,0,1,677.25,64a4.1,4.1,0,0,1-3.56,1.83,4.82,4.82,0,0,1-1.32-.16,3.62,3.62,0,0,1-1-.44,5.36,5.36,0,0,1-1.05-.93H670l-.73,1.3h-3.57V47.33h4.58v4.13c0,.49-.06,1.34-.16,2.54h.16a4.19,4.19,0,0,1,1.54-1.49A4.26,4.26,0,0,1,673.83,52.06Zm-1.68,3.59a1.59,1.59,0,0,0-1.41.67,4,4,0,0,0-.44,2.1v.64a4.66,4.66,0,0,0,.44,2.34,1.61,1.61,0,0,0,1.46.71,1.35,1.35,0,0,0,1.24-.83,5.36,5.36,0,0,0,.43-2.43C673.87,56.72,673.3,55.65,672.15,55.65Z"/><path class="cls-3" d="M687.15,65.8A7.16,7.16,0,0,1,682,64a6.66,6.66,0,0,1-1.83-5,7.26,7.26,0,0,1,1.7-5.17,7.55,7.55,0,0,1,9.48-.23A6,6,0,0,1,693,58.13v2H684.8a2.26,2.26,0,0,0,.81,1.74,3.2,3.2,0,0,0,2.09.63,10.19,10.19,0,0,0,2.22-.22,12,12,0,0,0,2.2-.78v3.29a8,8,0,0,1-2.22.76A15.54,15.54,0,0,1,687.15,65.8Zm-.27-10.63a1.89,1.89,0,0,0-1.35.51,2.41,2.41,0,0,0-.64,1.6h3.94a2.28,2.28,0,0,0-.55-1.53A1.76,1.76,0,0,0,686.88,55.17Z"/><path class="cls-3" d="M699.75,65.57h-4.58V47.33h4.58Z"/><path class="cls-2" d="M409.08,91.75a7.59,7.59,0,0,0,2.25-.41V94a8,8,0,0,1-3.29.6,4,4,0,0,1-3.12-1.08,4.75,4.75,0,0,1-1-3.25V84h-1.71V82.44l2-1.2,1-2.76h2.29v2.79h3.67V84h-3.67v6.32a1.38,1.38,0,0,0,.43,1.12A1.68,1.68,0,0,0,409.08,91.75Z"/><path class="cls-2" d="M425.66,94.37h-3.57V86.71c0-1.89-.71-2.83-2.11-2.83a2.4,2.4,0,0,0-2.17,1,6.17,6.17,0,0,0-.67,3.3v6.17h-3.57V76.13h3.57v3.72c0,.29,0,1-.08,2l-.08,1h.18A4.15,4.15,0,0,1,421,81a4.61,4.61,0,0,1,3.5,1.24,4.93,4.93,0,0,1,1.2,3.56Z"/><path class="cls-2" d="M437.25,94.37l-.69-1.78h-.09a5.27,5.27,0,0,1-1.86,1.57,5.91,5.91,0,0,1-2.49.44,4,4,0,0,1-3-1.08,4.15,4.15,0,0,1-1.09-3.07,3.45,3.45,0,0,1,1.46-3.07,8.47,8.47,0,0,1,4.4-1.1l2.28-.07v-.57a1.79,1.79,0,0,0-2-2,9.31,9.31,0,0,0-3.69,1l-1.19-2.41a10.65,10.65,0,0,1,5-1.18,6.27,6.27,0,0,1,4,1.14,4.25,4.25,0,0,1,1.41,3.5v8.73ZM436.2,88.3l-1.39,0a4.48,4.48,0,0,0-2.32.57,1.77,1.77,0,0,0-.76,1.57c0,1,.58,1.51,1.74,1.51a2.71,2.71,0,0,0,2-.72,2.49,2.49,0,0,0,.75-1.89Z"/><path class="cls-2" d="M448.54,91.75a7.59,7.59,0,0,0,2.25-.41V94a8,8,0,0,1-3.28.6,4,4,0,0,1-3.12-1.08,4.7,4.7,0,0,1-1-3.25V84H441.7V82.44l2-1.2,1-2.76H447v2.79h3.67V84H447v6.32a1.38,1.38,0,0,0,.43,1.12A1.68,1.68,0,0,0,448.54,91.75Z"/><path class="cls-2" d="M468.14,94.37l-.48-1.68h-.19a3.75,3.75,0,0,1-1.63,1.41,5.42,5.42,0,0,1-2.4.5A4.58,4.58,0,0,1,460,93.37a5,5,0,0,1-1.17-3.56V81.27h3.57v7.65a3.71,3.71,0,0,0,.5,2.12,1.83,1.83,0,0,0,1.61.71,2.42,2.42,0,0,0,2.17-1,6.25,6.25,0,0,0,.67-3.32V81.27h3.57v13.1Z"/><path class="cls-2" d="M483.36,90.48a3.6,3.6,0,0,1-1.4,3.07,6.94,6.94,0,0,1-4.19,1,13.21,13.21,0,0,1-2.44-.19,9.15,9.15,0,0,1-1.88-.57v-3a12.48,12.48,0,0,0,2.24.78,9.18,9.18,0,0,0,2.2.32c1.3,0,1.94-.38,1.94-1.13a.92.92,0,0,0-.25-.68,3.53,3.53,0,0,0-.89-.6c-.43-.22-1-.48-1.69-.78a10.36,10.36,0,0,1-2.22-1.17,3.25,3.25,0,0,1-1-1.24,4,4,0,0,1-.33-1.71A3.14,3.14,0,0,1,474.78,82a6.64,6.64,0,0,1,3.84-1,10.85,10.85,0,0,1,4.6,1l-1.08,2.58a19.62,19.62,0,0,0-1.84-.69,5.75,5.75,0,0,0-1.74-.27c-1.06,0-1.58.28-1.58.85a1,1,0,0,0,.51.84,14.13,14.13,0,0,0,2.23,1A10.33,10.33,0,0,1,482,87.56a3.41,3.41,0,0,1,1,1.24A3.79,3.79,0,0,1,483.36,90.48Z"/><path class="cls-2" d="M491.67,94.6a6.77,6.77,0,0,1-4.94-1.74,6.63,6.63,0,0,1-1.78-5,7.29,7.29,0,0,1,1.64-5.09,5.88,5.88,0,0,1,4.56-1.8,5.78,5.78,0,0,1,4.32,1.58A6,6,0,0,1,497,87v1.74h-8.45a3.47,3.47,0,0,0,.9,2.38,3.17,3.17,0,0,0,2.37.85,10.12,10.12,0,0,0,2.24-.24,11.75,11.75,0,0,0,2.2-.79v2.77a8.37,8.37,0,0,1-2,.69A12,12,0,0,1,491.67,94.6Zm-.5-11a2.26,2.26,0,0,0-1.78.72,3.34,3.34,0,0,0-.74,2h5a3,3,0,0,0-.7-2A2.32,2.32,0,0,0,491.17,83.56Z"/><path class="cls-2" d="M508.66,90.48a3.63,3.63,0,0,1-1.4,3.07,7,7,0,0,1-4.19,1,13.06,13.06,0,0,1-2.44-.19,9.44,9.44,0,0,1-1.89-.57v-3a12.6,12.6,0,0,0,2.25.78,9.11,9.11,0,0,0,2.19.32c1.3,0,1.95-.38,1.95-1.13a.93.93,0,0,0-.26-.68,3.53,3.53,0,0,0-.89-.6c-.42-.22-1-.48-1.69-.78a10.36,10.36,0,0,1-2.22-1.17,3.34,3.34,0,0,1-1-1.24,4.11,4.11,0,0,1-.32-1.71A3.13,3.13,0,0,1,500.07,82a6.64,6.64,0,0,1,3.84-1,10.89,10.89,0,0,1,4.61,1l-1.08,2.58c-.66-.28-1.27-.51-1.84-.69a5.81,5.81,0,0,0-1.75-.27c-1.05,0-1.58.28-1.58.85a1,1,0,0,0,.51.84,14.13,14.13,0,0,0,2.23,1,10.33,10.33,0,0,1,2.25,1.16,3.44,3.44,0,0,1,1.06,1.24A3.93,3.93,0,0,1,508.66,90.48Z"/><path class="cls-3" d="M525.23,94.37l-.88-1.76h-.09a5.2,5.2,0,0,1-1.89,1.57,6.25,6.25,0,0,1-2.48.42,3.91,3.91,0,0,1-3-1.12,4.39,4.39,0,0,1-1.07-3.17,3.62,3.62,0,0,1,1.47-3.16A8.05,8.05,0,0,1,521.61,86l2.21-.07v-.19a1.44,1.44,0,0,0-1.61-1.64,9.75,9.75,0,0,0-3.69,1l-1.33-3a12.71,12.71,0,0,1,5.86-1.19,5.74,5.74,0,0,1,4,1.26,4.53,4.53,0,0,1,1.4,3.54v8.71Zm-3.4-3a2.09,2.09,0,0,0,1.43-.53,1.76,1.76,0,0,0,.59-1.37v-1l-1.06,0c-1.5.06-2.26.61-2.26,1.67C520.53,91,521,91.37,521.83,91.37Z"/><path class="cls-3" d="M539.13,80.86a6.93,6.93,0,0,1,1.14.09l.26,0-.41,4.32a7,7,0,0,0-1.56-.14,3,3,0,0,0-2.18.69,2.64,2.64,0,0,0-.68,2v6.53h-4.58V81.09h3.41l.71,2.12h.22a4.66,4.66,0,0,1,1.6-1.7A3.81,3.81,0,0,1,539.13,80.86Z"/><path class="cls-3" d="M548.47,91a6.71,6.71,0,0,0,2.22-.46v3.34a8.62,8.62,0,0,1-1.77.57,10.14,10.14,0,0,1-2,.17,4.31,4.31,0,0,1-3.33-1.13,5,5,0,0,1-1-3.47V84.52H541V82.66l2-1.44,1.18-2.79h3v2.66h3.26v3.43h-3.26v5.17A1.12,1.12,0,0,0,548.47,91Z"/><path class="cls-3" d="M552.51,77.79a2,2,0,0,1,.57-1.54,2.75,2.75,0,0,1,1.85-.5,2.84,2.84,0,0,1,1.87.51,1.93,1.93,0,0,1,.58,1.53c0,1.34-.82,2-2.45,2S552.51,79.13,552.51,77.79Zm4.7,16.58h-4.59V81.09h4.59Z"/><path class="cls-3" d="M568.11,84.52h-2.83v9.85H560.7V84.52h-1.76V82.27l1.85-1.12v-.22a5.44,5.44,0,0,1,1.08-3.78A4.53,4.53,0,0,1,565.31,76a10.42,10.42,0,0,1,1.72.14,13.9,13.9,0,0,1,1.9.5l-1,3a6.37,6.37,0,0,0-1.65-.23.89.89,0,0,0-.77.32,1.77,1.77,0,0,0-.24,1v.35h2.83Zm1.71-6.73a2,2,0,0,1,.57-1.54,2.75,2.75,0,0,1,1.85-.5,2.82,2.82,0,0,1,1.87.51,1.93,1.93,0,0,1,.58,1.53c0,1.34-.81,2-2.45,2S569.82,79.13,569.82,77.79Zm4.7,16.58h-4.59V81.09h4.59Z"/><path class="cls-3" d="M583.34,94.6a6.5,6.5,0,0,1-4.94-1.76,7,7,0,0,1-1.68-5,6.32,6.32,0,0,1,7-6.93,9.67,9.67,0,0,1,4.34,1l-1.34,3.39a14.56,14.56,0,0,0-1.54-.58,5.11,5.11,0,0,0-1.46-.22,2,2,0,0,0-1.73.87,4.26,4.26,0,0,0-.61,2.45c0,2.12.79,3.19,2.36,3.19a7.17,7.17,0,0,0,3.87-1.17v3.64A7.55,7.55,0,0,1,583.34,94.6Z"/><path class="cls-3" d="M589.73,77.79a1.93,1.93,0,0,1,.58-1.54,2.75,2.75,0,0,1,1.85-.5,2.79,2.79,0,0,1,1.86.51,1.94,1.94,0,0,1,.59,1.53c0,1.34-.82,2-2.45,2S589.73,79.13,589.73,77.79Zm4.7,16.58h-4.58V81.09h4.58Z"/><path class="cls-3" d="M605.88,94.37,605,92.61h-.09A5.2,5.2,0,0,1,603,94.18a6.25,6.25,0,0,1-2.48.42,3.87,3.87,0,0,1-2.95-1.12,4.4,4.4,0,0,1-1.08-3.17A3.62,3.62,0,0,1,598,87.15,8.05,8.05,0,0,1,602.26,86l2.22-.07v-.19a1.44,1.44,0,0,0-1.62-1.64,9.75,9.75,0,0,0-3.69,1l-1.33-3a12.71,12.71,0,0,1,5.86-1.19,5.72,5.72,0,0,1,4,1.26,4.53,4.53,0,0,1,1.4,3.54v8.71Zm-3.4-3a2.09,2.09,0,0,0,1.43-.53,1.76,1.76,0,0,0,.59-1.37v-1l-1.06,0c-1.5.06-2.26.61-2.26,1.67C601.18,91,601.62,91.37,602.48,91.37Z"/><path class="cls-3" d="M616.35,94.37h-4.58V76.13h4.58Z"/><path class="cls-3" d="M624.85,77.79a2,2,0,0,1,.57-1.54,3.68,3.68,0,0,1,3.72,0,1.93,1.93,0,0,1,.58,1.53c0,1.34-.81,2-2.44,2S624.85,79.13,624.85,77.79Zm4.7,16.58H625V81.09h4.58Z"/><path class="cls-3" d="M640.72,94.37V87.12a4.18,4.18,0,0,0-.38-2,1.31,1.31,0,0,0-1.23-.68,1.76,1.76,0,0,0-1.67.93,6.9,6.9,0,0,0-.52,3.17v5.82h-4.58V81.09h3.46l.57,1.64h.27a3.71,3.71,0,0,1,1.62-1.41,5.82,5.82,0,0,1,2.39-.46,4.54,4.54,0,0,1,3.43,1.27,5,5,0,0,1,1.22,3.6v8.64Z"/><path class="cls-3" d="M654.51,91a6.71,6.71,0,0,0,2.22-.46v3.34a8.74,8.74,0,0,1-1.76.57,10.32,10.32,0,0,1-2,.17,4.31,4.31,0,0,1-3.33-1.13,5,5,0,0,1-1-3.47V84.52h-1.6V82.66l2-1.44,1.18-2.79h3v2.66h3.26v3.43h-3.26v5.17A1.12,1.12,0,0,0,654.51,91Z"/><path class="cls-3" d="M665.05,94.6a7.15,7.15,0,0,1-5.15-1.76,6.66,6.66,0,0,1-1.83-5,7.21,7.21,0,0,1,1.7-5.17,7.55,7.55,0,0,1,9.48-.23,5.94,5.94,0,0,1,1.64,4.51v2H662.7a2.26,2.26,0,0,0,.81,1.75,3.2,3.2,0,0,0,2.09.63,10.19,10.19,0,0,0,2.22-.22,12,12,0,0,0,2.2-.78v3.29a8,8,0,0,1-2.23.76A15.42,15.42,0,0,1,665.05,94.6ZM664.78,84a1.89,1.89,0,0,0-1.35.51,2.41,2.41,0,0,0-.64,1.6h3.94a2.28,2.28,0,0,0-.55-1.53A1.78,1.78,0,0,0,664.78,84Z"/><path class="cls-3" d="M677.65,94.37h-4.58V76.13h4.58Z"/><path class="cls-3" d="M685,94.37h-4.58V76.13H685Z"/><path class="cls-3" d="M687.68,77.79a2,2,0,0,1,.57-1.54,2.75,2.75,0,0,1,1.85-.5,2.79,2.79,0,0,1,1.86.51,1.94,1.94,0,0,1,.59,1.53c0,1.34-.82,2-2.45,2S687.68,79.13,687.68,77.79Zm4.69,16.58h-4.58V81.09h4.58Z"/><path class="cls-3" d="M707.69,81.09V83.3l-1.81.67a3.24,3.24,0,0,1,.37,1.58,4,4,0,0,1-1.5,3.33,7.21,7.21,0,0,1-4.5,1.19,5.23,5.23,0,0,1-1.17-.1,1.24,1.24,0,0,0-.16.58c0,.22.18.4.55.52a4.68,4.68,0,0,0,1.44.18h2.2q4.47,0,4.47,3.76a4.27,4.27,0,0,1-2.07,3.78,10.7,10.7,0,0,1-5.81,1.34,8.32,8.32,0,0,1-4.35-.94,3,3,0,0,1-1.53-2.71q0-2.39,2.95-3.07a2.66,2.66,0,0,1-1.06-.84,1.78,1.78,0,0,1-.11-2.23A5.24,5.24,0,0,1,697,89.21a3.53,3.53,0,0,1-1.63-1.43,4.53,4.53,0,0,1-.59-2.37,4.07,4.07,0,0,1,1.48-3.36,6.53,6.53,0,0,1,4.22-1.19c.24,0,.66,0,1.25.08s1,.1,1.31.15ZM697.69,96a1,1,0,0,0,.6.91,3.32,3.32,0,0,0,1.63.34,7.27,7.27,0,0,0,2.67-.41c.67-.28,1-.64,1-1.07A.77.77,0,0,0,703,95a5.53,5.53,0,0,0-1.74-.22h-1.8a2.19,2.19,0,0,0-1.25.35A1,1,0,0,0,697.69,96Zm1.44-10.58q0,2,1.41,2a1.18,1.18,0,0,0,1-.51,2.59,2.59,0,0,0,.36-1.51c0-1.37-.46-2.06-1.38-2.06S699.13,84.08,699.13,85.44Z"/><path class="cls-3" d="M715.71,94.6a7.15,7.15,0,0,1-5.15-1.76,6.66,6.66,0,0,1-1.83-5,7.21,7.21,0,0,1,1.7-5.17,7.55,7.55,0,0,1,9.48-.23,5.94,5.94,0,0,1,1.64,4.51v2h-8.19a2.26,2.26,0,0,0,.81,1.75,3.2,3.2,0,0,0,2.09.63,10.19,10.19,0,0,0,2.22-.22,12,12,0,0,0,2.2-.78v3.29a8,8,0,0,1-2.23.76A15.42,15.42,0,0,1,715.71,94.6ZM715.44,84a1.89,1.89,0,0,0-1.35.51,2.37,2.37,0,0,0-.64,1.6h3.94a2.28,2.28,0,0,0-.55-1.53A1.78,1.78,0,0,0,715.44,84Z"/><path class="cls-3" d="M732.11,94.37V87.12a4.18,4.18,0,0,0-.38-2,1.32,1.32,0,0,0-1.23-.68,1.76,1.76,0,0,0-1.67.93,6.9,6.9,0,0,0-.52,3.17v5.82h-4.58V81.09h3.46l.57,1.64H728a3.71,3.71,0,0,1,1.62-1.41,5.79,5.79,0,0,1,2.39-.46,4.5,4.5,0,0,1,3.42,1.27,5,5,0,0,1,1.23,3.6v8.64Z"/><path class="cls-3" d="M745.45,94.6a6.48,6.48,0,0,1-4.94-1.76,7,7,0,0,1-1.69-5,6.32,6.32,0,0,1,7-6.93,9.71,9.71,0,0,1,4.35,1l-1.35,3.39a14.56,14.56,0,0,0-1.54-.58,5.06,5.06,0,0,0-1.46-.22,2,2,0,0,0-1.72.87,4.18,4.18,0,0,0-.61,2.45c0,2.12.78,3.19,2.35,3.19a7.14,7.14,0,0,0,3.87-1.17v3.64A7.54,7.54,0,0,1,745.45,94.6Z"/><path class="cls-3" d="M758.34,94.6a7.15,7.15,0,0,1-5.15-1.76,6.66,6.66,0,0,1-1.84-5,7.26,7.26,0,0,1,1.7-5.17,7.57,7.57,0,0,1,9.49-.23,5.93,5.93,0,0,1,1.63,4.51v2H756a2.27,2.27,0,0,0,.82,1.75,3.2,3.2,0,0,0,2.09.63,10.31,10.31,0,0,0,2.22-.22,12,12,0,0,0,2.2-.78v3.29a8,8,0,0,1-2.23.76A15.42,15.42,0,0,1,758.34,94.6ZM758.07,84a1.89,1.89,0,0,0-1.35.51,2.37,2.37,0,0,0-.64,1.6H760a2.22,2.22,0,0,0-.54-1.53A1.78,1.78,0,0,0,758.07,84Z"/><path class="cls-2" d="M409.08,120.55a7.59,7.59,0,0,0,2.25-.41v2.66a8,8,0,0,1-3.29.6,4,4,0,0,1-3.12-1.08,4.73,4.73,0,0,1-1-3.25v-6.32h-1.71v-1.51l2-1.2,1-2.76h2.29v2.79h3.67v2.68h-3.67v6.32a1.38,1.38,0,0,0,.43,1.12A1.68,1.68,0,0,0,409.08,120.55Z"/><path class="cls-2" d="M425.47,116.59a7.08,7.08,0,0,1-1.68,5,6.15,6.15,0,0,1-4.7,1.8,6.58,6.58,0,0,1-3.33-.82,5.56,5.56,0,0,1-2.22-2.38,8,8,0,0,1-.77-3.61,7,7,0,0,1,1.68-5,6.12,6.12,0,0,1,4.71-1.78,6.57,6.57,0,0,1,3.32.82A5.45,5.45,0,0,1,424.7,113,7.94,7.94,0,0,1,425.47,116.59Zm-9.06,0a5.59,5.59,0,0,0,.64,3,2.29,2.29,0,0,0,2.08,1,2.25,2.25,0,0,0,2.06-1,5.55,5.55,0,0,0,.63-3,5.3,5.3,0,0,0-.64-2.91,2.67,2.67,0,0,0-4.13,0A5.31,5.31,0,0,0,416.41,116.59Z"/><path class="cls-2" d="M441.09,112.75H438v10.42h-3.57V112.75h-2V111l2-1v-1a4.29,4.29,0,0,1,1.1-3.27,5,5,0,0,1,3.53-1,9.11,9.11,0,0,1,3.29.56l-.91,2.62a6.61,6.61,0,0,0-2-.34,1.3,1.3,0,0,0-1.1.45,1.92,1.92,0,0,0-.34,1.16v.82h3.1Zm1.89-6.07c0-1.16.65-1.75,1.95-1.75s1.95.59,1.95,1.75a1.7,1.7,0,0,1-.49,1.29,2,2,0,0,1-1.46.47C443.63,108.44,443,107.85,443,106.68Zm3.73,16.49h-3.57v-13.1h3.57Z"/><path class="cls-2" d="M462.14,123.17h-3.58v-7.65a3.72,3.72,0,0,0-.5-2.13,1.85,1.85,0,0,0-1.61-.71,2.42,2.42,0,0,0-2.17,1,6.29,6.29,0,0,0-.66,3.32v6.17H450v-13.1h2.73l.48,1.67h.2a3.77,3.77,0,0,1,1.65-1.43,5.5,5.5,0,0,1,2.38-.49,4.56,4.56,0,0,1,3.47,1.24,4.94,4.94,0,0,1,1.19,3.56Z"/><path class="cls-2" d="M469.56,123.4a4.27,4.27,0,0,1-3.63-1.79,10,10,0,0,1,0-10,4.37,4.37,0,0,1,3.7-1.8,4.26,4.26,0,0,1,3.77,1.92h.12a14.55,14.55,0,0,1-.27-2.61v-4.2h3.59v18.24h-2.75l-.69-1.7h-.15A4.08,4.08,0,0,1,469.56,123.4Zm1.25-2.85a2.43,2.43,0,0,0,2-.79,4.62,4.62,0,0,0,.7-2.71v-.39a5.39,5.39,0,0,0-.65-3,2.42,2.42,0,0,0-2.12-.91,2.09,2.09,0,0,0-1.86,1,5.44,5.44,0,0,0-.66,3,5.09,5.09,0,0,0,.67,2.9A2.18,2.18,0,0,0,470.81,120.55Z"/><path class="cls-2" d="M494.33,123.17l-.69-1.78h-.09a5.27,5.27,0,0,1-1.86,1.57,5.91,5.91,0,0,1-2.49.44,4,4,0,0,1-3-1.08,4.13,4.13,0,0,1-1.08-3.07,3.45,3.45,0,0,1,1.45-3.07,8.48,8.48,0,0,1,4.41-1.1l2.27-.07v-.57a1.78,1.78,0,0,0-2-2,9.27,9.27,0,0,0-3.69.94L486.36,111a10.65,10.65,0,0,1,5-1.18,6.2,6.2,0,0,1,4,1.15,4.23,4.23,0,0,1,1.41,3.49v8.73Zm-1.05-6.07-1.38,0a4.42,4.42,0,0,0-2.32.57,1.76,1.76,0,0,0-.77,1.57c0,1,.58,1.51,1.74,1.51a2.71,2.71,0,0,0,2-.72,2.49,2.49,0,0,0,.75-1.89Z"/><path class="cls-2" d="M512.19,123.17h-3.57v-7.65a3.72,3.72,0,0,0-.5-2.13,1.85,1.85,0,0,0-1.61-.71,2.42,2.42,0,0,0-2.17,1,6.29,6.29,0,0,0-.66,3.32v6.17H500.1v-13.1h2.73l.48,1.67h.2a3.77,3.77,0,0,1,1.65-1.43,5.5,5.5,0,0,1,2.38-.49,4.56,4.56,0,0,1,3.47,1.24,4.94,4.94,0,0,1,1.18,3.56Z"/><path class="cls-2" d="M519.62,123.4a4.27,4.27,0,0,1-3.63-1.79,10,10,0,0,1,0-10,4.37,4.37,0,0,1,3.7-1.8,4.26,4.26,0,0,1,3.77,1.92h.12a14.55,14.55,0,0,1-.27-2.61v-4.2h3.59v18.24h-2.75l-.69-1.7h-.15A4.08,4.08,0,0,1,519.62,123.4Zm1.25-2.85a2.43,2.43,0,0,0,2-.79,4.7,4.7,0,0,0,.7-2.71v-.39a5.39,5.39,0,0,0-.65-3,2.42,2.42,0,0,0-2.12-.91,2.09,2.09,0,0,0-1.86,1,5.44,5.44,0,0,0-.66,3,5.09,5.09,0,0,0,.67,2.9A2.18,2.18,0,0,0,520.87,120.55Z"/><path class="cls-3" d="M543.75,123.4a4.75,4.75,0,0,1-1.81-.33,4.6,4.6,0,0,1-1.58-1.2h-.21a17.13,17.13,0,0,1,.21,1.73v5.33h-4.58v-19h3.73l.64,1.69h.21a4.2,4.2,0,0,1,7-.1,8.83,8.83,0,0,1,1.25,5,8.64,8.64,0,0,1-1.31,5.06A4.11,4.11,0,0,1,543.75,123.4Zm-1.54-10.15a1.48,1.48,0,0,0-1.41.72,4.86,4.86,0,0,0-.44,2.14v.37a5,5,0,0,0,.46,2.47,1.54,1.54,0,0,0,1.44.76,1.35,1.35,0,0,0,1.28-.75,5.85,5.85,0,0,0,.4-2.51,5.57,5.57,0,0,0-.4-2.45A1.39,1.39,0,0,0,542.21,113.25Z"/><path class="cls-3" d="M558.82,109.66a6.93,6.93,0,0,1,1.14.09l.26,0-.41,4.32a7,7,0,0,0-1.56-.14,3,3,0,0,0-2.18.69,2.64,2.64,0,0,0-.68,2v6.53h-4.58V109.89h3.41l.71,2.12h.22a4.66,4.66,0,0,1,1.6-1.7A3.81,3.81,0,0,1,558.82,109.66Z"/><path class="cls-3" d="M574.34,116.5a7.06,7.06,0,0,1-1.75,5.08,6.52,6.52,0,0,1-4.91,1.82,6.36,6.36,0,0,1-4.81-1.86,7,7,0,0,1-1.79-5,6.9,6.9,0,0,1,1.76-5,6.52,6.52,0,0,1,4.91-1.8,7,7,0,0,1,3.46.83,5.64,5.64,0,0,1,2.31,2.38A7.65,7.65,0,0,1,574.34,116.5Zm-8.6,0a6,6,0,0,0,.45,2.61,1.59,1.59,0,0,0,1.54.89,1.52,1.52,0,0,0,1.5-.89,6,6,0,0,0,.44-2.61,5.79,5.79,0,0,0-.44-2.57,1.77,1.77,0,0,0-3,0A5.72,5.72,0,0,0,565.74,116.5Z"/><path class="cls-3" d="M592.84,123.17V116a4.42,4.42,0,0,0-.36-2,1.25,1.25,0,0,0-1.17-.68,1.64,1.64,0,0,0-1.55.91,6.11,6.11,0,0,0-.49,2.82v6.19h-4.59V116a4.58,4.58,0,0,0-.35-2,1.21,1.21,0,0,0-1.14-.68,1.65,1.65,0,0,0-1.57,1,7.37,7.37,0,0,0-.49,3.15v5.81h-4.59V109.89H580l.58,1.64h.26a3.5,3.5,0,0,1,1.53-1.39,5.23,5.23,0,0,1,2.28-.48c1.92,0,3.26.58,4,1.74h.37a3.75,3.75,0,0,1,1.56-1.28,5.21,5.21,0,0,1,2.21-.46,4.56,4.56,0,0,1,3.48,1.2,5.24,5.24,0,0,1,1.13,3.67v8.64Z"/><path class="cls-3" d="M612.82,116.5a7,7,0,0,1-1.76,5.08,6.48,6.48,0,0,1-4.9,1.82,6.35,6.35,0,0,1-4.81-1.86,8.06,8.06,0,0,1,0-10.08,6.56,6.56,0,0,1,4.92-1.8,7,7,0,0,1,3.46.83,5.64,5.64,0,0,1,2.31,2.38A7.77,7.77,0,0,1,612.82,116.5Zm-8.61,0a6,6,0,0,0,.46,2.61,1.59,1.59,0,0,0,1.54.89,1.52,1.52,0,0,0,1.5-.89,6.17,6.17,0,0,0,.44-2.61,5.94,5.94,0,0,0-.44-2.57,1.59,1.59,0,0,0-1.53-.86,1.57,1.57,0,0,0-1.51.86A5.7,5.7,0,0,0,604.21,116.5Z"/><path class="cls-3" d="M621.52,119.78a6.71,6.71,0,0,0,2.22-.46v3.34a8.74,8.74,0,0,1-1.76.57,9.57,9.57,0,0,1-2,.17,4.23,4.23,0,0,1-3.32-1.13,5,5,0,0,1-1-3.47v-5.48h-1.61v-1.86l2-1.44,1.18-2.79h3v2.66h3.26v3.43h-3.26v5.17A1.12,1.12,0,0,0,621.52,119.78Z"/><path class="cls-3" d="M632.06,123.4a7.15,7.15,0,0,1-5.15-1.76,6.66,6.66,0,0,1-1.83-5,7.19,7.19,0,0,1,1.7-5.16,6.35,6.35,0,0,1,4.85-1.8,6.44,6.44,0,0,1,4.63,1.56,6,6,0,0,1,1.64,4.51v2h-8.19a2.26,2.26,0,0,0,.81,1.74,3.2,3.2,0,0,0,2.09.63,10.19,10.19,0,0,0,2.22-.22,12,12,0,0,0,2.2-.78v3.29a8,8,0,0,1-2.23.76A15.42,15.42,0,0,1,632.06,123.4Zm-.27-10.63a1.89,1.89,0,0,0-1.35.51,2.41,2.41,0,0,0-.64,1.6h3.94a2.28,2.28,0,0,0-.55-1.53A1.76,1.76,0,0,0,631.79,112.77Z"/><path class="cls-2" d="M409.08,149.35a7.59,7.59,0,0,0,2.25-.41v2.66a8,8,0,0,1-3.29.6,4,4,0,0,1-3.12-1.08,4.73,4.73,0,0,1-1-3.25v-6.32h-1.71V140l2-1.2,1-2.76h2.29v2.79h3.67v2.68h-3.67v6.32A1.38,1.38,0,0,0,408,149,1.68,1.68,0,0,0,409.08,149.35Z"/><path class="cls-2" d="M425.66,152h-3.57v-7.65c0-1.9-.71-2.84-2.11-2.84a2.4,2.4,0,0,0-2.17,1,6.17,6.17,0,0,0-.67,3.3V152h-3.57V133.73h3.57v3.72c0,.29,0,1-.08,2l-.08,1h.18a4.15,4.15,0,0,1,3.8-1.92,4.61,4.61,0,0,1,3.5,1.24,4.93,4.93,0,0,1,1.2,3.56Z"/><path class="cls-2" d="M434.86,152.2a6.75,6.75,0,0,1-4.94-1.74,6.63,6.63,0,0,1-1.78-5,7.26,7.26,0,0,1,1.64-5.09,5.87,5.87,0,0,1,4.55-1.8,5.79,5.79,0,0,1,4.33,1.58,6,6,0,0,1,1.55,4.37v1.74h-8.45a3.47,3.47,0,0,0,.9,2.38,3.17,3.17,0,0,0,2.37.85,10,10,0,0,0,2.23-.24,11.58,11.58,0,0,0,2.21-.79v2.77a8.52,8.52,0,0,1-2,.69A12,12,0,0,1,434.86,152.2Zm-.5-11a2.26,2.26,0,0,0-1.78.72,3.34,3.34,0,0,0-.74,2.05h5a3,3,0,0,0-.69-2.05A2.32,2.32,0,0,0,434.36,141.16Z"/><path class="cls-2" d="M459.3,152l-1-4.58-1.36-5.79h-.08L454.46,152h-3.84l-3.73-13.1h3.56l1.51,5.8c.25,1,.49,2.47.74,4.3h.07a24.18,24.18,0,0,1,.41-2.83l.19-1,1.62-6.28h3.93l1.54,6.28c0,.17.08.42.15.76s.13.69.19,1.07.12.75.17,1.11.08.66.09.88h.07c.07-.56.19-1.34.37-2.32s.31-1.64.39-2l1.57-5.8H467L463.19,152Z"/><path class="cls-2" d="M480.57,145.39a7,7,0,0,1-1.69,5,6.12,6.12,0,0,1-4.7,1.8,6.57,6.57,0,0,1-3.32-.82,5.56,5.56,0,0,1-2.22-2.38,8,8,0,0,1-.77-3.61,7,7,0,0,1,1.67-5,6.15,6.15,0,0,1,4.71-1.78,6.58,6.58,0,0,1,3.33.82,5.51,5.51,0,0,1,2.22,2.36A7.94,7.94,0,0,1,480.57,145.39Zm-9.06,0a5.53,5.53,0,0,0,.64,2.94,2.65,2.65,0,0,0,4.14,0,5.55,5.55,0,0,0,.63-3,5.39,5.39,0,0,0-.64-2.91,2.67,2.67,0,0,0-4.13,0A5.31,5.31,0,0,0,471.51,145.39Z"/><path class="cls-2" d="M490.43,138.62a5.81,5.81,0,0,1,1.21.11l-.27,3.35a4,4,0,0,0-1.06-.12,3.75,3.75,0,0,0-2.66.88,3.16,3.16,0,0,0-1,2.46V152h-3.57v-13.1h2.7l.53,2.2h.18a4.84,4.84,0,0,1,1.64-1.78A4.07,4.07,0,0,1,490.43,138.62Z"/><path class="cls-2" d="M497.18,152h-3.57V133.73h3.57Z"/><path class="cls-2" d="M504.67,152.2a4.27,4.27,0,0,1-3.63-1.79,8.31,8.31,0,0,1-1.31-5,8.21,8.21,0,0,1,1.34-5,4.34,4.34,0,0,1,3.7-1.8,4.28,4.28,0,0,1,3.77,1.92h.12a14.55,14.55,0,0,1-.27-2.61v-4.2H512V152h-2.74l-.69-1.7h-.15A4.1,4.1,0,0,1,504.67,152.2Zm1.26-2.85a2.43,2.43,0,0,0,2-.79,4.71,4.71,0,0,0,.69-2.71v-.39a5.31,5.31,0,0,0-.65-3,2.41,2.41,0,0,0-2.11-.91,2.09,2.09,0,0,0-1.86,1,5.44,5.44,0,0,0-.66,3,5.09,5.09,0,0,0,.67,2.9A2.18,2.18,0,0,0,505.93,149.35Z"/><path class="cls-2" d="M518.19,134.83l.16.26a36.59,36.59,0,0,1-2.06,5.62h-2.57c.54-2.32.93-4.27,1.17-5.88Z"/><path class="cls-2" d="M529.24,148.08a3.63,3.63,0,0,1-1.4,3.07,7,7,0,0,1-4.19,1,13.13,13.13,0,0,1-2.44-.19,9.44,9.44,0,0,1-1.89-.57v-2.95a12.88,12.88,0,0,0,2.25.78,9.11,9.11,0,0,0,2.2.32c1.29,0,1.94-.38,1.94-1.13a.93.93,0,0,0-.26-.68,3.53,3.53,0,0,0-.89-.6q-.63-.33-1.68-.78a10.74,10.74,0,0,1-2.23-1.17,3.34,3.34,0,0,1-1-1.24,4.11,4.11,0,0,1-.32-1.71,3.1,3.1,0,0,1,1.35-2.7,6.6,6.6,0,0,1,3.84-1,10.86,10.86,0,0,1,4.61,1L528,142.23c-.66-.28-1.27-.51-1.84-.69a5.76,5.76,0,0,0-1.75-.27c-1,0-1.58.28-1.58.85a1,1,0,0,0,.51.84,14.61,14.61,0,0,0,2.23,1,9.87,9.87,0,0,1,2.25,1.16,3.44,3.44,0,0,1,1.06,1.24A3.93,3.93,0,0,1,529.24,148.08Z"/><path class="cls-2" d="M548.85,138.87v1.81l-2.05.53a3.62,3.62,0,0,1,.56,2,4,4,0,0,1-1.47,3.29,6.39,6.39,0,0,1-4.08,1.17l-.65,0-.53-.06a1.2,1.2,0,0,0-.55.94c0,.51.66.77,2,.77h2.23a5,5,0,0,1,3.28.93,3.28,3.28,0,0,1,1.14,2.72,4,4,0,0,1-1.92,3.56,10,10,0,0,1-5.5,1.26,7.58,7.58,0,0,1-4.19-.95,3,3,0,0,1-1.45-2.68,2.81,2.81,0,0,1,.74-2,4.2,4.2,0,0,1,2.17-1.14,2.32,2.32,0,0,1-1-.76,1.89,1.89,0,0,1,0-2.38,4.94,4.94,0,0,1,1.25-1,3.58,3.58,0,0,1-1.63-1.43,4.38,4.38,0,0,1-.6-2.32,4.09,4.09,0,0,1,1.39-3.32,6,6,0,0,1,4-1.17,9.56,9.56,0,0,1,1.31.1c.5.07.83.11,1,.15Zm-10.12,14.95a1.3,1.3,0,0,0,.71,1.16,4,4,0,0,0,2,.42,6.88,6.88,0,0,0,3-.53,1.6,1.6,0,0,0,1.09-1.44,1,1,0,0,0-.64-1,5.46,5.46,0,0,0-2-.28H541a2.86,2.86,0,0,0-1.64.46A1.45,1.45,0,0,0,538.73,153.82ZM540,143.16a2.66,2.66,0,0,0,.48,1.68,1.76,1.76,0,0,0,1.48.62,1.71,1.71,0,0,0,1.48-.62,2.73,2.73,0,0,0,.47-1.68q0-2.37-2-2.37C540.69,140.79,540,141.58,540,143.16Z"/><path class="cls-2" d="M557.91,138.62a5.81,5.81,0,0,1,1.21.11l-.27,3.35a4,4,0,0,0-1.06-.12,3.75,3.75,0,0,0-2.66.88,3.16,3.16,0,0,0-1,2.46V152H550.6v-13.1h2.7l.53,2.2H554a4.84,4.84,0,0,1,1.64-1.78A4.07,4.07,0,0,1,557.91,138.62Z"/><path class="cls-2" d="M567,152.2a6.79,6.79,0,0,1-4.95-1.74,6.63,6.63,0,0,1-1.78-5,7.27,7.27,0,0,1,1.65-5.09,5.84,5.84,0,0,1,4.55-1.8,5.78,5.78,0,0,1,4.32,1.58,6,6,0,0,1,1.55,4.37v1.74h-8.45a3.47,3.47,0,0,0,.9,2.38,3.2,3.2,0,0,0,2.37.85,10.06,10.06,0,0,0,2.24-.24,11.5,11.5,0,0,0,2.2-.79v2.77a8.29,8.29,0,0,1-2,.69A12.11,12.11,0,0,1,567,152.2Zm-.51-11a2.26,2.26,0,0,0-1.78.72,3.4,3.4,0,0,0-.74,2.05h5a3,3,0,0,0-.69-2.05A2.36,2.36,0,0,0,566.51,141.16Z"/><path class="cls-2" d="M583.18,152l-.69-1.78h-.1a5.33,5.33,0,0,1-1.85,1.57,5.91,5.91,0,0,1-2.49.44,4,4,0,0,1-3-1.08,4.1,4.1,0,0,1-1.09-3.07,3.45,3.45,0,0,1,1.46-3.07,8.44,8.44,0,0,1,4.4-1.1l2.27-.07v-.57a1.78,1.78,0,0,0-2-2,9.35,9.35,0,0,0-3.69.94l-1.18-2.41a10.65,10.65,0,0,1,5-1.18,6.23,6.23,0,0,1,4,1.15,4.21,4.21,0,0,1,1.4,3.49V152Zm-1.06-6.07-1.38,0a4.45,4.45,0,0,0-2.32.57,1.75,1.75,0,0,0-.76,1.57c0,1,.58,1.51,1.73,1.51a2.75,2.75,0,0,0,2-.72,2.48,2.48,0,0,0,.74-1.89Z"/><path class="cls-2" d="M594.47,149.35a7.59,7.59,0,0,0,2.25-.41v2.66a8,8,0,0,1-3.28.6,4,4,0,0,1-3.13-1.08,4.73,4.73,0,0,1-1-3.25v-6.32h-1.71V140l2-1.2,1-2.76h2.29v2.79h3.67v2.68h-3.67v6.32a1.38,1.38,0,0,0,.43,1.12A1.68,1.68,0,0,0,594.47,149.35Z"/><path class="cls-2" d="M604.89,152.2a6.79,6.79,0,0,1-4.95-1.74,6.63,6.63,0,0,1-1.78-5,7.27,7.27,0,0,1,1.65-5.09,5.84,5.84,0,0,1,4.55-1.8,5.78,5.78,0,0,1,4.32,1.58,6,6,0,0,1,1.55,4.37v1.74h-8.45a3.47,3.47,0,0,0,.9,2.38,3.19,3.19,0,0,0,2.37.85,10.06,10.06,0,0,0,2.24-.24,11.5,11.5,0,0,0,2.2-.79v2.77a8.29,8.29,0,0,1-2,.69A12.11,12.11,0,0,1,604.89,152.2Zm-.51-11a2.26,2.26,0,0,0-1.78.72,3.4,3.4,0,0,0-.74,2.05h5a3,3,0,0,0-.69-2.05A2.36,2.36,0,0,0,604.38,141.16Z"/><path class="cls-2" d="M621.87,148.08a3.63,3.63,0,0,1-1.4,3.07,6.94,6.94,0,0,1-4.19,1,13.13,13.13,0,0,1-2.44-.19,9.15,9.15,0,0,1-1.88-.57v-2.95a12.48,12.48,0,0,0,2.24.78,9.11,9.11,0,0,0,2.2.32c1.29,0,1.94-.38,1.94-1.13a.89.89,0,0,0-.26-.68,3.35,3.35,0,0,0-.89-.6q-.63-.33-1.68-.78a10.36,10.36,0,0,1-2.22-1.17,3.28,3.28,0,0,1-1-1.24,4.11,4.11,0,0,1-.32-1.71,3.08,3.08,0,0,1,1.36-2.7,6.55,6.55,0,0,1,3.83-1,10.86,10.86,0,0,1,4.61,1l-1.08,2.58c-.66-.28-1.27-.51-1.84-.69a5.76,5.76,0,0,0-1.75-.27c-1,0-1.58.28-1.58.85a1,1,0,0,0,.51.84,14.61,14.61,0,0,0,2.23,1,9.87,9.87,0,0,1,2.25,1.16,3.44,3.44,0,0,1,1.06,1.24A3.79,3.79,0,0,1,621.87,148.08Z"/><path class="cls-2" d="M629.77,149.35a7.59,7.59,0,0,0,2.25-.41v2.66a8,8,0,0,1-3.28.6,4,4,0,0,1-3.12-1.08,4.68,4.68,0,0,1-1-3.25v-6.32h-1.71V140l2-1.2,1-2.76h2.28v2.79h3.67v2.68h-3.67v6.32a1.38,1.38,0,0,0,.43,1.12A1.68,1.68,0,0,0,629.77,149.35Z"/><path class="cls-3" d="M656.09,152v-7.22a4.42,4.42,0,0,0-.36-2,1.25,1.25,0,0,0-1.17-.68A1.64,1.64,0,0,0,653,143a6.11,6.11,0,0,0-.49,2.82V152h-4.59v-7.22a4.42,4.42,0,0,0-.36-2,1.18,1.18,0,0,0-1.13-.68,1.65,1.65,0,0,0-1.57,1,7.37,7.37,0,0,0-.49,3.15V152h-4.59V138.69h3.46l.57,1.64h.27a3.5,3.5,0,0,1,1.53-1.39,5.23,5.23,0,0,1,2.28-.48c1.92,0,3.26.58,4,1.74h.37a3.75,3.75,0,0,1,1.56-1.28,5.21,5.21,0,0,1,2.21-.46,4.56,4.56,0,0,1,3.48,1.2,5.24,5.24,0,0,1,1.13,3.67V152Z"/><path class="cls-3" d="M672.84,152l-.57-1.65H672a3.83,3.83,0,0,1-1.6,1.4,5.63,5.63,0,0,1-2.41.48,4.49,4.49,0,0,1-3.41-1.27,5,5,0,0,1-1.22-3.59v-8.65h4.58v7.25a4.22,4.22,0,0,0,.37,2,1.28,1.28,0,0,0,1.22.67,1.76,1.76,0,0,0,1.68-.93,7,7,0,0,0,.51-3.15v-5.81h4.58V152Z"/><path class="cls-3" d="M689.31,147.89a3.76,3.76,0,0,1-1.45,3.22,6.85,6.85,0,0,1-4.18,1.09,17.33,17.33,0,0,1-2.56-.16,10.06,10.06,0,0,1-2.23-.58V147.8a13.66,13.66,0,0,0,2.34.77,10,10,0,0,0,2.27.3c1,0,1.49-.22,1.49-.68a.76.76,0,0,0-.42-.62,17.9,17.9,0,0,0-2.42-1.07,6.05,6.05,0,0,1-2.56-1.71,3.91,3.91,0,0,1-.72-2.42,3.33,3.33,0,0,1,1.43-2.88,6.8,6.8,0,0,1,4-1,10.27,10.27,0,0,1,2.47.28,14,14,0,0,1,2.39.84L688,142.53a14.18,14.18,0,0,0-1.93-.69,6.56,6.56,0,0,0-1.67-.29c-.75,0-1.12.18-1.12.55a.68.68,0,0,0,.39.58,20.54,20.54,0,0,0,2.27,1,8.94,8.94,0,0,1,2.08,1.12,3.4,3.4,0,0,1,1,1.3A4.65,4.65,0,0,1,689.31,147.89Z"/><path class="cls-3" d="M691.35,135.39a2,2,0,0,1,.57-1.54,3.68,3.68,0,0,1,3.72,0,1.94,1.94,0,0,1,.59,1.53c0,1.34-.82,2-2.45,2S691.35,136.73,691.35,135.39Zm4.7,16.58h-4.58V138.69h4.58Z"/><path class="cls-3" d="M704.89,152.2a6.5,6.5,0,0,1-4.94-1.76,7,7,0,0,1-1.68-5.05,6.93,6.93,0,0,1,1.81-5.12,7,7,0,0,1,5.17-1.81,9.71,9.71,0,0,1,4.35,1l-1.35,3.39c-.55-.24-1.07-.43-1.53-.58a5.13,5.13,0,0,0-1.47-.22,2,2,0,0,0-1.72.87,4.21,4.21,0,0,0-.61,2.45c0,2.13.78,3.19,2.35,3.19a7.12,7.12,0,0,0,3.87-1.17V151A7.54,7.54,0,0,1,704.89,152.2Z"/><path class="cls-3" d="M711.28,135.39a2,2,0,0,1,.57-1.54,2.75,2.75,0,0,1,1.85-.5,2.82,2.82,0,0,1,1.87.51,1.93,1.93,0,0,1,.58,1.53c0,1.34-.81,2-2.45,2S711.28,136.73,711.28,135.39ZM716,152h-4.59V138.69H716Z"/><path class="cls-3" d="M727.43,152l-.88-1.76h-.1a5.09,5.09,0,0,1-1.88,1.57,6.27,6.27,0,0,1-2.49.42,3.89,3.89,0,0,1-3-1.12,4.4,4.4,0,0,1-1.08-3.17,3.61,3.61,0,0,1,1.48-3.16,8,8,0,0,1,4.28-1.16l2.21-.07v-.19a1.44,1.44,0,0,0-1.62-1.64,9.79,9.79,0,0,0-3.69,1l-1.32-3a12.71,12.71,0,0,1,5.86-1.19,5.7,5.7,0,0,1,4,1.26,4.52,4.52,0,0,1,1.4,3.54V152Zm-3.4-3a2.07,2.07,0,0,0,1.42-.53,1.73,1.73,0,0,0,.59-1.37v-1l-1,0c-1.51.06-2.26.61-2.26,1.67C722.73,148.56,723.16,149,724,149Z"/><path class="cls-3" d="M741.69,152v-7.24a4.19,4.19,0,0,0-.38-2,1.3,1.3,0,0,0-1.22-.68,1.77,1.77,0,0,0-1.68.93,7.08,7.08,0,0,0-.52,3.18V152h-4.58V138.69h3.46l.57,1.64h.27a3.68,3.68,0,0,1,1.63-1.41,5.74,5.74,0,0,1,2.38-.46,4.54,4.54,0,0,1,3.43,1.27,5,5,0,0,1,1.22,3.6V152Z"/><path class="cls-3" d="M759.24,147.89a3.77,3.77,0,0,1-1.46,3.22,6.84,6.84,0,0,1-4.17,1.09A17.57,17.57,0,0,1,751,152a10.13,10.13,0,0,1-2.22-.58V147.8a13.66,13.66,0,0,0,2.34.77,9.91,9.91,0,0,0,2.26.3c1,0,1.49-.22,1.49-.68a.77.77,0,0,0-.41-.62,18.57,18.57,0,0,0-2.42-1.07,6.05,6.05,0,0,1-2.56-1.71,3.91,3.91,0,0,1-.73-2.42,3.35,3.35,0,0,1,1.43-2.88,6.85,6.85,0,0,1,4-1,10.24,10.24,0,0,1,2.46.28,14.37,14.37,0,0,1,2.4.84l-1.24,2.95a14.67,14.67,0,0,0-1.93-.69,6.56,6.56,0,0,0-1.67-.29c-.75,0-1.12.18-1.12.55a.68.68,0,0,0,.39.58,20.54,20.54,0,0,0,2.27,1,8.94,8.94,0,0,1,2.08,1.12,3.38,3.38,0,0,1,1,1.3A4.47,4.47,0,0,1,759.24,147.89Z"/><path class="cls-3" d="M760.8,150a2.12,2.12,0,0,1,.64-1.66,2.63,2.63,0,0,1,1.85-.59,2.48,2.48,0,0,1,1.78.59,2.47,2.47,0,0,1,0,3.31,2.54,2.54,0,0,1-1.77.59,2.65,2.65,0,0,1-1.83-.59A2.09,2.09,0,0,1,760.8,150Z"/></g></svg>