<svg xmlns="http://www.w3.org/2000/svg" viewBox="0 0 1200 628"><defs><style>.cls-1{fill:#ededec;}.cls-2{fill:#f77239;}</style></defs><g id="Text"><path class="cls-1" d="M174.84,131.51H164.26l-17.08-29.7h-.25q.51,7.86.51,11.22v18.48H140V92.25h10.5l17.05,29.4h.19q-.41-7.65-.41-10.82V92.25h7.5Z"/><path class="cls-1" d="M196.73,132.05q-7.24,0-11.33-4t-4.09-11.33q0-7.54,3.78-11.67t10.43-4.12q6.36,0,9.91,3.63t3.55,10v4H189.61a7.88,7.88,0,0,0,2.07,5.45,7.27,7.27,0,0,0,5.42,2,22.85,22.85,0,0,0,5.13-.56,25.87,25.87,0,0,0,5.05-1.8v6.33a19,19,0,0,1-4.59,1.6A28.87,28.87,0,0,1,196.73,132.05Zm-1.16-25.3a5.21,5.21,0,0,0-4.08,1.65,7.64,7.64,0,0,0-1.69,4.69h11.49a6.8,6.8,0,0,0-1.58-4.69A5.37,5.37,0,0,0,195.57,106.75Z"/><path class="cls-1" d="M242,116.44q0,7.34-3.87,11.47t-10.77,4.14a15,15,0,0,1-7.63-1.9,12.54,12.54,0,0,1-5.07-5.44,18.15,18.15,0,0,1-1.78-8.27q0-7.35,3.84-11.44t10.8-4.08a15.2,15.2,0,0,1,7.63,1.88,12.5,12.5,0,0,1,5.07,5.4A18.09,18.09,0,0,1,242,116.44Zm-20.76,0c0,3,.48,5.22,1.46,6.74a5.22,5.22,0,0,0,4.77,2.29,5.16,5.16,0,0,0,4.71-2.27q1.44-2.28,1.44-6.76c0-3-.49-5.2-1.45-6.68a6.17,6.17,0,0,0-9.48,0Q221.23,112,221.23,116.44Z"/><path class="cls-1" d="M260,132.05q-14,0-14-15.39,0-7.65,3.81-11.7t10.94-4a20.84,20.84,0,0,1,9.34,2l-2.42,6.34c-1.28-.52-2.48-.94-3.59-1.28a11.63,11.63,0,0,0-3.33-.49q-6.4,0-6.4,9.07,0,8.82,6.4,8.81a14.56,14.56,0,0,0,4.37-.63,15.78,15.78,0,0,0,4-2v7a13.11,13.11,0,0,1-4,1.74A22.75,22.75,0,0,1,260,132.05Z"/><path class="cls-1" d="M291.92,100.92a13.38,13.38,0,0,1,2.77.24l-.62,7.68a9.34,9.34,0,0,0-2.42-.27,8.71,8.71,0,0,0-6.11,2,7.27,7.27,0,0,0-2.19,5.64v15.28h-8.19v-30h6.21l1.2,5H283a11.34,11.34,0,0,1,3.77-4.07A9.37,9.37,0,0,1,291.92,100.92Z"/><path class="cls-1" d="M294.91,101.48h9l5.66,16.9a23,23,0,0,1,1,5.21h.16a22.74,22.74,0,0,1,1.15-5.21l5.56-16.9h8.78l-12.7,33.87a14.66,14.66,0,0,1-5,7,12.63,12.63,0,0,1-7.56,2.33,19.21,19.21,0,0,1-4.16-.45v-6.5a14.06,14.06,0,0,0,3.22.35,5.87,5.87,0,0,0,3.8-1.33,8.7,8.7,0,0,0,2.54-4l.48-1.48Z"/><path class="cls-1" d="M356.44,131.51h-8.19V114a8.87,8.87,0,0,0-1.09-4.87,3.83,3.83,0,0,0-3.43-1.63,5,5,0,0,0-4.56,2.31c-.95,1.54-1.42,4.08-1.42,7.6v14.13h-8.2v-30h6.26l1.1,3.85h.46a8.3,8.3,0,0,1,3.49-3.24,11.33,11.33,0,0,1,5.24-1.17q6.73,0,9.13,4.41H356a8.16,8.16,0,0,1,3.56-3.25,11.9,11.9,0,0,1,5.31-1.16q5.1,0,7.72,2.62t2.61,8.39v19.58h-8.21V114a8.87,8.87,0,0,0-1.09-4.87,3.82,3.82,0,0,0-3.42-1.63,5.11,5.11,0,0,0-4.5,2.15c-1,1.43-1.49,3.71-1.49,6.82Z"/><path class="cls-1" d="M395.63,93.72c0-2.66,1.48-4,4.46-4s4.45,1.34,4.45,4a3.91,3.91,0,0,1-1.11,3,4.67,4.67,0,0,1-3.34,1.06C397.11,97.75,395.63,96.41,395.63,93.72Zm8.54,37.79H396v-30h8.19Z"/><path class="cls-1" d="M432.77,122.59a8.26,8.26,0,0,1-3.2,7q-3.21,2.42-9.61,2.42a29.67,29.67,0,0,1-5.58-.45,21.16,21.16,0,0,1-4.33-1.3v-6.77a28.21,28.21,0,0,0,5.15,1.8,20.45,20.45,0,0,0,5,.73c3,0,4.46-.86,4.46-2.58a2.15,2.15,0,0,0-.59-1.57,8.2,8.2,0,0,0-2-1.37c-1-.51-2.26-1.11-3.87-1.79a24.35,24.35,0,0,1-5.09-2.68,7.59,7.59,0,0,1-2.36-2.84,9.34,9.34,0,0,1-.74-3.93,7.15,7.15,0,0,1,3.1-6.19q3.11-2.19,8.8-2.19a25,25,0,0,1,10.55,2.36L430,109.19c-1.5-.64-2.91-1.17-4.21-1.58a13.37,13.37,0,0,0-4-.62c-2.41,0-3.62.65-3.62,2a2.32,2.32,0,0,0,1.17,1.91,32.3,32.3,0,0,0,5.11,2.39,23.41,23.41,0,0,1,5.16,2.66,7.89,7.89,0,0,1,2.42,2.84A8.92,8.92,0,0,1,432.77,122.59Z"/><path class="cls-1" d="M470.65,131.51l-1.58-4.08h-.22a12.16,12.16,0,0,1-4.26,3.61,13.76,13.76,0,0,1-5.7,1,9.26,9.26,0,0,1-6.81-2.47c-1.66-1.65-2.48-4-2.48-7q0-4.79,3.34-7.05T463,113l5.21-.16V111.5c0-3-1.55-4.56-4.67-4.56a21.28,21.28,0,0,0-8.46,2.17l-2.71-5.53a24.38,24.38,0,0,1,11.49-2.71c4,0,7.12.87,9.27,2.63s3.22,4.42,3.22,8v20Zm-2.42-13.91-3.17.11a10.18,10.18,0,0,0-5.31,1.28,4,4,0,0,0-1.75,3.6q0,3.47,4,3.47a6.32,6.32,0,0,0,4.55-1.64,5.73,5.73,0,0,0,1.7-4.35Z"/><path class="cls-2" d="M514.92,100.54a15.45,15.45,0,0,1,2.6.22l.59.11-.94,9.91a15.09,15.09,0,0,0-3.57-.33c-2.29,0-4,.53-5,1.58a6.13,6.13,0,0,0-1.56,4.52v15h-10.5V101.08h7.81l1.64,4.86h.51a10.48,10.48,0,0,1,3.67-3.9A8.7,8.7,0,0,1,514.92,100.54Z"/><path class="cls-2" d="M536.11,132.05q-7.61,0-11.8-4.05t-4.2-11.5q0-7.71,3.89-11.83t11.12-4.13q6.87,0,10.62,3.59t3.75,10.33v4.67H530.71a5.25,5.25,0,0,0,1.87,4,7.3,7.3,0,0,0,4.8,1.45,23.05,23.05,0,0,0,5.08-.52,25.43,25.43,0,0,0,5-1.79v7.55a18.55,18.55,0,0,1-5.1,1.74A35.54,35.54,0,0,1,536.11,132.05Zm-.62-24.36a4.36,4.36,0,0,0-3.1,1.17,5.46,5.46,0,0,0-1.46,3.66h9A5.19,5.19,0,0,0,538.7,109,4.12,4.12,0,0,0,535.49,107.69Z"/><path class="cls-2" d="M568.34,132.05q-7.46,0-11.32-4t-3.85-11.58q0-7.57,4.16-11.73t11.85-4.17a22.18,22.18,0,0,1,10,2.31l-3.09,7.77a31.83,31.83,0,0,0-3.52-1.33,11.32,11.32,0,0,0-3.35-.5,4.53,4.53,0,0,0-3.95,2,9.65,9.65,0,0,0-1.4,5.61q0,7.31,5.4,7.3a16.32,16.32,0,0,0,8.86-2.68v8.35A17.25,17.25,0,0,1,568.34,132.05Z"/><path class="cls-2" d="M612.26,116.23q0,7.47-4,11.64T597,132.05q-6.93,0-11-4.27t-4.1-11.55q0-7.44,4-11.56t11.26-4.13a16.13,16.13,0,0,1,7.93,1.91,13,13,0,0,1,5.3,5.47A17.68,17.68,0,0,1,612.26,116.23Zm-19.72,0a13.47,13.47,0,0,0,1.05,6,3.65,3.65,0,0,0,3.52,2.06,3.54,3.54,0,0,0,3.45-2.06,14,14,0,0,0,1-6,13.25,13.25,0,0,0-1-5.88,4,4,0,0,0-7,0A13,13,0,0,0,592.54,116.23Z"/><path class="cls-2" d="M635.68,100.54a15.66,15.66,0,0,1,2.61.22l.59.11-.94,9.91a15.09,15.09,0,0,0-3.57-.33c-2.3,0-4,.53-5,1.58a6.13,6.13,0,0,0-1.56,4.52v15h-10.5V101.08h7.82l1.63,4.86h.52a10.38,10.38,0,0,1,3.66-3.9A8.75,8.75,0,0,1,635.68,100.54Z"/><path class="cls-2" d="M651.64,132.05a9.07,9.07,0,0,1-5.68-1.86,11.67,11.67,0,0,1-3.76-5.45,24.12,24.12,0,0,1-1.33-8.4c0-5,1-8.81,3-11.61a9.53,9.53,0,0,1,8.19-4.19,9.28,9.28,0,0,1,4.47,1A9.9,9.9,0,0,1,660,105h.21a50.43,50.43,0,0,1-.51-7.14V89.72H670.3v41.79h-7.92l-2.26-3.84h-.4A8.89,8.89,0,0,1,651.64,132.05Zm4.29-8.3a3.91,3.91,0,0,0,3.56-1.59,9.55,9.55,0,0,0,1.12-4.88v-.84q0-4-1.16-5.73a4.06,4.06,0,0,0-3.62-1.71,3.55,3.55,0,0,0-3.21,2,11.1,11.1,0,0,0-1.14,5.55,10.26,10.26,0,0,0,1.15,5.39A3.67,3.67,0,0,0,655.93,123.75Z"/><path class="cls-2" d="M700.47,131.51H690V89.72h10.5Z"/><path class="cls-2" d="M726.66,131.51l-2-4h-.21a12,12,0,0,1-4.32,3.6,14.39,14.39,0,0,1-5.7,1,8.91,8.91,0,0,1-6.76-2.58q-2.48-2.58-2.47-7.25c0-3.24,1.12-5.66,3.38-7.24s5.52-2.48,9.8-2.67l5.08-.16v-.43q0-3.77-3.71-3.76a22.21,22.21,0,0,0-8.46,2.25l-3-6.93q5.31-2.73,13.42-2.74,5.87,0,9.07,2.91t3.21,8.11v19.95Zm-7.79-6.88a4.74,4.74,0,0,0,3.26-1.2,4,4,0,0,0,1.36-3.15v-2.36l-2.42.11q-5.18.18-5.18,3.81C715.89,123.7,716.88,124.63,718.87,124.63Z"/><path class="cls-2" d="M758.73,100.54a9.13,9.13,0,0,1,7.88,4.17q2.91,4.16,2.92,11.52t-2.95,11.61a9.4,9.4,0,0,1-8.17,4.21,11.43,11.43,0,0,1-3-.37,8.76,8.76,0,0,1-2.35-1,12.31,12.31,0,0,1-2.4-2.15H750l-1.66,3h-8.2V89.72h10.51v9.45c0,1.13-.13,3.08-.38,5.83h.38a9,9,0,0,1,8.08-4.46Zm-3.84,8.25a3.59,3.59,0,0,0-3.22,1.53,8.85,8.85,0,0,0-1,4.81v1.47q0,3.74,1,5.36a3.64,3.64,0,0,0,3.33,1.63,3.09,3.09,0,0,0,2.84-1.9,12.2,12.2,0,0,0,1-5.57Q758.84,108.79,754.89,108.79Z"/><path class="cls-2" d="M789.27,132.05q-7.6,0-11.8-4.05t-4.21-11.5q0-7.71,3.9-11.83t11.12-4.13q6.87,0,10.62,3.59t3.74,10.33v4.67H783.87a5.19,5.19,0,0,0,1.87,4,7.29,7.29,0,0,0,4.79,1.45,23.08,23.08,0,0,0,5.09-.52,25.43,25.43,0,0,0,5-1.79v7.55a18.5,18.5,0,0,1-5.11,1.74A35.42,35.42,0,0,1,789.27,132.05Zm-.62-24.36a4.36,4.36,0,0,0-3.1,1.17,5.46,5.46,0,0,0-1.46,3.66h9a5.24,5.24,0,0,0-1.25-3.52A4.15,4.15,0,0,0,788.65,107.69Z"/><path class="cls-2" d="M818.14,131.51h-10.5V89.72h10.5Z"/><path class="cls-1" d="M152,191.52a17.7,17.7,0,0,0,5.16-.94v6.1a18.47,18.47,0,0,1-7.52,1.37q-4.92,0-7.16-2.49c-1.5-1.65-2.24-4.14-2.24-7.45V173.63h-3.92v-3.46l4.51-2.74,2.36-6.34h5.24v6.39h8.4v6.15h-8.4v14.48a3.19,3.19,0,0,0,1,2.58A3.89,3.89,0,0,0,152,191.52Z"/><path class="cls-1" d="M190,197.51h-8.2V180q0-6.5-4.83-6.5a5.5,5.5,0,0,0-5,2.34q-1.53,2.34-1.53,7.57v14.13H162.3V155.72h8.19v8.52c0,.66-.06,2.22-.19,4.67l-.18,2.42h.42q2.75-4.41,8.71-4.41,5.28,0,8,2.85c1.82,1.9,2.74,4.62,2.74,8.16Z"/><path class="cls-1" d="M216.58,197.51,215,193.43h-.22a12.16,12.16,0,0,1-4.26,3.61,13.76,13.76,0,0,1-5.7,1,9.26,9.26,0,0,1-6.81-2.47c-1.66-1.65-2.48-4-2.48-7s1.11-5.54,3.34-7,5.59-2.35,10.08-2.51l5.21-.16V177.5c0-3-1.55-4.56-4.67-4.56a21.28,21.28,0,0,0-8.46,2.17l-2.71-5.53a24.35,24.35,0,0,1,11.49-2.71c4,0,7.12.87,9.27,2.63s3.22,4.42,3.22,8v20Zm-2.42-13.91-3.17.11a10.18,10.18,0,0,0-5.31,1.28,4,4,0,0,0-1.75,3.6q0,3.47,4,3.47a6.32,6.32,0,0,0,4.55-1.64,5.77,5.77,0,0,0,1.7-4.35Z"/><path class="cls-1" d="M242.45,191.52a17.59,17.59,0,0,0,5.15-.94v6.1a18.41,18.41,0,0,1-7.52,1.37c-3.27,0-5.66-.83-7.15-2.49s-2.25-4.14-2.25-7.45V173.63h-3.92v-3.46l4.51-2.74,2.37-6.34h5.24v6.39h8.4v6.15h-8.4v14.48a3.19,3.19,0,0,0,1,2.58A3.87,3.87,0,0,0,242.45,191.52Z"/><path class="cls-1" d="M287.36,197.51l-1.1-3.84h-.43a8.62,8.62,0,0,1-3.73,3.23,12.66,12.66,0,0,1-5.51,1.15q-5.29,0-8-2.84c-1.79-1.89-2.68-4.6-2.68-8.15V167.48h8.19V185a8.45,8.45,0,0,0,1.15,4.88,4.21,4.21,0,0,0,3.68,1.62,5.53,5.53,0,0,0,5-2.3c1-1.53,1.53-4.06,1.53-7.61V167.48h8.19v30Z"/><path class="cls-1" d="M322.25,188.59a8.27,8.27,0,0,1-3.21,7q-3.21,2.42-9.6,2.42a29.71,29.71,0,0,1-5.59-.45,20.88,20.88,0,0,1-4.32-1.3v-6.77a28.1,28.1,0,0,0,5.14,1.8,20.59,20.59,0,0,0,5,.73q4.46,0,4.46-2.58a2.15,2.15,0,0,0-.59-1.57,8.5,8.5,0,0,0-2.05-1.37c-1-.51-2.25-1.11-3.86-1.79a24.09,24.09,0,0,1-5.09-2.68,7.62,7.62,0,0,1-2.37-2.84,9.35,9.35,0,0,1-.73-3.93,7.12,7.12,0,0,1,3.1-6.19q3.1-2.19,8.79-2.19a25.06,25.06,0,0,1,10.56,2.36l-2.47,5.91c-1.51-.64-2.91-1.17-4.22-1.58a13.31,13.31,0,0,0-4-.62c-2.42,0-3.63.65-3.63,2a2.32,2.32,0,0,0,1.17,1.91,33,33,0,0,0,5.12,2.39,23.53,23.53,0,0,1,5.15,2.66,7.79,7.79,0,0,1,2.42,2.84A8.77,8.77,0,0,1,322.25,188.59Z"/><path class="cls-1" d="M341.29,198.05q-7.25,0-11.33-4t-4.08-11.33q0-7.54,3.77-11.67t10.44-4.12q6.36,0,9.91,3.63t3.54,10v4H334.18a7.88,7.88,0,0,0,2.07,5.45,7.25,7.25,0,0,0,5.42,2,22.85,22.85,0,0,0,5.13-.56,26.34,26.34,0,0,0,5.05-1.8v6.33a19,19,0,0,1-4.59,1.6A28.91,28.91,0,0,1,341.29,198.05Zm-1.15-25.3a5.18,5.18,0,0,0-4.08,1.65,7.58,7.58,0,0,0-1.69,4.69h11.49a6.84,6.84,0,0,0-1.58-4.69A5.37,5.37,0,0,0,340.14,172.75Z"/><path class="cls-1" d="M380.21,188.59a8.27,8.27,0,0,1-3.21,7c-2.13,1.61-5.34,2.42-9.6,2.42a29.67,29.67,0,0,1-5.58-.45,21.16,21.16,0,0,1-4.33-1.3v-6.77a28.21,28.21,0,0,0,5.15,1.8,20.45,20.45,0,0,0,5,.73q4.45,0,4.46-2.58a2.15,2.15,0,0,0-.59-1.57,8.61,8.61,0,0,0-2-1.37c-1-.51-2.26-1.11-3.87-1.79a24.09,24.09,0,0,1-5.09-2.68,7.59,7.59,0,0,1-2.36-2.84,9.34,9.34,0,0,1-.74-3.93,7.12,7.12,0,0,1,3.1-6.19q3.1-2.19,8.8-2.19a25,25,0,0,1,10.55,2.36l-2.47,5.91c-1.5-.64-2.91-1.17-4.22-1.58a13.26,13.26,0,0,0-4-.62c-2.41,0-3.62.65-3.62,2a2.32,2.32,0,0,0,1.17,1.91,32.3,32.3,0,0,0,5.11,2.39,23.41,23.41,0,0,1,5.16,2.66,7.76,7.76,0,0,1,2.41,2.84A8.77,8.77,0,0,1,380.21,188.59Z"/><path class="cls-2" d="M418.2,197.51l-2-4H416a12,12,0,0,1-4.33,3.6,14.3,14.3,0,0,1-5.69,1,8.94,8.94,0,0,1-6.77-2.58,10.1,10.1,0,0,1-2.47-7.25c0-3.24,1.13-5.66,3.39-7.24s5.52-2.48,9.8-2.67l5.07-.16v-.43q0-3.76-3.7-3.76a22.21,22.21,0,0,0-8.46,2.25l-3-6.93q5.33-2.73,13.43-2.74c3.9,0,6.93,1,9.07,2.91s3.2,4.63,3.2,8.11v19.95Zm-7.79-6.88a4.74,4.74,0,0,0,3.26-1.2,4,4,0,0,0,1.36-3.15v-2.36l-2.42.11q-5.17.18-5.18,3.81C407.43,189.7,408.42,190.63,410.41,190.63Z"/><path class="cls-2" d="M450.05,166.54a15.66,15.66,0,0,1,2.61.22l.59.11-.94,9.91a15.09,15.09,0,0,0-3.57-.33c-2.3,0-4,.53-5,1.58a6.13,6.13,0,0,0-1.56,4.52v15h-10.5V167.08h7.82l1.64,4.86h.51a10.46,10.46,0,0,1,3.66-3.9A8.75,8.75,0,0,1,450.05,166.54Z"/><path class="cls-2" d="M471.46,189.75a15.58,15.58,0,0,0,5.08-1.05v7.65a20.77,20.77,0,0,1-4,1.31,23,23,0,0,1-4.5.39q-5.29,0-7.63-2.6c-1.56-1.72-2.34-4.38-2.34-8V175h-3.68v-4.27l4.68-3.3,2.71-6.39h6.87v6.09h7.47V175h-7.47v11.84C468.61,188.76,469.56,189.75,471.46,189.75Z"/><path class="cls-2" d="M480.71,159.51A4.42,4.42,0,0,1,482,156a8.35,8.35,0,0,1,8.51,0,4.39,4.39,0,0,1,1.35,3.49q0,4.62-5.62,4.62T480.71,159.51Zm10.76,38H481V167.08h10.5Z"/><path class="cls-2" d="M516.45,175H510v22.56h-10.5V175h-4v-5.16l4.25-2.57v-.51c0-4,.82-6.9,2.45-8.65s4.27-2.63,7.89-2.63a22.85,22.85,0,0,1,4,.32,30.43,30.43,0,0,1,4.33,1.13l-2.25,6.79a14,14,0,0,0-3.79-.54,2.07,2.07,0,0,0-1.76.74,4.18,4.18,0,0,0-.55,2.41v.8h6.47Zm3.93-15.44a4.42,4.42,0,0,1,1.31-3.52,8.35,8.35,0,0,1,8.51,0,4.39,4.39,0,0,1,1.35,3.49q0,4.62-5.62,4.62T520.38,159.51Zm10.76,38h-10.5V167.08h10.5Z"/><path class="cls-2" d="M551.37,198.05q-7.47,0-11.32-4t-3.85-11.58q0-7.58,4.16-11.73t11.84-4.17a22.22,22.22,0,0,1,10,2.31l-3.09,7.77a32.6,32.6,0,0,0-3.52-1.33,11.34,11.34,0,0,0-3.36-.5,4.52,4.52,0,0,0-3.94,2,9.57,9.57,0,0,0-1.4,5.61q0,7.31,5.4,7.3a16.32,16.32,0,0,0,8.86-2.68v8.35A17.25,17.25,0,0,1,551.37,198.05Z"/><path class="cls-2" d="M566,159.51a4.43,4.43,0,0,1,1.32-3.52,8.35,8.35,0,0,1,8.51,0,4.39,4.39,0,0,1,1.34,3.49q0,4.62-5.61,4.62C567.87,164.13,566,162.59,566,159.51Zm10.77,38h-10.5V167.08h10.5Z"/><path class="cls-2" d="M603,197.51l-2-4h-.22a11.91,11.91,0,0,1-4.32,3.6,14.34,14.34,0,0,1-5.69,1,8.93,8.93,0,0,1-6.77-2.58q-2.47-2.58-2.47-7.25c0-3.24,1.13-5.66,3.38-7.24s5.53-2.48,9.81-2.67l5.07-.16v-.43q0-3.76-3.7-3.76a22.17,22.17,0,0,0-8.46,2.25l-3-6.93q5.32-2.73,13.43-2.74,5.85,0,9.06,2.91t3.21,8.11v19.95Zm-7.78-6.88a4.76,4.76,0,0,0,3.26-1.2,4,4,0,0,0,1.36-3.15v-2.36l-2.42.11c-3.46.12-5.18,1.39-5.18,3.81C592.26,189.7,593.25,190.63,595.24,190.63Z"/><path class="cls-2" d="M627,197.51h-10.5V155.72H627Z"/><path class="cls-2" d="M646.49,159.51a4.43,4.43,0,0,1,1.32-3.52,8.35,8.35,0,0,1,8.51,0,4.42,4.42,0,0,1,1.34,3.49q0,4.62-5.61,4.62T646.49,159.51Zm10.77,38h-10.5V167.08h10.5Z"/><path class="cls-2" d="M682.86,197.51v-16.6a9.43,9.43,0,0,0-.88-4.58,3,3,0,0,0-2.8-1.54,4.07,4.07,0,0,0-3.84,2.12c-.79,1.42-1.18,3.84-1.18,7.28v13.32h-10.5V167.08h7.92l1.31,3.76h.62a8.34,8.34,0,0,1,3.72-3.22,13.12,13.12,0,0,1,5.47-1.08q5,0,7.85,2.93t2.81,8.25v19.79Z"/><path class="cls-2" d="M714.47,189.75a15.58,15.58,0,0,0,5.08-1.05v7.65a20.77,20.77,0,0,1-4,1.31,22.84,22.84,0,0,1-4.5.39q-5.29,0-7.63-2.6c-1.56-1.72-2.34-4.38-2.34-8V175h-3.67v-4.27l4.67-3.3,2.71-6.39h6.87v6.09h7.47V175h-7.47v11.84C711.62,188.76,712.57,189.75,714.47,189.75Z"/><path class="cls-2" d="M738.62,198.05q-7.61,0-11.8-4.05t-4.21-11.5q0-7.71,3.9-11.83t11.12-4.13q6.87,0,10.62,3.59T752,180.46v4.67H733.22a5.22,5.22,0,0,0,1.87,4,7.29,7.29,0,0,0,4.79,1.45,23.08,23.08,0,0,0,5.09-.52,25.43,25.43,0,0,0,5-1.79v7.55a18.5,18.5,0,0,1-5.11,1.74A35.42,35.42,0,0,1,738.62,198.05ZM738,173.69a4.36,4.36,0,0,0-3.1,1.17,5.46,5.46,0,0,0-1.46,3.66h9a5.24,5.24,0,0,0-1.25-3.52A4.14,4.14,0,0,0,738,173.69Z"/><path class="cls-2" d="M767.49,197.51H757V155.72h10.5Z"/><path class="cls-2" d="M784.34,197.51h-10.5V155.72h10.5Z"/><path class="cls-2" d="M790.46,159.51a4.43,4.43,0,0,1,1.32-3.52,8.35,8.35,0,0,1,8.51,0,4.39,4.39,0,0,1,1.35,3.49q0,4.62-5.61,4.62T790.46,159.51Zm10.77,38h-10.5V167.08h10.5Z"/><path class="cls-2" d="M836.34,167.08v5.08l-4.16,1.53a7.42,7.42,0,0,1,.86,3.62,9.15,9.15,0,0,1-3.45,7.63q-3.45,2.72-10.3,2.71a13.59,13.59,0,0,1-2.69-.21,2.77,2.77,0,0,0-.38,1.31c0,.52.43.92,1.27,1.2a10.68,10.68,0,0,0,3.3.42h5.05q10.23,0,10.23,8.62a9.76,9.76,0,0,1-4.74,8.64q-4.74,3.09-13.3,3.09-6.48,0-10-2.16a6.89,6.89,0,0,1-3.51-6.22q0-5.44,6.77-7a6.15,6.15,0,0,1-2.43-1.91,4.23,4.23,0,0,1-1-2.61,4.29,4.29,0,0,1,.77-2.51,11.79,11.79,0,0,1,3.26-2.59,8.1,8.1,0,0,1-3.72-3.27A10.23,10.23,0,0,1,806.8,177a9.38,9.38,0,0,1,3.38-7.71q3.39-2.73,9.67-2.74c.56,0,1.51.07,2.87.19s2.37.24,3,.35ZM813.41,201.3a2.35,2.35,0,0,0,1.39,2.08,7.56,7.56,0,0,0,3.74.79,16.28,16.28,0,0,0,6.1-.95c1.54-.64,2.3-1.46,2.3-2.46a1.78,1.78,0,0,0-1.4-1.71,12.53,12.53,0,0,0-4-.49h-4.11a5,5,0,0,0-2.86.79A2.3,2.3,0,0,0,813.41,201.3Zm3.3-24.26q0,4.68,3.25,4.68a2.69,2.69,0,0,0,2.32-1.16,6,6,0,0,0,.82-3.46q0-4.72-3.14-4.73T816.71,177Z"/><path class="cls-2" d="M854.71,198.05q-7.59,0-11.8-4.05t-4.2-11.5q0-7.71,3.89-11.83t11.12-4.13q6.87,0,10.62,3.59t3.75,10.33v4.67H849.32a5.21,5.21,0,0,0,1.86,4,7.31,7.31,0,0,0,4.8,1.45,23.15,23.15,0,0,0,5.09-.52,25.58,25.58,0,0,0,5-1.79v7.55a18.55,18.55,0,0,1-5.1,1.74A35.54,35.54,0,0,1,854.71,198.05Zm-.61-24.36a4.39,4.39,0,0,0-3.11,1.17,5.46,5.46,0,0,0-1.46,3.66h9a5.24,5.24,0,0,0-1.24-3.52A4.15,4.15,0,0,0,854.1,173.69Z"/><path class="cls-2" d="M892.29,197.51v-16.6a9.56,9.56,0,0,0-.87-4.58,3,3,0,0,0-2.81-1.54,4.07,4.07,0,0,0-3.84,2.12c-.79,1.42-1.18,3.84-1.18,7.28v13.32h-10.5V167.08H881l1.32,3.76h.61a8.34,8.34,0,0,1,3.72-3.22,13.12,13.12,0,0,1,5.47-1.08q5,0,7.85,2.93t2.81,8.25v19.79Z"/><path class="cls-2" d="M922.86,198.05q-7.47,0-11.32-4t-3.86-11.58q0-7.58,4.17-11.73t11.84-4.17a22.14,22.14,0,0,1,10,2.31l-3.09,7.77a31.83,31.83,0,0,0-3.52-1.33,11.32,11.32,0,0,0-3.35-.5,4.54,4.54,0,0,0-4,2,9.65,9.65,0,0,0-1.4,5.61q0,7.31,5.4,7.3a16.35,16.35,0,0,0,8.87-2.68v8.35A17.29,17.29,0,0,1,922.86,198.05Z"/><path class="cls-2" d="M952.4,198.05q-7.59,0-11.8-4.05t-4.2-11.5q0-7.71,3.89-11.83t11.12-4.13q6.87,0,10.62,3.59t3.75,10.33v4.67H947a5.25,5.25,0,0,0,1.87,4,7.29,7.29,0,0,0,4.79,1.45,23,23,0,0,0,5.09-.52,25.43,25.43,0,0,0,5-1.79v7.55a18.55,18.55,0,0,1-5.1,1.74A35.54,35.54,0,0,1,952.4,198.05Zm-.62-24.36a4.38,4.38,0,0,0-3.1,1.17,5.46,5.46,0,0,0-1.46,3.66h9A5.19,5.19,0,0,0,955,175,4.12,4.12,0,0,0,951.78,173.69Z"/><path class="cls-1" d="M152,257.52a17.7,17.7,0,0,0,5.16-.94v6.1a18.47,18.47,0,0,1-7.52,1.37q-4.92,0-7.16-2.49c-1.5-1.65-2.24-4.14-2.24-7.45V239.63h-3.92v-3.46l4.51-2.74,2.36-6.34h5.24v6.39h8.4v6.15h-8.4v14.48a3.19,3.19,0,0,0,1,2.58A3.89,3.89,0,0,0,152,257.52Z"/><path class="cls-1" d="M189.59,248.44q0,7.34-3.87,11.47T175,264.05a15,15,0,0,1-7.63-1.9,12.54,12.54,0,0,1-5.07-5.44,18.15,18.15,0,0,1-1.78-8.27q0-7.35,3.84-11.44t10.8-4.08a15.2,15.2,0,0,1,7.63,1.88,12.5,12.5,0,0,1,5.07,5.4A18.09,18.09,0,0,1,189.59,248.44Zm-20.76,0c0,3,.48,5.22,1.46,6.74a5.22,5.22,0,0,0,4.77,2.29,5.16,5.16,0,0,0,4.71-2.27q1.44-2.28,1.44-6.76c0-3-.49-5.2-1.45-6.68a6.17,6.17,0,0,0-9.48,0Q168.83,244,168.83,248.44Z"/><path class="cls-1" d="M225.37,239.63h-7.09v23.88h-8.19V239.63h-4.52v-3.94l4.52-2.21v-2.2c0-3.42.84-5.91,2.52-7.49s4.38-2.36,8.08-2.36a21.08,21.08,0,0,1,7.55,1.26l-2.09,6a15.56,15.56,0,0,0-4.57-.77,2.94,2.94,0,0,0-2.52,1,4.27,4.27,0,0,0-.78,2.64v1.88h7.09Zm4.35-13.91c0-2.66,1.48-4,4.46-4s4.45,1.34,4.45,4a3.91,3.91,0,0,1-1.11,3,4.67,4.67,0,0,1-3.34,1.06C231.2,229.75,229.72,228.41,229.72,225.72Zm8.54,37.79h-8.19v-30h8.19Z"/><path class="cls-1" d="M273.6,263.51h-8.19V246a8.42,8.42,0,0,0-1.15-4.87,4.19,4.19,0,0,0-3.68-1.63,5.54,5.54,0,0,0-5,2.3q-1.53,2.29-1.53,7.61v14.13h-8.19v-30h6.26l1.1,3.85h.45a8.71,8.71,0,0,1,3.78-3.29,12.72,12.72,0,0,1,5.46-1.12c3.49,0,6.14,1,7.95,2.83s2.71,4.62,2.71,8.18Z"/><path class="cls-1" d="M290.61,264.05a9.74,9.74,0,0,1-8.31-4.11q-3-4.11-3-11.39T282.35,237a10,10,0,0,1,8.47-4.12,9.8,9.8,0,0,1,8.65,4.41h.27a33.75,33.75,0,0,1-.62-6v-9.62h8.22v41.79h-6.28l-1.59-3.89h-.35A9.38,9.38,0,0,1,290.61,264.05Zm2.87-6.53a5.55,5.55,0,0,0,4.61-1.83c1-1.21,1.51-3.28,1.6-6.2v-.89q0-4.83-1.49-6.92c-1-1.4-2.61-2.1-4.85-2.1a4.82,4.82,0,0,0-4.26,2.32,12.42,12.42,0,0,0-1.52,6.76c0,3,.51,5.17,1.54,6.64A5,5,0,0,0,293.48,257.52Z"/><path class="cls-1" d="M347.39,263.51l-1.58-4.08h-.22a12.22,12.22,0,0,1-4.25,3.61,13.81,13.81,0,0,1-5.71,1,9.27,9.27,0,0,1-6.81-2.47c-1.66-1.65-2.48-4-2.48-7q0-4.78,3.34-7T339.76,245l5.21-.16V243.5c0-3-1.55-4.56-4.67-4.56a21.28,21.28,0,0,0-8.46,2.17l-2.71-5.53a24.38,24.38,0,0,1,11.49-2.71c4,0,7.12.87,9.27,2.63s3.22,4.42,3.22,8v20ZM345,249.6l-3.17.11a10.18,10.18,0,0,0-5.31,1.28,4,4,0,0,0-1.75,3.6q0,3.46,4,3.47a6.32,6.32,0,0,0,4.55-1.64,5.73,5.73,0,0,0,1.7-4.35Z"/><path class="cls-1" d="M388.32,263.51h-8.19V246A8.42,8.42,0,0,0,379,241.1a4.19,4.19,0,0,0-3.68-1.63,5.54,5.54,0,0,0-5,2.3q-1.53,2.29-1.53,7.61v14.13h-8.19v-30h6.26l1.1,3.85h.45A8.65,8.65,0,0,1,372.2,234a12.72,12.72,0,0,1,5.46-1.12c3.49,0,6.14,1,7.95,2.83s2.71,4.62,2.71,8.18Z"/><path class="cls-1" d="M405.33,264.05a9.74,9.74,0,0,1-8.31-4.11q-3-4.11-3-11.39T397.07,237a10,10,0,0,1,8.47-4.12,9.8,9.8,0,0,1,8.65,4.41h.27a33.75,33.75,0,0,1-.62-6v-9.62h8.22v41.79h-6.28l-1.59-3.89h-.35A9.38,9.38,0,0,1,405.33,264.05Zm2.87-6.53a5.55,5.55,0,0,0,4.61-1.83c1-1.21,1.51-3.28,1.6-6.2v-.89q0-4.83-1.49-6.92a5.55,5.55,0,0,0-4.85-2.1,4.82,4.82,0,0,0-4.26,2.32,12.42,12.42,0,0,0-1.52,6.76c0,3,.51,5.17,1.53,6.64A5,5,0,0,0,408.2,257.52Z"/><path class="cls-2" d="M460.63,264.05a9.52,9.52,0,0,1-7.76-3.52h-.48a38.83,38.83,0,0,1,.48,4v12.22h-10.5V233.08h8.54l1.48,3.87h.48a9.21,9.21,0,0,1,8.09-4.41,9.11,9.11,0,0,1,7.92,4.19q2.87,4.2,2.87,11.5t-3,11.59A9.46,9.46,0,0,1,460.63,264.05Zm-3.51-23.26a3.4,3.4,0,0,0-3.24,1.65,10.88,10.88,0,0,0-1,4.9v.83q0,3.93,1.05,5.67a3.58,3.58,0,0,0,3.3,1.75,3.07,3.07,0,0,0,2.93-1.74,13.07,13.07,0,0,0,.91-5.73,12.71,12.71,0,0,0-.91-5.63A3.18,3.18,0,0,0,457.12,240.79Z"/><path class="cls-2" d="M495.17,232.54a15.48,15.48,0,0,1,2.61.22l.59.11-.94,9.91a15.09,15.09,0,0,0-3.57-.33q-3.44,0-5,1.58a6.12,6.12,0,0,0-1.55,4.52v15H476.8V233.08h7.82l1.64,4.86h.51a10.54,10.54,0,0,1,3.66-3.9A8.75,8.75,0,0,1,495.17,232.54Z"/><path class="cls-2" d="M530.74,248.23q0,7.47-4,11.64t-11.24,4.18q-6.93,0-11-4.27t-4.1-11.55q0-7.44,4-11.56t11.26-4.13a16.13,16.13,0,0,1,7.93,1.91,13,13,0,0,1,5.3,5.47A17.68,17.68,0,0,1,530.74,248.23Zm-19.72,0a13.47,13.47,0,0,0,1.05,6,3.65,3.65,0,0,0,3.52,2.06A3.54,3.54,0,0,0,519,254.2a14,14,0,0,0,1-6,13.25,13.25,0,0,0-1-5.88,4,4,0,0,0-7,0A13,13,0,0,0,511,248.23Z"/><path class="cls-2" d="M573.15,263.51V247a10,10,0,0,0-.85-4.64,2.82,2.82,0,0,0-2.67-1.54,3.77,3.77,0,0,0-3.55,2.07c-.75,1.38-1.12,3.53-1.12,6.47v14.18H554.43V247a10.34,10.34,0,0,0-.81-4.64,2.72,2.72,0,0,0-2.6-1.54,3.77,3.77,0,0,0-3.6,2.2q-1.12,2.2-1.13,7.2v13.32h-10.5V233.08h7.92l1.32,3.76h.62a7.81,7.81,0,0,1,3.5-3.19,11.84,11.84,0,0,1,5.22-1.11q6.58,0,9.24,4h.84a8.43,8.43,0,0,1,3.58-2.94,11.89,11.89,0,0,1,5.06-1.07c3.6,0,6.26.93,8,2.77s2.58,4.65,2.58,8.41v19.79Z"/><path class="cls-2" d="M618.91,248.23q0,7.47-4,11.64t-11.24,4.18q-6.93,0-11-4.27t-4.09-11.55q0-7.44,4-11.56t11.27-4.13a16.06,16.06,0,0,1,7.92,1.91,13,13,0,0,1,5.3,5.47A17.56,17.56,0,0,1,618.91,248.23Zm-19.71,0a13.47,13.47,0,0,0,1,6,3.65,3.65,0,0,0,3.52,2.06,3.56,3.56,0,0,0,3.45-2.06,14,14,0,0,0,1-6,13.25,13.25,0,0,0-1-5.88,4,4,0,0,0-7,0A13,13,0,0,0,599.2,248.23Z"/><path class="cls-2" d="M638.87,255.75A15.58,15.58,0,0,0,644,254.7v7.65a20.85,20.85,0,0,1-4.05,1.31,22.81,22.81,0,0,1-4.49.39q-5.29,0-7.63-2.6c-1.56-1.72-2.34-4.38-2.34-8V241h-3.68v-4.27l4.68-3.3,2.71-6.39H636v6.09h7.47V241H636v11.84C636,254.76,637,255.75,638.87,255.75Z"/><path class="cls-2" d="M663,264.05q-7.6,0-11.8-4.05T647,248.5q0-7.71,3.9-11.83T662,232.54q6.87,0,10.62,3.59t3.74,10.33v4.67H657.62a5.19,5.19,0,0,0,1.87,4,7.29,7.29,0,0,0,4.79,1.45,23.15,23.15,0,0,0,5.09-.52,25.43,25.43,0,0,0,5-1.79v7.55a18.5,18.5,0,0,1-5.11,1.74A35.42,35.42,0,0,1,663,264.05Zm-.62-24.36a4.36,4.36,0,0,0-3.1,1.17,5.46,5.46,0,0,0-1.46,3.66h9a5.24,5.24,0,0,0-1.25-3.52A4.15,4.15,0,0,0,662.4,239.69Z"/><path class="cls-1" d="M152,323.52a17.7,17.7,0,0,0,5.16-.94v6.1a18.47,18.47,0,0,1-7.52,1.37q-4.92,0-7.16-2.49c-1.5-1.65-2.24-4.14-2.24-7.45V305.63h-3.92v-3.46l4.51-2.74,2.36-6.34h5.24v6.39h8.4v6.15h-8.4v14.48a3.19,3.19,0,0,0,1,2.58A3.89,3.89,0,0,0,152,323.52Z"/><path class="cls-1" d="M190,329.51h-8.2V312q0-6.5-4.83-6.5a5.5,5.5,0,0,0-5,2.34q-1.53,2.34-1.53,7.57v14.13H162.3V287.72h8.19v8.52c0,.66-.06,2.22-.19,4.67l-.18,2.42h.42q2.75-4.41,8.71-4.41,5.28,0,8,2.85c1.82,1.9,2.74,4.62,2.74,8.16Z"/><path class="cls-1" d="M211.1,330.05q-7.24,0-11.33-4t-4.08-11.33q0-7.54,3.77-11.67t10.43-4.12q6.38,0,9.91,3.63t3.55,10v4H204a7.88,7.88,0,0,0,2.07,5.45,7.27,7.27,0,0,0,5.43,2,22.85,22.85,0,0,0,5.13-.56,26.34,26.34,0,0,0,5-1.8v6.33a19.27,19.27,0,0,1-4.6,1.6A28.8,28.8,0,0,1,211.1,330.05ZM210,304.75a5.22,5.22,0,0,0-4.09,1.65,7.71,7.71,0,0,0-1.69,4.69h11.5a6.85,6.85,0,0,0-1.59-4.69A5.36,5.36,0,0,0,210,304.75Z"/><path class="cls-1" d="M267.11,329.51,264.79,319l-3.11-13.27h-.19L256,329.51h-8.8l-8.54-30h8.16l3.46,13.3c.56,2.38,1.12,5.66,1.7,9.85h.16a53.94,53.94,0,0,1,.94-6.47l.43-2.28,3.7-14.4h9l3.51,14.4c.07.39.19,1,.34,1.74s.3,1.59.44,2.46.28,1.72.39,2.55a17.52,17.52,0,0,1,.2,2h.16c.17-1.29.45-3.05.86-5.3s.71-3.76.89-4.55l3.6-13.3h8l-8.65,30Z"/><path class="cls-1" d="M315.85,314.44q0,7.33-3.86,11.47t-10.77,4.14a15,15,0,0,1-7.63-1.9,12.62,12.62,0,0,1-5.08-5.44,18.28,18.28,0,0,1-1.77-8.27q0-7.35,3.84-11.44t10.8-4.08A15.16,15.16,0,0,1,309,300.8a12.46,12.46,0,0,1,5.08,5.4A18.09,18.09,0,0,1,315.85,314.44Zm-20.76,0c0,3,.49,5.22,1.47,6.74a6.07,6.07,0,0,0,9.48,0c1-1.52,1.43-3.77,1.43-6.76s-.48-5.2-1.45-6.68a6.17,6.17,0,0,0-9.48,0C295.58,309.22,295.09,311.45,295.09,314.44Z"/><path class="cls-1" d="M338.44,298.92a13.38,13.38,0,0,1,2.77.24l-.62,7.68a9.34,9.34,0,0,0-2.42-.27,8.67,8.67,0,0,0-6.1,2,7.27,7.27,0,0,0-2.19,5.64v15.28h-8.19v-30h6.2l1.21,5h.4a11.34,11.34,0,0,1,3.77-4.07A9.4,9.4,0,0,1,338.44,298.92Z"/><path class="cls-1" d="M353.92,329.51h-8.19V287.72h8.19Z"/><path class="cls-1" d="M371.08,330.05a9.75,9.75,0,0,1-8.31-4.11q-3-4.11-3-11.39T362.82,303a10,10,0,0,1,8.48-4.12,9.81,9.81,0,0,1,8.65,4.41h.26a33.65,33.65,0,0,1-.61-6v-9.62h8.21v41.79h-6.28L380,325.62h-.35A9.39,9.39,0,0,1,371.08,330.05Zm2.88-6.53a5.53,5.53,0,0,0,4.6-1.83q1.47-1.81,1.6-6.2v-.89q0-4.83-1.49-6.92t-4.85-2.1a4.85,4.85,0,0,0-4.26,2.32q-1.51,2.33-1.51,6.76c0,2.95.51,5.17,1.53,6.64A5,5,0,0,0,374,323.52Z"/><path class="cls-1" d="M402.05,290.25l.38.59a82.87,82.87,0,0,1-4.73,12.86h-5.88q1.85-7.95,2.69-13.45Z"/><path class="cls-1" d="M427.38,320.59a8.27,8.27,0,0,1-3.21,7q-3.21,2.42-9.6,2.42a29.67,29.67,0,0,1-5.58-.45,21,21,0,0,1-4.33-1.3v-6.77a28.1,28.1,0,0,0,5.14,1.8,20.59,20.59,0,0,0,5,.73q4.46,0,4.46-2.58a2.15,2.15,0,0,0-.59-1.57,8.61,8.61,0,0,0-2-1.37c-1-.51-2.26-1.11-3.87-1.79a24.09,24.09,0,0,1-5.09-2.68,7.59,7.59,0,0,1-2.36-2.84,9.19,9.19,0,0,1-.74-3.93,7.12,7.12,0,0,1,3.1-6.19q3.1-2.19,8.79-2.19a25.06,25.06,0,0,1,10.56,2.36l-2.47,5.91c-1.51-.64-2.91-1.17-4.22-1.58a13.31,13.31,0,0,0-4-.62c-2.42,0-3.62.65-3.62,2a2.31,2.31,0,0,0,1.16,1.91,33,33,0,0,0,5.12,2.39,23.65,23.65,0,0,1,5.16,2.66,7.86,7.86,0,0,1,2.41,2.84A8.77,8.77,0,0,1,427.38,320.59Z"/><path class="cls-1" d="M472.32,299.48v4.17l-4.7,1.21a8.16,8.16,0,0,1,1.29,4.51,9.1,9.1,0,0,1-3.37,7.53q-3.37,2.7-9.36,2.7l-1.48-.08-1.21-.14a2.75,2.75,0,0,0-1.26,2.15c0,1.18,1.51,1.78,4.51,1.78h5.11c3.29,0,5.8.7,7.53,2.12a7.57,7.57,0,0,1,2.59,6.23,9.22,9.22,0,0,1-4.39,8.16q-4.4,2.9-12.61,2.9-6.29,0-9.6-2.19a7,7,0,0,1-3.32-6.13,6.43,6.43,0,0,1,1.7-4.54,9.56,9.56,0,0,1,5-2.61,5.4,5.4,0,0,1-2.2-1.76,4.13,4.13,0,0,1-.94-2.59,4.18,4.18,0,0,1,1-2.86,11.4,11.4,0,0,1,2.87-2.24,8.06,8.06,0,0,1-3.75-3.28,10,10,0,0,1-1.38-5.31,9.38,9.38,0,0,1,3.2-7.6q3.19-2.69,9.13-2.69a23.7,23.7,0,0,1,3,.23c1.16.15,1.89.26,2.22.33Zm-23.18,34.27a3,3,0,0,0,1.63,2.66,8.87,8.87,0,0,0,4.55,1,16.17,16.17,0,0,0,6.9-1.21c1.67-.81,2.5-1.91,2.5-3.3a2.34,2.34,0,0,0-1.48-2.34,12,12,0,0,0-4.56-.65h-4.25a6.4,6.4,0,0,0-3.77,1.07A3.26,3.26,0,0,0,449.14,333.75Zm3-24.44a6.14,6.14,0,0,0,1.12,3.87,4,4,0,0,0,3.4,1.42,4,4,0,0,0,3.38-1.42,6.26,6.26,0,0,0,1.07-3.87q0-5.42-4.45-5.42T452.12,309.31Z"/><path class="cls-1" d="M493.08,298.92a13.25,13.25,0,0,1,2.77.24l-.62,7.68a9.26,9.26,0,0,0-2.41-.27,8.69,8.69,0,0,0-6.11,2,7.27,7.27,0,0,0-2.19,5.64v15.28h-8.19v-30h6.2l1.21,5h.4a11.28,11.28,0,0,1,3.78-4.07A9.34,9.34,0,0,1,493.08,298.92Z"/><path class="cls-1" d="M514,330.05c-4.84,0-8.61-1.34-11.34-4s-4.08-6.44-4.08-11.33,1.26-8.92,3.77-11.67,6-4.12,10.44-4.12q6.36,0,9.91,3.63t3.54,10v4H506.84a7.88,7.88,0,0,0,2.07,5.45,7.27,7.27,0,0,0,5.42,2,22.85,22.85,0,0,0,5.13-.56,26.1,26.1,0,0,0,5-1.8v6.33a19,19,0,0,1-4.59,1.6A28.87,28.87,0,0,1,514,330.05Zm-1.16-25.3a5.2,5.2,0,0,0-4.08,1.65,7.58,7.58,0,0,0-1.69,4.69h11.49a6.8,6.8,0,0,0-1.58-4.69A5.37,5.37,0,0,0,512.8,304.75Z"/><path class="cls-1" d="M551,329.51l-1.58-4.08h-.21a12.16,12.16,0,0,1-4.26,3.61,13.78,13.78,0,0,1-5.71,1,9.27,9.27,0,0,1-6.81-2.47q-2.48-2.47-2.48-7,0-4.79,3.34-7.05T543.37,311l5.21-.16V309.5q0-4.56-4.68-4.56a21.27,21.27,0,0,0-8.45,2.17l-2.72-5.53a24.42,24.42,0,0,1,11.5-2.71c4,0,7.11.87,9.26,2.63s3.22,4.42,3.22,8v20Zm-2.41-13.91-3.17.11a10.25,10.25,0,0,0-5.32,1.28,4.06,4.06,0,0,0-1.74,3.6q0,3.46,4,3.47a6.3,6.3,0,0,0,4.55-1.64,5.74,5.74,0,0,0,1.71-4.35Z"/><path class="cls-1" d="M576.86,323.52a17.7,17.7,0,0,0,5.16-.94v6.1a18.44,18.44,0,0,1-7.52,1.37c-3.28,0-5.66-.83-7.16-2.49s-2.24-4.14-2.24-7.45V305.63h-3.92v-3.46l4.51-2.74,2.36-6.34h5.24v6.39h8.41v6.15h-8.41v14.48a3.23,3.23,0,0,0,1,2.58A3.89,3.89,0,0,0,576.86,323.52Z"/><path class="cls-1" d="M600.74,330.05q-7.25,0-11.33-4t-4.08-11.33q0-7.54,3.77-11.67t10.43-4.12q6.38,0,9.91,3.63t3.55,10v4H593.62a7.88,7.88,0,0,0,2.07,5.45,7.27,7.27,0,0,0,5.43,2,22.92,22.92,0,0,0,5.13-.56,26,26,0,0,0,5-1.8v6.33a19,19,0,0,1-4.59,1.6A28.8,28.8,0,0,1,600.74,330.05Zm-1.15-25.3a5.22,5.22,0,0,0-4.09,1.65,7.71,7.71,0,0,0-1.69,4.69h11.5a6.85,6.85,0,0,0-1.59-4.69A5.36,5.36,0,0,0,599.59,304.75Z"/><path class="cls-1" d="M639.66,320.59a8.27,8.27,0,0,1-3.21,7q-3.21,2.42-9.6,2.42a29.78,29.78,0,0,1-5.59-.45,20.88,20.88,0,0,1-4.32-1.3v-6.77a28.1,28.1,0,0,0,5.14,1.8,20.59,20.59,0,0,0,5,.73q4.46,0,4.46-2.58a2.15,2.15,0,0,0-.59-1.57,8.61,8.61,0,0,0-2-1.37c-1-.51-2.26-1.11-3.87-1.79a24.09,24.09,0,0,1-5.09-2.68,7.62,7.62,0,0,1-2.37-2.84,9.35,9.35,0,0,1-.73-3.93,7.12,7.12,0,0,1,3.1-6.19q3.1-2.19,8.79-2.19a25.06,25.06,0,0,1,10.56,2.36l-2.47,5.91c-1.51-.64-2.91-1.17-4.22-1.58a13.31,13.31,0,0,0-4-.62c-2.42,0-3.63.65-3.63,2a2.32,2.32,0,0,0,1.17,1.91,33,33,0,0,0,5.12,2.39,23.53,23.53,0,0,1,5.15,2.66,7.79,7.79,0,0,1,2.42,2.84A8.77,8.77,0,0,1,639.66,320.59Z"/><path class="cls-1" d="M657.77,323.52a17.59,17.59,0,0,0,5.15-.94v6.1a18.41,18.41,0,0,1-7.52,1.37c-3.27,0-5.66-.83-7.15-2.49s-2.25-4.14-2.25-7.45V305.63h-3.92v-3.46l4.51-2.74,2.37-6.34h5.23v6.39h8.41v6.15h-8.41v14.48a3.23,3.23,0,0,0,1,2.58A3.92,3.92,0,0,0,657.77,323.52Z"/><path class="cls-2" d="M718.09,329.51V313a10,10,0,0,0-.84-4.64,2.84,2.84,0,0,0-2.68-1.54,3.75,3.75,0,0,0-3.54,2.07c-.75,1.38-1.13,3.53-1.13,6.47v14.18H699.38V313a10.34,10.34,0,0,0-.81-4.64,2.73,2.73,0,0,0-2.61-1.54,3.76,3.76,0,0,0-3.59,2.2c-.76,1.47-1.13,3.87-1.13,7.2v13.32h-10.5V299.08h7.92l1.31,3.76h.62a7.89,7.89,0,0,1,3.51-3.19,11.84,11.84,0,0,1,5.22-1.11q6.58,0,9.24,4h.83a8.52,8.52,0,0,1,3.59-2.94,11.89,11.89,0,0,1,5.06-1.07c3.6,0,6.26.93,8,2.77s2.57,4.65,2.57,8.41v19.79Z"/><path class="cls-2" d="M756.47,329.51l-1.31-3.79h-.62a8.54,8.54,0,0,1-3.66,3.21,12.83,12.83,0,0,1-5.52,1.12q-5,0-7.82-2.92t-2.79-8.23V299.08h10.5v16.63a9.62,9.62,0,0,0,.84,4.51,2.94,2.94,0,0,0,2.78,1.53,4,4,0,0,0,3.87-2.14q1.15-2.13,1.16-7.21V299.08h10.5v30.43Z"/><path class="cls-2" d="M794.21,320.16q0,4.89-3.33,7.39t-9.56,2.5a41.56,41.56,0,0,1-5.88-.37,24.32,24.32,0,0,1-5.1-1.33V320a30.51,30.51,0,0,0,5.35,1.77,22.44,22.44,0,0,0,5.2.7c2.27,0,3.41-.52,3.41-1.56a1.78,1.78,0,0,0-.95-1.44A45.12,45.12,0,0,0,777.8,317a13.85,13.85,0,0,1-5.85-3.91,8.91,8.91,0,0,1-1.67-5.55,7.69,7.69,0,0,1,3.28-6.6q3.27-2.37,9.26-2.37a23.36,23.36,0,0,1,5.66.66,34.05,34.05,0,0,1,5.49,1.92l-2.85,6.77a31.77,31.77,0,0,0-4.43-1.6,14.73,14.73,0,0,0-3.81-.66c-1.72,0-2.58.43-2.58,1.27a1.58,1.58,0,0,0,.9,1.33,50.89,50.89,0,0,0,5.19,2.24,19.8,19.8,0,0,1,4.77,2.58,7.69,7.69,0,0,1,2.31,3A10.48,10.48,0,0,1,794.21,320.16Z"/><path class="cls-2" d="M798.89,291.51a4.43,4.43,0,0,1,1.32-3.52,8.35,8.35,0,0,1,8.51,0,4.42,4.42,0,0,1,1.34,3.49q0,4.62-5.61,4.62T798.89,291.51Zm10.77,38h-10.5V299.08h10.5Z"/><path class="cls-2" d="M829.91,330.05q-7.47,0-11.32-4t-3.85-11.58q0-7.57,4.16-11.73t11.84-4.17a22.22,22.22,0,0,1,10,2.31l-3.09,7.77a32.6,32.6,0,0,0-3.52-1.33,11.34,11.34,0,0,0-3.36-.5,4.55,4.55,0,0,0-4,2,9.73,9.73,0,0,0-1.39,5.61q0,7.31,5.4,7.3a16.32,16.32,0,0,0,8.86-2.68v8.35A17.25,17.25,0,0,1,829.91,330.05Z"/><path class="cls-2" d="M844.55,291.51a4.43,4.43,0,0,1,1.32-3.52,8.35,8.35,0,0,1,8.51,0,4.39,4.39,0,0,1,1.34,3.49q0,4.62-5.61,4.62C846.41,296.13,844.55,294.59,844.55,291.51Zm10.77,38h-10.5V299.08h10.5Z"/><path class="cls-2" d="M881.56,329.51l-2-4h-.21a12,12,0,0,1-4.33,3.6,14.34,14.34,0,0,1-5.69,1,8.94,8.94,0,0,1-6.77-2.58q-2.47-2.58-2.47-7.25c0-3.24,1.13-5.66,3.38-7.24s5.53-2.48,9.81-2.67l5.07-.16v-.43q0-3.77-3.7-3.76a22.21,22.21,0,0,0-8.46,2.25l-3-6.93q5.33-2.73,13.43-2.74,5.85,0,9.06,2.91t3.21,8.11v19.95Zm-7.78-6.88a4.76,4.76,0,0,0,3.26-1.2,4,4,0,0,0,1.36-3.15v-2.36L876,316c-3.46.12-5.18,1.39-5.18,3.81C870.8,321.7,871.79,322.63,873.78,322.63Z"/><path class="cls-2" d="M914.25,329.51v-16.6a9.56,9.56,0,0,0-.87-4.58,3,3,0,0,0-2.81-1.54,4.07,4.07,0,0,0-3.84,2.12c-.78,1.42-1.18,3.84-1.18,7.28v13.32h-10.5V299.08H903l1.32,3.76h.62a8.24,8.24,0,0,1,3.72-3.22,13,13,0,0,1,5.46-1.08q5.05,0,7.86,2.93t2.8,8.25v19.79Z"/><path class="cls-2" d="M954.46,320.16q0,4.89-3.33,7.39t-9.56,2.5a41.56,41.56,0,0,1-5.88-.37,24.32,24.32,0,0,1-5.1-1.33V320a30.51,30.51,0,0,0,5.35,1.77,22.44,22.44,0,0,0,5.2.7c2.27,0,3.41-.52,3.41-1.56a1.78,1.78,0,0,0-.95-1.44,45.12,45.12,0,0,0-5.55-2.45,13.85,13.85,0,0,1-5.85-3.91,8.91,8.91,0,0,1-1.67-5.55,7.66,7.66,0,0,1,3.28-6.6q3.27-2.37,9.26-2.37a23.36,23.36,0,0,1,5.66.66,34.05,34.05,0,0,1,5.49,1.92l-2.85,6.77a31.77,31.77,0,0,0-4.43-1.6,14.73,14.73,0,0,0-3.81-.66c-1.72,0-2.58.43-2.58,1.27a1.58,1.58,0,0,0,.9,1.33,50.89,50.89,0,0,0,5.19,2.24,19.8,19.8,0,0,1,4.77,2.58,7.69,7.69,0,0,1,2.31,3A10.48,10.48,0,0,1,954.46,320.16Z"/><path class="cls-2" d="M958,325.05a4.88,4.88,0,0,1,1.46-3.81,6.07,6.07,0,0,1,4.26-1.35,5.71,5.71,0,0,1,4.08,1.35,5,5,0,0,1,1.42,3.81,4.9,4.9,0,0,1-1.46,3.77,5.71,5.71,0,0,1-4,1.36,6.15,6.15,0,0,1-4.19-1.34A4.78,4.78,0,0,1,958,325.05Z"/><path class="cls-1" d="M178.25,461.51h-9.48l-5.32-20.63c-.2-.73-.53-2.25-1-4.55s-.74-3.84-.82-4.63c-.1,1-.37,2.52-.8,4.66s-.76,3.66-1,4.58l-5.29,20.57h-9.45l-10-39.26h8.19l5,21.43q1.31,5.93,1.9,10.28c.11-1,.36-2.6.74-4.74s.75-3.8,1.09-5l5.72-22h7.87l5.72,22c.25,1,.56,2.49.94,4.51s.66,3.76.86,5.21c.18-1.39.46-3.13.86-5.22s.75-3.77,1.07-5.06l5-21.43h8.19Z"/><path class="cls-1" d="M210.67,461.51l-1.59-4.08h-.21a12.16,12.16,0,0,1-4.26,3.61,13.78,13.78,0,0,1-5.71,1,9.23,9.23,0,0,1-6.8-2.47q-2.49-2.47-2.49-7,0-4.79,3.35-7.05c2.22-1.51,5.59-2.35,10.08-2.51l5.21-.16V441.5q0-4.56-4.67-4.56a21.28,21.28,0,0,0-8.46,2.17l-2.71-5.53a24.35,24.35,0,0,1,11.49-2.71c4,0,7.12.87,9.26,2.63s3.23,4.42,3.23,8v20Zm-2.42-13.91-3.17.11a10.25,10.25,0,0,0-5.32,1.28,4.06,4.06,0,0,0-1.74,3.6q0,3.46,4,3.47a6.29,6.29,0,0,0,4.55-1.64,5.74,5.74,0,0,0,1.71-4.35Z"/><path class="cls-1" d="M251.6,461.51h-8.19V444a8.41,8.41,0,0,0-1.16-4.87,4.18,4.18,0,0,0-3.68-1.63,5.52,5.52,0,0,0-5,2.3q-1.53,2.3-1.53,7.61v14.13h-8.2v-30h6.26l1.1,3.85h.46a8.63,8.63,0,0,1,3.77-3.29,12.79,12.79,0,0,1,5.47-1.12c3.49,0,6.14.95,7.95,2.83s2.71,4.62,2.71,8.18Z"/><path class="cls-1" d="M271.75,455.52a17.59,17.59,0,0,0,5.15-.94v6.1a18.44,18.44,0,0,1-7.52,1.37c-3.27,0-5.66-.83-7.15-2.49s-2.25-4.14-2.25-7.45V437.63h-3.92v-3.46l4.51-2.74,2.37-6.34h5.23v6.39h8.41v6.15h-8.41v14.48a3.23,3.23,0,0,0,1,2.58A3.92,3.92,0,0,0,271.75,455.52Z"/><path class="cls-1" d="M308,455.52a17.59,17.59,0,0,0,5.15-.94v6.1a18.41,18.41,0,0,1-7.52,1.37c-3.27,0-5.66-.83-7.15-2.49s-2.24-4.14-2.24-7.45V437.63h-3.93v-3.46l4.52-2.74,2.36-6.34h5.24v6.39h8.4v6.15h-8.4v14.48a3.19,3.19,0,0,0,1,2.58A3.87,3.87,0,0,0,308,455.52Z"/><path class="cls-1" d="M345.61,446.44q0,7.33-3.86,11.47T331,462.05a15,15,0,0,1-7.63-1.9,12.54,12.54,0,0,1-5.07-5.44,18.15,18.15,0,0,1-1.78-8.27q0-7.35,3.84-11.44t10.8-4.08a15.22,15.22,0,0,1,7.63,1.88,12.5,12.5,0,0,1,5.07,5.4A18.09,18.09,0,0,1,345.61,446.44Zm-20.76,0c0,3,.49,5.22,1.47,6.74a6.07,6.07,0,0,0,9.48,0c1-1.52,1.43-3.77,1.43-6.76s-.48-5.2-1.44-6.68a6.18,6.18,0,0,0-9.49,0C325.34,441.22,324.85,443.45,324.85,446.44Z"/><path class="cls-1" d="M373,461.51H364.8V419.72H373Z"/><path class="cls-1" d="M394.24,462.05q-7.26,0-11.34-4t-4.08-11.33q0-7.54,3.78-11.67T393,430.92q6.36,0,9.91,3.63t3.54,10v4H387.12a7.88,7.88,0,0,0,2.07,5.45,7.27,7.27,0,0,0,5.42,2,22.85,22.85,0,0,0,5.13-.56,26.1,26.1,0,0,0,5.05-1.8v6.33a19,19,0,0,1-4.59,1.6A28.87,28.87,0,0,1,394.24,462.05Zm-1.16-25.3A5.2,5.2,0,0,0,389,438.4a7.64,7.64,0,0,0-1.69,4.69H398.8a6.8,6.8,0,0,0-1.58-4.69A5.37,5.37,0,0,0,393.08,436.75Z"/><path class="cls-1" d="M431.28,461.51l-1.59-4.08h-.21a12.16,12.16,0,0,1-4.26,3.61,13.78,13.78,0,0,1-5.71,1,9.23,9.23,0,0,1-6.8-2.47q-2.49-2.47-2.49-7,0-4.79,3.34-7.05T423.65,443l5.21-.16V441.5q0-4.56-4.67-4.56a21.28,21.28,0,0,0-8.46,2.17L413,433.58a24.42,24.42,0,0,1,11.5-2.71c4,0,7.11.87,9.26,2.63s3.23,4.42,3.23,8v20Zm-2.42-13.91-3.17.11a10.25,10.25,0,0,0-5.32,1.28,4.06,4.06,0,0,0-1.74,3.6q0,3.46,4,3.47a6.29,6.29,0,0,0,4.55-1.64,5.74,5.74,0,0,0,1.71-4.35Z"/><path class="cls-1" d="M461.25,430.92a13.38,13.38,0,0,1,2.77.24l-.62,7.68a9.34,9.34,0,0,0-2.42-.27,8.71,8.71,0,0,0-6.11,2,7.27,7.27,0,0,0-2.19,5.64v15.28h-8.19v-30h6.21l1.21,5h.4a11.34,11.34,0,0,1,3.77-4.07A9.4,9.4,0,0,1,461.25,430.92Z"/><path class="cls-1" d="M496.25,461.51h-8.19V444a8.41,8.41,0,0,0-1.16-4.87,4.18,4.18,0,0,0-3.68-1.63,5.52,5.52,0,0,0-5,2.3q-1.54,2.3-1.54,7.61v14.13h-8.19v-30h6.26l1.1,3.85h.46a8.63,8.63,0,0,1,3.77-3.29,12.76,12.76,0,0,1,5.47-1.12c3.49,0,6.14.95,8,2.83s2.71,4.62,2.71,8.18Z"/><path class="cls-1" d="M544.81,461.51h-8.19V444q0-6.5-4.83-6.5a5.5,5.5,0,0,0-5,2.34q-1.53,2.34-1.53,7.57v14.13H517.1V419.72h8.19v8.52c0,.66-.06,2.22-.19,4.67l-.19,2.42h.43q2.74-4.41,8.7-4.41,5.3,0,8,2.85t2.74,8.16Z"/><path class="cls-1" d="M579.6,446.44q0,7.33-3.87,11.47T565,462.05a15,15,0,0,1-7.63-1.9,12.54,12.54,0,0,1-5.07-5.44,18.28,18.28,0,0,1-1.78-8.27c0-4.9,1.29-8.72,3.84-11.44s6.16-4.08,10.8-4.08a15.22,15.22,0,0,1,7.63,1.88,12.5,12.5,0,0,1,5.07,5.4A18,18,0,0,1,579.6,446.44Zm-20.76,0c0,3,.48,5.22,1.46,6.74a5.23,5.23,0,0,0,4.77,2.29,5.16,5.16,0,0,0,4.71-2.27q1.44-2.28,1.44-6.76c0-3-.49-5.2-1.45-6.68a6.17,6.17,0,0,0-9.48,0Q558.84,442,558.84,446.44Z"/><path class="cls-1" d="M610.11,461.51,607.8,451l-3.12-13.27h-.18L599,461.51h-8.81l-8.54-30h8.16l3.47,13.3c.55,2.38,1.12,5.66,1.69,9.85h.16a56.12,56.12,0,0,1,.94-6.47l.43-2.28,3.7-14.4h9l3.52,14.4c.07.39.18,1,.33,1.74s.3,1.59.44,2.46.28,1.72.4,2.55.18,1.5.2,2h.16c.16-1.29.45-3.05.86-5.3s.71-3.76.88-4.55l3.6-13.3h8l-8.65,30Z"/><path class="cls-1" d="M672.21,446.44q0,7.33-3.87,11.47t-10.77,4.14a15,15,0,0,1-7.62-1.9,12.51,12.51,0,0,1-5.08-5.44,18.28,18.28,0,0,1-1.77-8.27q0-7.35,3.84-11.44t10.79-4.08a15.17,15.17,0,0,1,7.63,1.88,12.58,12.58,0,0,1,5.08,5.4A18.09,18.09,0,0,1,672.21,446.44Zm-20.76,0c0,3,.49,5.22,1.46,6.74a5.23,5.23,0,0,0,4.77,2.29,5.15,5.15,0,0,0,4.71-2.27q1.44-2.28,1.44-6.76t-1.45-6.68a6.17,6.17,0,0,0-9.48,0Q651.44,442,651.45,446.44Z"/><path class="cls-1" d="M699.31,461.51l-1.1-3.84h-.43a8.62,8.62,0,0,1-3.73,3.23,12.63,12.63,0,0,1-5.51,1.15q-5.28,0-8-2.84c-1.79-1.89-2.69-4.6-2.69-8.15V431.48h8.19V449a8.45,8.45,0,0,0,1.16,4.88,4.19,4.19,0,0,0,3.67,1.62,5.53,5.53,0,0,0,5-2.3c1-1.53,1.53-4.06,1.53-7.61V431.48h8.2v30Z"/><path class="cls-1" d="M730,430.92a13.38,13.38,0,0,1,2.77.24l-.62,7.68a9.34,9.34,0,0,0-2.42-.27,8.71,8.71,0,0,0-6.11,2,7.27,7.27,0,0,0-2.18,5.64v15.28h-8.2v-30h6.21l1.21,5h.4a11.34,11.34,0,0,1,3.77-4.07A9.4,9.4,0,0,1,730,430.92Z"/><path class="cls-1" d="M763.29,455.52a17.59,17.59,0,0,0,5.16-.94v6.1a18.44,18.44,0,0,1-7.52,1.37c-3.27,0-5.66-.83-7.15-2.49s-2.25-4.14-2.25-7.45V437.63h-3.92v-3.46l4.51-2.74,2.37-6.34h5.23v6.39h8.41v6.15h-8.41v14.48a3.23,3.23,0,0,0,1,2.58A3.91,3.91,0,0,0,763.29,455.52Z"/><path class="cls-1" d="M787.17,462.05q-7.24,0-11.33-4t-4.08-11.33q0-7.54,3.77-11.67T786,430.92q6.36,0,9.91,3.63t3.54,10v4H780.06a7.92,7.92,0,0,0,2.06,5.45,7.27,7.27,0,0,0,5.43,2,22.85,22.85,0,0,0,5.13-.56,26.34,26.34,0,0,0,5.05-1.8v6.33a19,19,0,0,1-4.59,1.6A28.91,28.91,0,0,1,787.17,462.05ZM786,436.75a5.18,5.18,0,0,0-4.08,1.65,7.58,7.58,0,0,0-1.69,4.69h11.49a6.84,6.84,0,0,0-1.58-4.69A5.39,5.39,0,0,0,786,436.75Z"/><path class="cls-1" d="M817.34,462.05q-14,0-14-15.39,0-7.65,3.81-11.7t10.93-4a20.85,20.85,0,0,1,9.35,2L825,439.3c-1.29-.52-2.49-.94-3.6-1.28a11.63,11.63,0,0,0-3.33-.49q-6.39,0-6.39,9.07,0,8.82,6.39,8.81a14.58,14.58,0,0,0,4.38-.63,16,16,0,0,0,4-2v7a13.21,13.21,0,0,1-4,1.74A22.75,22.75,0,0,1,817.34,462.05Z"/><path class="cls-1" d="M860.21,461.51H852V444q0-6.5-4.83-6.5a5.5,5.5,0,0,0-5,2.34q-1.53,2.34-1.53,7.57v14.13h-8.19V419.72h8.19v8.52c0,.66-.06,2.22-.19,4.67l-.19,2.42h.43q2.74-4.41,8.71-4.41c3.52,0,6.2.95,8,2.85s2.75,4.62,2.75,8.16Z"/><path class="cls-1" d="M905.73,461.51l-2.3-10.5-3.12-13.27h-.19l-5.48,23.77h-8.81l-8.54-30h8.17l3.46,13.3c.56,2.38,1.12,5.66,1.7,9.85h.16a53.94,53.94,0,0,1,.94-6.47l.43-2.28,3.7-14.4h9l3.51,14.4c.07.39.19,1,.34,1.74s.3,1.59.44,2.46.28,1.72.39,2.55.18,1.5.2,2h.16c.17-1.29.45-3.05.86-5.3s.71-3.76.89-4.55l3.6-13.3h8l-8.65,30Z"/><path class="cls-1" d="M954.48,446.44q0,7.33-3.86,11.47t-10.77,4.14a15,15,0,0,1-7.63-1.9,12.57,12.57,0,0,1-5.08-5.44,18.28,18.28,0,0,1-1.77-8.27q0-7.35,3.84-11.44t10.8-4.08a15.16,15.16,0,0,1,7.62,1.88,12.46,12.46,0,0,1,5.08,5.4A18.09,18.09,0,0,1,954.48,446.44Zm-20.76,0c0,3,.49,5.22,1.47,6.74a6.07,6.07,0,0,0,9.48,0q1.43-2.28,1.43-6.76t-1.45-6.68a6.17,6.17,0,0,0-9.48,0C934.21,441.22,933.72,443.45,933.72,446.44Z"/><path class="cls-1" d="M977.07,430.92a13.31,13.31,0,0,1,2.77.24l-.62,7.68a9.34,9.34,0,0,0-2.42-.27,8.67,8.67,0,0,0-6.1,2,7.24,7.24,0,0,0-2.19,5.64v15.28h-8.2v-30h6.21l1.21,5h.4a11.34,11.34,0,0,1,3.77-4.07A9.4,9.4,0,0,1,977.07,430.92Z"/><path class="cls-1" d="M992.22,445.18l3.57-4.56,8.41-9.14h9.24l-11.92,13,12.64,17h-9.45l-8.65-12.17-3.51,2.82v9.35h-8.19V419.72h8.19v18.64l-.43,6.82Z"/><path class="cls-1" d="M1038.47,452.59a8.29,8.29,0,0,1-3.2,7c-2.15,1.61-5.34,2.42-9.61,2.42a29.67,29.67,0,0,1-5.58-.45,21.16,21.16,0,0,1-4.33-1.3v-6.77a28.21,28.21,0,0,0,5.15,1.8,20.45,20.45,0,0,0,5,.73q4.46,0,4.46-2.58a2.15,2.15,0,0,0-.59-1.57,8.2,8.2,0,0,0-2-1.37c-1-.51-2.26-1.11-3.87-1.79a24.09,24.09,0,0,1-5.09-2.68,7.59,7.59,0,0,1-2.36-2.84,9.34,9.34,0,0,1-.74-3.93,7.12,7.12,0,0,1,3.1-6.19q3.11-2.19,8.8-2.19a25,25,0,0,1,10.55,2.36l-2.47,5.91c-1.5-.64-2.91-1.17-4.22-1.58a13.26,13.26,0,0,0-4-.62c-2.41,0-3.62.65-3.62,2a2.32,2.32,0,0,0,1.17,1.91,32.77,32.77,0,0,0,5.11,2.39,23.41,23.41,0,0,1,5.16,2.66,7.89,7.89,0,0,1,2.42,2.84A8.92,8.92,0,0,1,1038.47,452.59Z"/><path class="cls-1" d="M1047,448.48v-2a8.77,8.77,0,0,1,1.11-4.49,14.32,14.32,0,0,1,4-4.05,17.08,17.08,0,0,0,3.72-3.28,4.74,4.74,0,0,0,.9-2.82,3.06,3.06,0,0,0-1.29-2.66,6.11,6.11,0,0,0-3.59-.91,20.73,20.73,0,0,0-9.19,2.63l-2.93-5.88a25.6,25.6,0,0,1,12.71-3.36q5.54,0,8.79,2.66a8.67,8.67,0,0,1,3.26,7.09,9.37,9.37,0,0,1-1.34,5.1,18.86,18.86,0,0,1-5.1,4.84,15.54,15.54,0,0,0-3.26,2.9,4.47,4.47,0,0,0-.69,2.6v1.61Zm-.85,9.19a4.53,4.53,0,0,1,1.2-3.41,4.91,4.91,0,0,1,3.52-1.16,4.74,4.74,0,0,1,3.45,1.19,4.45,4.45,0,0,1,1.23,3.38,4.5,4.5,0,0,1-1.24,3.34,4.65,4.65,0,0,1-3.44,1.22,4.8,4.8,0,0,1-3.49-1.19A4.49,4.49,0,0,1,1046.19,457.67Z"/><path class="cls-2" d="M693.58,527.51h-12l-7.77-15-3.14,1.88v13.13H660V488.25H670.7V505.3a46.4,46.4,0,0,1,3.25-5l8.25-12h11.6l-12.38,17.59Z"/><path class="cls-2" d="M711,528.05q-7.59,0-11.8-4T695,512.5q0-7.71,3.89-11.83T710,496.54q6.87,0,10.62,3.59t3.75,10.33v4.67H705.56a5.25,5.25,0,0,0,1.87,4,7.29,7.29,0,0,0,4.79,1.45,23,23,0,0,0,5.09-.52,25.43,25.43,0,0,0,5-1.79v7.55a18.55,18.55,0,0,1-5.1,1.74A35.54,35.54,0,0,1,711,528.05Zm-.62-24.36a4.38,4.38,0,0,0-3.1,1.17,5.46,5.46,0,0,0-1.46,3.66h9a5.19,5.19,0,0,0-1.25-3.52A4.12,4.12,0,0,0,710.34,503.69Z"/><path class="cls-2" d="M744,528.05q-7.6,0-11.81-4T728,512.5q0-7.71,3.89-11.83T743,496.54q6.88,0,10.62,3.59t3.75,10.33v4.67H738.63a5.21,5.21,0,0,0,1.86,4,7.33,7.33,0,0,0,4.8,1.45,23.15,23.15,0,0,0,5.09-.52,25.36,25.36,0,0,0,5-1.79v7.55a18.44,18.44,0,0,1-5.1,1.74A35.5,35.5,0,0,1,744,528.05Zm-.62-24.36a4.35,4.35,0,0,0-3.1,1.17,5.46,5.46,0,0,0-1.47,3.66h9a5.3,5.3,0,0,0-1.25-3.52A4.15,4.15,0,0,0,743.41,503.69Z"/><path class="cls-2" d="M780.66,528.05a9.52,9.52,0,0,1-7.76-3.52h-.48a38.83,38.83,0,0,1,.48,4v12.22H762.4V497.08h8.54l1.48,3.87h.48a9.6,9.6,0,0,1,16-.22q2.87,4.2,2.87,11.5t-3,11.59A9.46,9.46,0,0,1,780.66,528.05Zm-3.52-23.26a3.39,3.39,0,0,0-3.23,1.65,10.88,10.88,0,0,0-1,4.9v.83q0,3.93,1.05,5.67a3.58,3.58,0,0,0,3.3,1.75,3.08,3.08,0,0,0,2.93-1.74,13.07,13.07,0,0,0,.91-5.73,12.71,12.71,0,0,0-.91-5.63A3.18,3.18,0,0,0,777.14,504.79Z"/><path class="cls-2" d="M828.55,496.54a15.48,15.48,0,0,1,2.61.22l.59.11-.94,9.91a15.09,15.09,0,0,0-3.57-.33q-3.43,0-5,1.58a6.16,6.16,0,0,0-1.55,4.52v15h-10.5V497.08H818l1.64,4.86h.51a10.48,10.48,0,0,1,3.67-3.9A8.7,8.7,0,0,1,828.55,496.54Z"/><path class="cls-2" d="M849.75,528.05q-7.61,0-11.8-4t-4.21-11.5q0-7.71,3.9-11.83t11.12-4.13q6.87,0,10.62,3.59t3.74,10.33v4.67H844.35a5.19,5.19,0,0,0,1.87,4,7.29,7.29,0,0,0,4.79,1.45,23.08,23.08,0,0,0,5.09-.52,25.43,25.43,0,0,0,5-1.79v7.55a18.5,18.5,0,0,1-5.11,1.74A35.42,35.42,0,0,1,849.75,528.05Zm-.62-24.36a4.36,4.36,0,0,0-3.1,1.17,5.46,5.46,0,0,0-1.46,3.66h9a5.24,5.24,0,0,0-1.25-3.52A4.15,4.15,0,0,0,849.13,503.69Z"/><path class="cls-2" d="M888,527.51l-2-4h-.22a12,12,0,0,1-4.32,3.6,14.39,14.39,0,0,1-5.7,1,8.91,8.91,0,0,1-6.76-2.58q-2.48-2.58-2.48-7.25c0-3.24,1.13-5.66,3.39-7.24s5.52-2.48,9.8-2.67l5.08-.16v-.43q0-3.77-3.71-3.76a22.21,22.21,0,0,0-8.46,2.25l-3-6.93q5.31-2.73,13.42-2.74,5.87,0,9.07,2.91t3.21,8.11v19.95Zm-7.79-6.88a4.74,4.74,0,0,0,3.26-1.2,4,4,0,0,0,1.36-3.15v-2.36l-2.42.11q-5.18.18-5.18,3.81C877.2,519.7,878.19,520.63,880.18,520.63Z"/><path class="cls-2" d="M910.91,528.05a9.07,9.07,0,0,1-5.68-1.86,11.74,11.74,0,0,1-3.76-5.45,24.12,24.12,0,0,1-1.33-8.4c0-5,1-8.81,3-11.61a9.53,9.53,0,0,1,8.19-4.19,9.28,9.28,0,0,1,4.47,1,9.9,9.9,0,0,1,3.51,3.43h.21a50.43,50.43,0,0,1-.51-7.14v-8.14h10.58v41.79h-7.92l-2.26-3.84H919A8.89,8.89,0,0,1,910.91,528.05Zm4.3-8.3a3.91,3.91,0,0,0,3.55-1.59,9.55,9.55,0,0,0,1.12-4.88v-.84q0-4-1.16-5.73A4,4,0,0,0,915.1,505a3.55,3.55,0,0,0-3.21,1.95,11.1,11.1,0,0,0-1.14,5.55,10.26,10.26,0,0,0,1.15,5.39A3.67,3.67,0,0,0,915.21,519.75Z"/><path class="cls-2" d="M935.67,489.51A4.43,4.43,0,0,1,937,486a8.35,8.35,0,0,1,8.51,0,4.39,4.39,0,0,1,1.35,3.49q0,4.62-5.62,4.62C937.53,494.13,935.67,492.59,935.67,489.51Zm10.77,38h-10.5V497.08h10.5Z"/><path class="cls-2" d="M972,527.51v-16.6a9.56,9.56,0,0,0-.87-4.58,3,3,0,0,0-2.81-1.54,4.07,4.07,0,0,0-3.84,2.12c-.79,1.42-1.18,3.84-1.18,7.28v13.32h-10.5V497.08h7.92l1.32,3.76h.62a8.24,8.24,0,0,1,3.72-3.22,13,13,0,0,1,5.46-1.08q5.05,0,7.86,2.93t2.8,8.25v19.79Z"/><path class="cls-2" d="M1017.46,497.08v5.08l-4.16,1.53a7.42,7.42,0,0,1,.86,3.62,9.15,9.15,0,0,1-3.45,7.63q-3.47,2.71-10.3,2.71a13.59,13.59,0,0,1-2.69-.21,2.77,2.77,0,0,0-.38,1.31c0,.52.43.92,1.27,1.2a10.68,10.68,0,0,0,3.3.42H1007q10.23,0,10.23,8.62a9.76,9.76,0,0,1-4.74,8.64q-4.74,3.09-13.31,3.09-6.46,0-10-2.16a6.89,6.89,0,0,1-3.51-6.22q0-5.45,6.77-7A6.15,6.15,0,0,1,990,523.4a4.07,4.07,0,0,1-.26-5.12,11.87,11.87,0,0,1,3.25-2.59,8.12,8.12,0,0,1-3.71-3.27,10.23,10.23,0,0,1-1.36-5.43,9.38,9.38,0,0,1,3.38-7.71q3.39-2.73,9.67-2.74c.56,0,1.51.07,2.87.19s2.37.24,3,.35ZM994.53,531.3a2.35,2.35,0,0,0,1.39,2.08,7.54,7.54,0,0,0,3.73.79,16.31,16.31,0,0,0,6.11-.95c1.53-.64,2.3-1.46,2.3-2.46a1.78,1.78,0,0,0-1.4-1.71,12.53,12.53,0,0,0-4-.49h-4.11a5,5,0,0,0-2.86.79A2.3,2.3,0,0,0,994.53,531.3Zm3.3-24.26q0,4.68,3.25,4.68a2.69,2.69,0,0,0,2.32-1.16,6,6,0,0,0,.82-3.46q0-4.73-3.14-4.73T997.83,507Z"/><path class="cls-2" d="M1019.83,523.05a4.88,4.88,0,0,1,1.46-3.81,6.08,6.08,0,0,1,4.26-1.35,5.71,5.71,0,0,1,4.08,1.35,5,5,0,0,1,1.42,3.81,4.9,4.9,0,0,1-1.46,3.77,5.69,5.69,0,0,1-4,1.36,6.16,6.16,0,0,1-4.19-1.34A4.78,4.78,0,0,1,1019.83,523.05Z"/><path class="cls-2" d="M1034.79,523.05a4.88,4.88,0,0,1,1.47-3.81,6,6,0,0,1,4.25-1.35,5.69,5.69,0,0,1,4.08,1.35,5,5,0,0,1,1.43,3.81,4.87,4.87,0,0,1-1.47,3.77,5.68,5.68,0,0,1-4,1.36,6.16,6.16,0,0,1-4.19-1.34A4.78,4.78,0,0,1,1034.79,523.05Z"/><path class="cls-2" d="M1049.75,523.05a4.88,4.88,0,0,1,1.47-3.81,6,6,0,0,1,4.25-1.35,5.72,5.72,0,0,1,4.09,1.35,5,5,0,0,1,1.42,3.81,4.9,4.9,0,0,1-1.46,3.77,5.72,5.72,0,0,1-4,1.36,6.14,6.14,0,0,1-4.18-1.34A4.79,4.79,0,0,1,1049.75,523.05Z"/></g></svg>