<svg id="Background" xmlns="http://www.w3.org/2000/svg" viewBox="0 0 500 500"><defs><style>.cls-1{fill:#fff;}.cls-2{fill:#f9662b;}</style></defs><rect width="500" height="500"/><path class="cls-1" d="M100.91,236.19l-23.85-19.4a1.17,1.17,0,0,0-1.9.9v40.6l-9,5.08a7.27,7.27,0,0,0-3.68,6.31v12.89a.9.9,0,0,0,1.34.79L75.16,277l5.59-3.17a7.22,7.22,0,0,0,3.68-6.31V234.74L103.18,250V241A6.12,6.12,0,0,0,100.91,236.19Z"/><path class="cls-2" d="M142.52,216.64l-11.32,6.41-5.59,3.17a7.23,7.23,0,0,0-3.68,6.31v32.73L103.18,250v9.05a6.12,6.12,0,0,0,2.27,4.76l23.85,19.4a1.17,1.17,0,0,0,1.9-.9v-40.6l9-5.08a7.24,7.24,0,0,0,3.7-6.31V217.43A.92.92,0,0,0,142.52,216.64Z"/><path class="cls-1" d="M185.56,234.43a2.5,2.5,0,0,0-2.47,2.52v22.79L166.62,236a3.59,3.59,0,0,0-2.82-1.52h-.59a3.39,3.39,0,0,0-3.36,3.41v26.79a2.49,2.49,0,0,0,5,0V241.8l16.56,23.91a3.41,3.41,0,0,0,2.73,1.39h.54a3.39,3.39,0,0,0,3.41-3.37V237A2.55,2.55,0,0,0,185.56,234.43Z"/><path class="cls-1" d="M223.53,239.37a2.36,2.36,0,1,0,0-4.71h-18a2.49,2.49,0,0,0-2.47,2.51v27.24a2.48,2.48,0,0,0,2.47,2.47h18a2.36,2.36,0,1,0,0-4.72H208.05V253.1h13.86a2.36,2.36,0,1,0,0-4.71H208.05v-9Z"/><path class="cls-1" d="M252.88,234.21c-9.5,0-16,6.65-16.2,16.57.19,9.89,6.7,16.55,16.2,16.55s16-6.66,16.2-16.55v0C268.89,240.86,262.38,234.21,252.88,234.21Zm0,28.4c-6.71,0-11.22-4.76-11.22-11.84s4.51-11.85,11.22-11.85,11.21,4.76,11.21,11.85S259.59,262.61,252.88,262.61Z"/><path class="cls-1" d="M296.86,239a15.78,15.78,0,0,1,8,2.06,2.29,2.29,0,0,0,1,.23,2.24,2.24,0,0,0,1.65-.68,2.16,2.16,0,0,0,.59-1.59,2.19,2.19,0,0,0-1.22-2,20,20,0,0,0-10.45-2.84c-9.66,0-16.15,6.65-16.15,16.56s6.49,16.56,16.15,16.56a20.05,20.05,0,0,0,10.45-2.84,2.21,2.21,0,0,0,1.22-2h0a2.16,2.16,0,0,0-.59-1.59,2.28,2.28,0,0,0-1.65-.68,2.52,2.52,0,0,0-1,.23,15.71,15.71,0,0,1-8,2.06c-7.14,0-11.58-4.5-11.58-11.75S289.72,239,296.86,239Z"/><path class="cls-1" d="M348.91,244.22c0-6.08-4.61-9.56-12.65-9.56H325.8a2.49,2.49,0,0,0-2.47,2.51v27.46a2.5,2.5,0,0,0,5,0v-10h8.84c5.76,0,6.5,4.61,6.5,8.62v1.34a2.36,2.36,0,0,0,2.52,2.47,2.47,2.47,0,0,0,2.46-2.47v-2.06c0-2-.36-8.2-4.8-10.26A8.77,8.77,0,0,0,348.91,244.22Zm-5,.31c0,3.37-3,5.38-7.94,5.38h-7.67V239.42h7.44C343,239.42,343.93,242.15,343.93,244.53Z"/><path class="cls-1" d="M387.82,234.43a2.54,2.54,0,0,0-2.17,1.23l-9,13.1-9-13.1a2.51,2.51,0,0,0-2.17-1.23,2.41,2.41,0,0,0-2.42,2.52,2.73,2.73,0,0,0,.44,1.47l10.64,14.91v11.3a2.5,2.5,0,0,0,5,0v-11.3l10.7-14.93a2.74,2.74,0,0,0,.43-1.44,2.45,2.45,0,0,0-.68-1.79A2.36,2.36,0,0,0,387.82,234.43Z"/><path class="cls-1" d="M434.13,234.43h-1.48a3.48,3.48,0,0,0-3.15,2.17L419.73,261,410,236.59a3.49,3.49,0,0,0-3.15-2.16h-1.48a3.39,3.39,0,0,0-3.37,3.41v26.79a2.49,2.49,0,0,0,5,0V241.46L416.45,265a3.58,3.58,0,0,0,6.57,0l9.5-23.48v23.17a2.49,2.49,0,0,0,5,0V237.84A3.39,3.39,0,0,0,434.13,234.43Z"/></svg>