<svg id="Background" xmlns="http://www.w3.org/2000/svg" viewBox="0 0 500 243"><defs><style>.cls-1{fill:#fff;}.cls-2{fill:#f9662b;}</style></defs><path class="cls-1" d="M245.38,52.18l-48.31-39.3a2.36,2.36,0,0,0-3.85,1.81V97L175,107.25A14.67,14.67,0,0,0,167.56,120v26.12a1.84,1.84,0,0,0,2.73,1.6l22.93-13,11.33-6.41a14.68,14.68,0,0,0,7.45-12.8V49.24l38,30.91V61.82A12.41,12.41,0,0,0,245.38,52.18Z"/><path class="cls-2" d="M329.68,12.56l-22.93,13L295.42,32A14.73,14.73,0,0,0,288,44.76v66.31L250,80.15V98.49a12.43,12.43,0,0,0,4.6,9.64l48.32,39.3a2.36,2.36,0,0,0,3.85-1.82V63.35L325,53.06a14.64,14.64,0,0,0,7.48-12.77V14.16A1.87,1.87,0,0,0,329.68,12.56Z"/><path class="cls-1" d="M56.49,174.4a4.27,4.27,0,0,0-4.23,4.3v39L24.09,177a6.15,6.15,0,0,0-4.83-2.6h-1a5.8,5.8,0,0,0-5.76,5.83v45.83a4.23,4.23,0,0,0,4.22,4.23A4.27,4.27,0,0,0,21,226.06V187l28.32,40.91A5.82,5.82,0,0,0,54,230.29H55a5.81,5.81,0,0,0,5.84-5.76V178.7A4.36,4.36,0,0,0,56.49,174.4Z"/><path class="cls-1" d="M121.44,182.85a4,4,0,1,0,0-8.07H90.66a4.27,4.27,0,0,0-4.23,4.3v46.6a4.23,4.23,0,0,0,4.23,4.22h30.78a4,4,0,0,0,4.07-4,4,4,0,0,0-4.07-4.07H95v-15.5h23.72a4,4,0,1,0,0-8.07H95V182.85Z"/><path class="cls-1" d="M171.65,174c-16.25,0-27.39,11.38-27.71,28.35.32,16.93,11.46,28.31,27.71,28.31s27.39-11.38,27.72-28.31v0C199,185.39,187.91,174,171.65,174Zm0,48.6c-11.47,0-19.19-8.15-19.19-20.27s7.72-20.26,19.19-20.26,19.19,8.14,19.19,20.26S183.13,222.61,171.65,222.61Z"/><path class="cls-1" d="M246.89,182.23a27,27,0,0,1,13.7,3.53,4.11,4.11,0,0,0,1.73.39,3.89,3.89,0,0,0,2.84-1.17,3.7,3.7,0,0,0,1-2.71,3.76,3.76,0,0,0-2.08-3.4A34.31,34.31,0,0,0,246.2,174c-16.53,0-27.64,11.39-27.64,28.33s11.11,28.33,27.64,28.33a34.37,34.37,0,0,0,17.87-4.85,3.76,3.76,0,0,0,2.09-3.4h0a3.7,3.7,0,0,0-1-2.71,3.88,3.88,0,0,0-2.84-1.16,4.18,4.18,0,0,0-1.74.39,26.9,26.9,0,0,1-13.69,3.52c-12.21,0-19.8-7.7-19.8-20.11S234.68,182.23,246.89,182.23Z"/><path class="cls-1" d="M336,191.14c0-10.4-7.89-16.36-21.65-16.36H296.41a4.26,4.26,0,0,0-4.22,4.3v47a4.23,4.23,0,0,0,4.22,4.23,4.27,4.27,0,0,0,4.3-4.23V209h15.13c9.86,0,11.12,7.88,11.12,14.74v2.3a4,4,0,0,0,4.3,4.23,4.24,4.24,0,0,0,4.23-4.23v-3.53c0-3.38-.63-14-8.22-17.55A15,15,0,0,0,336,191.14Zm-8.53.53c0,5.77-5.07,9.21-13.58,9.21H300.71v-18h12.74C325.84,182.92,327.42,187.6,327.42,191.67Z"/><path class="cls-1" d="M402.51,174.4a4.3,4.3,0,0,0-3.71,2.1l-15.4,22.41L368,176.51a4.29,4.29,0,0,0-3.71-2.11,4.09,4.09,0,0,0-3,1.26,4.17,4.17,0,0,0-1.15,3,4.68,4.68,0,0,0,.76,2.52l18.2,25.51v19.33a4.27,4.27,0,0,0,8.53,0V206.73l18.31-25.55a4.65,4.65,0,0,0,.73-2.45,4.15,4.15,0,0,0-1.15-3.07A4.09,4.09,0,0,0,402.51,174.4Z"/><path class="cls-1" d="M481.74,174.4h-2.53a6,6,0,0,0-5.4,3.7L457.1,219.77,440.38,178.1a5.93,5.93,0,0,0-5.39-3.7h-2.53a5.8,5.8,0,0,0-5.76,5.83v45.83a4.23,4.23,0,0,0,4.22,4.23,4.27,4.27,0,0,0,4.3-4.23V186.42l16.26,40.18a6.13,6.13,0,0,0,11.25,0L479,186.42v39.64a4.27,4.27,0,0,0,4.31,4.23,4.23,4.23,0,0,0,4.22-4.23V180.23A5.8,5.8,0,0,0,481.74,174.4Z"/></svg>