<?xml version="1.0" encoding="UTF-8"?><svg id="Background" xmlns="http://www.w3.org/2000/svg" viewBox="0 0 500 243"><defs><style>.cls-1{fill:#f9662b;}.cls-2{fill:#fff;}.cls-3{fill:#131416;}</style></defs><rect class="cls-3" width="500" height="243"/><g><g><path class="cls-2" d="m245.38,52.18l-48.31-39.3c-1.53-1.25-3.85-.16-3.85,1.81v82.26l-18.21,10.29c-4.6,2.6-7.45,7.48-7.45,12.77v26.13c0,1.38,1.5,2.28,2.72,1.6l22.94-12.99,11.33-6.41c4.6-2.6,7.45-7.48,7.45-12.8V49.24l37.99,30.92v-18.34c0-3.72-1.69-7.29-4.6-9.64Z"/><path class="cls-1" d="m329.68,12.56l-22.94,12.99-11.33,6.41c-4.6,2.6-7.45,7.51-7.45,12.8v66.3l-37.99-30.91v18.34c0,3.72,1.69,7.29,4.6,9.64l48.31,39.3c1.56,1.25,3.85.16,3.85-1.82V63.35l18.21-10.29c4.63-2.6,7.48-7.48,7.48-12.77V14.16c0-1.38-1.53-2.28-2.75-1.6Z"/></g><g><path class="cls-2" d="m56.49,174.4c-2.33,0-4.22,1.93-4.22,4.3v38.99l-28.18-40.69c-1.31-1.68-3.02-2.6-4.83-2.6h-1c-3.18,0-5.76,2.62-5.76,5.84v45.83c0,2.33,1.89,4.22,4.22,4.22s4.3-1.89,4.3-4.22v-39.06l28.32,40.91c1.13,1.51,2.84,2.38,4.68,2.38h.92c3.22,0,5.84-2.58,5.84-5.76v-45.83c0-2.33-1.97-4.3-4.3-4.3Z"/><path class="cls-2" d="m121.44,182.85c2.28,0,4.07-1.75,4.07-3.99s-1.79-4.07-4.07-4.07h-30.78c-2.33,0-4.22,1.93-4.22,4.3v46.6c0,2.33,1.89,4.22,4.22,4.22h30.78c2.28,0,4.07-1.75,4.07-3.99s-1.79-4.07-4.07-4.07h-26.48v-15.5h23.72c2.28,0,4.07-1.75,4.07-3.99s-1.79-4.07-4.07-4.07h-23.72v-15.43h26.48Z"/><path class="cls-2" d="m171.65,174.01c-16.25,0-27.39,11.38-27.71,28.34.32,16.93,11.46,28.31,27.71,28.31s27.39-11.38,27.71-28.31v-.03c-.32-16.94-11.46-28.31-27.71-28.31Zm0,48.59c-11.48,0-19.19-8.14-19.19-20.26s7.71-20.26,19.19-20.26,19.19,8.14,19.19,20.26-7.71,20.26-19.19,20.26Z"/><path class="cls-2" d="m246.89,182.23c5.83,0,9.69,1.41,13.7,3.53.7.35,1.44.39,1.73.39,1.11,0,2.12-.41,2.84-1.17.69-.72,1.05-1.71,1-2.72-.08-1.6-.75-2.68-2.08-3.39-4.26-2.4-9.71-4.86-17.88-4.86-16.53,0-27.64,11.38-27.64,28.33s11.11,28.33,27.64,28.33c8.17,0,13.62-2.46,17.87-4.85,1.34-.72,2.01-1.81,2.09-3.4h0c.05-1.01-.32-2-1-2.72-.72-.75-1.72-1.17-2.84-1.17-.28,0-1.02.04-1.74.4-4,2.11-7.86,3.52-13.69,3.52-12.21,0-19.8-7.71-19.8-20.11s7.59-20.11,19.8-20.11Z"/><path class="cls-2" d="m335.95,191.14c0-10.39-7.89-16.35-21.65-16.35h-17.89c-2.33,0-4.22,1.93-4.22,4.3v46.98c0,2.33,1.89,4.22,4.22,4.22s4.3-1.89,4.3-4.22v-17.04h15.12c9.86,0,11.13,7.88,11.13,14.74v2.3c0,2.53,1.73,4.22,4.3,4.22,2.33,0,4.22-1.89,4.22-4.22v-3.53c0-3.39-.63-14.03-8.22-17.55,5.4-2.59,8.68-7.74,8.68-13.85Zm-8.53.54c0,5.77-5.08,9.21-13.58,9.21h-13.12v-17.96h12.74c12.38,0,13.97,4.68,13.97,8.75Z"/><path class="cls-2" d="m402.51,174.4c-1.53,0-2.78.71-3.71,2.1l-15.41,22.41-15.4-22.4c-.93-1.4-2.18-2.11-3.71-2.11-1.15,0-2.22.45-3,1.26-.79.82-1.2,1.91-1.15,3.04,0,.87.25,1.7.76,2.52l18.2,25.52v19.33c0,2.33,1.93,4.22,4.3,4.22s4.22-1.89,4.22-4.22v-19.33l18.31-25.56c.49-.77.73-1.61.73-2.45.05-1.16-.36-2.25-1.15-3.07-.78-.81-1.84-1.26-3-1.26Z"/><path class="cls-2" d="m481.74,174.4h-2.53c-2.3,0-4.47,1.49-5.4,3.71l-16.71,41.67-16.71-41.68c-.92-2.21-3.09-3.7-5.39-3.7h-2.53c-3.18,0-5.76,2.62-5.76,5.84v45.83c0,2.33,1.89,4.22,4.22,4.22s4.3-1.89,4.3-4.22v-39.65l16.26,40.19c1,2.27,3.15,3.68,5.62,3.68s4.62-1.41,5.63-3.71l16.25-40.17v39.65c0,2.33,1.93,4.22,4.3,4.22s4.22-1.89,4.22-4.22v-45.83c0-3.22-2.58-5.84-5.76-5.84Z"/></g></g></svg>