<svg id="Background" xmlns="http://www.w3.org/2000/svg" viewBox="0 0 500 500"><defs><style>.cls-1{fill:#1a1c1e;}.cls-2{fill:#fff;}.cls-3{fill:#f9662b;}</style></defs><rect class="cls-1" width="500" height="500"/><path class="cls-2" d="M241.26,197.05l-91.45-74.4a4.47,4.47,0,0,0-7.29,3.43V281.81L108.05,301.3A27.74,27.74,0,0,0,94,325.46v49.46a3.46,3.46,0,0,0,5.15,3l43.42-24.58L164,341.22A27.79,27.79,0,0,0,178.06,317V191.48L250,250V215.29A23.48,23.48,0,0,0,241.26,197.05Z"/><path class="cls-3" d="M400.84,122.06l-43.42,24.58L336,158.78A27.86,27.86,0,0,0,321.88,183V308.52L250,250v34.71A23.48,23.48,0,0,0,258.68,303l91.45,74.4a4.46,4.46,0,0,0,7.29-3.43V218.19l34.47-19.49a27.67,27.67,0,0,0,14.16-24.16V125.08A3.51,3.51,0,0,0,400.84,122.06Z"/></svg>