<svg xmlns="http://www.w3.org/2000/svg" viewBox="0 0 851 315"><defs><style>.cls-1{fill:#131416;}.cls-2{fill:#ededec;}.cls-3{fill:#f77239;}</style></defs><g id="Background"><rect class="cls-1" width="851" height="315"/></g><g id="Text"><path class="cls-2" d="M198.68,107.41h-6.35L182.08,89.58h-.15q.31,4.73.31,6.74v11.09h-4.46V83.85h6.3l10.23,17.64h.11q-.24-4.59-.24-6.49V83.85h4.5Z"/><path class="cls-2" d="M211.81,107.73a9.3,9.3,0,0,1-6.8-2.4,9.11,9.11,0,0,1-2.45-6.8c0-3,.76-5.36,2.27-7a8,8,0,0,1,6.26-2.48A7.94,7.94,0,0,1,217,91.23a8.22,8.22,0,0,1,2.13,6v2.38H207.54a4.71,4.71,0,0,0,1.24,3.27,4.36,4.36,0,0,0,3.26,1.18,13.19,13.19,0,0,0,3.07-.34,14.58,14.58,0,0,0,3-1.08v3.81a11.92,11.92,0,0,1-2.75,1A17.32,17.32,0,0,1,211.81,107.73Zm-.69-15.18a3.12,3.12,0,0,0-2.45,1,4.62,4.62,0,0,0-1,2.81h6.9a4.1,4.1,0,0,0-1-2.81A3.22,3.22,0,0,0,211.12,92.55Z"/><path class="cls-2" d="M239,98.37a9.68,9.68,0,0,1-2.32,6.88,8.42,8.42,0,0,1-6.46,2.48,9,9,0,0,1-4.57-1.14,7.58,7.58,0,0,1-3.05-3.26,11,11,0,0,1-1.06-5,9.65,9.65,0,0,1,2.3-6.87,8.49,8.49,0,0,1,6.48-2.45,9.12,9.12,0,0,1,4.58,1.13,7.51,7.51,0,0,1,3,3.24A10.87,10.87,0,0,1,239,98.37Zm-12.45,0a7.5,7.5,0,0,0,.88,4,3.14,3.14,0,0,0,2.86,1.37,3.09,3.09,0,0,0,2.83-1.36,7.72,7.72,0,0,0,.86-4,7.48,7.48,0,0,0-.87-4,3.71,3.71,0,0,0-5.69,0A7.41,7.41,0,0,0,226.51,98.37Z"/><path class="cls-2" d="M249.78,107.73q-8.42,0-8.41-9.23,0-4.6,2.29-7a8.56,8.56,0,0,1,6.55-2.43,12.44,12.44,0,0,1,5.61,1.23l-1.45,3.8c-.77-.31-1.49-.57-2.16-.77a7.22,7.22,0,0,0-2-.29q-3.83,0-3.83,5.44t3.83,5.29a8.8,8.8,0,0,0,2.63-.38,9.35,9.35,0,0,0,2.42-1.19v4.21a8,8,0,0,1-2.41,1A13.71,13.71,0,0,1,249.78,107.73Z"/><path class="cls-2" d="M268.93,89.05a7.61,7.61,0,0,1,1.65.15l-.37,4.61a5.44,5.44,0,0,0-1.45-.17,5.23,5.23,0,0,0-3.66,1.21,4.37,4.37,0,0,0-1.31,3.39v9.17h-4.92v-18h3.72l.73,3h.24A6.79,6.79,0,0,1,265.82,90,5.59,5.59,0,0,1,268.93,89.05Z"/><path class="cls-2" d="M270.72,89.39h5.38l3.4,10.14a13.64,13.64,0,0,1,.59,3.12h.1a14.05,14.05,0,0,1,.69-3.12l3.34-10.14h5.27l-7.62,20.32a8.81,8.81,0,0,1-3,4.22,7.53,7.53,0,0,1-4.54,1.4,11.6,11.6,0,0,1-2.5-.27v-3.9a8.48,8.48,0,0,0,1.94.21,3.5,3.5,0,0,0,2.28-.8,5.09,5.09,0,0,0,1.52-2.41l.29-.88Z"/><path class="cls-2" d="M307.64,107.41h-4.92V96.88a5.33,5.33,0,0,0-.65-2.92A2.31,2.31,0,0,0,300,93a3,3,0,0,0-2.74,1.39,9.18,9.18,0,0,0-.85,4.56v8.48h-4.91v-18h3.75l.66,2.31h.28a5,5,0,0,1,2.09-2,6.88,6.88,0,0,1,3.14-.7c2.7,0,4.52.88,5.48,2.65h.44a4.81,4.81,0,0,1,2.13-2,7,7,0,0,1,3.18-.7,6.3,6.3,0,0,1,4.63,1.57q1.57,1.57,1.58,5v11.75h-4.93V96.88a5.24,5.24,0,0,0-.66-2.92,2.29,2.29,0,0,0-2-1,3.07,3.07,0,0,0-2.7,1.29,7.31,7.31,0,0,0-.89,4.1Z"/><path class="cls-2" d="M331.15,84.73c0-1.6.89-2.4,2.68-2.4s2.67.8,2.67,2.4a2.31,2.31,0,0,1-.67,1.78,2.76,2.76,0,0,1-2,.64C332,87.15,331.15,86.35,331.15,84.73Zm5.13,22.68h-4.92v-18h4.92Z"/><path class="cls-2" d="M353.44,102.06a5,5,0,0,1-1.93,4.22,9.55,9.55,0,0,1-5.76,1.45,17.86,17.86,0,0,1-3.35-.27,13,13,0,0,1-2.59-.78v-4.06a17.07,17.07,0,0,0,3.08,1.08,12.5,12.5,0,0,0,3,.43c1.79,0,2.68-.51,2.68-1.54a1.31,1.31,0,0,0-.36-1,5.13,5.13,0,0,0-1.22-.82c-.58-.3-1.35-.66-2.32-1.07a14.62,14.62,0,0,1-3.05-1.61,4.45,4.45,0,0,1-1.42-1.7,5.55,5.55,0,0,1-.45-2.36,4.25,4.25,0,0,1,1.87-3.71,9,9,0,0,1,5.27-1.32,15.12,15.12,0,0,1,6.34,1.42L351.76,94a26.54,26.54,0,0,0-2.53-1,8.12,8.12,0,0,0-2.4-.37c-1.45,0-2.17.4-2.17,1.18a1.37,1.37,0,0,0,.7,1.14,18.87,18.87,0,0,0,3.07,1.44A14.51,14.51,0,0,1,351.52,98,4.75,4.75,0,0,1,353,99.75,5.29,5.29,0,0,1,353.44,102.06Z"/><path class="cls-2" d="M376.16,107.41l-1-2.45h-.13a7.11,7.11,0,0,1-2.55,2.16,8.12,8.12,0,0,1-3.42.61,5.59,5.59,0,0,1-4.09-1.48,5.72,5.72,0,0,1-1.49-4.23,4.76,4.76,0,0,1,2-4.23,11.63,11.63,0,0,1,6-1.5l3.12-.1V95.4c0-1.82-.93-2.74-2.8-2.74A12.83,12.83,0,0,0,366.83,94l-1.62-3.32A14.56,14.56,0,0,1,372.1,89a8.61,8.61,0,0,1,5.56,1.58,5.83,5.83,0,0,1,1.94,4.8v12Zm-1.45-8.35-1.9.06a6.08,6.08,0,0,0-3.19.78,2.41,2.41,0,0,0-1,2.16c0,1.38.79,2.07,2.38,2.07a3.75,3.75,0,0,0,2.73-1,3.44,3.44,0,0,0,1-2.61Z"/><path class="cls-3" d="M402.72,88.83a8.83,8.83,0,0,1,1.57.13l.35.06-.56,6a9.16,9.16,0,0,0-2.14-.2,4.12,4.12,0,0,0-3,.94,3.73,3.73,0,0,0-.94,2.72v9h-6.3V89.15h4.69l1,2.92h.3a6.36,6.36,0,0,1,2.2-2.35A5.23,5.23,0,0,1,402.72,88.83Z"/><path class="cls-3" d="M415.44,107.73a9.78,9.78,0,0,1-7.08-2.43,9.12,9.12,0,0,1-2.52-6.9q0-4.62,2.33-7.1a8.75,8.75,0,0,1,6.67-2.47A8.85,8.85,0,0,1,421.22,91a8.16,8.16,0,0,1,2.25,6.19V100H412.2a3.16,3.16,0,0,0,1.12,2.4,4.4,4.4,0,0,0,2.88.87,13.86,13.86,0,0,0,3.05-.32,14.7,14.7,0,0,0,3-1.07v4.53a11.1,11.1,0,0,1-3.06,1A21.49,21.49,0,0,1,415.44,107.73Zm-.37-14.62a2.65,2.65,0,0,0-1.86.7,3.31,3.31,0,0,0-.88,2.2h5.42A3.23,3.23,0,0,0,417,93.9,2.5,2.5,0,0,0,415.07,93.11Z"/><path class="cls-3" d="M434.78,107.73q-4.48,0-6.79-2.42c-1.54-1.61-2.31-3.93-2.31-6.94a9.57,9.57,0,0,1,2.49-7.05q2.5-2.49,7.11-2.49a13.36,13.36,0,0,1,6,1.38l-1.86,4.66a20.52,20.52,0,0,0-2.11-.8,6.7,6.7,0,0,0-2-.3,2.72,2.72,0,0,0-2.37,1.2,5.75,5.75,0,0,0-.84,3.36q0,4.4,3.24,4.39a9.84,9.84,0,0,0,5.32-1.61v5A10.38,10.38,0,0,1,434.78,107.73Z"/><path class="cls-3" d="M461.13,98.24a9.64,9.64,0,0,1-2.41,7,8.92,8.92,0,0,1-6.74,2.51,8.77,8.77,0,0,1-6.62-2.56,9.59,9.59,0,0,1-2.46-6.93,9.55,9.55,0,0,1,2.41-6.94,9,9,0,0,1,6.76-2.47A9.69,9.69,0,0,1,456.83,90,7.86,7.86,0,0,1,460,93.25,10.67,10.67,0,0,1,461.13,98.24Zm-11.83,0a8.05,8.05,0,0,0,.63,3.58,2.18,2.18,0,0,0,2.11,1.23,2.12,2.12,0,0,0,2.07-1.23,8.41,8.41,0,0,0,.6-3.58,7.93,7.93,0,0,0-.61-3.53A2.15,2.15,0,0,0,452,93.52a2.17,2.17,0,0,0-2.08,1.18A7.78,7.78,0,0,0,449.3,98.24Z"/><path class="cls-3" d="M475.18,88.83a8.83,8.83,0,0,1,1.57.13l.35.06-.56,6a9.2,9.2,0,0,0-2.15-.2,4.1,4.1,0,0,0-3,.94,3.69,3.69,0,0,0-.94,2.72v9h-6.3V89.15h4.69l1,2.92h.31a6.36,6.36,0,0,1,2.2-2.35A5.23,5.23,0,0,1,475.18,88.83Z"/><path class="cls-3" d="M484.76,107.73a5.47,5.47,0,0,1-3.41-1.11,7.08,7.08,0,0,1-2.26-3.28,14.52,14.52,0,0,1-.8-5,11.87,11.87,0,0,1,1.79-7A5.73,5.73,0,0,1,485,88.83a5.61,5.61,0,0,1,2.68.61,5.94,5.94,0,0,1,2.1,2.06h.13a30.9,30.9,0,0,1-.3-4.28V82.33H496v25.08H491.2l-1.35-2.31h-.24A5.36,5.36,0,0,1,484.76,107.73Zm2.57-5a2.37,2.37,0,0,0,2.14-1,5.75,5.75,0,0,0,.67-2.93v-.5a6.38,6.38,0,0,0-.69-3.44,2.44,2.44,0,0,0-2.18-1,2.14,2.14,0,0,0-1.93,1.17,6.73,6.73,0,0,0-.68,3.33,6.2,6.2,0,0,0,.69,3.24A2.2,2.2,0,0,0,487.33,102.75Z"/><path class="cls-3" d="M514.06,107.41h-6.3V82.33h6.3Z"/><path class="cls-3" d="M529.77,107.41,528.56,105h-.13a7.25,7.25,0,0,1-2.59,2.16,8.7,8.7,0,0,1-3.42.58,5.36,5.36,0,0,1-4.06-1.55,6,6,0,0,1-1.48-4.35,5,5,0,0,1,2-4.34,11.1,11.1,0,0,1,5.88-1.61l3.05-.09v-.26a2,2,0,0,0-2.23-2.26,13.35,13.35,0,0,0-5.07,1.36l-1.82-4.16a17.55,17.55,0,0,1,8-1.64,7.83,7.83,0,0,1,5.44,1.74,6.23,6.23,0,0,1,1.93,4.86v12Zm-4.67-4.13a2.83,2.83,0,0,0,1.95-.72,2.41,2.41,0,0,0,.82-1.89V99.25l-1.45.07c-2.08.07-3.11.83-3.11,2.28C523.31,102.72,523.9,103.28,525.1,103.28Z"/><path class="cls-3" d="M549,88.83a5.48,5.48,0,0,1,4.73,2.49,11.89,11.89,0,0,1,1.75,6.92,12.06,12.06,0,0,1-1.76,7,5.67,5.67,0,0,1-4.91,2.52,6.65,6.65,0,0,1-1.81-.22,5.6,5.6,0,0,1-1.41-.6,7.7,7.7,0,0,1-1.44-1.29h-.38l-1,1.79h-4.92V82.33h6.3V88c0,.68-.07,1.85-.22,3.5h.22a5.69,5.69,0,0,1,2.12-2A5.78,5.78,0,0,1,549,88.83Zm-2.3,4.94a2.18,2.18,0,0,0-1.94.92,5.4,5.4,0,0,0-.61,2.89v.88a6.41,6.41,0,0,0,.61,3.22,2.19,2.19,0,0,0,2,1,1.87,1.87,0,0,0,1.71-1.13,7.4,7.4,0,0,0,.6-3.35Q549.08,93.78,546.71,93.77Z"/><path class="cls-3" d="M567.34,107.73a9.82,9.82,0,0,1-7.09-2.43,9.12,9.12,0,0,1-2.52-6.9q0-4.62,2.34-7.1a8.73,8.73,0,0,1,6.67-2.47A8.82,8.82,0,0,1,573.11,91a8.16,8.16,0,0,1,2.25,6.19V100H564.1a3.09,3.09,0,0,0,1.12,2.4,4.37,4.37,0,0,0,2.87.87,13.89,13.89,0,0,0,3.06-.32,14.91,14.91,0,0,0,3-1.07v4.53a11.21,11.21,0,0,1-3.06,1A21.57,21.57,0,0,1,567.34,107.73ZM567,93.11a2.66,2.66,0,0,0-1.87.7,3.26,3.26,0,0,0-.87,2.2h5.41a3.13,3.13,0,0,0-.75-2.11A2.49,2.49,0,0,0,567,93.11Z"/><path class="cls-3" d="M584.66,107.41h-6.3V82.33h6.3Z"/><path class="cls-2" d="M185,143.41a10.79,10.79,0,0,0,3.09-.56v3.66a11.15,11.15,0,0,1-4.51.82,5.52,5.52,0,0,1-4.29-1.49,6.49,6.49,0,0,1-1.35-4.47v-8.69h-2.35V130.6l2.71-1.64,1.41-3.8h3.15V129h5v3.69h-5v8.69a1.91,1.91,0,0,0,.58,1.54A2.3,2.3,0,0,0,185,143.41Z"/><path class="cls-2" d="M207.78,147h-4.91V136.48q0-3.9-2.9-3.9a3.28,3.28,0,0,0-3,1.41,8.57,8.57,0,0,0-.92,4.54V147h-4.92V121.93h4.92V127c0,.4,0,1.33-.11,2.8l-.12,1.45h.26a5.7,5.7,0,0,1,5.22-2.64,6.38,6.38,0,0,1,4.82,1.71,6.77,6.77,0,0,1,1.64,4.9Z"/><path class="cls-2" d="M223.72,147l-.95-2.45h-.13a7.2,7.2,0,0,1-2.55,2.16,8.17,8.17,0,0,1-3.43.61,5.55,5.55,0,0,1-4.08-1.48,5.72,5.72,0,0,1-1.49-4.23,4.77,4.77,0,0,1,2-4.23,11.67,11.67,0,0,1,6.06-1.5l3.12-.1V135c0-1.83-.93-2.74-2.8-2.74a12.83,12.83,0,0,0-5.08,1.31l-1.63-3.32a14.63,14.63,0,0,1,6.9-1.63,8.61,8.61,0,0,1,5.56,1.58,5.82,5.82,0,0,1,1.93,4.8v12Zm-1.45-8.35-1.9.06a6.08,6.08,0,0,0-3.19.78,2.42,2.42,0,0,0-1.05,2.16c0,1.38.8,2.07,2.39,2.07a3.75,3.75,0,0,0,2.73-1,3.44,3.44,0,0,0,1-2.61Z"/><path class="cls-2" d="M239.24,143.41a10.91,10.91,0,0,0,3.1-.56v3.66a11.2,11.2,0,0,1-4.52.82,5.54,5.54,0,0,1-4.29-1.49,6.49,6.49,0,0,1-1.35-4.47v-8.69h-2.35V130.6l2.71-1.64,1.42-3.8h3.14V129h5v3.69h-5v8.69a1.89,1.89,0,0,0,.59,1.54A2.28,2.28,0,0,0,239.24,143.41Z"/><path class="cls-2" d="M266.19,147l-.66-2.31h-.26a5.13,5.13,0,0,1-2.24,1.94,7.61,7.61,0,0,1-3.3.69,6.32,6.32,0,0,1-4.79-1.7,6.86,6.86,0,0,1-1.61-4.89V129h4.92v10.52a5.09,5.09,0,0,0,.69,2.93,2.52,2.52,0,0,0,2.21,1,3.35,3.35,0,0,0,3-1.37,8.61,8.61,0,0,0,.91-4.57V129H270v18Z"/><path class="cls-2" d="M287.12,141.66a5,5,0,0,1-1.92,4.22,9.59,9.59,0,0,1-5.76,1.45,17.78,17.78,0,0,1-3.35-.27,13.11,13.11,0,0,1-2.6-.78v-4.06a16.91,16.91,0,0,0,3.09,1.08,12.43,12.43,0,0,0,3,.43c1.78,0,2.67-.51,2.67-1.54a1.26,1.26,0,0,0-.35-.94,5.12,5.12,0,0,0-1.23-.83c-.58-.3-1.35-.66-2.32-1.07a14.89,14.89,0,0,1-3.05-1.61,4.55,4.55,0,0,1-1.42-1.7,5.71,5.71,0,0,1-.44-2.36,4.27,4.27,0,0,1,1.86-3.71,9,9,0,0,1,5.28-1.32,14.89,14.89,0,0,1,6.33,1.42l-1.48,3.55a25.66,25.66,0,0,0-2.53-1,7.92,7.92,0,0,0-2.4-.38c-1.45,0-2.18.4-2.18,1.18a1.39,1.39,0,0,0,.7,1.14,18,18,0,0,0,3.07,1.44,14.64,14.64,0,0,1,3.1,1.59,5,5,0,0,1,1.45,1.71A5.29,5.29,0,0,1,287.12,141.66Z"/><path class="cls-2" d="M298.55,147.33a9.3,9.3,0,0,1-6.8-2.4,9.11,9.11,0,0,1-2.45-6.8q0-4.53,2.27-7a8,8,0,0,1,6.26-2.48,7.94,7.94,0,0,1,5.94,2.18,8.22,8.22,0,0,1,2.13,6v2.38H294.28a4.71,4.71,0,0,0,1.24,3.27,4.35,4.35,0,0,0,3.26,1.18,13.19,13.19,0,0,0,3.07-.34,14.58,14.58,0,0,0,3-1.08v3.8a11.48,11.48,0,0,1-2.75,1A17.32,17.32,0,0,1,298.55,147.33Zm-.69-15.18a3.12,3.12,0,0,0-2.45,1,4.62,4.62,0,0,0-1,2.81h6.9a4.1,4.1,0,0,0-1-2.81A3.22,3.22,0,0,0,297.86,132.15Z"/><path class="cls-2" d="M321.9,141.66a5,5,0,0,1-1.92,4.22,9.59,9.59,0,0,1-5.76,1.45,18,18,0,0,1-3.36-.27,13.22,13.22,0,0,1-2.59-.78v-4.06a16.91,16.91,0,0,0,3.09,1.08,12.43,12.43,0,0,0,3,.43c1.78,0,2.67-.51,2.67-1.54a1.3,1.3,0,0,0-.35-.94,5.12,5.12,0,0,0-1.23-.83c-.58-.3-1.35-.66-2.32-1.07a14.89,14.89,0,0,1-3-1.61,4.55,4.55,0,0,1-1.42-1.7,5.71,5.71,0,0,1-.44-2.36A4.27,4.27,0,0,1,310.1,130a9,9,0,0,1,5.28-1.32,14.89,14.89,0,0,1,6.33,1.42l-1.48,3.55a25.66,25.66,0,0,0-2.53-1,7.92,7.92,0,0,0-2.4-.38c-1.45,0-2.18.4-2.18,1.18a1.37,1.37,0,0,0,.7,1.14,18,18,0,0,0,3.07,1.44,14.26,14.26,0,0,1,3.09,1.59,4.75,4.75,0,0,1,1.45,1.71A5.15,5.15,0,0,1,321.9,141.66Z"/><path class="cls-3" d="M344.69,147l-1.21-2.42h-.13a7.17,7.17,0,0,1-2.59,2.16,8.7,8.7,0,0,1-3.42.58,5.38,5.38,0,0,1-4.06-1.55,6.06,6.06,0,0,1-1.48-4.35,5,5,0,0,1,2-4.34,11.15,11.15,0,0,1,5.88-1.61l3.05-.09v-.26a2,2,0,0,0-2.22-2.26,13.35,13.35,0,0,0-5.08,1.36l-1.82-4.16a17.47,17.47,0,0,1,8.06-1.64,7.8,7.8,0,0,1,5.43,1.74,6.2,6.2,0,0,1,1.93,4.86v12ZM340,142.88a2.88,2.88,0,0,0,2-.72,2.44,2.44,0,0,0,.81-1.89v-1.42l-1.45.07c-2.07.07-3.11.83-3.11,2.29C338.23,142.32,338.83,142.88,340,142.88Z"/><path class="cls-3" d="M363.81,128.43a8.8,8.8,0,0,1,1.56.13l.35.06-.56,5.95a9.16,9.16,0,0,0-2.14-.2,4.07,4.07,0,0,0-3,.95,3.69,3.69,0,0,0-.94,2.71v9h-6.3V128.75h4.69l1,2.92h.3a6.36,6.36,0,0,1,2.2-2.35A5.32,5.32,0,0,1,363.81,128.43Z"/><path class="cls-3" d="M376.65,142.35a9.41,9.41,0,0,0,3.05-.63v4.59a11.75,11.75,0,0,1-2.43.78,13.4,13.4,0,0,1-2.7.24c-2.11,0-3.64-.52-4.57-1.56a6.92,6.92,0,0,1-1.41-4.77v-7.53h-2.2v-2.56l2.8-2,1.63-3.84h4.12v3.66h4.48v4.72h-4.48v7.11A1.54,1.54,0,0,0,376.65,142.35Z"/><path class="cls-3" d="M382.2,124.21a2.68,2.68,0,0,1,.79-2.12,5,5,0,0,1,5.1,0,2.63,2.63,0,0,1,.81,2.1c0,1.84-1.12,2.77-3.37,2.77S382.2,126.05,382.2,124.21Zm6.46,22.8h-6.3V128.75h6.3Z"/><path class="cls-3" d="M403.65,133.47h-3.89V147h-6.3V133.47h-2.41v-3.09l2.54-1.55v-.31q0-3.6,1.48-5.19t4.72-1.57a13.91,13.91,0,0,1,2.38.19,17.72,17.72,0,0,1,2.6.68l-1.35,4.07a8.63,8.63,0,0,0-2.27-.32,1.26,1.26,0,0,0-1.06.44,2.48,2.48,0,0,0-.33,1.45v.48h3.89Zm2.35-9.26a2.68,2.68,0,0,1,.79-2.12,3.8,3.8,0,0,1,2.54-.69,3.87,3.87,0,0,1,2.57.71,2.66,2.66,0,0,1,.8,2.1c0,1.84-1.12,2.77-3.37,2.77S406,126.05,406,124.21Zm6.46,22.8h-6.3V128.75h6.3Z"/><path class="cls-3" d="M424.6,147.33c-3,0-5.25-.81-6.8-2.42s-2.31-3.93-2.31-6.94a9.57,9.57,0,0,1,2.5-7.05c1.67-1.66,4-2.49,7.11-2.49a13.32,13.32,0,0,1,6,1.38l-1.85,4.66a21.44,21.44,0,0,0-2.11-.8,6.75,6.75,0,0,0-2-.3,2.72,2.72,0,0,0-2.37,1.2,5.75,5.75,0,0,0-.84,3.36q0,4.4,3.24,4.39a9.84,9.84,0,0,0,5.32-1.61v5A10.42,10.42,0,0,1,424.6,147.33Z"/><path class="cls-3" d="M433.38,124.21a2.68,2.68,0,0,1,.79-2.12,5,5,0,0,1,5.11,0,2.63,2.63,0,0,1,.8,2.1c0,1.84-1.12,2.77-3.36,2.77S433.38,126.05,433.38,124.21Zm6.46,22.8h-6.3V128.75h6.3Z"/><path class="cls-3" d="M455.59,147l-1.21-2.42h-.13a7.25,7.25,0,0,1-2.59,2.16,8.7,8.7,0,0,1-3.42.58,5.36,5.36,0,0,1-4.06-1.55,6,6,0,0,1-1.48-4.35,4.93,4.93,0,0,1,2-4.34,11.1,11.1,0,0,1,5.88-1.61l3-.09v-.26a2,2,0,0,0-2.22-2.26,13.35,13.35,0,0,0-5.07,1.36l-1.83-4.16a17.5,17.5,0,0,1,8.06-1.64,7.83,7.83,0,0,1,5.44,1.74A6.23,6.23,0,0,1,460,135v12Zm-4.67-4.13a2.83,2.83,0,0,0,1.95-.72,2.41,2.41,0,0,0,.82-1.89v-1.42l-1.45.07c-2.08.07-3.11.83-3.11,2.29C449.13,142.32,449.72,142.88,450.92,142.88Z"/><path class="cls-3" d="M470,147h-6.3V121.93H470Z"/><path class="cls-3" d="M481.67,124.21a2.68,2.68,0,0,1,.79-2.12,3.8,3.8,0,0,1,2.54-.69,3.87,3.87,0,0,1,2.57.71,2.66,2.66,0,0,1,.8,2.1c0,1.84-1.12,2.77-3.37,2.77S481.67,126.05,481.67,124.21Zm6.46,22.8h-6.3V128.75h6.3Z"/><path class="cls-3" d="M503.49,147v-10a5.83,5.83,0,0,0-.52-2.75,1.8,1.8,0,0,0-1.69-.93,2.43,2.43,0,0,0-2.3,1.28,9.52,9.52,0,0,0-.71,4.36v8H492V128.75h4.75l.79,2.25h.37a5.06,5.06,0,0,1,2.23-1.93,7.9,7.9,0,0,1,3.28-.64,6.25,6.25,0,0,1,4.72,1.75,6.87,6.87,0,0,1,1.68,4.95V147Z"/><path class="cls-3" d="M522.46,142.35a9.31,9.31,0,0,0,3-.63v4.59a11.67,11.67,0,0,1-2.42.78,13.4,13.4,0,0,1-2.7.24c-2.12,0-3.64-.52-4.58-1.56a7,7,0,0,1-1.4-4.77v-7.53h-2.21v-2.56l2.81-2,1.62-3.84h4.13v3.66h4.48v4.72h-4.48v7.11A1.54,1.54,0,0,0,522.46,142.35Z"/><path class="cls-3" d="M537,147.33a9.82,9.82,0,0,1-7.09-2.43,9.12,9.12,0,0,1-2.52-6.9q0-4.62,2.34-7.1a8.73,8.73,0,0,1,6.67-2.47,8.82,8.82,0,0,1,6.37,2.15,8.16,8.16,0,0,1,2.25,6.19v2.81H533.71a3.09,3.09,0,0,0,1.12,2.4,4.37,4.37,0,0,0,2.87.87,13.89,13.89,0,0,0,3.06-.32,14.33,14.33,0,0,0,3-1.07V146a11.21,11.21,0,0,1-3.06,1A21.57,21.57,0,0,1,537,147.33Zm-.37-14.62a2.66,2.66,0,0,0-1.87.7,3.26,3.26,0,0,0-.87,2.2h5.41a3.13,3.13,0,0,0-.75-2.11A2.49,2.49,0,0,0,536.58,132.71Z"/><path class="cls-3" d="M554.27,147H548V121.93h6.3Z"/><path class="cls-3" d="M564.38,147h-6.3V121.93h6.3Z"/><path class="cls-3" d="M568.05,124.21a2.71,2.71,0,0,1,.79-2.12,5,5,0,0,1,5.11,0,2.63,2.63,0,0,1,.81,2.1c0,1.84-1.13,2.77-3.37,2.77S568.05,126.05,568.05,124.21Zm6.46,22.8h-6.3V128.75h6.3Z"/><path class="cls-3" d="M595.58,128.75v3l-2.5.92a4.5,4.5,0,0,1,.52,2.18,5.48,5.48,0,0,1-2.07,4.57q-2.07,1.64-6.18,1.63a7.75,7.75,0,0,1-1.62-.13,1.69,1.69,0,0,0-.22.79c0,.31.25.55.76.72a6.32,6.32,0,0,0,2,.25h3q6.13,0,6.14,5.17a5.86,5.86,0,0,1-2.85,5.19c-1.89,1.24-4.55,1.85-8,1.85a11.51,11.51,0,0,1-6-1.29,4.14,4.14,0,0,1-2.1-3.73q0-3.27,4.06-4.23a3.6,3.6,0,0,1-1.46-1.14,2.44,2.44,0,0,1-.15-3.07,6.93,6.93,0,0,1,1.95-1.55,4.85,4.85,0,0,1-2.23-2,6.08,6.08,0,0,1-.82-3.25,5.64,5.64,0,0,1,2-4.63,9,9,0,0,1,5.8-1.64c.34,0,.91,0,1.73.11s1.42.14,1.8.21Zm-13.76,20.53a1.42,1.42,0,0,0,.84,1.25,4.56,4.56,0,0,0,2.23.47,9.77,9.77,0,0,0,3.67-.57q1.38-.57,1.38-1.47a1.07,1.07,0,0,0-.84-1,7.46,7.46,0,0,0-2.4-.3h-2.47a3,3,0,0,0-1.71.48A1.39,1.39,0,0,0,581.82,149.28Zm2-14.55c0,1.87.65,2.8,2,2.8a1.6,1.6,0,0,0,1.39-.69,3.59,3.59,0,0,0,.49-2.08c0-1.89-.62-2.84-1.88-2.84S583.8,132.86,583.8,134.73Z"/><path class="cls-3" d="M606.6,147.33a9.78,9.78,0,0,1-7.08-2.43A9.12,9.12,0,0,1,597,138q0-4.62,2.34-7.1a8.72,8.72,0,0,1,6.67-2.47,8.82,8.82,0,0,1,6.37,2.15,8.16,8.16,0,0,1,2.25,6.19v2.81H603.36a3.16,3.16,0,0,0,1.12,2.4,4.42,4.42,0,0,0,2.88.87,13.79,13.79,0,0,0,3-.32,14.13,14.13,0,0,0,3-1.07V146a11,11,0,0,1-3.06,1A21.49,21.49,0,0,1,606.6,147.33Zm-.37-14.62a2.65,2.65,0,0,0-1.86.7,3.31,3.31,0,0,0-.88,2.2h5.42a3.18,3.18,0,0,0-.75-2.11A2.5,2.5,0,0,0,606.23,132.71Z"/><path class="cls-3" d="M629.15,147v-10a5.7,5.7,0,0,0-.53-2.75,1.78,1.78,0,0,0-1.68-.93,2.43,2.43,0,0,0-2.3,1.28,9.52,9.52,0,0,0-.71,4.36v8h-6.3V128.75h4.75l.79,2.25h.37a5.06,5.06,0,0,1,2.23-1.93,7.9,7.9,0,0,1,3.28-.64,6.21,6.21,0,0,1,4.71,1.75,6.83,6.83,0,0,1,1.69,4.95V147Z"/><path class="cls-3" d="M647.49,147.33q-4.49,0-6.79-2.42c-1.55-1.61-2.32-3.93-2.32-6.94a9.57,9.57,0,0,1,2.5-7.05q2.5-2.49,7.11-2.49a13.32,13.32,0,0,1,6,1.38l-1.85,4.66a20.52,20.52,0,0,0-2.11-.8,6.7,6.7,0,0,0-2-.3,2.72,2.72,0,0,0-2.37,1.2,5.75,5.75,0,0,0-.84,3.36q0,4.4,3.24,4.39a9.84,9.84,0,0,0,5.32-1.61v5A10.42,10.42,0,0,1,647.49,147.33Z"/><path class="cls-3" d="M665.22,147.33a9.82,9.82,0,0,1-7.09-2.43,9.12,9.12,0,0,1-2.52-6.9q0-4.62,2.34-7.1a8.73,8.73,0,0,1,6.67-2.47,8.82,8.82,0,0,1,6.37,2.15,8.16,8.16,0,0,1,2.25,6.19v2.81H662a3.09,3.09,0,0,0,1.12,2.4,4.37,4.37,0,0,0,2.87.87,13.89,13.89,0,0,0,3.06-.32,14.33,14.33,0,0,0,3-1.07V146a11.21,11.21,0,0,1-3.06,1A21.57,21.57,0,0,1,665.22,147.33Zm-.37-14.62a2.66,2.66,0,0,0-1.87.7,3.26,3.26,0,0,0-.87,2.2h5.41a3.13,3.13,0,0,0-.75-2.11A2.49,2.49,0,0,0,664.85,132.71Z"/><path class="cls-2" d="M185,183a10.79,10.79,0,0,0,3.09-.56v3.66a11.15,11.15,0,0,1-4.51.82,5.52,5.52,0,0,1-4.29-1.49,6.49,6.49,0,0,1-1.35-4.47v-8.69h-2.35V170.2l2.71-1.64,1.41-3.8h3.15v3.83h5v3.69h-5V181a1.91,1.91,0,0,0,.58,1.54A2.3,2.3,0,0,0,185,183Z"/><path class="cls-2" d="M207.53,177.57a9.72,9.72,0,0,1-2.32,6.88,8.45,8.45,0,0,1-6.47,2.48,9,9,0,0,1-4.57-1.14,7.58,7.58,0,0,1-3-3.26,11,11,0,0,1-1.06-5,9.65,9.65,0,0,1,2.3-6.87,8.49,8.49,0,0,1,6.48-2.45,9.15,9.15,0,0,1,4.58,1.13,7.51,7.51,0,0,1,3,3.24A10.87,10.87,0,0,1,207.53,177.57Zm-12.46,0a7.5,7.5,0,0,0,.88,4,3.14,3.14,0,0,0,2.86,1.37,3.09,3.09,0,0,0,2.83-1.36,7.72,7.72,0,0,0,.86-4.05,7.48,7.48,0,0,0-.87-4,3.71,3.71,0,0,0-5.69,0A7.41,7.41,0,0,0,195.07,177.57Z"/><path class="cls-2" d="M229,172.28h-4.25v14.33h-4.91V172.28h-2.71v-2.37l2.71-1.32v-1.32a5.92,5.92,0,0,1,1.51-4.5q1.51-1.41,4.85-1.41a12.73,12.73,0,0,1,4.53.75l-1.26,3.61a9.19,9.19,0,0,0-2.74-.46,1.74,1.74,0,0,0-1.51.62,2.56,2.56,0,0,0-.47,1.58v1.13H229Zm2.61-8.35c0-1.6.9-2.4,2.68-2.4s2.67.8,2.67,2.4a2.34,2.34,0,0,1-.66,1.78,2.81,2.81,0,0,1-2,.64C232.5,166.35,231.6,165.55,231.6,163.93Zm5.13,22.68h-4.92v-18h4.92Z"/><path class="cls-2" d="M257.94,186.61H253V176.08a5.05,5.05,0,0,0-.69-2.92,2.53,2.53,0,0,0-2.21-1,3.32,3.32,0,0,0-3,1.38,8.57,8.57,0,0,0-.92,4.57v8.48h-4.91v-18h3.75l.66,2.31H246a5.19,5.19,0,0,1,2.26-2,7.78,7.78,0,0,1,3.28-.67,6.33,6.33,0,0,1,4.77,1.7,6.86,6.86,0,0,1,1.63,4.91Z"/><path class="cls-2" d="M268.14,186.93a5.84,5.84,0,0,1-5-2.47,13.82,13.82,0,0,1,0-13.73,6,6,0,0,1,5.09-2.48,5.88,5.88,0,0,1,5.19,2.65h.16a20,20,0,0,1-.37-3.6v-5.77h4.93v25.08h-3.77l-1-2.34h-.21A5.63,5.63,0,0,1,268.14,186.93Zm1.72-3.92a3.34,3.34,0,0,0,2.77-1.09,6.4,6.4,0,0,0,.95-3.73v-.53a7.3,7.3,0,0,0-.89-4.15,3.33,3.33,0,0,0-2.91-1.26,2.87,2.87,0,0,0-2.55,1.39,7.42,7.42,0,0,0-.91,4.06,7,7,0,0,0,.92,4A3,3,0,0,0,269.86,183Z"/><path class="cls-2" d="M302.21,186.61l-.95-2.45h-.13a7.28,7.28,0,0,1-2.55,2.16,8.17,8.17,0,0,1-3.43.61,5.55,5.55,0,0,1-4.08-1.48,5.68,5.68,0,0,1-1.49-4.23,4.77,4.77,0,0,1,2-4.23,11.66,11.66,0,0,1,6.05-1.5l3.13-.1v-.79c0-1.82-.94-2.74-2.8-2.74a12.79,12.79,0,0,0-5.08,1.31l-1.63-3.32a14.6,14.6,0,0,1,6.9-1.63,8.61,8.61,0,0,1,5.56,1.58,5.82,5.82,0,0,1,1.93,4.8v12Zm-1.45-8.35-1.9.06a6.08,6.08,0,0,0-3.19.78,2.42,2.42,0,0,0-1.05,2.16c0,1.38.79,2.07,2.38,2.07a3.79,3.79,0,0,0,2.74-1,3.44,3.44,0,0,0,1-2.61Z"/><path class="cls-2" d="M326.77,186.61h-4.92V176.08a5.05,5.05,0,0,0-.69-2.92,2.53,2.53,0,0,0-2.21-1,3.32,3.32,0,0,0-3,1.38,8.57,8.57,0,0,0-.92,4.57v8.48h-4.91v-18h3.75l.66,2.31h.28a5.24,5.24,0,0,1,2.26-2,7.81,7.81,0,0,1,3.28-.67,6.3,6.3,0,0,1,4.77,1.7,6.82,6.82,0,0,1,1.63,4.91Z"/><path class="cls-2" d="M337,186.93a5.84,5.84,0,0,1-5-2.47,13.79,13.79,0,0,1,0-13.73,6,6,0,0,1,5.08-2.48,5.86,5.86,0,0,1,5.19,2.65h.16a20,20,0,0,1-.37-3.6v-5.77H347v25.08h-3.77l-.95-2.34h-.21A5.63,5.63,0,0,1,337,186.93ZM338.7,183a3.34,3.34,0,0,0,2.76-1.09,6.47,6.47,0,0,0,1-3.73v-.53a7.29,7.29,0,0,0-.9-4.15,3.31,3.31,0,0,0-2.91-1.26,2.88,2.88,0,0,0-2.55,1.39,7.42,7.42,0,0,0-.91,4.06,7,7,0,0,0,.92,4A3,3,0,0,0,338.7,183Z"/><path class="cls-3" d="M370.15,186.93a6.49,6.49,0,0,1-2.48-.46,6.42,6.42,0,0,1-2.17-1.65h-.29c.19,1.28.29,2.07.29,2.38v7.33h-6.3V168.35h5.12l.89,2.32h.29a5.53,5.53,0,0,1,4.85-2.64,5.46,5.46,0,0,1,4.75,2.51,12.06,12.06,0,0,1,1.73,6.9,11.82,11.82,0,0,1-1.8,6.95A5.68,5.68,0,0,1,370.15,186.93ZM368,173a2,2,0,0,0-1.94,1,6.52,6.52,0,0,0-.6,2.95v.5a6.84,6.84,0,0,0,.63,3.39,2.13,2.13,0,0,0,2,1,1.83,1.83,0,0,0,1.75-1,7.79,7.79,0,0,0,.55-3.44,7.5,7.5,0,0,0-.55-3.37A1.9,1.9,0,0,0,368,173Z"/><path class="cls-3" d="M390.88,168a8.64,8.64,0,0,1,1.56.13l.36.06-.57,5.95a9.1,9.1,0,0,0-2.14-.2,4.07,4.07,0,0,0-3,.95,3.68,3.68,0,0,0-.93,2.71v9h-6.3V168.35h4.69l1,2.92h.3a6.36,6.36,0,0,1,2.2-2.35A5.32,5.32,0,0,1,390.88,168Z"/><path class="cls-3" d="M412.22,177.44a9.69,9.69,0,0,1-2.41,7,8.94,8.94,0,0,1-6.75,2.51,8.76,8.76,0,0,1-6.61-2.56,11.09,11.09,0,0,1-.05-13.87,9,9,0,0,1,6.76-2.47,9.65,9.65,0,0,1,4.75,1.14,7.82,7.82,0,0,1,3.19,3.28A10.67,10.67,0,0,1,412.22,177.44Zm-11.83,0A8.05,8.05,0,0,0,401,181a2.18,2.18,0,0,0,2.11,1.23A2.13,2.13,0,0,0,405.2,181a8.41,8.41,0,0,0,.6-3.58,7.93,7.93,0,0,0-.61-3.53,2.43,2.43,0,0,0-4.17,0A7.78,7.78,0,0,0,400.39,177.44Z"/><path class="cls-3" d="M437.66,186.61v-9.93a5.93,5.93,0,0,0-.51-2.78,1.69,1.69,0,0,0-1.6-.93,2.28,2.28,0,0,0-2.13,1.24,8.54,8.54,0,0,0-.67,3.89v8.51h-6.32v-9.93a6.25,6.25,0,0,0-.48-2.78,1.65,1.65,0,0,0-1.57-.93,2.28,2.28,0,0,0-2.16,1.32,10.19,10.19,0,0,0-.67,4.32v8h-6.3V168.35H420l.79,2.26h.37a4.72,4.72,0,0,1,2.1-1.92,7.2,7.2,0,0,1,3.14-.66q3.94,0,5.54,2.4h.5a5.25,5.25,0,0,1,2.15-1.77,7.22,7.22,0,0,1,3-.63,6.26,6.26,0,0,1,4.79,1.66,7.15,7.15,0,0,1,1.54,5v11.88Z"/><path class="cls-3" d="M465.12,177.44a9.64,9.64,0,0,1-2.41,7,8.9,8.9,0,0,1-6.74,2.51,8.78,8.78,0,0,1-6.62-2.56,9.63,9.63,0,0,1-2.45-6.93,9.51,9.51,0,0,1,2.41-6.94,9,9,0,0,1,6.76-2.47,9.68,9.68,0,0,1,4.75,1.14,7.86,7.86,0,0,1,3.18,3.28A10.55,10.55,0,0,1,465.12,177.44Zm-11.83,0a8.05,8.05,0,0,0,.63,3.58,2.18,2.18,0,0,0,2.11,1.23A2.12,2.12,0,0,0,458.1,181a8.24,8.24,0,0,0,.61-3.58,8.08,8.08,0,0,0-.61-3.53,2.44,2.44,0,0,0-4.18,0A7.78,7.78,0,0,0,453.29,177.44Z"/><path class="cls-3" d="M477.1,182a9.31,9.31,0,0,0,3-.63v4.59a11.86,11.86,0,0,1-2.42.78,13.4,13.4,0,0,1-2.7.24c-2.12,0-3.64-.52-4.58-1.56a7,7,0,0,1-1.4-4.77v-7.53h-2.21v-2.56l2.81-2,1.62-3.84h4.13v3.66h4.48v4.72h-4.48v7.11A1.54,1.54,0,0,0,477.1,182Z"/><path class="cls-3" d="M491.58,186.93a9.78,9.78,0,0,1-7.08-2.43,9.12,9.12,0,0,1-2.52-6.9q0-4.62,2.34-7.1A8.73,8.73,0,0,1,491,168a8.82,8.82,0,0,1,6.37,2.15,8.16,8.16,0,0,1,2.25,6.19v2.81H488.35a3.09,3.09,0,0,0,1.12,2.4,4.37,4.37,0,0,0,2.87.87,13.89,13.89,0,0,0,3.06-.32,14.91,14.91,0,0,0,3-1.07v4.53a11.21,11.21,0,0,1-3.06,1A21.61,21.61,0,0,1,491.58,186.93Zm-.37-14.62a2.65,2.65,0,0,0-1.86.7,3.26,3.26,0,0,0-.87,2.2h5.41a3.13,3.13,0,0,0-.75-2.11A2.5,2.5,0,0,0,491.21,172.31Z"/><path class="cls-2" d="M185,222.61a10.79,10.79,0,0,0,3.09-.56v3.66a11.15,11.15,0,0,1-4.51.82,5.52,5.52,0,0,1-4.29-1.49,6.49,6.49,0,0,1-1.35-4.47v-8.69h-2.35V209.8l2.71-1.64,1.41-3.8h3.15v3.83h5v3.69h-5v8.69a1.91,1.91,0,0,0,.58,1.54A2.3,2.3,0,0,0,185,222.61Z"/><path class="cls-2" d="M207.78,226.21h-4.91V215.68q0-3.9-2.9-3.9a3.28,3.28,0,0,0-3,1.41,8.54,8.54,0,0,0-.92,4.54v8.48h-4.92V201.13h4.92v5.11c0,.4,0,1.33-.11,2.8l-.12,1.46h.26a5.69,5.69,0,0,1,5.22-2.65,6.38,6.38,0,0,1,4.82,1.71,6.77,6.77,0,0,1,1.64,4.9Z"/><path class="cls-2" d="M220.43,226.53a9.31,9.31,0,0,1-6.8-2.4,9.1,9.1,0,0,1-2.44-6.8c0-3,.75-5.36,2.26-7a8.07,8.07,0,0,1,6.26-2.48,7.94,7.94,0,0,1,5.95,2.18,8.25,8.25,0,0,1,2.12,6v2.38H216.17a4.67,4.67,0,0,0,1.24,3.27,4.32,4.32,0,0,0,3.25,1.18,13.28,13.28,0,0,0,3.08-.34,14.79,14.79,0,0,0,3-1.08v3.8a11.56,11.56,0,0,1-2.76,1A17.32,17.32,0,0,1,220.43,226.53Zm-.69-15.18a3.12,3.12,0,0,0-2.45,1,4.56,4.56,0,0,0-1,2.81h6.89a4.05,4.05,0,0,0-.95-2.81A3.22,3.22,0,0,0,219.74,211.35Z"/><path class="cls-2" d="M254,226.21l-1.39-6.3-1.87-8h-.11l-3.29,14.26H242.1l-5.13-18h4.9l2.08,8q.5,2.15,1,5.91h.1a31.19,31.19,0,0,1,.57-3.88l.25-1.37,2.23-8.64h5.41l2.11,8.64c0,.23.11.58.2,1s.18,1,.27,1.47.16,1,.23,1.53a12,12,0,0,1,.12,1.2h.1c.1-.77.27-1.83.52-3.18s.42-2.26.53-2.73l2.16-8h4.82l-5.19,18Z"/><path class="cls-2" d="M283.29,217.17a9.68,9.68,0,0,1-2.33,6.88,8.42,8.42,0,0,1-6.46,2.48,9,9,0,0,1-4.57-1.14,7.58,7.58,0,0,1-3.05-3.26,11,11,0,0,1-1.06-5,9.65,9.65,0,0,1,2.3-6.87,8.49,8.49,0,0,1,6.48-2.45,9.12,9.12,0,0,1,4.58,1.13,7.51,7.51,0,0,1,3,3.24A10.87,10.87,0,0,1,283.29,217.17Zm-12.46,0a7.5,7.5,0,0,0,.88,4,3.14,3.14,0,0,0,2.86,1.37,3.09,3.09,0,0,0,2.83-1.36,7.72,7.72,0,0,0,.86-4.05,7.45,7.45,0,0,0-.87-4,3.71,3.71,0,0,0-5.69,0A7.41,7.41,0,0,0,270.83,217.17Z"/><path class="cls-2" d="M296.84,207.85a7.65,7.65,0,0,1,1.66.15l-.37,4.61a5.49,5.49,0,0,0-1.45-.17,5.25,5.25,0,0,0-3.67,1.21A4.41,4.41,0,0,0,291.7,217v9.17h-4.91v-18h3.72l.72,3h.24a6.82,6.82,0,0,1,2.27-2.44A5.55,5.55,0,0,1,296.84,207.85Z"/><path class="cls-2" d="M306.12,226.21h-4.91V201.13h4.91Z"/><path class="cls-2" d="M316.42,226.53a5.84,5.84,0,0,1-5-2.47,13.76,13.76,0,0,1,0-13.73,6,6,0,0,1,5.08-2.48,5.86,5.86,0,0,1,5.19,2.65h.16a20.93,20.93,0,0,1-.37-3.6v-5.77h4.93v25.08h-3.77l-.95-2.34h-.21A5.63,5.63,0,0,1,316.42,226.53Zm1.73-3.92a3.32,3.32,0,0,0,2.76-1.09,6.34,6.34,0,0,0,1-3.73v-.53a7.39,7.39,0,0,0-.89-4.15,3.33,3.33,0,0,0-2.91-1.26,2.89,2.89,0,0,0-2.56,1.39,7.5,7.5,0,0,0-.91,4,7,7,0,0,0,.92,4A3,3,0,0,0,318.15,222.61Z"/><path class="cls-2" d="M335,202.65l.23.35a49.08,49.08,0,0,1-2.84,7.72h-3.52c.74-3.18,1.27-5.87,1.61-8.07Z"/><path class="cls-2" d="M350.2,220.86a5,5,0,0,1-1.92,4.22,9.59,9.59,0,0,1-5.76,1.45,17.78,17.78,0,0,1-3.35-.27,13.11,13.11,0,0,1-2.6-.78v-4.06a16.91,16.91,0,0,0,3.09,1.08,12.43,12.43,0,0,0,3,.43c1.78,0,2.67-.51,2.67-1.54a1.34,1.34,0,0,0-.35-.95,5.46,5.46,0,0,0-1.23-.82c-.58-.3-1.35-.66-2.32-1.07a14.89,14.89,0,0,1-3.05-1.61,4.55,4.55,0,0,1-1.42-1.7,5.71,5.71,0,0,1-.44-2.36,4.27,4.27,0,0,1,1.86-3.71,9,9,0,0,1,5.28-1.32,15,15,0,0,1,6.33,1.42l-1.48,3.55c-.91-.39-1.75-.71-2.53-1a8.23,8.23,0,0,0-2.4-.37c-1.45,0-2.18.4-2.18,1.18a1.39,1.39,0,0,0,.7,1.14,18.87,18.87,0,0,0,3.07,1.44,14.64,14.64,0,0,1,3.1,1.59,5,5,0,0,1,1.45,1.71A5.29,5.29,0,0,1,350.2,220.86Z"/><path class="cls-2" d="M377.17,208.19v2.5l-2.82.72a5,5,0,0,1,.77,2.71,5.46,5.46,0,0,1-2,4.52,8.76,8.76,0,0,1-5.62,1.62l-.88,0-.73-.08a1.66,1.66,0,0,0-.76,1.29c0,.71.91,1.06,2.71,1.06h3.06a7,7,0,0,1,4.52,1.28,4.52,4.52,0,0,1,1.56,3.73,5.54,5.54,0,0,1-2.64,4.9c-1.75,1.16-4.28,1.74-7.56,1.74a10.4,10.4,0,0,1-5.76-1.31,4.16,4.16,0,0,1-2-3.68,3.82,3.82,0,0,1,1-2.72,5.7,5.7,0,0,1,3-1.57,3.28,3.28,0,0,1-1.32-1,2.55,2.55,0,0,1-.56-1.56,2.52,2.52,0,0,1,.59-1.71,6.93,6.93,0,0,1,1.73-1.35,4.78,4.78,0,0,1-2.25-2,6,6,0,0,1-.83-3.19,5.64,5.64,0,0,1,1.92-4.56,8.31,8.31,0,0,1,5.48-1.61,14.26,14.26,0,0,1,1.79.14c.7.09,1.14.16,1.33.2Zm-13.91,20.56a1.77,1.77,0,0,0,1,1.6,5.41,5.41,0,0,0,2.73.58,9.72,9.72,0,0,0,4.14-.73,2.2,2.2,0,0,0,1.5-2,1.4,1.4,0,0,0-.89-1.4,7.19,7.19,0,0,0-2.74-.39h-2.55a3.82,3.82,0,0,0-2.26.64A1.94,1.94,0,0,0,363.26,228.75Zm1.79-14.66a3.64,3.64,0,0,0,.67,2.32,2.41,2.41,0,0,0,2,.85,2.38,2.38,0,0,0,2-.85,3.76,3.76,0,0,0,.64-2.32c0-2.17-.89-3.26-2.67-3.26S365.05,211.92,365.05,214.09Z"/><path class="cls-2" d="M389.62,207.85a7.65,7.65,0,0,1,1.66.15l-.37,4.61a5.44,5.44,0,0,0-1.45-.17,5.23,5.23,0,0,0-3.66,1.21,4.38,4.38,0,0,0-1.32,3.39v9.17h-4.91v-18h3.72l.73,3h.24a6.79,6.79,0,0,1,2.26-2.44A5.58,5.58,0,0,1,389.62,207.85Z"/><path class="cls-2" d="M402.15,226.53a9.3,9.3,0,0,1-6.8-2.4,9.07,9.07,0,0,1-2.45-6.8c0-3,.75-5.36,2.26-7a8.07,8.07,0,0,1,6.26-2.48,7.94,7.94,0,0,1,5.95,2.18,8.22,8.22,0,0,1,2.13,6v2.38H397.88a4.67,4.67,0,0,0,1.24,3.27,4.34,4.34,0,0,0,3.25,1.18,13.28,13.28,0,0,0,3.08-.34,14.58,14.58,0,0,0,3-1.08v3.8a11.56,11.56,0,0,1-2.76,1A17.22,17.22,0,0,1,402.15,226.53Zm-.69-15.18a3.11,3.11,0,0,0-2.45,1,4.62,4.62,0,0,0-1,2.81h6.9a4.1,4.1,0,0,0-.95-2.81A3.23,3.23,0,0,0,401.46,211.35Z"/><path class="cls-2" d="M424.37,226.21l-.95-2.45h-.13a7.28,7.28,0,0,1-2.55,2.16,8.17,8.17,0,0,1-3.43.61,5.52,5.52,0,0,1-4.08-1.49,5.64,5.64,0,0,1-1.49-4.22,4.77,4.77,0,0,1,2-4.23,11.66,11.66,0,0,1,6.05-1.5l3.13-.1v-.79c0-1.82-.93-2.74-2.8-2.74a12.83,12.83,0,0,0-5.08,1.31l-1.63-3.32a14.63,14.63,0,0,1,6.9-1.63,8.61,8.61,0,0,1,5.56,1.58,5.82,5.82,0,0,1,1.93,4.8v12Zm-1.45-8.35-1.9.06a6.08,6.08,0,0,0-3.19.78,2.42,2.42,0,0,0-1.05,2.16c0,1.38.8,2.07,2.39,2.07a3.78,3.78,0,0,0,2.73-1,3.44,3.44,0,0,0,1-2.61Z"/><path class="cls-2" d="M439.89,222.61a10.79,10.79,0,0,0,3.09-.56v3.66a11.12,11.12,0,0,1-4.51.82,5.54,5.54,0,0,1-4.29-1.49,6.49,6.49,0,0,1-1.35-4.47v-8.69h-2.35V209.8l2.71-1.64,1.42-3.8h3.14v3.83h5v3.69h-5v8.69a1.89,1.89,0,0,0,.59,1.54A2.28,2.28,0,0,0,439.89,222.61Z"/><path class="cls-2" d="M454.22,226.53a9.3,9.3,0,0,1-6.8-2.4,9.11,9.11,0,0,1-2.45-6.8c0-3,.75-5.36,2.26-7a8.07,8.07,0,0,1,6.26-2.48,7.94,7.94,0,0,1,5.95,2.18,8.22,8.22,0,0,1,2.13,6v2.38H450a4.71,4.71,0,0,0,1.24,3.27,4.34,4.34,0,0,0,3.25,1.18,13.28,13.28,0,0,0,3.08-.34,14.58,14.58,0,0,0,3-1.08v3.8a11.64,11.64,0,0,1-2.75,1A17.32,17.32,0,0,1,454.22,226.53Zm-.69-15.18a3.11,3.11,0,0,0-2.45,1,4.62,4.62,0,0,0-1,2.81H457a4.1,4.1,0,0,0-.95-2.81A3.23,3.23,0,0,0,453.53,211.35Z"/><path class="cls-2" d="M477.57,220.86a5,5,0,0,1-1.93,4.22,9.55,9.55,0,0,1-5.76,1.45,17.86,17.86,0,0,1-3.35-.27,13,13,0,0,1-2.59-.78v-4.06A17.07,17.07,0,0,0,467,222.5a12.5,12.5,0,0,0,3,.43c1.79,0,2.68-.51,2.68-1.54a1.34,1.34,0,0,0-.35-.95,5.46,5.46,0,0,0-1.23-.82c-.58-.3-1.35-.66-2.32-1.07a14.62,14.62,0,0,1-3.05-1.61,4.45,4.45,0,0,1-1.42-1.7,5.56,5.56,0,0,1-.44-2.36,4.27,4.27,0,0,1,1.86-3.71,9,9,0,0,1,5.27-1.32,15.12,15.12,0,0,1,6.34,1.42l-1.49,3.55a26.54,26.54,0,0,0-2.53-1,8.12,8.12,0,0,0-2.4-.37c-1.45,0-2.17.4-2.17,1.18a1.37,1.37,0,0,0,.7,1.14,18.87,18.87,0,0,0,3.07,1.44,14.26,14.26,0,0,1,3.09,1.59,4.75,4.75,0,0,1,1.45,1.71A5.29,5.29,0,0,1,477.57,220.86Z"/><path class="cls-2" d="M488.43,222.61a10.91,10.91,0,0,0,3.1-.56v3.66a11.2,11.2,0,0,1-4.52.82,5.54,5.54,0,0,1-4.29-1.49,6.49,6.49,0,0,1-1.34-4.47v-8.69H479V209.8l2.71-1.64,1.42-3.8h3.14v3.83h5v3.69h-5v8.69a1.92,1.92,0,0,0,.59,1.54A2.28,2.28,0,0,0,488.43,222.61Z"/><path class="cls-3" d="M524.63,226.21v-9.93a5.93,5.93,0,0,0-.51-2.78,1.7,1.7,0,0,0-1.6-.93,2.27,2.27,0,0,0-2.13,1.24,8.51,8.51,0,0,0-.68,3.89v8.51H513.4v-9.93a6.25,6.25,0,0,0-.48-2.78,1.65,1.65,0,0,0-1.57-.93,2.26,2.26,0,0,0-2.16,1.32,10.16,10.16,0,0,0-.67,4.32v8h-6.3V208H507l.79,2.26h.37a4.67,4.67,0,0,1,2.1-1.92,7.2,7.2,0,0,1,3.14-.66q3.95,0,5.54,2.4h.5a5.18,5.18,0,0,1,2.15-1.77,7.22,7.22,0,0,1,3-.63,6.22,6.22,0,0,1,4.78,1.66,7.16,7.16,0,0,1,1.55,5v11.88Z"/><path class="cls-3" d="M547.66,226.21l-.79-2.28h-.37a5.17,5.17,0,0,1-2.2,1.93,7.76,7.76,0,0,1-3.31.67,6.18,6.18,0,0,1-4.69-1.75,6.85,6.85,0,0,1-1.68-4.94V208h6.3v10a5.69,5.69,0,0,0,.51,2.71,1.77,1.77,0,0,0,1.67.92,2.44,2.44,0,0,0,2.32-1.28,9.82,9.82,0,0,0,.69-4.33v-8h6.3v18.26Z"/><path class="cls-3" d="M570.3,220.6a5.2,5.2,0,0,1-2,4.43,9.4,9.4,0,0,1-5.73,1.5,24.13,24.13,0,0,1-3.53-.22,14.42,14.42,0,0,1-3.06-.8v-5a18.88,18.88,0,0,0,3.21,1.06,13.58,13.58,0,0,0,3.12.42q2,0,2-.93a1.07,1.07,0,0,0-.57-.87,26.77,26.77,0,0,0-3.32-1.47,8.39,8.39,0,0,1-3.52-2.34,5.4,5.4,0,0,1-1-3.33,4.63,4.63,0,0,1,2-4,9.42,9.42,0,0,1,5.56-1.41,14.19,14.19,0,0,1,3.39.39,21.34,21.34,0,0,1,3.3,1.15l-1.71,4.06a19.89,19.89,0,0,0-2.66-.95,8.66,8.66,0,0,0-2.29-.4c-1,0-1.55.25-1.55.76a1,1,0,0,0,.54.8,30.36,30.36,0,0,0,3.12,1.34,11.91,11.91,0,0,1,2.86,1.55,4.65,4.65,0,0,1,1.39,1.78A6.34,6.34,0,0,1,570.3,220.6Z"/><path class="cls-3" d="M573.11,203.41a2.68,2.68,0,0,1,.79-2.12,5,5,0,0,1,5.1,0,2.63,2.63,0,0,1,.81,2.1c0,1.84-1.12,2.77-3.37,2.77S573.11,205.25,573.11,203.41Zm6.46,22.8h-6.3V208h6.3Z"/><path class="cls-3" d="M591.72,226.53q-4.49,0-6.79-2.42c-1.54-1.61-2.31-3.93-2.31-6.94a9.57,9.57,0,0,1,2.49-7q2.5-2.49,7.11-2.49a13.36,13.36,0,0,1,6,1.38l-1.85,4.66a22.44,22.44,0,0,0-2.11-.8,6.81,6.81,0,0,0-2-.3,2.72,2.72,0,0,0-2.37,1.2,5.75,5.75,0,0,0-.84,3.36q0,4.4,3.24,4.39a9.84,9.84,0,0,0,5.32-1.61v5A10.38,10.38,0,0,1,591.72,226.53Z"/><path class="cls-3" d="M600.51,203.41a2.71,2.71,0,0,1,.78-2.12,5,5,0,0,1,5.11,0,2.63,2.63,0,0,1,.81,2.1c0,1.84-1.12,2.77-3.37,2.77S600.51,205.25,600.51,203.41Zm6.46,22.8h-6.3V208H607Z"/><path class="cls-3" d="M622.71,226.21l-1.21-2.42h-.12a7.27,7.27,0,0,1-2.6,2.16,8.68,8.68,0,0,1-3.41.58A5.39,5.39,0,0,1,611.3,225a6.06,6.06,0,0,1-1.48-4.35,5,5,0,0,1,2-4.34,11.15,11.15,0,0,1,5.88-1.61l3-.09v-.26a2,2,0,0,0-2.22-2.26,13.35,13.35,0,0,0-5.08,1.36l-1.82-4.16a17.47,17.47,0,0,1,8.06-1.64,7.8,7.8,0,0,1,5.43,1.74,6.2,6.2,0,0,1,1.93,4.86v12ZM618,222.08a2.86,2.86,0,0,0,2-.72,2.44,2.44,0,0,0,.81-1.89v-1.42l-1.45.07c-2.07.07-3.11.83-3.11,2.28C616.25,221.52,616.85,222.08,618,222.08Z"/><path class="cls-3" d="M642.33,226.21v-10a5.7,5.7,0,0,0-.53-2.75,1.79,1.79,0,0,0-1.68-.93,2.46,2.46,0,0,0-2.31,1.28,9.68,9.68,0,0,0-.7,4.36v8h-6.3V208h4.75l.79,2.26h.37a5,5,0,0,1,2.23-1.94,7.87,7.87,0,0,1,3.28-.64,6.21,6.21,0,0,1,4.71,1.75,6.83,6.83,0,0,1,1.69,5v11.88Z"/><path class="cls-3" d="M666.45,220.6a5.2,5.2,0,0,1-2,4.43,9.4,9.4,0,0,1-5.73,1.5,24.13,24.13,0,0,1-3.53-.22,14.66,14.66,0,0,1-3.07-.8v-5a19,19,0,0,0,3.22,1.06,13.52,13.52,0,0,0,3.12.42q2,0,2-.93a1.07,1.07,0,0,0-.57-.87,26.77,26.77,0,0,0-3.32-1.47,8.39,8.39,0,0,1-3.52-2.34,5.4,5.4,0,0,1-1-3.33,4.63,4.63,0,0,1,2-4,9.42,9.42,0,0,1,5.56-1.41A14.19,14.19,0,0,1,663,208a20.89,20.89,0,0,1,3.29,1.15l-1.7,4.06a19.89,19.89,0,0,0-2.66-.95,8.66,8.66,0,0,0-2.29-.4c-1,0-1.55.25-1.55.76a1,1,0,0,0,.54.8,30.36,30.36,0,0,0,3.12,1.34,11.91,11.91,0,0,1,2.86,1.55,4.65,4.65,0,0,1,1.39,1.78A6.34,6.34,0,0,1,666.45,220.6Z"/><path class="cls-3" d="M668.6,223.53a3,3,0,0,1,.87-2.29,3.7,3.7,0,0,1,2.56-.8,3.47,3.47,0,0,1,2.45.8,3,3,0,0,1,.85,2.29,2.9,2.9,0,0,1-.88,2.26,3.38,3.38,0,0,1-2.42.82,3.64,3.64,0,0,1-2.51-.81A2.82,2.82,0,0,1,668.6,223.53Z"/></g></svg>