<svg xmlns="http://www.w3.org/2000/svg" viewBox="0 0 1200 628"><defs><style>.cls-1{fill:#a0afba;}.cls-2{fill:#78848c;}.cls-3{fill:#dcf1ff;}.cls-4{fill:#9cadb5;}.cls-5,.cls-7{fill:#fff;}.cls-6,.cls-7,.cls-8,.cls-9{fill-rule:evenodd;}.cls-8{fill:#d088ed;}.cls-10,.cls-9{fill:#b968d9;}</style></defs><g id="Layer_1" data-name="Layer 1"><path class="cls-1" d="M848.35,119.64q-1.27,3.44-2.71,6.62c.53,1.1,1,2.21,1.54,3.33q3.17-5.81,5.77-11.57c11-24.43,14.81-48.13,14-66.81-.74-17.66-5.29-30.33-11.32-34.09a5.56,5.56,0,0,0-.75-.41c-6.72-3-18.9,1.74-31.92,9.42-21.66,12.79-44.45,33.35-51.26,41.72a5,5,0,0,1-6,1.63C745.32,61,720.3,57.56,696.39,58.84s-46.64,7.26-62.33,17.5a5,5,0,0,1-5.07.26c-.08,0-27.34-14.2-48.61-21.69l-.2-.08a113.13,113.13,0,0,0-34.11-7.75c-10.16-.61-18.17.52-21.64,3.18l-.18.15c-3.44,2.89-1.84,18.53,3.84,38.29a198.22,198.22,0,0,0,24.15,53.14,5,5,0,0,1,1.57,2.32c.73,1.06,1.47,2.11,2.22,3.14.58-1.46,1.18-2.93,1.82-4.43a156.29,156.29,0,0,1-16.6-28.12,120.67,120.67,0,0,1-9.57-29.93c-1.55-9.63-.34-16.86,3.26-19.66v0a7.79,7.79,0,0,1,1.51-.93h0c16.43-7.46,47.42,14.33,58.46,22.09l2.24,1.59a5,5,0,0,1,1,7c-19.21,25.51-29.93,46.59-35.91,64.91l-.13.4c-7.48,23.15-7.38,41.87-7.28,59.51.12,22.74.23,43.78-14.35,69.87a310.34,310.34,0,0,0,57,50.27,5.08,5.08,0,0,1,2.1,1.4c13.88,9.13,29.42,17.34,45.91,22.61h34c4.42,0,8.44,2.66,9.65,6.15,27.07-.58,56.13-7.94,84.69-19.07,12.48-4.87,24.85-10.45,36.91-16.5l.21-.11A561.91,561.91,0,0,0,889,286.49c-18.27-18.06-24.64-49.22-31.47-82.68-9.47-46.38-19.9-97.43-64.59-119.18a5.4,5.4,0,0,1-1.13-.72,5,5,0,0,1-.59-7.1c.11-.13,36.32-43.44,55.9-37.25a5.18,5.18,0,0,1,.56.17c.24.09.49.2.77.33,6.11,3,9.23,15.67,8.85,31.67a154.37,154.37,0,0,1-9,47.91Z"/><path class="cls-2" d="M546.23,132c1.9,3.34,3.9,6.62,6,9.81a5,5,0,0,1,1.57,2.32c.73,1.06,1.47,2.11,2.22,3.14.58-1.46,1.18-2.93,1.82-4.43a152.52,152.52,0,0,1-9.83-15c-.6,1.39-1.19,2.77-1.79,4.13Z"/><path class="cls-2" d="M848.35,119.64q-1.27,3.44-2.71,6.62c.53,1.1,1,2.21,1.54,3.33q3.17-5.81,5.77-11.57c.35-.78.69-1.56,1-2.34-.89-1.37-1.86-2.79-2.9-4.24-.82,2.79-1.73,5.53-2.73,8.2Zm-307.84,170a310.34,310.34,0,0,0,57,50.27,5.08,5.08,0,0,1,2.1,1.4c13.88,9.13,29.42,17.34,45.91,22.61h34c4.42,0,8.44,2.66,9.65,6.15,27.07-.58,56.13-7.94,84.69-19.07,12.48-4.87,24.85-10.45,36.91-16.5l.21-.11A561.91,561.91,0,0,0,889,286.49c-18.27-18.06-24.64-49.22-31.47-82.68-9.47-46.38-19.9-97.43-64.59-119.18,59,56.82,34.65,136.8,64.82,196.15,0,0-166,154.69-317.28,8.89Z"/><path class="cls-3" d="M741.88,62.2a164.49,164.49,0,0,0-20.16-3c-.74,11.09,0,21.86,4.66,26.35,6.06,5.84,10.87-8,15.5-23.4Zm-28-3.46c-5.83-.24-11.67-.21-17.45.1-1.33.07-2.65.16-4,.26-.87,11.52-.26,22.92,4.57,27.58,6.66,6.4,11.79-10.83,16.85-27.94Zm-31.05,1.35a152.08,152.08,0,0,0-22,4.51c-.54,10.46.35,20.36,4.76,24.61,6.81,6.56,12-11.63,17.2-29.12Z"/><path class="cls-3" d="M581.85,328.57c4.9,3.84,10.13,7.67,15.63,11.37a5.08,5.08,0,0,1,2.1,1.4c13.88,9.13,29.42,17.34,45.91,22.61h34c4.42,0,8.44,2.66,9.65,6.15,27.07-.58,56.13-7.94,84.69-19.07,4.45-1.74,8.9-3.57,13.31-5.47a31.66,31.66,0,0,0,.5-7.68c-1.7-33.2-49.84-74.83-106.67-76.24-54.45-1.34-97.11,34.72-99.11,66.93Z"/><path class="cls-4" d="M581.85,328.57l.21.16,0,0,.23.18.23.18.24.18.23.18,0,0,.44.34.23.18.24.18.23.18.24.18.09.07.14.11.47.36.24.18.24.18.15.12.09.06.23.18.24.18.24.17.24.18.22.17h0l.24.18.24.18.24.18.24.18,0,0,.4.29.05,0,.24.18.24.18.25.18.24.18.11.08.14.1,1,.71.17.12.08.05.24.18.5.36.25.17.24.17h0l.25.18.24.17.51.36.25.17.05,0,.2.14.25.18.76.52.12.09.13.09,2.56,1.74a5.08,5.08,0,0,1,2.1,1.4c13.88,9.13,29.42,17.34,45.91,22.61h34c4.42,0,8.44,2.66,9.65,6.15,27.07-.58,56.13-7.94,84.69-19.07L774,351l.21-.09.17-.06,0,0,.21-.08.2-.08.13-.05.08,0,.21-.09.21-.08.08,0,.13,0,.21-.08.21-.09h0l.16-.07.21-.08.21-.08h0l.21-.08.21-.08.17-.07h0l.21-.09.2-.08.13,0,.08,0,.21-.08.21-.09.08,0,.34-.13.2-.09.05,0,.16-.06.21-.09.21-.08h0l.21-.09.2-.08.17-.07,0,0,.21-.08.21-.09.13,0,.08,0,.41-.18.09,0,.12-.05.21-.09.21-.09h0l.16-.07.21-.09.63-.26.17-.07,0,0,.42-.17.13-.06.08,0,.41-.17.09,0,.12-.05.21-.09.2-.09,0,0,.16-.07.21-.08.2-.09h0l.2-.08.21-.09.17-.07,0,0,.41-.18.13-.05.29-.12.2-.09a31.66,31.66,0,0,0,.5-7.68,41,41,0,0,0-1.86-10.12c-52.58,24.86-127.6,41.61-203.12-5a40.88,40.88,0,0,0-.8,5.85Z"/><path class="cls-5" d="M562.72,132.34A273.13,273.13,0,0,1,587,93.13c-11-7.71-35.34-24-46-19.88-.51.83-.3,4.45.59,10a111,111,0,0,0,8.79,27.32,145.78,145.78,0,0,0,12.31,21.77Z"/><path class="cls-3" d="M562.72,132.34A273.13,273.13,0,0,1,587,93.13c-11-7.71-35.34-24-46-19.88,0,0,23.33,9.49,15.56,32.74-1.12,3.33-2.34,6.65-3.61,9.92a144.55,144.55,0,0,0,9.74,16.43Z"/><path class="cls-5" d="M839.44,114.71a144.85,144.85,0,0,0,7.83-43.21c.29-12.06-.79-21.06-3.11-22.33l-.1,0c-10-3.41-31.85,19.3-41,29.45,16,9.12,27.63,21.64,36.36,36.13Z"/><path class="cls-3" d="M839.44,114.71a125.63,125.63,0,0,0,3.86-13.12c-.64-.74-1.3-1.48-2-2.23-16.12-17.61-18.39-36-.09-50.55-10.84.73-29.8,20.49-38.15,29.77,16,9.12,27.63,21.64,36.36,36.13Z"/><path class="cls-6" d="M674.78,303s-24.7-12.37-25.65-26.1,51.21-16.19,55.51-3.16S674.78,303,674.78,303Z"/><path class="cls-6" d="M606.41,195.34c13.11.3,23.41,12.6,23,27.48S618.09,249.53,605,249.24s-23.41-12.6-23-27.48,11.34-26.71,24.44-26.42Z"/><path class="cls-6" d="M763.24,198.67c13.1.3,23.41,12.6,23,27.48s-11.33,26.71-24.44,26.42-23.41-12.6-23-27.48,11.34-26.71,24.44-26.42Z"/><path class="cls-6" d="M806.14,325.7a2.52,2.52,0,1,0,3.42-3.71s-16.39-15.32-45.69-25.24a2.52,2.52,0,0,0-1.61,4.78c28.27,9.58,43.83,24.13,43.88,24.17Zm6.68-23.52a2.51,2.51,0,0,0,2.07-4.58c-.06,0-20.31-9.51-51.22-9.91a2.52,2.52,0,0,0-.07,5c29.85.39,49.16,9.44,49.22,9.46Zm2-24.47a2.51,2.51,0,1,0,.74-5c-.06,0-22.16-3.5-52,4.7a2.52,2.52,0,1,0,1.33,4.86c28.79-7.92,49.84-4.59,49.9-4.59ZM555.63,313.58a2.52,2.52,0,0,1-3-4s17.8-13.67,47.91-20.71a2.52,2.52,0,1,1,1.15,4.91c-29.07,6.8-46,19.78-46,19.82Zm-4.37-24.05a2.52,2.52,0,0,1-1.63-4.76c.07,0,21.14-7.51,52-4.92a2.52,2.52,0,0,1-.42,5c-29.75-2.5-49.84,4.64-49.9,4.66Zm.36-24.55a2.52,2.52,0,0,1-.24-5c.06,0,22.39-1.34,51.26,9.7a2.52,2.52,0,0,1-1.78,4.71C573,263.7,551.69,265,551.62,265Z"/><path class="cls-7" d="M614.21,205.41c3.66,0,6.63,3.65,6.63,8.16s-3,8.17-6.63,8.17-6.63-3.66-6.63-8.17,3-8.16,6.63-8.16Z"/><path class="cls-7" d="M770.07,208.84c3.66,0,6.63,3.65,6.63,8.16s-3,8.17-6.63,8.17-6.62-3.66-6.62-8.17,3-8.16,6.62-8.16Z"/><path class="cls-8" d="M286.26,364H679.48c5,0,9.48,3.4,10,7.56l28.31,241c.49,4.16-3.2,7.57-8.19,7.57H316.34c-5,0-9.48-3.41-10-7.57l-28.31-241c-.49-4.16,3.2-7.56,8.2-7.56Z"/><path class="cls-9" d="M286.26,364h20c18.05,68.93,90.29,225.68,408.62,224.35l2.84,24.2c.49,4.16-3.2,7.57-8.19,7.57H316.34c-5,0-9.48-3.41-10-7.57l-28.31-241c-.49-4.16,3.2-7.56,8.2-7.56Z"/><path d="M719.74,586.18H865.92a13.13,13.13,0,0,1,3.46.46c8.63-3.54,47.54-21.52,46.24-57.56-.78-21.63-4.89-49.54-17.63-82.62-12.46-32.38-33.21-69.73-67.21-111.07q-3.91,2.13-7.89,4.22l-10.17,5.18c-11.53,5.71-23.33,11-35.23,15.63-27.42,10.69-55.41,18-82,19.5l17,144.8c21.86-5.77,45.11-3,60.64-1.09,7.28.88,12.6,1.52,13.66,1.08,4.54-1.92,14.54-7.86,25.6-14.44l1.23-.73c-.55-16.45-5.56-59.38-6.84-70.33l-.19-1.68a5,5,0,0,1,10-1.15l.19,1.68c1.16,10,5.38,46.13,6.6,65.69,11.55-6.77,22.91-13.16,30.12-15.92a5,5,0,1,1,3.59,9.43c-8.74,3.35-25.08,13.06-39.59,21.69-11.3,6.71-21.51,12.79-26.83,15-3.57,1.5-10,.73-18.74-.33-14.86-1.8-37.52-4.53-58.22,1.67l6,50.86ZM828.79,325a4.93,4.93,0,0,1,1.53-.85A571.64,571.64,0,0,0,889,286.49c-18.27-18.06-24.64-49.22-31.47-82.68-9.47-46.38-19.9-97.43-64.59-119.18a5.4,5.4,0,0,1-1.13-.72,5,5,0,0,1-.59-7.1c.11-.13,36.32-43.44,55.9-37.25a5.18,5.18,0,0,1,.56.17c.24.09.49.2.77.33,6.11,3,9.23,15.67,8.85,31.67a154.37,154.37,0,0,1-9,47.91q-1.27,3.44-2.71,6.62c.53,1.1,1,2.21,1.54,3.33q3.17-5.81,5.77-11.57c11-24.43,14.81-48.13,14-66.81-.74-17.66-5.29-30.33-11.32-34.09a5.56,5.56,0,0,0-.75-.41c-6.72-3-18.9,1.74-31.92,9.42-21.66,12.79-44.45,33.35-51.26,41.72a5,5,0,0,1-6,1.63C745.32,61,720.3,57.56,696.39,58.84s-46.64,7.26-62.33,17.5a5,5,0,0,1-5.07.26c-.08,0-27.34-14.2-48.61-21.69l-.2-.08a113.13,113.13,0,0,0-34.11-7.75c-10.16-.61-18.17.52-21.64,3.18l-.18.15c-3.44,2.89-1.84,18.53,3.84,38.29a198.22,198.22,0,0,0,24.15,53.14,5,5,0,0,1,1.57,2.32c.73,1.06,1.47,2.11,2.22,3.14.58-1.46,1.18-2.93,1.82-4.43a156.29,156.29,0,0,1-16.6-28.12,120.67,120.67,0,0,1-9.57-29.93c-1.55-9.63-.34-16.86,3.26-19.66v0a7.79,7.79,0,0,1,1.51-.93h0c16.43-7.46,47.42,14.33,58.46,22.09l2.24,1.59a5,5,0,0,1,1,7c-19.21,25.51-29.93,46.59-35.91,64.91l-.13.4c-7.48,23.15-7.38,41.87-7.28,59.51.12,22.74.23,43.78-14.35,69.87a310.34,310.34,0,0,0,57,50.27,5.08,5.08,0,0,1,2.1,1.4,205.74,205.74,0,0,0,32.35,17.56h47.55a16.25,16.25,0,0,1,9.71,3.26,13.26,13.26,0,0,1,5.1,7.75c25.59-1.34,52.78-8.45,79.53-18.88,12.48-4.87,24.85-10.45,36.91-16.5l.21-.11q9.06-4.55,17.85-9.42Zm10.94,5.4c34,41.66,55,79.51,67.65,112.47,13.22,34.33,17.48,63.35,18.3,85.86,1.35,37.54-32.88,58-47.76,65.13a13.17,13.17,0,0,1,1.22,5.54v12.49a13.26,13.26,0,0,1-13.22,13.23H316.34a16.26,16.26,0,0,1-9.71-3.27,13.06,13.06,0,0,1-5.27-8.77l-28.31-241a12.77,12.77,0,0,1-.08-1.33,11.2,11.2,0,0,1,3.53-8.13,13.67,13.67,0,0,1,7.94-3.63,16.58,16.58,0,0,1,1.82-.11H547.78c9-8.79,21.82-17.47,28.66-21.88-7.78-6-14.79-12.08-20.84-17.67l-10-9.59c-9.57-9.59-15-16.24-15.09-16.3a5,5,0,0,1-.35-6C545,262.43,544.92,242,544.8,219.84c-.1-16.83-.19-34.6,5.66-55.91l1.42-6-3.45-4c-.75-1-1.48-2-2.2-3.07l-6.34-9.77a212.09,212.09,0,0,1-21.51-49.65c-6.74-23.47-7.05-43.38-.6-48.78l0,0,.37-.28c5.43-4.2,15.95-6.1,28.48-5.35a123.47,123.47,0,0,1,37,8.38c18,6.35,40,17.19,47.35,20.93,17-10.26,40.4-16.24,64.84-17.55,24-1.28,49.19,1.94,70.35,10,9.22-10.06,31-29.2,51.62-41.37C833.43,8.25,848.79,2.88,859,7.52a16.46,16.46,0,0,1,1.94,1c8.71,5.43,15.17,21.19,16,42.25.84,20-3.15,45.38-14.89,71.35A181,181,0,0,1,852,141.45c7.06,19.33,11.34,40.26,15.44,60.35,7,34.4,13.53,66.23,32.69,81.05a5,5,0,0,1,.91,7.06,5.43,5.43,0,0,1-1.16,1.09,585.24,585.24,0,0,1-60.13,39.4Zm-254.55,13a240.45,240.45,0,0,0-22.12,15.47h46.23c-4.75-2.64-9.35-5.42-13.78-8.3l-10.33-7.17ZM839.44,114.71a144.85,144.85,0,0,0,7.83-43.21c.29-12.06-.79-21.06-3.11-22.33l-.1,0c-10-3.41-31.85,19.3-41,29.45,16,9.12,27.63,21.64,36.36,36.13ZM562.72,132.34A273.13,273.13,0,0,1,587,93.13c-11-7.71-35.34-24-46-19.88-.51.83-.3,4.45.59,10a111,111,0,0,0,8.79,27.32,145.78,145.78,0,0,0,12.31,21.77ZM730.58,310.69a5,5,0,0,1,8.48,5.44c-3.72,5.76-10.07,9.63-16.95,12.17a80,80,0,0,1-26.25,4.51c-4.12-.08-8.9-2.06-13.23-4.57a59.38,59.38,0,0,1-9.27-6.77,57.53,57.53,0,0,1-9.6,5.33c-4.45,1.9-9.27,3.21-13.18,2.7a70.42,70.42,0,0,1-23.69-8.19c-6-3.51-11.26-8.26-13.76-14.49a5,5,0,1,1,9.35-3.75c1.55,3.88,5.23,7.06,9.5,9.56a58.7,58.7,0,0,0,19.87,6.89c1.88.25,4.91-.68,8-2,5-2.12,9.25-4.61,9.55-5.14s.26-9.4.26-9.43a5.05,5.05,0,0,1,10.1,0,81.52,81.52,0,0,1-.6,10.79,68.2,68.2,0,0,0,8.55,5.77c3.08,1.78,6.22,3.19,8.38,3.23a69.15,69.15,0,0,0,22.58-3.91c5.05-1.87,9.59-4.51,11.94-8.15ZM722.71,615H865.92a3.15,3.15,0,0,0,2.2-.92,3.11,3.11,0,0,0,.92-2.21V599.4a3.14,3.14,0,0,0-3.12-3.12h-145l1.84,15.63a12.93,12.93,0,0,1,.08,1.33,11.56,11.56,0,0,1-.14,1.78ZM679.48,369H286.26a6.06,6.06,0,0,0-.67,0,3.66,3.66,0,0,0-2.11.87,1.23,1.23,0,0,0-.41.87c1.69,67.85,20,170.12,28.31,241.16a3.08,3.08,0,0,0,1.32,1.91,6,6,0,0,0,3.64,1.18H709.57a4.3,4.3,0,0,0,.67,0,3.6,3.6,0,0,0,2.1-.87,1.23,1.23,0,0,0,.41-.87c-1.68-67.82-20-170.14-28.31-241.16a3.11,3.11,0,0,0-1.32-1.91,6.11,6.11,0,0,0-3.64-1.17Z"/><path class="cls-10" d="M722.71,615H865.92a3.15,3.15,0,0,0,2.2-.92,3.11,3.11,0,0,0,.92-2.21V599.4a3.14,3.14,0,0,0-3.12-3.12h-145l1.84,15.63a12.93,12.93,0,0,1,.08,1.33,11.56,11.56,0,0,1-.14,1.78Z"/><path class="cls-2" d="M585.18,343.43a240.45,240.45,0,0,0-22.12,15.47h46.23c-4.75-2.64-9.35-5.42-13.78-8.3l-10.33-7.17Z"/><path class="cls-1" d="M719.74,586.18H865.92a13.13,13.13,0,0,1,3.46.46c8.63-3.54,47.54-21.52,46.24-57.56-.78-21.63-4.89-49.54-17.63-82.62-12.46-32.38-33.21-69.73-67.21-111.07q-3.91,2.13-7.89,4.22l-10.17,5.18c-11.53,5.71-23.33,11-35.23,15.63-27.42,10.69-55.41,18-82,19.5l17,144.8c21.86-5.77,45.11-3,60.64-1.09,7.28.88,12.6,1.52,13.66,1.08,4.54-1.92,14.54-7.86,25.6-14.44l1.23-.73c-.55-16.45-5.56-59.38-6.84-70.33l-.19-1.68a5,5,0,0,1,10-1.15l.19,1.68c1.16,10,5.38,46.13,6.6,65.69,11.55-6.77,22.91-13.16,30.12-15.92a5,5,0,1,1,3.59,9.43c-8.74,3.35-25.08,13.06-39.59,21.69-11.3,6.71-21.51,12.79-26.83,15-3.57,1.5-10,.73-18.74-.33-14.86-1.8-37.52-4.53-58.22,1.67l6,50.86Z"/><path class="cls-2" d="M719.74,586.18H865.92a13.13,13.13,0,0,1,3.46.46c8.63-3.54,47.54-21.52,46.24-57.56-.78-21.63-4.89-49.54-17.63-82.62-12.46-32.38-33.21-69.73-67.21-111.07q-3.91,2.13-7.89,4.22l-9.09,4.63c15.15,20.6,54,77.11,69.49,133.71,19.41,71-15.62,76.69-43.54,87.57-19.9,7.76-85.44,8.31-121.49,8l1.48,12.68Zm81.6-69.35c3.44-2,7.2-4.25,11.09-6.56l1.23-.73c-.55-16.45-5.56-59.38-6.84-70.33-1.17,20.7,3.15,57.35-5.48,77.62Zm15.6-78c1.28,11,5.31,45.81,6.5,64.87,6.94-4.07,13.82-8,19.76-11.09a50.37,50.37,0,0,1-10.08-6.31c-5.09-4.5-16.18-47.47-16.18-47.47Z"/><path class="cls-2" d="M843.56,351.54q-6.06-8-12.78-16.15-3.91,2.13-7.89,4.22l-10.17,5.18c-11.53,5.71-23.33,11-35.23,15.63-27.42,10.69-55.41,18-82,19.5l2.46,21c45.51-4.6,97.88-17.84,145.58-49.35Z"/><path class="cls-3" d="M701.88,434.13l10.65,90.59c14.2-3.75,29-3.88,41.88-3-1.74-34.68-23.33-74-52.53-87.6Z"/><path class="cls-7" d="M490.66,463.79c15.59,0,29.3,12.63,30.64,28.22s-10.22,28.22-25.81,28.22-29.3-12.64-30.64-28.22,10.22-28.22,25.81-28.22Z"/></g></svg>