<svg xmlns="http://www.w3.org/2000/svg" viewBox="0 0 1200 628"><defs><style>.cls-1{fill:#d088ed;}.cls-2{fill:#666;}.cls-3{fill:#333;}.cls-4{fill:#ffb366;}.cls-15,.cls-5{fill:#fff;}.cls-6{fill:#b3b3b3;}.cls-7{fill:#b968d9;}.cls-8{fill:#4d4d4d;}.cls-9{fill:#a0afba;}.cls-10{fill:#78848c;}.cls-11,.cls-14{fill:#dcf1ff;}.cls-12,.cls-14,.cls-15{fill-rule:evenodd;}.cls-13{fill:#9cadb5;}</style></defs><g id="Layer_1" data-name="Layer 1"><path class="cls-1" d="M346,186.05l14.69,82.25a8.34,8.34,0,0,0,9.64,6.72L515.7,249a220.43,220.43,0,0,1-22.39-21.6l-45.47,8.13a2.57,2.57,0,0,1-3-2.08l-3.14-17.61h0a1.87,1.87,0,0,1-.08-.32L435,178a2.57,2.57,0,0,1,2.08-3l55.94-10a2.57,2.57,0,0,1,3,2.08l4.17,23.33c.43-5.24.4-10.43.37-15.76s-.06-10.62.31-16.31L346,186.05Z"/><path class="cls-2" d="M420.22,190.78a37.88,37.88,0,0,0-28.38-6.22h0a37.94,37.94,0,0,0-30.69,44h0a38,38,0,1,0,59.07-37.82Z"/><path class="cls-3" d="M416.28,196.43a31,31,0,0,0-23.23-5.09h0a31.06,31.06,0,0,0-25.12,36h0a31.07,31.07,0,1,0,48.35-31Z"/><polygon class="cls-4" points="491.34 170.56 440.45 179.65 446.26 212.13 497.15 203.03 491.34 170.56 491.34 170.56"/><polygon class="cls-5" points="483.25 180.16 451.37 185.86 454.34 202.53 486.23 196.83 483.25 180.16 483.25 180.16"/><path class="cls-6" d="M497.66,75.53h0Z"/><path class="cls-7" d="M489.55,106.75,336.27,135.39l.5,1L490.13,108l-.58-1.27Z"/><path class="cls-8" d="M365.72,164.81l-2,5.6a2.69,2.69,0,0,0,.68.34,3,3,0,0,0,1.32.17l136.39-24.38c.36-2.06.79-4.18,1.3-6.34L365.72,164.81Z"/><path class="cls-8" d="M502.24,129.09,370.35,152.66c-.49.08-.84,1.15-1.2,2.29-.13.4-.26.8-.36,1.07l-1.13,3.23,137.26-24.53c.14-.49.3-1,.45-1.5-1.07-1.34-2.12-2.72-3.13-4.13Z"/><path class="cls-6" d="M397.25,214.31l-.14,0a7.72,7.72,0,0,0,2.72,15.19l.08,0a7.72,7.72,0,0,0,6.21-8.9l0-.24a7.74,7.74,0,0,0-8.83-6.06Z"/><path class="cls-6" d="M483.1,214.12l5.78-1a2.59,2.59,0,0,1,3,2.09h0a2.58,2.58,0,0,1-2.08,3l-5.79,1a2.59,2.59,0,0,1-3-2.08h0a2.59,2.59,0,0,1,2.09-3Z"/><path class="cls-6" d="M457.49,218.69l5.78-1a2.58,2.58,0,0,1,3,2.08h0a2.58,2.58,0,0,1-2.08,3l-5.79,1a2.59,2.59,0,0,1-3-2.09h0a2.6,2.6,0,0,1,2.09-3Z"/><path class="cls-6" d="M476.84,186.25a3.6,3.6,0,1,1-2.91,4.18,3.59,3.59,0,0,1,2.91-4.18Z"/><path class="cls-6" d="M459.49,189.35a3.6,3.6,0,1,1-2.9,4.18,3.6,3.6,0,0,1,2.9-4.18Z"/><path class="cls-5" d="M447.16,217.18l2.3,12.89,40.59-7.26a3.43,3.43,0,0,1,.53-2.3,70.23,70.23,0,0,0,5.77-12.12l-49.19,8.79Z"/><path class="cls-1" d="M332.92,153.32a27.17,27.17,0,0,1,4.46-4.11l-4.28-8.7a2.26,2.26,0,0,1-.11-.22l-2.79-5.68a2.55,2.55,0,0,1,1.17-3.41A2.27,2.27,0,0,1,332,131L487.5,101.92l-.57-1.42L332.1,129.83a17,17,0,0,0-4,1.22,5.87,5.87,0,0,0-2.66,2.17,3.88,3.88,0,0,0-.34,2.75,8.78,8.78,0,0,0,.74,2.18l7.12,15.17Z"/><path class="cls-4" d="M498.4,123.38,348,150.25a8.19,8.19,0,0,0-1.11.28h0l0,0h0a8.33,8.33,0,0,0-5.54,9.34L345.09,181l156.15-27.9c0-.4.09-.8.14-1.21L366.6,176a8.18,8.18,0,0,1-3.84-.4,7.51,7.51,0,0,1-2.48-1.42,4.89,4.89,0,0,1-1.66-2.82h0a4.47,4.47,0,0,1,.19-2.27l2.51-7.16a2.86,2.86,0,0,1,.15-.41l2.51-7.16.31-.94h0c.86-2.68,1.65-5.16,5.17-5.78l129.62-23.17c-.22-.35-.45-.7-.67-1.06Z"/><path class="cls-7" d="M521,253.31,371.24,280.07a13.49,13.49,0,0,1-15.6-10.87L336.27,160.79a13.55,13.55,0,0,1-.18-3.29l-.39.52c-3.37,4.42-5.18,9.59-4.63,12.68L351.6,285.55a4,4,0,0,0,4.59,3.2l171.19-30.59q-3.33-2.42-6.42-4.85Z"/><path class="cls-9" d="M706.08,106.83c-.57,1.55-1.19,3-1.83,4.48.35.75.7,1.5,1,2.25,1.43-2.61,2.73-5.23,3.91-7.83,7.48-16.55,10-32.6,9.49-45.25-.5-12-3.58-20.55-7.66-23.09a5.25,5.25,0,0,0-.51-.28c-4.55-2-12.81,1.18-21.62,6.38-14.67,8.66-30.11,22.59-34.72,28.26a3.41,3.41,0,0,1-4,1.1c-13.84-5.76-30.79-8.07-47-7.2s-31.6,4.91-42.22,11.85a3.39,3.39,0,0,1-3.43.17S539,68.05,524.58,63l-.13,0a76.75,76.75,0,0,0-23.1-5.25c-6.89-.41-12.31.35-14.66,2.16l-.12.1c-2.34,2-1.25,12.55,2.59,25.93a134.34,134.34,0,0,0,16.36,36,3.41,3.41,0,0,1,1.07,1.58c.49.71,1,1.42,1.5,2.12.39-1,3.53-3.71,4-4.72A100.11,100.11,0,0,1,501,102.39c-3.48-7.61-6.56-13.77-7.45-19.3-1-6.53-2.15-11.27.29-13.16h0a4.83,4.83,0,0,1,1-.63h0c11.13-5.06,32.12,9.7,39.6,15L536,85.36a3.4,3.4,0,0,1,.68,4.76c-13,17.28-20.28,31.56-24.32,44l-.09.27c-5.07,15.68-5,28.36-4.94,40.31.09,15.39.17,29.65-9.71,47.32A210.61,210.61,0,0,0,536.16,256a3.43,3.43,0,0,1,1.43.95C552,266.46,569,274.47,587,276.1c21.38,1.94,45.26-3.44,68.63-12.55,8.45-3.3,16.83-7.08,25-11.18l.15-.07a382.44,382.44,0,0,0,52.89-32.46c-12.38-12.24-16.69-33.34-21.32-56-6.42-31.42-13.48-66-43.75-80.73a3,3,0,0,1-.76-.49,3.4,3.4,0,0,1-.4-4.8c.07-.09,24.6-29.42,37.86-25.23l.38.11c.16.06.33.14.52.23,4.14,2,6.25,10.61,6,21.45a104.68,104.68,0,0,1-6.09,32.45Z"/><path class="cls-10" d="M706.08,106.83c-.57,1.55-1.19,3-1.83,4.48.35.75.7,1.5,1,2.25,1.43-2.61,2.73-5.23,3.91-7.83.23-.53.47-1.06.7-1.58-.61-.93-1.26-1.89-2-2.88-.56,1.89-1.17,3.75-1.85,5.56ZM497.58,222A210.61,210.61,0,0,0,536.16,256a3.43,3.43,0,0,1,1.43.95C552,266.46,569,274.47,587,276.1c21.38,1.94,45.26-3.44,68.63-12.55,8.45-3.3,16.83-7.08,25-11.18l.15-.07a382.44,382.44,0,0,0,52.89-32.46c-12.38-12.24-16.69-33.34-21.32-56-6.42-31.42-13.48-66-43.75-80.73,40,38.49,23.47,92.66,43.9,132.86,0,0-112.43,104.77-214.89,6Z"/><path class="cls-11" d="M525.58,248.34c3.32,2.6,6.86,5.19,10.58,7.7a3.43,3.43,0,0,1,1.43.95C552,266.46,569,274.47,587,276.1c21.38,1.94,45.26-3.44,68.63-12.55q4.53-1.77,9-3.71a22.06,22.06,0,0,0,.34-5.2C663.81,232.16,631.2,204,592.7,203c-36.87-.91-65.77,23.51-67.12,45.33Z"/><path class="cls-12" d="M542.21,158.1c8.88.2,15.86,8.53,15.59,18.61s-7.67,18.09-16.55,17.89S525.4,186.07,525.66,176s7.68-18.09,16.55-17.89Z"/><path class="cls-12" d="M648.43,160.36c8.88.2,15.86,8.53,15.59,18.61s-7.67,18.09-16.55,17.89-15.85-8.53-15.59-18.61,7.68-18.09,16.55-17.89Z"/><path class="cls-10" d="M501.45,115.22c1.29,2.26,2.64,4.48,4.07,6.64a3.41,3.41,0,0,1,1.07,1.58c.49.71,1,1.42,1.5,2.12.39-1,2.53-3.27,3-4.28a108.71,108.71,0,0,1-6.66-10.5c-.4.94-2.53,3.52-2.94,4.44Z"/><path class="cls-11" d="M634,67.92a113.47,113.47,0,0,0-13.66-2c-.5,7.52,0,14.81,3.16,17.85,4.11,4,7.36-5.39,10.5-15.85Zm-19-2.34c-3.94-.17-7.9-.14-11.81.07-.9,0-1.8.1-2.69.17-.59,7.8-.18,15.53,3.1,18.68,4.5,4.34,8-7.33,11.4-18.92Zm-21,.92a103.35,103.35,0,0,0-14.86,3c-.38,7.09.23,13.8,3.22,16.68,4.61,4.44,8.15-7.88,11.64-19.72Z"/><path class="cls-13" d="M525.58,248.34l.14.11h0l.15.12.16.13.15.12.16.12h0l.3.23.15.12.16.13.16.12.16.12.07,0,.09.07.32.24.16.12.16.13.11.08,0,0,.16.12.16.12.17.12.16.12.15.11h0l.16.12.16.13.17.12.16.12,0,0,.27.2,0,0,.16.12.17.12.16.12.17.12.07.06.1.06.66.49.12.08.05,0,.17.12.33.24.17.12.16.11h0l.17.12.17.12.34.23.17.12,0,0,.14.09.17.12.51.36.08.06.09.06,1.73,1.18a3.43,3.43,0,0,1,1.43.95C552,266.46,569,274.47,587,276.1c21.38,1.94,45.26-3.44,68.63-12.55l.14-.06.15-.05.11-.05h0l.14-.05.14-.06.08,0,.06,0,.14-.06.14-.06.06,0,.08,0L657,263l.14-.05,0,0,.11,0,.14-.06.14-.05h0l.14-.06.14-.06.12,0h0l.15-.06.14-.06.08,0,.06,0,.14-.06.14-.06.06,0,.22-.09.14-.06h0l.11-.05.14-.05.15-.06h0l.14-.06.14-.06.11,0h0l.14-.06.14-.06.09,0,0,0,.28-.11.06,0,.08,0,.14-.06.15-.06h0l.11-.05.14-.06.42-.17.12-.05h0l.28-.12.09,0,0,0,.28-.12.06,0,.08,0,.14-.06.14-.06h0l.1-.05.14-.06.15-.06h0l.14-.06.14-.06.11-.05h0l.28-.12.09,0,.19-.08.14-.06a22.06,22.06,0,0,0,.34-5.2,28.67,28.67,0,0,0-1.26-6.85c-35.62,16.84-86.43,28.18-137.58-3.42a28.66,28.66,0,0,0-.54,4Z"/><path class="cls-9" d="M722.36,462.68a96.45,96.45,0,0,1-11.83-.79q-.31,10.28-1.13,19.89a111.77,111.77,0,0,0,14.32.76A101.22,101.22,0,0,0,740.41,481a88.67,88.67,0,0,0,23.35-7.56A80.59,80.59,0,0,0,783.31,460c15.25-14.18,20.11-31,19.83-48.9-.29-18.33-5.95-38.11-11.49-57.48v0c-2.32-8.09-4.61-16.1-6.37-23.61a76.55,76.55,0,0,1-2-22.48A61.06,61.06,0,0,1,788.21,287h0l.27-.66a50.1,50.1,0,0,1,6.82-11,43.4,43.4,0,0,1,9.15-8.41,38.35,38.35,0,0,1,10.94-5.11,36.79,36.79,0,0,1,11.86-1.34,43.39,43.39,0,0,1,15.19,3.71,61.74,61.74,0,0,1,14.66,9.23,9.91,9.91,0,0,0,12.67-15.24,80.73,80.73,0,0,0-20.37-12.57,62.91,62.91,0,0,0-21.22-5,56.6,56.6,0,0,0-18.19,2,57.52,57.52,0,0,0-16.66,7.76,62.38,62.38,0,0,0-13.16,12,70.54,70.54,0,0,0-9.82,15.82l-.22.45h0L770,279h0a80.69,80.69,0,0,0-6.48,26.49v.07a95.94,95.94,0,0,0,2.39,29c1.9,8.14,4.23,16.28,6.58,24.5l0,.06c4.55,15.89,9.19,32.11,10.16,47,1,15.42-1.93,29.23-12.9,39.43a61.49,61.49,0,0,1-15,10.26,68.39,68.39,0,0,1-17.88,5.75,80.07,80.07,0,0,1-14.55,1.22Z"/><path class="cls-10" d="M721.48,462.68a99,99,0,0,1-11-.79q-.31,10.28-1.13,19.89a111.77,111.77,0,0,0,14.32.76A101.22,101.22,0,0,0,740.41,481a88.67,88.67,0,0,0,23.35-7.56A80.59,80.59,0,0,0,783.31,460c15.25-14.18,20.11-31,19.83-48.9-.29-18.33-5.95-38.11-11.49-57.48v0c-2.32-8.09-4.61-16.1-6.37-23.61a76.55,76.55,0,0,1-2-22.48A61.06,61.06,0,0,1,788.21,287h0l.27-.66a50.1,50.1,0,0,1,6.82-11,43.4,43.4,0,0,1,9.15-8.41,38.35,38.35,0,0,1,10.94-5.11,36.79,36.79,0,0,1,11.86-1.34,43.39,43.39,0,0,1,15.19,3.71,61.74,61.74,0,0,1,14.66,9.23,9.91,9.91,0,0,0,12.67-15.24c.48,9-4.74,14.91-18.61,3.53s-37.51-12.5-57.71,4.49-23.75,50.2-14.43,85c6,22.43,18,50.34,10.9,79-7.44,30.26-48.42,45.05-59.32,43.29-6.37-1-8.47-6.45-9.12-10.76Z"/><path class="cls-5" d="M512.62,115.43a184.5,184.5,0,0,1,16.47-26.56c-7.47-5.22-23.94-16.29-31.16-13.46-.34.56-.2,3,.4,6.77a75.2,75.2,0,0,0,5.95,18.5,98.29,98.29,0,0,0,8.34,14.75Z"/><path class="cls-11" d="M512.62,115.43a184.5,184.5,0,0,1,16.47-26.56c-7.47-5.22-23.94-16.29-31.16-13.46,0,0,15.8,6.42,10.54,22.17Q507.33,101,506,104.3a99.83,99.83,0,0,0,6.6,11.13Z"/><path class="cls-9" d="M682,259.32c-7.81,3.87-15.8,7.44-23.86,10.59-24.26,9.45-49.17,15-71.74,13-18.76-1.7-36.92-11.34-51.92-21.07-5.31,2.47-11.78,4.3-18,8-6.43,3.89-11.62,8.41-17.37,12.84a3.39,3.39,0,0,1-5.27-1.5c-1.28-3.39-3.23-4.07-4.79-7.43-.9-1.94-1.83-3.86-2.77-5.74l-40.75,7.52c3.43,17,8,37.34,16.44,52.18,10.39,18.21,27.21,28.11,56.5,12q1.13-6.57,2.35-13.37a3.41,3.41,0,0,1,6.71,1.2q-1.37,7.51-2.58,14.76l-.05.3c-7.73,46.06-10.84,83.6-10.12,115.93.79,35.61,6.24,64.93,15.31,92.42a3.42,3.42,0,0,1-3.62,4.47c-15.5-1-25.59,4.56-30.23,11.71a17.51,17.51,0,0,0-2.81,7.64,13.77,13.77,0,0,0,1,7.14c2.14,4.85,7.46,8.54,16.08,8.83,1.82.06,3.52.13,5.31.21,8.44.34,19,.76,29.33.27,21.29-1,42.17-5.87,41.32-23.68-.87-18.24.07-40.75,4.06-59.19,2.38-11,5.89-20.67,10.82-27.34A130.72,130.72,0,0,1,575,477c-10.65-2.82-19.57-6.94-25.82-11.91a3.41,3.41,0,1,1,4.25-5.34c5.52,4.39,13.58,8.07,23.3,10.65a134.72,134.72,0,0,0,65.09,0c9.72-2.58,17.78-6.26,23.3-10.65a3.41,3.41,0,1,1,4.25,5.34c-6.25,5-15.18,9.09-25.82,11.91a130.71,130.71,0,0,1-26.37,4c4.93,6.67,8.45,16.33,10.83,27.34,4,18.44,4.92,40.95,4.06,59.19-.85,17.81,20,22.67,41.32,23.68,10.37.49,20.89.07,29.33-.27,1.78-.08,3.48-.15,5.31-.21,8.61-.29,13.94-4,16.08-8.83a13.77,13.77,0,0,0,1-7.14,17.77,17.77,0,0,0-2.81-7.64c-4.64-7.15-14.73-12.74-30.23-11.71a3.46,3.46,0,0,1-1.45-.15,3.42,3.42,0,0,1-2.17-4.32c9.06-27.49,14.52-56.81,15.31-92.42q.27-12-.18-25a10,10,0,0,1-.06-1.73c-1.15-29.78-5.16-63.89-12.51-104.3a3.4,3.4,0,1,1,6.7-1.2c7.41,40.72,11.46,75.12,12.61,105.21,0,.11,0,.23,0,.35l0,1.19c.48,3.56,4.22,7.33,9.09,9.86a25.39,25.39,0,0,0,8.1,2.62,17.74,17.74,0,0,0,7.93-.58c4.91-1.6,9.06-6,10.63-14.7,5.17-28.51,3.45-65.86-9.84-100.53-10.35-27-27.73-52.29-54.38-70.44Z"/><path class="cls-10" d="M682,259.32c-7.81,3.87-15.8,7.44-23.86,10.59-24.26,9.45-49.17,15-71.74,13-18.76-1.7-36.52-9.89-51.52-19.62-2.52,1.17-5.2,2.52-8,4,2.95,2.27,6.06,4.53,9.32,6.72a3.43,3.43,0,0,1,1.43.95C552,284.41,569,292.42,587,294.05c21.38,1.94,45.26-3.43,68.63-12.55,8.45-3.29,16.83-7.07,25-11.17l.15-.08c3.16-1.59,6.3-3.23,9.39-4.9q-3.95-3.14-8.19-6Z"/><path class="cls-10" d="M445.52,275.53c3.43,17,8,37.34,16.44,52.18,10.39,18.21,27.21,28.11,56.5,12q1.13-6.57,2.35-13.37a3.44,3.44,0,0,1,1.41-2.2s-29.38,12.07-43.17,2.13c-7.25-5.23-15.4-30.34-21.5-53l-12,2.22Zm252.93,54.69c7,39,10.79,72.2,11.91,101.33,0,.11,0,.23,0,.35l0,1.19c.48,3.56,4.22,7.33,9.09,9.86a25.39,25.39,0,0,0,8.1,2.62,17.74,17.74,0,0,0,7.93-.58c4.91-1.6,9.06-6,10.63-14.7,1-5.22,1.66-10.74,2.12-16.49-3,17.94-28.78,29.14-31.33,1s-18.46-84.39-18.51-84.54Z"/><path class="cls-10" d="M500.43,562.38a21.86,21.86,0,0,0-4.2,4.75,17.51,17.51,0,0,0-2.81,7.64,13.77,13.77,0,0,0,1,7.14c2.14,4.85,7.46,8.54,16.08,8.83,1.82.06,3.52.13,5.31.21,8.44.34,19,.76,29.33.27,21.29-1,42.17-5.87,41.32-23.68-.87-18.24.07-40.75,4.06-59.19,2.38-11,5.89-20.67,10.82-27.34A130.72,130.72,0,0,1,575,477a81.6,81.6,0,0,1-19.83-7.87h0s11.09,28.36,11.09,61.71,8,43.6-25,48.73-44.77-6.81-40.83-17.18Z"/><path class="cls-5" d="M700.05,103.49a98.34,98.34,0,0,0,5.3-29.27c.2-8.17-.54-14.26-2.11-15.12l-.06,0C696.4,56.76,681.6,72.14,675.42,79a67.22,67.22,0,0,1,24.63,24.47Z"/><path class="cls-11" d="M700.05,103.49a86,86,0,0,0,2.61-8.89c-.43-.5-.88-1-1.34-1.51-10.92-11.93-12.46-24.39-.06-34.24-7.34.49-20.19,13.88-25.84,20.17a67.22,67.22,0,0,1,24.63,24.47Z"/><path class="cls-12" d="M677.49,246.39a1.71,1.71,0,0,0,2.32-2.51s-11.11-10.38-30.95-17.09a1.7,1.7,0,1,0-1.09,3.23c19.15,6.49,29.69,16.34,29.72,16.37ZM682,230.46a1.7,1.7,0,1,0,1.41-3.1s-13.76-6.44-34.7-6.71a1.71,1.71,0,0,0,0,3.41c20.22.26,33.3,6.39,33.33,6.4Zm1.36-16.57a1.7,1.7,0,1,0,.5-3.37s-15-2.37-35.2,3.18a1.71,1.71,0,0,0,.9,3.3c19.5-5.37,33.76-3.11,33.8-3.11ZM507.82,238.18a1.71,1.71,0,1,1-2.06-2.72s12-9.26,32.45-14a1.71,1.71,0,0,1,.78,3.33c-19.69,4.6-31.14,13.4-31.17,13.42Zm-3-16.29a1.7,1.7,0,0,1-1.1-3.22s14.31-5.08,35.18-3.33a1.71,1.71,0,1,1-.28,3.4c-20.15-1.7-33.76,3.14-33.8,3.15Zm.25-16.62a1.71,1.71,0,1,1-.17-3.41s15.16-.91,34.72,6.57a1.71,1.71,0,1,1-1.21,3.19c-18.89-7.22-33.3-6.36-33.34-6.35Z"/><path class="cls-10" d="M718.14,562.38a22.12,22.12,0,0,1,4.2,4.75,17.77,17.77,0,0,1,2.81,7.64,13.77,13.77,0,0,1-1,7.14c-2.14,4.85-7.47,8.54-16.08,8.83-1.83.06-3.53.13-5.31.21-8.44.34-19,.76-29.34.27-21.29-1-42.16-5.87-41.31-23.68.86-18.24-.07-40.75-4.06-59.19-2.38-11-5.9-20.67-10.83-27.34a130.71,130.71,0,0,0,26.37-4,81.6,81.6,0,0,0,19.83-7.87h0s-11.09,28.36-11.09,61.71-8,43.6,25,48.73,44.77-6.81,40.83-17.18Z"/><path class="cls-14" d="M609.28,313.56c30.07,0,54.45,45.1,54.45,83.28s-24.38,55-54.45,55-54.44-16.78-54.44-55,24.37-83.28,54.44-83.28Z"/><path class="cls-15" d="M547.5,164.92c2.48,0,4.49,2.47,4.49,5.53S550,176,547.5,176,543,173.5,543,170.45s2-5.53,4.49-5.53Z"/><path class="cls-15" d="M653.06,167.24c2.48,0,4.49,2.48,4.49,5.53s-2,5.53-4.49,5.53-4.48-2.47-4.48-5.53,2-5.53,4.48-5.53Z"/><path class="cls-12" d="M588.52,231s-16.73-8.38-17.37-17.68,34.68-11,37.6-2.14S588.52,231,588.52,231Z"/><path d="M390.94,179.51a43.09,43.09,0,1,1-27.78,17.79,42.95,42.95,0,0,1,27.78-17.79Zm130,73.8L371.24,280.07a13.49,13.49,0,0,1-15.6-10.87L336.27,160.79a13.55,13.55,0,0,1-.18-3.29l-.39.52c-3.37,4.42-5.18,9.59-4.63,12.68L351.6,285.55a4,4,0,0,0,4.59,3.2l171.19-30.59q-3.33-2.42-6.42-4.85ZM345.47,145.61a13.13,13.13,0,0,1,1.67-.41l148.44-26.53c-1.1-1.93-2.15-3.9-3.15-5.87L339.11,141.17l2.72,5.53a18.87,18.87,0,0,1,3.64-1.09ZM498.4,123.38,348,150.25a8.19,8.19,0,0,0-1.11.28h0l0,0h0a8.33,8.33,0,0,0-5.54,9.34L345.09,181l156.15-27.9c0-.4.09-.8.14-1.21L366.6,176a8.18,8.18,0,0,1-3.84-.4,7.51,7.51,0,0,1-2.48-1.42,4.89,4.89,0,0,1-1.66-2.82h0a4.47,4.47,0,0,1,.19-2.27l2.51-7.16a2.86,2.86,0,0,1,.15-.41l2.51-7.16.31-.94h0c.86-2.68,1.65-5.16,5.17-5.78l129.62-23.17c-.22-.35-.45-.7-.67-1.06ZM346,186.05l14.69,82.25a8.34,8.34,0,0,0,9.64,6.72L515.7,249a220.43,220.43,0,0,1-22.39-21.6l-45.47,8.13a2.57,2.57,0,0,1-3-2.08l-3.14-17.61h0a1.87,1.87,0,0,1-.08-.32L435,178a2.57,2.57,0,0,1,2.08-3l55.94-10a2.57,2.57,0,0,1,3,2.08l4.17,23.33c.43-5.24.4-10.43.37-15.76s-.06-10.62.31-16.31L346,186.05Zm169.91,79.37-21.49,3.84c.65,1.41,1.3,2.84,1.93,4.29.5,1.17,1,2.34,1.48,3.51,4.85-3.52,10-6.89,15.19-9.95,1-.58,1.92-1.14,2.89-1.69Zm-28.45,5.08L446,277.91c3.92,19.11,9.37,41.87,20.18,56.22,10.48,13.91,26.52,19.75,52.3,5.58q1.11-6.57,2.35-13.37a3.4,3.4,0,0,1,6.7,1.2c-.91,5-1.77,9.93-2.58,14.76,0,.1,0,.2-.05.3-7.73,46.06-10.84,83.6-10.12,115.93.79,35.61,6.25,64.93,15.31,92.42a3.42,3.42,0,0,1-3.62,4.47c-15.5-1-25.59,4.56-30.23,11.71a17.51,17.51,0,0,0-2.81,7.64,13.77,13.77,0,0,0,1,7.14c2.14,4.85,7.46,8.54,16.08,8.83,1.82.06,3.52.13,5.31.21,8.44.34,19,.76,29.33.27,21.3-1,42.17-5.87,41.32-23.68-.86-18.24.07-40.75,4.06-59.19,2.38-11,5.9-20.67,10.82-27.34A130.72,130.72,0,0,1,575,477c-10.64-2.82-19.57-6.94-25.82-11.91a3.41,3.41,0,1,1,4.25-5.34c5.52,4.39,13.58,8.07,23.3,10.65a134.72,134.72,0,0,0,65.09,0c9.72-2.58,17.78-6.26,23.3-10.65a3.41,3.41,0,1,1,4.25,5.34c-6.25,5-15.17,9.09-25.82,11.91a130.71,130.71,0,0,1-26.37,4c4.93,6.67,8.45,16.33,10.83,27.34,4,18.44,4.92,40.95,4.06,59.19-.85,17.81,20,22.67,41.32,23.68,10.37.49,20.89.07,29.33-.27,1.79-.08,3.48-.15,5.31-.21,8.62-.29,13.94-4,16.08-8.83a13.77,13.77,0,0,0,1-7.14,17.51,17.51,0,0,0-2.81-7.64c-4.64-7.15-14.73-12.74-30.23-11.71a3.42,3.42,0,0,1-3.62-4.47c9.06-27.49,14.52-56.81,15.31-92.42q.27-12-.18-25a11.12,11.12,0,0,1-.06-1.73c-1.15-29.78-5.16-63.88-12.51-104.3a3.4,3.4,0,1,1,6.7-1.2c7.41,40.72,11.46,75.12,12.62,105.21,0,.12,0,.23,0,.35l0,1.19c.48,3.56,4.22,7.33,9.1,9.86a25.26,25.26,0,0,0,8.09,2.62,17.74,17.74,0,0,0,7.93-.58c4.91-1.6,9.07-6,10.63-14.7,5.17-28.51,3.45-65.86-9.84-100.53-10.35-27-27.73-52.29-54.38-70.44-7.81,3.87-15.8,7.44-23.86,10.59-24.26,9.45-49.17,15-71.74,13-18.76-1.7-36.52-9.89-51.52-19.62A201.24,201.24,0,0,0,516.49,273a182.89,182.89,0,0,0-18.12,12.17,3.41,3.41,0,0,1-4.78-.61,3.33,3.33,0,0,1-.49-.88c-1-2.52-2-5-3-7.39-.84-1.93-1.72-3.85-2.64-5.78Zm-48.18,8.61L357.09,293.8a9.12,9.12,0,0,1-10.54-7.35L326,171.6c-.63-3.55.7-8.74,3.49-13.52l-8.34-17.77a13.88,13.88,0,0,1-1.14-3.4,8.82,8.82,0,0,1,1-6.26,10.82,10.82,0,0,1,4.92-4.23,22.34,22.34,0,0,1,5.26-1.62l154-29.17c-.95-2.68-1.79-5.33-2.53-7.89-4.56-15.9-4.78-29.38-.4-33l0,0,.25-.19c3.68-2.84,10.8-4.13,19.29-3.62a83.67,83.67,0,0,1,25.08,5.68c12.22,4.29,27.07,11.64,32.07,14.17,11.52-6.95,27.36-11,43.91-11.89,16.27-.87,33.32,1.32,47.65,6.8a179,179,0,0,1,35-28c10.55-6.23,21-9.86,27.9-6.72a11.08,11.08,0,0,1,1.31.7c5.89,3.68,10.27,14.35,10.87,28.62.57,13.58-2.14,30.74-10.09,48.33a123.58,123.58,0,0,1-6.88,13.06c4.78,13.09,7.68,27.27,10.46,40.87,4.76,23.3,9.16,44.86,22.14,54.9a3.41,3.41,0,0,1,.62,4.78,3.68,3.68,0,0,1-.79.74,391.73,391.73,0,0,1-52.13,32.92c26.21,18.84,43.46,44.39,53.87,71.52,13.76,35.88,15.53,74.59,10.17,104.17-2.1,11.59-8.08,17.65-15.23,20a24.5,24.5,0,0,1-11,.84A32.17,32.17,0,0,1,716.39,449a29.82,29.82,0,0,1-5.69-3.79q0,5,0,9.81a91.3,91.3,0,0,0,11.71.84,73.55,73.55,0,0,0,13.32-1.11,61.72,61.72,0,0,0,16.09-5.19,54.64,54.64,0,0,0,13.33-9.12c9.19-8.54,11.63-20.5,10.74-34-.92-14.08-5.47-30-9.92-45.53l0-.06c-2.36-8.27-4.71-16.47-6.66-24.82a102.86,102.86,0,0,1-2.56-31v-.09a87.72,87.72,0,0,1,7-28.69v0h0l.23-.48h0l.15-.31a77.2,77.2,0,0,1,10.77-17.35,69.49,69.49,0,0,1,14.6-13.34,64.43,64.43,0,0,1,18.64-8.68,63.61,63.61,0,0,1,20.35-2.26,69.61,69.61,0,0,1,23.55,5.46,88.12,88.12,0,0,1,22.08,13.64,16.73,16.73,0,1,1-21.39,25.72,55.09,55.09,0,0,0-13-8.22,36.39,36.39,0,0,0-12.79-3.14,29.85,29.85,0,0,0-9.7,1.1,31.24,31.24,0,0,0-9,4.19,36.55,36.55,0,0,0-7.71,7.08,42.78,42.78,0,0,0-5.86,9.5c-.09.2-.17.4-.25.6h0A54.26,54.26,0,0,0,790.13,308a69.82,69.82,0,0,0,1.81,20.48c1.7,7.3,4,15.26,6.28,23.29v0C803.88,371.5,809.65,391.67,810,411c.31,19.74-5.09,38.28-22,54a87.3,87.3,0,0,1-21.2,14.56,95.74,95.74,0,0,1-25.14,8.15,108.6,108.6,0,0,1-17.82,1.66,120.32,120.32,0,0,1-15-.77,303.76,303.76,0,0,1-12.29,59.89c15.68.19,26.28,6.77,31.59,14.94A24.61,24.61,0,0,1,731.94,574a20.58,20.58,0,0,1-1.57,10.64c-3.13,7.11-10.5,12.5-22.12,12.89l-5.26.21c-8.57.34-19.27.78-29.91.27-24.72-1.17-48.93-7.4-47.82-30.81.85-17.73,0-39.57-3.92-57.42-2.61-12.07-6.51-22.17-12.05-27.55-5.55,5.38-9.45,15.48-12.06,27.55-3.87,17.85-4.77,39.69-3.92,57.42,1.11,23.41-23.1,29.64-47.81,30.81-10.65.51-21.35.07-29.92-.27l-5.26-.21c-11.62-.39-19-5.78-22.12-12.89A20.58,20.58,0,0,1,486.63,574a24.61,24.61,0,0,1,3.88-10.61c5.31-8.17,15.91-14.75,31.59-14.94-8.36-26.74-13.38-55.39-14.14-89.8-.7-31.18,2.12-67.07,9.12-110.56-27,13.14-44.51,5.86-56.37-9.87-11.66-15.49-17.36-39.27-21.43-59.13ZM332.92,153.32a27.17,27.17,0,0,1,4.46-4.11l-4.28-8.7a2.26,2.26,0,0,1-.11-.22l-2.79-5.68a2.55,2.55,0,0,1,1.17-3.41A2.27,2.27,0,0,1,332,131L487.5,101.92l-.57-1.42L332.1,129.83a17,17,0,0,0-4,1.22,5.87,5.87,0,0,0-2.66,2.17,3.88,3.88,0,0,0-.34,2.75,8.78,8.78,0,0,0,.74,2.18l7.12,15.17Zm115,27.94,36.94-6.6a2.56,2.56,0,0,1,3,2.07l3.89,21.72a2.57,2.57,0,0,1-2.08,3L452.72,208a2.56,2.56,0,0,1-3-2.08l-3.89-21.71a2.57,2.57,0,0,1,2.08-3Zm-.78,35.92,2.3,12.89,40.59-7.26a3.43,3.43,0,0,1,.53-2.3,70.23,70.23,0,0,0,5.77-12.12l-49.19,8.79Zm12.33-27.83a3.6,3.6,0,1,1-2.9,4.18,3.6,3.6,0,0,1,2.9-4.18Zm17.35-3.1a3.6,3.6,0,1,1-2.91,4.18,3.59,3.59,0,0,1,2.91-4.18Zm-19.35,32.44,5.78-1a2.58,2.58,0,0,1,3,2.08h0a2.58,2.58,0,0,1-2.08,3l-5.79,1a2.59,2.59,0,0,1-3-2.09h0a2.6,2.6,0,0,1,2.09-3Zm25.61-4.57,5.78-1a2.59,2.59,0,0,1,3,2.09h0a2.58,2.58,0,0,1-2.08,3l-5.79,1a2.59,2.59,0,0,1-3-2.08h0a2.59,2.59,0,0,1,2.09-3Zm-85.85.19-.14,0a7.72,7.72,0,0,0,2.72,15.19l.08,0a7.72,7.72,0,0,0,6.21-8.9l0-.24a7.74,7.74,0,0,0-8.83-6.06Zm105-85.22L370.35,152.66c-.49.08-.84,1.15-1.2,2.29-.13.4-.26.8-.36,1.07l-1.13,3.23,137.26-24.53c.14-.49.3-1,.45-1.5-1.07-1.34-2.12-2.72-3.13-4.13ZM365.72,164.81l-2,5.6a2.69,2.69,0,0,0,.68.34,3,3,0,0,0,1.32.17l136.39-24.38c.36-2.06.79-4.18,1.3-6.34L365.72,164.81Zm123.83-58.06L336.27,135.39l.5,1L490.13,108l-.58-1.27Zm221,355.14q-.31,10.28-1.13,19.89a111.77,111.77,0,0,0,14.32.76A101.22,101.22,0,0,0,740.41,481a88.67,88.67,0,0,0,23.35-7.56A80.4,80.4,0,0,0,783.31,460c15.25-14.18,20.11-31,19.83-48.9-.28-18.33-5.94-38.11-11.49-57.48v0c-2.32-8.09-4.61-16.1-6.36-23.61a76.24,76.24,0,0,1-2-22.48A61.06,61.06,0,0,1,788.21,287h0l.26-.66a50.1,50.1,0,0,1,6.82-11,43.21,43.21,0,0,1,9.16-8.41,38.16,38.16,0,0,1,10.93-5.11,36.83,36.83,0,0,1,11.86-1.34,43.39,43.39,0,0,1,15.19,3.71,61.74,61.74,0,0,1,14.66,9.23,9.91,9.91,0,0,0,12.68-15.24,81,81,0,0,0-20.38-12.57,62.91,62.91,0,0,0-21.22-5,56.54,56.54,0,0,0-18.18,2,57.28,57.28,0,0,0-16.66,7.76,62.68,62.68,0,0,0-13.17,12,70.15,70.15,0,0,0-9.81,15.82l-.23.45h0L770,279h0a80.69,80.69,0,0,0-6.48,26.49v.07a95.94,95.94,0,0,0,2.39,29c1.9,8.14,4.23,16.28,6.59,24.5v.06c4.55,15.89,9.19,32.11,10.17,47,1,15.42-1.94,29.23-12.91,39.43a61.49,61.49,0,0,1-15,10.26,68.39,68.39,0,0,1-17.88,5.75,80.07,80.07,0,0,1-14.55,1.22,96.45,96.45,0,0,1-11.83-.79Zm-174-205.6a3.2,3.2,0,0,1,.88.58C551.84,266.39,569,274.46,587,276.1c21.39,1.94,45.26-3.44,68.63-12.55,8.46-3.3,16.84-7.08,25-11.18l.12-.06h0a381.85,381.85,0,0,0,52.89-32.46c-12.38-12.24-16.69-33.34-21.32-56-6.42-31.42-13.48-66-43.75-80.73a3.5,3.5,0,0,1-.76-.49,3.41,3.41,0,0,1-.4-4.81c.07-.08,25.09-30,38.25-25.09a3.78,3.78,0,0,1,.51.21c4.14,2,6.28,10.66,6,21.56a104.43,104.43,0,0,1-6.06,32.6c-.57,1.53-1.17,3-1.81,4.42.33.68.64,1.36.95,2,1.43-2.61,2.73-5.23,3.91-7.83,7.48-16.55,10-32.6,9.5-45.25-.51-12-3.59-20.55-7.67-23.09a4.29,4.29,0,0,0-.51-.28c-4.55-2-12.8,1.18-21.62,6.38-14.67,8.66-30.11,22.59-34.72,28.26a3.41,3.41,0,0,1-4,1.1c-13.84-5.76-30.78-8.07-47-7.2s-31.59,4.91-42.22,11.85a3.39,3.39,0,0,1-3.43.17S539,68.06,524.58,63l-.13,0a76.45,76.45,0,0,0-23.1-5.25c-6.88-.41-12.31.35-14.66,2.16l-.12.1c-2.34,2-1.25,12.55,2.6,25.93,3.66,12.77,10.08,27.54,18.92,39.69.51-1.27,1-2.56,1.61-3.87a194.73,194.73,0,0,1-13.38-24.53,70.87,70.87,0,0,1-5.35-16c-.92-5.43-.06-9.45,3-11.43a6.55,6.55,0,0,1,.88-.47c11.18-5,32.23,9.81,39.65,15l1.46,1a3.4,3.4,0,0,1,.68,4.76c-29.59,39.3-29.46,63.1-29.34,84.55.08,15.4.16,29.65-9.72,47.32a209.7,209.7,0,0,0,38.95,34.3Zm89.78-20.06a3.41,3.41,0,0,1,5.75,3.68c-2.52,3.9-6.82,6.52-11.48,8.25a54.5,54.5,0,0,1-17.78,3.05c-2.79-.06-6-1.4-9-3.1a39.8,39.8,0,0,1-6.28-4.58,39.81,39.81,0,0,1-6.5,3.61c-3,1.29-6.28,2.17-8.93,1.83a47.63,47.63,0,0,1-16-5.55c-4.06-2.38-7.63-5.59-9.32-9.81a3.41,3.41,0,1,1,6.33-2.54c1,2.62,3.54,4.78,6.43,6.47A40,40,0,0,0,573,242.21c1.28.16,3.33-.47,5.4-1.35,3.37-1.44,6.26-3.12,6.47-3.48S585,231,585,231a3.42,3.42,0,1,1,6.84,0,54.82,54.82,0,0,1-.4,7.31,45.45,45.45,0,0,0,5.79,3.91c2.09,1.21,4.21,2.16,5.67,2.19a46.82,46.82,0,0,0,15.3-2.66c3.42-1.26,6.49-3.05,8.08-5.51Zm73.84-132.58a98.18,98.18,0,0,0,5.25-29.3c.18-8.28-.58-14.45-2.18-15.27-6.76-2.38-21.6,13-27.8,19.94a67.38,67.38,0,0,1,24.73,24.63Zm-187,10.7a186.85,186.85,0,0,1,15.92-25.48c-7.56-5.27-24.29-16.47-31.43-13.35-.45.3-.4,1.93,0,4.55a64.11,64.11,0,0,0,4.83,14.31,182.17,182.17,0,0,0,10.63,20ZM497.66,75.53h0ZM396.37,209.26a12.83,12.83,0,0,1,14.78,10.41h0a12.87,12.87,0,0,1-10.38,14.9h0a12.84,12.84,0,0,1-4.5-25.29l.11,0Zm86.89-29.1-31.9,5.7,3,16.66,31.89-5.69-3-16.67Zm8.08-9.6-50.89,9.09,5.81,32.48L497.15,203l-5.81-32.48Zm-71.12,20.22a37.88,37.88,0,0,0-28.38-6.22h0a37.94,37.94,0,0,0-30.69,44h0a38,38,0,1,0,59.07-37.82Z"/></g></svg>