<svg xmlns="http://www.w3.org/2000/svg" viewBox="0 0 1200 628"><defs><style>.cls-1{fill:#a0afba;}.cls-2{fill:#78848c;}.cls-10,.cls-3{fill:#dcf1ff;}.cls-4{fill:#9cadb5;}.cls-5,.cls-9{fill:#fff;}.cls-6{fill:#a1e4ff;}.cls-7{fill:#7085a1;}.cls-10,.cls-8,.cls-9{fill-rule:evenodd;}</style></defs><g id="Layer_1" data-name="Layer 1"><path class="cls-1" d="M658.59,105.39q-.87,2.34-1.85,4.52c.36.75.71,1.5,1,2.26q2.16-3.94,3.93-7.89c7.54-16.66,10.1-32.82,9.57-45.56-.51-12-3.61-20.69-7.72-23.25a5.25,5.25,0,0,0-.51-.28c-4.59-2.07-12.9,1.19-21.77,6.42-14.77,8.72-30.32,22.75-35,28.46a3.43,3.43,0,0,1-4.07,1.11c-13.94-5.8-31-8.13-47.31-7.25s-31.81,4.94-42.51,11.93A3.47,3.47,0,0,1,509,76c-.05,0-18.64-9.69-33.15-14.8l-.14-.05a77.15,77.15,0,0,0-23.26-5.29c-6.93-.41-12.39.36-14.76,2.17l-.12.11c-2.35,2-1.25,12.63,2.62,26.11a135.08,135.08,0,0,0,16.47,36.24,3.46,3.46,0,0,1,1.07,1.58c.5.73,1,1.44,1.52,2.14.39-1,.8-2,1.24-3a105.67,105.67,0,0,1-11.32-19.17,83,83,0,0,1-6.54-20.42c-1.05-6.56-.22-11.5,2.23-13.4h0a5.27,5.27,0,0,1,1-.63h0c11.21-5.09,32.35,9.77,39.87,15.07l1.53,1.08a3.42,3.42,0,0,1,.69,4.8c-13.1,17.4-20.42,31.78-24.49,44.27l-.09.27c-5.1,15.79-5,28.56-5,40.59.09,15.51.16,29.86-9.78,47.65a211.67,211.67,0,0,0,38.85,34.29,3.52,3.52,0,0,1,1.44.95c14.49,9.54,31.66,17.6,49.72,19.24,21.53,2,45.57-3.45,69.11-12.63,8.51-3.32,16.94-7.13,25.17-11.26l.15-.07a384.29,384.29,0,0,0,53.25-32.68c-12.46-12.33-16.8-33.57-21.46-56.4-6.46-31.63-13.57-66.44-44-81.28a3.34,3.34,0,0,1-.77-.49,3.43,3.43,0,0,1-.4-4.84c.07-.09,24.77-29.63,38.12-25.4l.38.11a5.57,5.57,0,0,1,.52.23c4.18,2,6.3,10.68,6,21.6a105.25,105.25,0,0,1-6.12,32.67Z"/><path class="cls-2" d="M452.54,113.84q1.93,3.42,4.1,6.69a3.46,3.46,0,0,1,1.07,1.58c.5.73,1,1.44,1.52,2.14.39-1,.8-2,1.24-3A101.67,101.67,0,0,1,453.76,111c-.41,1-.81,1.89-1.22,2.82Z"/><path class="cls-2" d="M658.59,105.39q-.87,2.34-1.85,4.52c.36.75.71,1.5,1,2.26q2.16-3.94,3.93-7.89c.24-.53.48-1.06.71-1.59-.61-.93-1.27-1.9-2-2.89-.56,1.9-1.18,3.77-1.86,5.59Zm-210,116a211.67,211.67,0,0,0,38.85,34.29,3.52,3.52,0,0,1,1.44.95c14.49,9.54,31.66,17.6,49.72,19.24,21.53,2,45.57-3.45,69.11-12.63,8.51-3.32,16.94-7.13,25.17-11.26l.15-.07a384.29,384.29,0,0,0,53.25-32.68c-12.46-12.33-16.8-33.57-21.46-56.4-6.46-31.63-13.57-66.44-44-81.28,40.25,38.76,23.63,93.3,44.2,133.78,0,0-113.21,105.5-216.38,6.06Z"/><path class="cls-3" d="M586,66.21a114.51,114.51,0,0,0-13.74-2c-.51,7.57,0,14.91,3.17,18,4.14,4,7.42-5.43,10.57-16Zm-19.12-2.35c-4-.17-8-.15-11.9.07-.91,0-1.81.1-2.71.17-.59,7.86-.17,15.64,3.12,18.81,4.54,4.37,8-7.38,11.49-19Zm-21.18.92a103.52,103.52,0,0,0-15,3.07c-.37,7.14.23,13.89,3.25,16.79,4.64,4.47,8.2-7.94,11.72-19.86Z"/><path class="cls-3" d="M476.83,247.88c3.35,2.62,6.91,5.23,10.66,7.76a3.52,3.52,0,0,1,1.44.95c14.49,9.54,31.66,17.6,49.72,19.24,21.53,2,45.57-3.45,69.11-12.63q4.56-1.79,9.08-3.73a22.44,22.44,0,0,0,.34-5.24c-1.16-22.64-34-51-72.76-52-37.13-.92-66.22,23.67-67.59,45.64Z"/><path class="cls-4" d="M476.83,247.88l.14.11,0,0,.16.12.16.12.15.12.16.13h0l.3.23.16.12.16.13.16.12.16.12.06.05.1.07.32.25.16.12.16.12.11.09.05,0,.17.12.16.12.16.12.17.12.15.12h0l.16.12.17.12.16.12.17.13,0,0,.28.2,0,0,.16.12.17.12.16.12.17.12.07.06.1.07.67.48.11.09.06,0,.16.12.34.25.17.12.16.11h0l.17.12.17.12.34.24.17.12,0,0,.14.09.17.12.52.36.08.06.09.06c.57.4,1.16.79,1.74,1.19a3.52,3.52,0,0,1,1.44.95c14.49,9.54,31.66,17.6,49.72,19.24,21.53,2,45.57-3.45,69.11-12.63l.14-.06.14-.05.12,0h0l.14,0,.14-.06.09,0,.05,0,.14-.05.15-.06.05,0,.09,0,.14-.05.14-.06h0l.12,0,.14-.06.14-.06h0l.14-.05.15-.06.11-.05h0l.14-.06.14-.05.09,0,.05,0,.15-.06.14-.06.06,0,.22-.09.14-.06h0l.12,0,.14-.05.14-.06h0l.14-.06.14-.06.12-.05h0l.14-.05.14-.06.09,0,.05,0,.28-.12.06,0,.09,0,.14-.06.14,0,0,0,.11,0,.14-.06.43-.18.12-.05h0l.28-.12.09,0,.06,0,.28-.12.06,0,.08,0,.14-.06.14-.06h0l.1-.05.15-.06.14-.06h0l.14-.06.14-.06.12-.05h0l.28-.12.09,0,.2-.08.14-.06a22.44,22.44,0,0,0,.34-5.24,28.69,28.69,0,0,0-1.27-6.9c-35.86,16.95-87,28.38-138.53-3.44a29.19,29.19,0,0,0-.55,4Z"/><path class="cls-1" d="M675,463.71a97.63,97.63,0,0,1-11.91-.79q-.32,10.33-1.14,20a113.33,113.33,0,0,0,14.42.77,102.78,102.78,0,0,0,16.81-1.57,89.63,89.63,0,0,0,23.51-7.61A81.23,81.23,0,0,0,736.35,461c15.36-14.28,20.25-31.2,20-49.24-.29-18.46-6-38.37-11.57-57.88h0c-2.33-8.15-4.64-16.22-6.41-23.78a77,77,0,0,1-2-22.64,61.78,61.78,0,0,1,4.92-20.66h0l.27-.66A50.22,50.22,0,0,1,748.43,275a43.51,43.51,0,0,1,9.21-8.47,38.29,38.29,0,0,1,11-5.14,37,37,0,0,1,11.94-1.35,43.73,43.73,0,0,1,15.3,3.73,62.11,62.11,0,0,1,14.76,9.3,10,10,0,0,0,12.77-15.35,81.79,81.79,0,0,0-20.52-12.66,63.3,63.3,0,0,0-21.37-5,57.34,57.34,0,0,0-18.31,2A58.05,58.05,0,0,0,746.45,250a62.76,62.76,0,0,0-13.26,12.12A70.55,70.55,0,0,0,723.31,278l-.23.45h0l-.12.27h0a81.22,81.22,0,0,0-6.52,26.67v.07a96.65,96.65,0,0,0,2.41,29.17c1.92,8.2,4.26,16.4,6.63,24.67l0,.07c4.58,16,9.25,32.33,10.23,47.29,1,15.53-2,29.43-13,39.7a61.94,61.94,0,0,1-15.1,10.34,69.19,69.19,0,0,1-18,5.79A80.26,80.26,0,0,1,675,463.71Z"/><path class="cls-2" d="M674.1,463.71a100.27,100.27,0,0,1-11-.79q-.32,10.33-1.14,20a113.33,113.33,0,0,0,14.42.77,102.78,102.78,0,0,0,16.81-1.57,89.63,89.63,0,0,0,23.51-7.61A81.23,81.23,0,0,0,736.35,461c15.36-14.28,20.25-31.2,20-49.24-.29-18.46-6-38.37-11.57-57.88h0c-2.33-8.15-4.64-16.22-6.41-23.78a77,77,0,0,1-2-22.64,61.78,61.78,0,0,1,4.92-20.66h0l.27-.66A50.22,50.22,0,0,1,748.43,275a43.51,43.51,0,0,1,9.21-8.47,38.29,38.29,0,0,1,11-5.14,37,37,0,0,1,11.94-1.35,43.73,43.73,0,0,1,15.3,3.73,62.11,62.11,0,0,1,14.76,9.3,10,10,0,0,0,12.77-15.35c.48,9.08-4.78,15-18.75,3.56s-37.77-12.59-58.11,4.52S722.65,316.36,732,351.37c6.05,22.59,18.08,50.69,11,79.59-7.49,30.47-48.75,45.36-59.73,43.58-6.42-1-8.53-6.48-9.18-10.83Z"/><path class="cls-5" d="M463.79,114.05a186.29,186.29,0,0,1,16.58-26.74c-7.53-5.26-24.1-16.4-31.38-13.56-.34.57-.2,3,.4,6.82a75.74,75.74,0,0,0,6,18.63,97.91,97.91,0,0,0,8.4,14.85Z"/><path class="cls-3" d="M463.79,114.05a186.29,186.29,0,0,1,16.58-26.74c-7.53-5.26-24.1-16.4-31.38-13.56,0,0,15.92,6.47,10.61,22.33-.75,2.27-1.59,4.53-2.46,6.76a98.28,98.28,0,0,0,6.65,11.21Z"/><path class="cls-6" d="M452.12,235.05c-6.53-6.54-10.26-11.07-10.3-11.12a3.45,3.45,0,0,1-.23-4.07c10.13-17.08,10.05-31,10-46.13-.06-11.48-.13-23.6,3.86-38.14l-46.14,2.25,4.83,99.06,38-1.85Z"/><path class="cls-5" d="M447,229.71c-3.3-3.54-5.11-5.75-5.14-5.78a3.45,3.45,0,0,1-.23-4.07c10.13-17.08,10.05-31,10-46.13-.06-11-.12-22.51,3.35-36.19l-37.49,99.2,26.38-1.28,3.16-5.75Zm-10.9-93.17-12.43.6-12.86,31.31.87,17.75,24.42-49.66Z"/><path class="cls-7" d="M476.7,256.34a216,216,0,0,1-17.77-14.74l-44.69,2.17a6.63,6.63,0,0,1-4.79-1.73h0a6.64,6.64,0,0,1-2.18-4.62L402.42,138a6.67,6.67,0,0,1,6.34-7l45.28-2.2c-.51-.69-1-1.39-1.5-2.09l-51.4,2.5s-.07.05-.13.13a1.13,1.13,0,0,0-.25.77l6.29,129.06a.5.5,0,0,0,.18.39.57.57,0,0,0,.42.15l69.05-3.36Z"/><path class="cls-1" d="M634.29,258.94c-7.87,3.9-15.92,7.5-24,10.66-24.42,9.52-49.51,15.13-72.23,13.07-18.9-1.72-36.78-10-51.88-19.76a188,188,0,0,0-17.68,9.53,204.13,204.13,0,0,0-18.78,12.77,3.44,3.44,0,0,1-4.82-.62,3.39,3.39,0,0,1-.49-.89c-1.29-3.41-2.76-6.84-4.34-10.23-1.31-2.81-2.67-5.58-4-8.27l-28,1.36a7.45,7.45,0,0,1-7.79-7.08l-3.92-80.33C374.5,185,371.16,198,373.92,211.07c2.09,9.87,7.49,20,11.48,27.57a79.75,79.75,0,0,1,4.62,9.55c1.85,5.31,3.4,13.06,5.2,22.1,3.58,18,8.19,41.09,17.56,57.51,10.46,18.34,27.39,28.31,56.89,12.09q1.13-6.61,2.36-13.47a3.43,3.43,0,0,1,6.76,1.21q-1.38,7.58-2.6,14.86l-.05.31C468.36,389.18,465.22,427,466,459.53c.79,35.86,6.29,65.39,15.41,93.07a3.43,3.43,0,0,1-2.19,4.34,3.29,3.29,0,0,1-1.45.15c-15.61-1-25.77,4.59-30.44,11.8a17.74,17.74,0,0,0-2.83,7.69,13.88,13.88,0,0,0,1,7.19c2.15,4.88,7.51,8.59,16.19,8.89,1.84.06,3.55.13,5.35.21,8.49.34,19.09.77,29.53.27,21.44-1,42.46-5.91,41.61-23.84-.88-18.37.06-41,4.08-59.6,2.4-11.09,5.94-20.82,10.9-27.53a131.08,131.08,0,0,1-26.55-4.05c-10.71-2.84-19.7-7-26-12a3.43,3.43,0,1,1,4.27-5.38c5.56,4.42,13.68,8.13,23.47,10.73a135.9,135.9,0,0,0,65.54,0c9.79-2.6,17.9-6.31,23.46-10.73a3.44,3.44,0,1,1,4.28,5.38c-6.29,5-15.28,9.15-26,12a131.19,131.19,0,0,1-26.55,4.05c5,6.71,8.5,16.44,10.9,27.53,4,18.56,5,41.23,4.08,59.6-.85,17.93,20.17,22.82,41.61,23.84,10.44.5,21,.07,29.53-.27,1.8-.08,3.51-.15,5.35-.21,8.68-.3,14-4,16.19-8.89a14,14,0,0,0,1-7.19,17.87,17.87,0,0,0-2.83-7.69c-4.67-7.21-14.83-12.84-30.44-11.8a3.28,3.28,0,0,1-1.45-.15,3.44,3.44,0,0,1-2.2-4.34c9.13-27.68,14.62-57.21,15.42-93.07.18-8,.12-16.4-.18-25.13a11.34,11.34,0,0,1-.07-1.75c-1.15-30-5.19-64.32-12.59-105a3.43,3.43,0,0,1,6.75-1.21c7.46,41,11.54,75.65,12.7,105.94a2.17,2.17,0,0,1,0,.36l.05,1.19c.48,3.59,4.24,7.39,9.15,9.93a25.52,25.52,0,0,0,8.16,2.64,17.82,17.82,0,0,0,8-.58c4.94-1.61,9.13-6.07,10.71-14.8,5.2-28.71,3.47-66.32-9.92-101.23-10.42-27.16-27.92-52.65-54.75-70.93Z"/><path class="cls-2" d="M634.29,258.94c-7.87,3.9-15.92,7.5-24,10.66-24.42,9.52-49.51,15.13-72.23,13.07-18.9-1.72-36.78-10-51.88-19.76-2.54,1.17-5.24,2.53-8,4,3,2.28,6.11,4.56,9.39,6.77a3.52,3.52,0,0,1,1.44.95c14.49,9.54,31.66,17.6,49.72,19.24,21.53,2,45.57-3.45,69.11-12.63,8.51-3.32,16.94-7.13,25.17-11.26l.15-.07q4.77-2.4,9.46-4.94-4-3.15-8.25-6.07Z"/><path class="cls-2" d="M406.61,266.5a7.46,7.46,0,0,1-6.42-7L399,234a78,78,0,0,1-13.19-26.8A29.8,29.8,0,0,1,390.68,181c-16.75,6.48-19.26,18.26-16.76,30.1,2.09,9.87,7.49,20,11.48,27.57a79.75,79.75,0,0,1,4.62,9.55c1.85,5.31,3.4,13.06,5.2,22.1,3.58,18,8.19,41.09,17.56,57.51,10.46,18.34,27.39,28.31,56.89,12.09q1.13-6.61,2.36-13.47a3.44,3.44,0,0,1,1.42-2.21s-29.58,12.15-43.46,2.14c-8-5.77-17.12-35.63-23.38-59.85Zm244.3,63.83c7,39.3,10.86,72.71,12,102a2.17,2.17,0,0,1,0,.36l.05,1.19c.48,3.59,4.24,7.39,9.15,9.93a25.52,25.52,0,0,0,8.16,2.64,17.82,17.82,0,0,0,8-.58c4.94-1.61,9.13-6.07,10.71-14.8.95-5.26,1.67-10.82,2.13-16.6-3,18.06-29,29.34-31.54,1s-18.6-85-18.64-85.13Z"/><path class="cls-2" d="M451.51,564.11a21.92,21.92,0,0,0-4.23,4.78,17.74,17.74,0,0,0-2.83,7.69,13.88,13.88,0,0,0,1,7.19c2.15,4.88,7.51,8.59,16.19,8.89,1.84.06,3.55.13,5.35.21,8.49.34,19.09.77,29.53.27,21.44-1,42.46-5.91,41.61-23.84-.88-18.37.06-41,4.08-59.6,2.4-11.09,5.94-20.82,10.9-27.53a131.08,131.08,0,0,1-26.55-4.05,82.5,82.5,0,0,1-20-7.92h0s11.17,28.56,11.17,62.13,8.07,43.91-25.19,49.08-45.08-6.87-41.11-17.3Z"/><path class="cls-5" d="M652.51,102a98.73,98.73,0,0,0,5.34-29.47c.2-8.23-.54-14.36-2.12-15.23l-.07,0c-6.82-2.32-21.72,13.16-27.95,20.09A67.68,67.68,0,0,1,652.51,102Z"/><path class="cls-3" d="M652.51,102a88,88,0,0,0,2.64-9c-.44-.51-.89-1-1.36-1.52-11-12-12.54-24.57-.06-34.48-7.39.5-20.33,14-26,20.31A67.68,67.68,0,0,1,652.51,102Z"/><path d="M658.59,105.39q-.87,2.34-1.85,4.52c.36.75.71,1.5,1,2.26q2.16-3.94,3.93-7.89c7.54-16.66,10.1-32.82,9.57-45.56-.51-12-3.61-20.69-7.72-23.25a5.25,5.25,0,0,0-.51-.28c-4.59-2.07-12.9,1.19-21.77,6.42-14.77,8.72-30.32,22.75-35,28.46a3.43,3.43,0,0,1-4.07,1.11c-13.94-5.8-31-8.13-47.31-7.25s-31.81,4.94-42.51,11.93A3.47,3.47,0,0,1,509,76c-.05,0-18.64-9.69-33.15-14.8l-.14-.05a77.15,77.15,0,0,0-23.26-5.29c-6.93-.41-12.39.36-14.76,2.17l-.12.11c-2.35,2-1.25,12.63,2.62,26.11a135.08,135.08,0,0,0,16.47,36.24,3.46,3.46,0,0,1,1.07,1.58c.5.73,1,1.44,1.52,2.14.39-1,.8-2,1.24-3a105.67,105.67,0,0,1-11.32-19.17,83,83,0,0,1-6.54-20.42c-1.05-6.56-.22-11.5,2.23-13.4h0a5.27,5.27,0,0,1,1-.63h0c11.21-5.09,32.35,9.77,39.87,15.07l1.53,1.08a3.42,3.42,0,0,1,.69,4.8c-13.1,17.4-20.42,31.78-24.49,44.27l-.09.27c-5.1,15.79-5,28.56-5,40.59.09,15.51.16,29.86-9.78,47.65a211.67,211.67,0,0,0,38.85,34.29,3.52,3.52,0,0,1,1.44.95c14.49,9.54,31.66,17.6,49.72,19.24,21.53,2,45.57-3.45,69.11-12.63,8.51-3.32,16.94-7.13,25.17-11.26l.15-.07a384.29,384.29,0,0,0,53.25-32.68c-12.46-12.33-16.8-33.57-21.46-56.4-6.46-31.63-13.57-66.44-44-81.28a3.34,3.34,0,0,1-.77-.49,3.43,3.43,0,0,1-.4-4.84c.07-.09,24.77-29.63,38.12-25.4l.38.11a5.57,5.57,0,0,1,.52.23c4.18,2,6.3,10.68,6,21.6a105.25,105.25,0,0,1-6.12,32.67ZM652.51,102a98.73,98.73,0,0,0,5.34-29.47c.2-8.23-.54-14.36-2.12-15.23l-.07,0c-6.82-2.32-21.72,13.16-27.95,20.09A67.68,67.68,0,0,1,652.51,102Zm8.56,18.24c4.81,13.18,7.73,27.45,10.53,41.15,4.79,23.46,9.22,45.17,22.29,55.28a3.43,3.43,0,0,1,.62,4.81,3.49,3.49,0,0,1-.79.75,395.86,395.86,0,0,1-52.49,33.15c26.38,19,43.76,44.69,54.24,72,13.86,36.13,15.63,75.11,10.24,104.89-2.11,11.68-8.14,17.78-15.34,20.13a24.67,24.67,0,0,1-11,.85A32.35,32.35,0,0,1,669,450a30.65,30.65,0,0,1-5.74-3.82c0,3.35,0,6.64,0,9.88a90.75,90.75,0,0,0,11.79.84,73.65,73.65,0,0,0,13.41-1.12,62,62,0,0,0,16.2-5.22,55.34,55.34,0,0,0,13.43-9.18c9.25-8.6,11.71-20.64,10.81-34.24-.93-14.18-5.51-30.17-10-45.84l0-.06c-2.38-8.33-4.74-16.59-6.71-25A103.62,103.62,0,0,1,709.57,305v-.09a88.12,88.12,0,0,1,7.09-28.9h0l.23-.48h0l.16-.31a77.89,77.89,0,0,1,10.84-17.47,70,70,0,0,1,14.71-13.43,64.56,64.56,0,0,1,18.77-8.74,63.83,63.83,0,0,1,20.48-2.28,70.26,70.26,0,0,1,23.71,5.5,88.35,88.35,0,0,1,22.24,13.74,16.84,16.84,0,1,1-21.53,25.89,55.74,55.74,0,0,0-13.12-8.27,36.92,36.92,0,0,0-12.88-3.17,30.46,30.46,0,0,0-9.76,1.11,31.09,31.09,0,0,0-9,4.23,36.47,36.47,0,0,0-7.76,7.12,43.17,43.17,0,0,0-5.9,9.57c-.09.2-.17.4-.26.61h0a54.49,54.49,0,0,0-4.36,18.35A70.09,70.09,0,0,0,745,328.53c1.72,7.35,4,15.36,6.33,23.46h0c5.69,19.9,11.51,40.21,11.81,59.66.31,19.87-5.11,38.54-22.15,54.37a87.85,87.85,0,0,1-21.35,14.66,96.16,96.16,0,0,1-25.31,8.2,107.91,107.91,0,0,1-17.94,1.68,121.91,121.91,0,0,1-15.14-.78A306.11,306.11,0,0,1,648.9,550.1c15.8.19,26.48,6.81,31.82,15a24.7,24.7,0,0,1,3.9,10.68A20.74,20.74,0,0,1,683,586.54c-3.15,7.16-10.57,12.58-22.27,13l-5.29.21c-8.64.35-19.41.78-30.13.27-24.89-1.18-49.26-7.45-48.14-31,.85-17.85-.06-39.85-4-57.82-2.63-12.16-6.56-22.33-12.14-27.74-5.58,5.41-9.51,15.58-12.14,27.74-3.89,18-4.8,40-4,57.82,1.12,23.57-23.25,29.84-48.14,31-10.72.51-21.49.08-30.13-.27l-5.3-.21c-11.7-.4-19.11-5.82-22.27-13a20.74,20.74,0,0,1-1.57-10.71,24.57,24.57,0,0,1,3.9-10.68c5.34-8.24,16-14.86,31.81-15-8.42-26.93-13.47-55.77-14.24-90.43-.7-31.39,2.13-67.53,9.18-111.32-31.2,15.2-49.71,3.45-61.46-17.16-9.94-17.42-14.67-41.14-18.34-59.56-1.77-8.85-3.29-16.46-4.93-21.18a80.38,80.38,0,0,0-4.22-8.61c-4.18-7.88-9.83-18.53-12.12-29.37-3.55-16.79.65-33.41,28.73-40.33l-2-41.72a8.14,8.14,0,0,1,1.78-5.43,7,7,0,0,1,5.14-2.65L448.21,120a144.59,144.59,0,0,1-14.66-33.86c-4.6-16-4.81-29.58-.41-33.27h0l.25-.2c3.71-2.86,10.88-4.16,19.43-3.65a84.56,84.56,0,0,1,25.25,5.72c12.3,4.33,27.25,11.72,32.29,14.27,11.6-7,27.56-11.07,44.22-12,16.39-.87,33.55,1.33,48,6.85,6.29-6.86,21.15-19.91,35.21-28.21,10.63-6.28,21.1-9.94,28.09-6.78a12,12,0,0,1,1.32.71c5.94,3.7,10.35,14.45,10.95,28.82.57,13.67-2.15,31-10.16,48.66a123.47,123.47,0,0,1-6.92,13.16ZM634.29,258.94c-7.87,3.9-15.92,7.5-24,10.66-24.42,9.52-49.51,15.13-72.23,13.07-18.9-1.72-36.78-10-51.88-19.76a188,188,0,0,0-17.68,9.53,204.13,204.13,0,0,0-18.78,12.77,3.44,3.44,0,0,1-4.82-.62,3.39,3.39,0,0,1-.49-.89c-1.29-3.41-2.76-6.84-4.34-10.23-1.31-2.81-2.67-5.58-4-8.27l-28,1.36a7.45,7.45,0,0,1-7.79-7.08l-3.92-80.33C374.5,185,371.16,198,373.92,211.07c2.09,9.87,7.49,20,11.48,27.57a79.75,79.75,0,0,1,4.62,9.55c1.85,5.31,3.4,13.06,5.2,22.1,3.58,18,8.19,41.09,17.56,57.51,10.46,18.34,27.39,28.31,56.89,12.09q1.13-6.61,2.36-13.47a3.43,3.43,0,0,1,6.76,1.21q-1.38,7.58-2.6,14.86l-.05.31C468.36,389.18,465.22,427,466,459.53c.79,35.86,6.29,65.39,15.41,93.07a3.43,3.43,0,0,1-2.19,4.34,3.29,3.29,0,0,1-1.45.15c-15.61-1-25.77,4.59-30.44,11.8a17.74,17.74,0,0,0-2.83,7.69,13.88,13.88,0,0,0,1,7.19c2.15,4.88,7.51,8.59,16.19,8.89,1.84.06,3.55.13,5.35.21,8.49.34,19.09.77,29.53.27,21.44-1,42.46-5.91,41.61-23.84-.88-18.37.06-41,4.08-59.6,2.4-11.09,5.94-20.82,10.9-27.53a131.08,131.08,0,0,1-26.55-4.05c-10.71-2.84-19.7-7-26-12a3.43,3.43,0,1,1,4.27-5.38c5.56,4.42,13.68,8.13,23.47,10.73a135.9,135.9,0,0,0,65.54,0c9.79-2.6,17.9-6.31,23.46-10.73a3.44,3.44,0,1,1,4.28,5.38c-6.29,5-15.28,9.15-26,12a131.19,131.19,0,0,1-26.55,4.05c5,6.71,8.5,16.44,10.9,27.53,4,18.56,5,41.23,4.08,59.6-.85,17.93,20.17,22.82,41.61,23.84,10.44.5,21,.07,29.53-.27,1.8-.08,3.51-.15,5.35-.21,8.68-.3,14-4,16.19-8.89a14,14,0,0,0,1-7.19,17.87,17.87,0,0,0-2.83-7.69c-4.67-7.21-14.83-12.84-30.44-11.8a3.28,3.28,0,0,1-1.45-.15,3.44,3.44,0,0,1-2.2-4.34c9.13-27.68,14.62-57.21,15.42-93.07.18-8,.12-16.4-.18-25.13a11.34,11.34,0,0,1-.07-1.75c-1.15-30-5.19-64.32-12.59-105a3.43,3.43,0,0,1,6.75-1.21c7.46,41,11.54,75.65,12.7,105.94a2.17,2.17,0,0,1,0,.36l.05,1.19c.48,3.59,4.24,7.39,9.15,9.93a25.52,25.52,0,0,0,8.16,2.64,17.82,17.82,0,0,0,8-.58c4.94-1.61,9.13-6.07,10.71-14.8,5.2-28.71,3.47-66.32-9.92-101.23-10.42-27.16-27.92-52.65-54.75-70.93Zm-157.59-2.6a216,216,0,0,1-17.77-14.74l-44.69,2.17a6.63,6.63,0,0,1-4.79-1.73h0a6.64,6.64,0,0,1-2.18-4.62L402.42,138a6.67,6.67,0,0,1,6.34-7l45.28-2.2c-.51-.69-1-1.39-1.5-2.09l-51.4,2.5s-.07.05-.13.13a1.13,1.13,0,0,0-.25.77l6.29,129.06a.5.5,0,0,0,.18.39.57.57,0,0,0,.42.15l69.05-3.36Zm-24.58-21.29c-6.53-6.54-10.26-11.07-10.3-11.12a3.45,3.45,0,0,1-.23-4.07c10.13-17.08,10.05-31,10-46.13-.06-11.48-.13-23.6,3.86-38.14l-46.14,2.25,4.83,99.06,38-1.85Zm11.67-121a186.29,186.29,0,0,1,16.58-26.74c-7.53-5.26-24.1-16.4-31.38-13.56-.34.57-.2,3,.4,6.82a75.74,75.74,0,0,0,6,18.63,97.91,97.91,0,0,0,8.4,14.85ZM675,463.71a97.63,97.63,0,0,1-11.91-.79q-.32,10.33-1.14,20a113.33,113.33,0,0,0,14.42.77,102.78,102.78,0,0,0,16.81-1.57,89.63,89.63,0,0,0,23.51-7.61A81.23,81.23,0,0,0,736.35,461c15.36-14.28,20.25-31.2,20-49.24-.29-18.46-6-38.37-11.57-57.88h0c-2.33-8.15-4.64-16.22-6.41-23.78a77,77,0,0,1-2-22.64,61.78,61.78,0,0,1,4.92-20.66h0l.27-.66A50.22,50.22,0,0,1,748.43,275a43.51,43.51,0,0,1,9.21-8.47,38.29,38.29,0,0,1,11-5.14,37,37,0,0,1,11.94-1.35,43.73,43.73,0,0,1,15.3,3.73,62.11,62.11,0,0,1,14.76,9.3,10,10,0,0,0,12.77-15.35,81.79,81.79,0,0,0-20.52-12.66,63.3,63.3,0,0,0-21.37-5,57.34,57.34,0,0,0-18.31,2A58.05,58.05,0,0,0,746.45,250a62.76,62.76,0,0,0-13.26,12.12A70.55,70.55,0,0,0,723.31,278l-.23.45h0l-.12.27h0a81.22,81.22,0,0,0-6.52,26.67v.07a96.65,96.65,0,0,0,2.41,29.17c1.92,8.2,4.26,16.4,6.63,24.67l0,.07c4.58,16,9.25,32.33,10.23,47.29,1,15.53-2,29.43-13,39.7a61.94,61.94,0,0,1-15.1,10.34,69.19,69.19,0,0,1-18,5.79A80.26,80.26,0,0,1,675,463.71ZM464.92,266.55q2.58-1.56,5.13-3l-26.54,1.29c.94,1.9,1.87,3.83,2.77,5.76,1,2.13,2,4.28,2.85,6.45,5.06-3.7,10.46-7.27,15.79-10.49Zm113.35-30.86a3.43,3.43,0,1,1,5.78,3.71c-2.54,3.93-6.87,6.56-11.56,8.3a54.51,54.51,0,0,1-17.9,3.07c-2.81-.05-6.07-1.4-9-3.12a40.42,40.42,0,0,1-6.33-4.61,39.9,39.9,0,0,1-6.54,3.64c-3,1.29-6.32,2.18-9,1.84a48,48,0,0,1-16.16-5.59c-4.08-2.39-7.68-5.63-9.38-9.88a3.43,3.43,0,1,1,6.37-2.56c1.06,2.64,3.57,4.81,6.48,6.52a40.1,40.1,0,0,0,13.55,4.7c1.29.17,3.35-.47,5.44-1.36,3.39-1.44,6.31-3.14,6.51-3.5s.18-6.42.18-6.43a3.45,3.45,0,1,1,6.89,0,56.3,56.3,0,0,1-.41,7.35,46,46,0,0,0,5.83,3.94c2.1,1.22,4.24,2.17,5.71,2.2a46.93,46.93,0,0,0,15.4-2.67c3.45-1.27,6.54-3.07,8.15-5.55Z"/><path class="cls-8" d="M540.21,230.42s-16.84-8.44-17.49-17.81,34.92-11,37.86-2.15-20.37,20-20.37,20Z"/><path class="cls-8" d="M493.58,157c8.94.2,16,8.59,15.7,18.74s-7.73,18.21-16.67,18-16-8.58-15.69-18.73,7.73-18.22,16.66-18Z"/><path class="cls-8" d="M600.54,159.29c8.94.2,16,8.59,15.7,18.74s-7.73,18.22-16.67,18-16-8.59-15.7-18.74,7.73-18.22,16.67-18Z"/><path class="cls-8" d="M445.42,245.19a5,5,0,1,1-4.79,5.28,5,5,0,0,1,4.79-5.28Z"/><path class="cls-8" d="M629.8,245.92a1.72,1.72,0,1,0,2.33-2.52S621,233,601,226.18a1.72,1.72,0,1,0-1.1,3.26c19.28,6.53,29.9,16.45,29.93,16.48Zm4.55-16a1.71,1.71,0,0,0,1.42-3.12s-13.85-6.49-34.94-6.76a1.72,1.72,0,0,0,0,3.44c20.36.26,33.52,6.43,33.56,6.44Zm1.37-16.68a1.72,1.72,0,0,0,.5-3.4s-15.11-2.38-35.44,3.21a1.72,1.72,0,0,0,.91,3.32c19.63-5.41,34-3.14,34-3.13ZM459,237.66a1.72,1.72,0,1,1-2.07-2.74s12.13-9.33,32.67-14.13a1.72,1.72,0,1,1,.78,3.35C470.51,228.78,459,237.63,459,237.66Zm-3-16.41a1.71,1.71,0,1,1-1.11-3.24s14.41-5.12,35.43-3.36a1.72,1.72,0,1,1-.29,3.42c-20.29-1.7-34,3.17-34,3.18Zm.25-16.74a1.72,1.72,0,1,1-.17-3.43s15.27-.91,35,6.62a1.72,1.72,0,1,1-1.22,3.21c-19-7.27-33.53-6.4-33.57-6.4Z"/><path class="cls-9" d="M498.9,163.88c2.5,0,4.52,2.5,4.52,5.57s-2,5.57-4.52,5.57-4.52-2.49-4.52-5.57,2-5.57,4.52-5.57Z"/><path class="cls-9" d="M605.2,166.22c2.5,0,4.52,2.5,4.52,5.57s-2,5.57-4.52,5.57-4.52-2.49-4.52-5.57,2-5.57,4.52-5.57Z"/><path class="cls-2" d="M670.73,564.11a21.92,21.92,0,0,1,4.23,4.78,17.74,17.74,0,0,1,2.83,7.69,14,14,0,0,1-1,7.19c-2.15,4.88-7.51,8.59-16.19,8.89-1.84.06-3.55.13-5.35.21-8.5.34-19.09.77-29.54.27-21.43-1-42.45-5.91-41.6-23.84.87-18.37-.07-41-4.08-59.6-2.4-11.09-5.94-20.82-10.9-27.53a131.19,131.19,0,0,0,26.55-4.05,82.5,82.5,0,0,0,20-7.92h0s-11.17,28.56-11.17,62.13-8.07,43.91,25.18,49.08,45.08-6.87,41.12-17.3Z"/><path class="cls-10" d="M561.12,313.56c30.28,0,54.82,45.41,54.82,83.85s-24.54,55.34-54.82,55.34-54.82-16.9-54.82-55.34,24.54-83.85,54.82-83.85Z"/></g></svg>