<svg xmlns="http://www.w3.org/2000/svg" viewBox="0 0 1200 628"><defs><style>.cls-1{fill:#7085a1;}.cls-2{fill:#2f435e;}.cls-3{fill:#95acc9;}.cls-4{fill:#b3c9e6;}.cls-5{fill:#ffb366;}.cls-6{fill:#22354d;}.cls-7{fill:#0c141f;}.cls-8{fill:#a0afba;}.cls-17,.cls-9{fill:#dcf1ff;}.cls-10{fill:#78848c;}.cls-11{fill:#9cadb5;}.cls-12,.cls-16{fill:#fff;}.cls-13{fill:#ff8585;}.cls-14{stroke:#000;stroke-miterlimit:22.93;stroke-width:0.57px;}.cls-14,.cls-15,.cls-16,.cls-17{fill-rule:evenodd;}</style></defs><g id="Layer_1" data-name="Layer 1"><polygon class="cls-1" points="324.7 483.65 485 457.21 501.88 136.75 295.01 112.48 324.7 483.65 324.7 483.65"/><polygon class="cls-2" points="246.32 160.96 270.81 437.37 318.69 480.1 289.54 115.8 246.32 160.96 246.32 160.96"/><polygon class="cls-3" points="491.43 146.09 314.19 128.68 341.85 466.01 476.86 447.85 491.43 146.09 491.43 146.09"/><path class="cls-4" d="M491.43,146.09,314.19,128.68,337.1,408.11c83.71-53.48,130.11-162.06,153-235.49l1.28-26.53Z"/><path class="cls-5" d="M452.74,307.58c-11.67-13.6-27.76-22-45.5-22s-33.83,8.42-45.5,22-19.05,32.71-19.05,53.72,7.28,40,19.05,53.72,27.75,22,45.5,22,33.83-8.42,45.5-22,19.05-32.71,19.05-53.72-7.28-40-19.05-53.72Z"/><path class="cls-5" d="M437.33,164c-7.72-9-18.36-14.57-30.09-14.57S384.87,155,377.15,164s-12.67,21.77-12.67,35.76,4.84,26.63,12.67,35.75,18.36,14.58,30.09,14.58,22.37-5.57,30.09-14.58S450,213.74,450,199.75s-4.85-26.63-12.67-35.76Z"/><path d="M246.32,161l24.49,276.41,47.88,42.73L289.54,115.8,246.32,161Zm65-38.29L497.39,141q-7.54,156-15.06,311.92l-145.68,19.6Q322.28,297.4,307.93,122.33l3.41.34Zm180.09,23.42L314.19,128.68,341.85,466l135-18.17,14.57-301.76ZM409.2,172.52c6.39,0,12.13,3.13,16.26,8.2a31.21,31.21,0,0,1,0,38.05c-4.13,5.07-9.87,8.2-16.26,8.2s-12.12-3.13-16.25-8.2a31.21,31.21,0,0,1,0-38.05c4.13-5.06,9.87-8.2,16.25-8.2ZM421,184.32a14.56,14.56,0,0,0-23.67,0,25.64,25.64,0,0,0,0,30.85,14.56,14.56,0,0,0,23.67,0,25.64,25.64,0,0,0,0-30.85ZM409.2,152.76c10.83,0,20.61,5.35,27.65,14,6.91,8.47,11.18,20.14,11.18,33s-4.27,24.52-11.18,33c-7,8.64-16.82,14-27.65,14s-20.6-5.35-27.64-14c-6.91-8.47-11.18-20.14-11.18-33s4.27-24.53,11.18-33c7-8.64,16.81-14,27.64-14Zm23.23,17.59c-6-7.33-14.19-11.87-23.23-11.87S392,163,386,170.35c-6.1,7.49-9.88,17.88-9.88,29.4s3.78,21.9,9.88,29.39c6,7.33,14.19,11.87,23.22,11.87s17.25-4.54,23.23-11.87c6.1-7.49,9.88-17.88,9.88-29.39s-3.78-21.91-9.88-29.4Zm-25.19-26.66c13.46,0,25.64,6.34,34.42,16.59s14.06,24.08,14.06,39.47-5.37,29.34-14.06,39.46-21,16.59-34.42,16.59-25.64-6.34-34.43-16.59-14.05-24.08-14.05-39.46,5.37-29.35,14.05-39.47,21-16.59,34.43-16.59ZM437.33,164c-7.72-9-18.36-14.57-30.09-14.57S384.87,155,377.15,164s-12.67,21.77-12.67,35.76,4.84,26.63,12.67,35.75,18.36,14.58,30.09,14.58,22.37-5.57,30.09-14.58S450,213.74,450,199.75s-4.85-26.63-12.67-35.76ZM410.14,322.44c9,0,17.12,4.43,23,11.61a44.8,44.8,0,0,1,0,54.5c-5.85,7.17-14,11.61-23,11.61s-17.11-4.44-23-11.61a44.8,44.8,0,0,1,0-54.5c5.85-7.18,14-11.61,23-11.61Zm18.54,15.2c-4.77-5.85-11.33-9.48-18.54-9.48s-13.76,3.63-18.53,9.48a39.18,39.18,0,0,0,0,47.32c4.77,5.85,11.33,9.48,18.53,9.48s13.77-3.63,18.54-9.48a39.18,39.18,0,0,0,0-47.32ZM410.14,290c16.31,0,31,8.07,41.66,21.11,10.5,12.88,17,30.62,17,50.19s-6.49,37.31-17,50.19c-10.63,13-25.35,21.1-41.66,21.1s-31-8.06-41.66-21.1c-10.49-12.88-17-30.62-17-50.19s6.5-37.31,17-50.19c10.63-13,25.36-21.11,41.66-21.11Zm37.24,24.71c-9.56-11.73-22.73-19-37.24-19s-27.67,7.25-37.23,19c-9.7,11.89-15.69,28.36-15.69,46.59s6,34.7,15.69,46.59c9.56,11.73,22.73,19,37.23,19s27.68-7.25,37.24-19c9.69-11.89,15.69-28.36,15.69-46.59s-6-34.7-15.69-46.59Zm-40.14-34.87c19.48,0,37.1,9.18,49.83,24s20.44,35,20.44,57.43S469.7,404,457.07,418.73s-30.35,24-49.83,24-37.1-9.18-49.84-24S337,383.7,337,361.3s7.81-42.71,20.43-57.43,30.35-24,49.84-24Zm45.5,27.74c-11.67-13.6-27.76-22-45.5-22s-33.83,8.42-45.5,22-19.05,32.71-19.05,53.72,7.28,40,19.05,53.72,27.75,22,45.5,22,33.83-8.42,45.5-22,19.05-32.71,19.05-53.72-7.28-40-19.05-53.72Zm-128,176.07L485,457.21l16.88-320.46L295,112.48,324.7,483.65ZM265.21,439,240.4,158.92l50.42-52.69q108.51,12.76,217,25.47-8.7,165.2-17.41,330.4L321.23,490q-28-25-55.92-49.91l-.1-1.12Z"/><path class="cls-2" d="M447.38,314.71c-9.56-11.73-22.73-19-37.24-19s-27.67,7.25-37.23,19c-9.7,11.89-15.69,28.36-15.69,46.59s6,34.7,15.69,46.59c9.56,11.73,22.73,19,37.23,19s27.68-7.25,37.24-19c9.69-11.89,15.69-28.36,15.69-46.59s-6-34.7-15.69-46.59Z"/><path class="cls-6" d="M455.74,394.6a79.31,79.31,0,0,0,0-66.6,53.72,53.72,0,0,0-4.6-6.59c-8.18-10-19.46-16.25-31.88-16.25s-23.69,6.21-31.88,16.25S374,345.69,374,361.3s5.13,29.71,13.43,39.89,19.46,16.25,31.88,16.25,23.7-6.21,31.88-16.25a53.72,53.72,0,0,0,4.6-6.59Z"/><path class="cls-7" d="M428.68,337.64c-4.77-5.85-11.33-9.48-18.54-9.48s-13.76,3.63-18.53,9.48a39.18,39.18,0,0,0,0,47.32c4.77,5.85,11.33,9.48,18.53,9.48s13.77-3.63,18.54-9.48a39.18,39.18,0,0,0,0-47.32Z"/><path class="cls-2" d="M432.43,170.35c-6-7.33-14.19-11.87-23.23-11.87S392,163,386,170.35c-6.1,7.49-9.88,17.88-9.88,29.4s3.78,21.9,9.88,29.39c6,7.33,14.19,11.87,23.22,11.87s17.25-4.54,23.23-11.87c6.1-7.49,9.88-17.88,9.88-29.39s-3.78-21.91-9.88-29.4Z"/><path class="cls-6" d="M441.75,207.37a52.19,52.19,0,0,0,0-15.25,39.85,39.85,0,0,0-8.15-18.5C428.29,167.1,421,163.07,413,163.07s-15.33,4-20.64,10.55a43.23,43.23,0,0,0,0,52.26c5.31,6.51,12.61,10.54,20.64,10.54s15.33-4,20.64-10.54a39.93,39.93,0,0,0,8.15-18.51Z"/><path class="cls-7" d="M421,184.32a14.56,14.56,0,0,0-23.67,0,25.64,25.64,0,0,0,0,30.85,14.56,14.56,0,0,0,23.67,0,25.64,25.64,0,0,0,0-30.85Z"/><polygon class="cls-1" points="875.3 483.65 715 457.21 698.12 136.75 904.99 112.48 875.3 483.65 875.3 483.65"/><polygon class="cls-2" points="953.68 160.96 929.19 437.37 881.32 480.1 910.46 115.8 953.68 160.96 953.68 160.96"/><polygon class="cls-3" points="708.57 146.09 885.81 128.68 858.15 466.01 723.14 447.85 708.57 146.09 708.57 146.09"/><path class="cls-4" d="M708.57,146.09l177.24-17.41L862.89,408.11c-83.7-53.48-130.1-162.06-153-235.49l-1.28-26.53Z"/><path class="cls-5" d="M747.26,307.58c11.67-13.6,27.76-22,45.5-22s33.83,8.42,45.5,22,19,32.71,19,53.72-7.28,40-19,53.72-27.75,22-45.5,22-33.83-8.42-45.5-22-19-32.71-19-53.72,7.28-40,19-53.72Z"/><path class="cls-5" d="M762.67,164c7.72-9,18.36-14.57,30.09-14.57S815.13,155,822.85,164s12.67,21.77,12.67,35.76-4.84,26.63-12.67,35.75-18.36,14.58-30.09,14.58-22.37-5.57-30.09-14.58S750,213.74,750,199.75s4.84-26.63,12.67-35.76Z"/><path d="M953.68,161,929.19,437.37,881.31,480.1l29.15-364.3L953.68,161Zm-65-38.29L702.61,141q7.54,156,15.06,311.92l145.68,19.6q14.37-175.07,28.72-350.14l-3.41.34ZM708.57,146.09l177.24-17.41L858.15,466l-135-18.17L708.57,146.09Zm82.23,26.43c-6.39,0-12.13,3.13-16.26,8.2a31.21,31.21,0,0,0,0,38.05c4.13,5.07,9.87,8.2,16.26,8.2s12.12-3.13,16.25-8.2a31.21,31.21,0,0,0,0-38.05c-4.13-5.06-9.87-8.2-16.25-8.2ZM779,184.32a14.56,14.56,0,0,1,23.67,0,25.64,25.64,0,0,1,0,30.85,14.56,14.56,0,0,1-23.67,0,25.64,25.64,0,0,1,0-30.85Zm11.84-31.56c-10.83,0-20.61,5.35-27.65,14-6.91,8.47-11.18,20.14-11.18,33s4.27,24.52,11.18,33c7,8.64,16.82,14,27.65,14s20.6-5.35,27.64-14c6.91-8.47,11.18-20.14,11.18-33s-4.27-24.53-11.18-33c-7-8.64-16.81-14-27.64-14Zm-23.23,17.59c6-7.33,14.19-11.87,23.23-11.87S808,163,814,170.35c6.1,7.49,9.88,17.88,9.88,29.4s-3.78,21.9-9.88,29.39C808,236.47,799.83,241,790.8,241s-17.25-4.54-23.23-11.87c-6.1-7.49-9.88-17.88-9.88-29.39s3.78-21.91,9.88-29.4Zm25.19-26.66c-13.47,0-25.64,6.34-34.42,16.59s-14.06,24.08-14.06,39.47,5.37,29.34,14.06,39.46,20.95,16.59,34.42,16.59,25.64-6.34,34.43-16.59,14-24.08,14-39.46-5.37-29.35-14-39.47-21-16.59-34.43-16.59ZM762.67,164c7.72-9,18.36-14.57,30.09-14.57S815.13,155,822.85,164s12.67,21.77,12.67,35.76-4.84,26.63-12.67,35.75-18.36,14.58-30.09,14.58-22.37-5.57-30.09-14.58S750,213.74,750,199.75s4.84-26.63,12.67-35.76Zm27.19,158.45c-9,0-17.12,4.43-23,11.61a44.8,44.8,0,0,0,0,54.5c5.85,7.17,14,11.61,23,11.61s17.11-4.44,23-11.61a44.8,44.8,0,0,0,0-54.5c-5.85-7.18-14-11.61-23-11.61Zm-18.54,15.2c4.77-5.85,11.33-9.48,18.54-9.48s13.76,3.63,18.53,9.48a39.18,39.18,0,0,1,0,47.32c-4.77,5.85-11.33,9.48-18.53,9.48s-13.77-3.63-18.54-9.48a39.18,39.18,0,0,1,0-47.32ZM789.86,290c-16.31,0-31,8.07-41.67,21.11-10.49,12.88-17,30.62-17,50.19s6.49,37.31,17,50.19c10.64,13,25.36,21.1,41.67,21.1s31-8.06,41.66-21.1c10.49-12.88,17-30.62,17-50.19s-6.5-37.31-17-50.19c-10.63-13-25.36-21.11-41.66-21.11Zm-37.24,24.71c9.56-11.73,22.73-19,37.24-19s27.67,7.25,37.23,19c9.7,11.89,15.69,28.36,15.69,46.59s-6,34.7-15.69,46.59c-9.56,11.73-22.73,19-37.23,19s-27.68-7.25-37.24-19c-9.69-11.89-15.69-28.36-15.69-46.59s6-34.7,15.69-46.59Zm40.14-34.87c-19.48,0-37.1,9.18-49.83,24s-20.44,35-20.44,57.43,7.81,42.71,20.44,57.43,30.35,24,49.83,24,37.1-9.18,49.84-24S863,383.7,863,361.3s-7.81-42.71-20.43-57.43-30.35-24-49.84-24Zm-45.5,27.74c11.67-13.6,27.76-22,45.5-22s33.83,8.42,45.5,22,19,32.71,19,53.72-7.28,40-19,53.72-27.75,22-45.5,22-33.83-8.42-45.5-22-19-32.71-19-53.72,7.28-40,19-53.72Zm128,176.07L715,457.21,698.12,136.75,905,112.48,875.3,483.65ZM934.79,439,959.6,158.92l-50.42-52.69Q800.67,119,692.14,131.7q8.7,165.2,17.41,330.4L878.77,490q28-25,55.92-49.91l.1-1.12Z"/><path class="cls-2" d="M752.62,314.71c9.56-11.73,22.73-19,37.24-19s27.67,7.25,37.23,19c9.7,11.89,15.69,28.36,15.69,46.59s-6,34.7-15.69,46.59c-9.56,11.73-22.73,19-37.23,19s-27.68-7.25-37.24-19c-9.69-11.89-15.69-28.36-15.69-46.59s6-34.7,15.69-46.59Z"/><path class="cls-6" d="M744.26,394.6a79.31,79.31,0,0,1,0-66.6,53.72,53.72,0,0,1,4.6-6.59c8.18-10,19.46-16.25,31.88-16.25s23.69,6.21,31.88,16.25,13.43,24.28,13.43,39.89-5.13,29.71-13.43,39.89-19.46,16.25-31.88,16.25-23.7-6.21-31.88-16.25a53.72,53.72,0,0,1-4.6-6.59Z"/><path class="cls-7" d="M771.32,337.64c4.77-5.85,11.33-9.48,18.54-9.48s13.76,3.63,18.53,9.48a39.18,39.18,0,0,1,0,47.32c-4.77,5.85-11.33,9.48-18.53,9.48s-13.77-3.63-18.54-9.48a39.18,39.18,0,0,1,0-47.32Z"/><path class="cls-2" d="M767.57,170.35c6-7.33,14.19-11.87,23.23-11.87S808,163,814,170.35c6.1,7.49,9.88,17.88,9.88,29.4s-3.78,21.9-9.88,29.39C808,236.47,799.83,241,790.8,241s-17.25-4.54-23.23-11.87c-6.1-7.49-9.88-17.88-9.88-29.39s3.78-21.91,9.88-29.4Z"/><path class="cls-6" d="M758.25,207.37a52.19,52.19,0,0,1,0-15.25,39.85,39.85,0,0,1,8.15-18.5c5.31-6.52,12.61-10.55,20.64-10.55s15.33,4,20.64,10.55a43.23,43.23,0,0,1,0,52.26c-5.31,6.51-12.61,10.54-20.64,10.54s-15.33-4-20.64-10.54a39.93,39.93,0,0,1-8.15-18.51Z"/><path class="cls-7" d="M779,184.32a14.56,14.56,0,0,1,23.67,0,25.64,25.64,0,0,1,0,30.85,14.56,14.56,0,0,1-23.67,0,25.64,25.64,0,0,1,0-30.85Z"/><path class="cls-8" d="M685.76,143.45c-.42,1.13-.87,2.23-1.34,3.29l.15.34c1.2-2.19,2.28-4.37,3.27-6.55,6.26-13.84,8.39-27.27,7.94-37.86-.42-10-3-17.18-6.41-19.31a3.55,3.55,0,0,0-.42-.23c-3.81-1.72-10.72,1-18.09,5.34-12.27,7.24-25.19,18.89-29,23.63a2.86,2.86,0,0,1-3.38.93c-11.58-4.82-25.75-6.76-39.3-6s-26.43,4.11-35.31,9.91a2.87,2.87,0,0,1-2.88.15s-15.48-8-27.54-12.29l-.11,0a64.08,64.08,0,0,0-19.32-4.4c-5.76-.34-10.3.3-12.27,1.81l-.1.08c-1.95,1.64-1,10.5,2.17,21.7a109.85,109.85,0,0,0,15.84,33.2c.32-.81.65-1.63,1-2.46a105.6,105.6,0,0,1-10.72-18.54,61.83,61.83,0,0,1-4.77-14.94c-.73-4.75-.08-8.42,2.12-10.3a2.75,2.75,0,0,1,.26-.22,5.16,5.16,0,0,1,.85-.51l.18-.09c9.35-4.16,27,8.21,33.16,12.56l1.23.86a2.86,2.86,0,0,1,.57,4c-24.76,32.88-24.65,52.78-24.55,70.73.07,12.87.13,24.8-8.13,39.58,4.1,4.68,17.7,19.42,36,30.87a2.71,2.71,0,0,1,.79.5c11.31,7,24.36,12.65,38,13.89,17.89,1.62,37.86-2.88,57.41-10.5,3.61-1.41,7.21-2.93,10.78-4.53l.14-.06a304.77,304.77,0,0,0,45.18-25.51l.26-.18q4.64-3.15,8.91-6.28c-10.35-10.24-14-27.89-17.83-46.85-5.37-26.27-11.27-55.2-36.59-67.52a2.9,2.9,0,0,1-.64-.41,2.86,2.86,0,0,1-.34-4c.06-.07,20.58-24.61,31.68-21.1a1.81,1.81,0,0,1,.31.09l.43.19c3.47,1.68,5.41,9.3,5.35,18.8a86.87,86.87,0,0,1-4.89,28.29Z"/><path class="cls-9" d="M623.32,108.58a95.89,95.89,0,0,0-11.44-1.48c-.39,6.22,0,12.22,2.65,14.74,3.44,3.31,6.16-4.51,8.79-13.26Zm-16-1.69c-2.75-.07-5.49,0-8.21.11-1.3.07-2.59.16-3.88.28-.44,6.37,0,12.59,2.62,15.17,3.74,3.6,6.63-6,9.47-15.56ZM589.67,108a82.63,82.63,0,0,0-12.31,2.79c-.22,5.62.35,10.84,2.74,13.13,3.78,3.65,6.7-6.2,9.57-15.92Z"/><path class="cls-10" d="M685.23,141.45c-.48,1.29-1,2.55-1.53,3.75.3.62.59,1.25.87,1.88,1.2-2.19,2.28-4.38,3.27-6.55.2-.44.39-.89.59-1.33-.51-.77-1.06-1.58-1.65-2.4-.47,1.58-1,3.13-1.55,4.65ZM510.82,237.78a175.86,175.86,0,0,0,32.28,28.48,2.86,2.86,0,0,1,1.19.79c12,7.92,26.3,14.63,41.31,16,17.89,1.62,37.86-2.87,57.41-10.5,7.07-2.76,14.08-5.92,20.91-9.35l.12-.06A319.21,319.21,0,0,0,708.28,236c-10.35-10.24-14-27.89-17.83-46.85-5.37-26.27-11.27-55.2-36.59-67.52,33.43,32.19,19.63,77.5,36.72,111.13,0,0-94.05,87.65-179.76,5Z"/><path class="cls-9" d="M534.25,259.82c2.77,2.17,5.73,4.34,8.85,6.44a2.86,2.86,0,0,1,1.19.79c12,7.92,26.3,14.63,41.31,16,17.89,1.62,37.86-2.87,57.41-10.5,2.52-1,5-2,7.54-3.1a18.17,18.17,0,0,0,.28-4.35c-1-18.81-28.24-42.4-60.44-43.19-30.84-.76-55,19.67-56.14,37.92Z"/><path class="cls-11" d="M534.25,259.82l.11.09h0l.13.1.13.11.13.1.13.1h0l.25.19.14.1.13.11.13.1.13.1.06,0,.08.06.26.2.14.11.13.1.09.07,0,0,.13.1.14.1.13.1.14.11.12.09h0l.14.1.14.1.13.1.14.1,0,0,.23.17h0l.14.11.14.1.14.1.14.1.06,0,.07.06.56.4.1.07,0,0,.14.1.28.2.14.1.14.1h0l.14.1.15.1.28.2.14.1,0,0,.11.07.15.1.43.3.07.05.07,0,1.45,1a2.86,2.86,0,0,1,1.19.79c12,7.92,26.3,14.63,41.31,16,17.89,1.62,37.86-2.87,57.41-10.5l.12-.05.12,0,.09,0h0l.12,0,.12-.05.07,0,.05,0,.12,0,.11-.05,0,0,.07,0,.12,0,.12-.05h0l.1,0,.12,0,.11-.05h0l.12-.05.12,0,.09,0h0l.12-.05.11-.05.08,0,0,0,.12,0,.12-.05,0,0,.18-.08.12-.05h0l.09,0,.12-.05.12,0h0l.11-.05.12-.05.1,0h0l.12-.05.11,0,.08,0,0,0,.24-.1,0,0,.07,0,.11,0,.12-.05h0l.09,0,.12-.05.35-.15.1,0h0l.23-.1.08,0,0,0,.24-.1.05,0,.06,0,.12,0,.12-.05h0l.09,0,.11-.05.12-.05h0l.12,0,.12-.05.09,0h0l.24-.1.07,0,.16-.07.12-.05a18.17,18.17,0,0,0,.28-4.35,23.21,23.21,0,0,0-1.05-5.73c-29.79,14.08-72.3,23.57-115.08-2.86a22.42,22.42,0,0,0-.45,3.32Z"/><path class="cls-12" d="M523.39,148.67a155.26,155.26,0,0,1,13.79-22.25c-6.31-4.39-20.27-13.74-26.26-11.17l-.06,0c-.49.51-.49,2.33-.08,5a55.77,55.77,0,0,0,4.33,13.46,98.55,98.55,0,0,0,8.28,14.88Z"/><path class="cls-12" d="M681,140a82.5,82.5,0,0,0,4-24.81c0-7.32-.71-12.86-2.09-13.62l-.06,0c-5.67-1.94-18,10.93-23.21,16.68A56.9,56.9,0,0,1,681,140Z"/><path class="cls-8" d="M671.05,321.3l.25-.05c13.62-1.77,26.39-8.32,37.87-17.47,14.09-11.23,26.21-26.36,35.61-41.41,3.24-5.2,7.72-8.46,12.38-11.85,6.48-4.71,13.35-9.72,16.66-21,2.55-8.73,1.48-15.55-1.7-20.57a22.9,22.9,0,0,0-9.87-8.33,33.21,33.21,0,0,0-13.42-3c-7.69-.11-15,2.3-18.94,7.13-2.51,3.11-5.18,7.9-8.28,13.47-2.51,4.5-5.28,9.48-8.48,14.51.46.42.94.82,1.43,1.2a2.84,2.84,0,0,1,.51,4,2.93,2.93,0,0,1-.65.62c-3.67,2.74-7.57,5.53-11.65,8.32a80.9,80.9,0,0,1-19.36,16.68,72.92,72.92,0,0,1-27.58,9.82c-3.55,1.6-7.14,3.11-10.74,4.51-20.29,7.91-41.14,12.57-60,10.85-14.57-1.32-28.41-7.32-40.36-14.68-37.94-5.69-54.1-35.32-65.09-55.48-3.13-5.73-5.82-10.67-8.37-13.82-3.91-4.83-11.25-7.24-18.94-7.13a33.21,33.21,0,0,0-13.42,3,22.9,22.9,0,0,0-9.87,8.33c-3.18,5-4.25,11.84-1.7,20.57,3.31,11.3,10.18,16.31,16.66,21,4.66,3.39,9.14,6.65,12.38,11.85,9.4,15.05,21.52,30.18,35.61,41.41,11.48,9.15,24.25,15.7,37.86,17.47a2.85,2.85,0,0,1,2.46,3.2,1.85,1.85,0,0,1,0,.23C524.2,369,521,404.24,521.61,434.16s5.23,54.31,12.81,77.31a2.85,2.85,0,0,1-1.82,3.6,2.65,2.65,0,0,1-1.21.13c-13-.86-21.4,3.81-25.29,9.8a14.83,14.83,0,0,0-2.35,6.39,11.57,11.57,0,0,0,.87,6c1.79,4.06,6.24,7.14,13.45,7.39l4.44.17c7.06.28,15.86.64,24.54.23,17.81-.85,35.27-4.91,34.56-19.81-.73-15.26,0-34.09,3.39-49.51,2-9.18,4.91-17.23,9-22.81a109.51,109.51,0,0,1-23.44-3.42c-8.91-2.36-16.37-5.81-21.6-10a2.85,2.85,0,1,1,3.55-4.47c4.62,3.67,11.36,6.75,19.5,8.91a112.92,112.92,0,0,0,54.44,0c8.14-2.16,14.87-5.24,19.49-8.91a2.86,2.86,0,1,1,3.56,4.47c-5.23,4.15-12.7,7.6-21.6,10a109.91,109.91,0,0,1-22,3.36c4.12,5.58,7.06,13.66,9,22.87,3.34,15.42,4.12,34.25,3.39,49.51-.7,14.9,16.76,19,34.57,19.81,8.68.41,17.48.05,24.53-.23l4.45-.17c7.2-.25,11.66-3.33,13.45-7.39a11.57,11.57,0,0,0,.86-6,14.7,14.7,0,0,0-2.35-6.39c-3.88-6-12.32-10.66-25.29-9.8a2.68,2.68,0,0,1-1.21-.13,2.85,2.85,0,0,1-1.82-3.6c7.59-23,12.15-47.53,12.81-77.31.67-29.94-2.59-65.21-10.67-109.58a2.86,2.86,0,0,1,2.31-3.31,3,3,0,0,1,1.11,0Z"/><path class="cls-10" d="M671.3,321.25c13.62-1.77,26.39-8.32,37.87-17.47,14.09-11.23,26.21-26.36,35.61-41.41,3.24-5.2,7.72-8.46,12.38-11.85,6.48-4.71,13.35-9.72,16.66-21,2.55-8.73,1.48-15.55-1.7-20.57a22.9,22.9,0,0,0-9.87-8.33,33.21,33.21,0,0,0-13.42-3c25,6.92,18.62,41.77-2.61,49.37-19.82,37.16-35.06,57.23-74.92,74.28Zm-219-123.65a33.21,33.21,0,0,0-13.42,3,22.9,22.9,0,0,0-9.87,8.33c-3.18,5-4.25,11.84-1.7,20.57,3.31,11.3,10.18,16.31,16.66,21,4.66,3.39,9.14,6.65,12.38,11.85,9.4,15.05,21.52,30.18,35.61,41.41,11.48,9.15,24.25,15.7,37.86,17.47C490,304.2,474.75,284.13,454.93,247c-21.24-7.6-27.57-42.45-2.61-49.37Z"/><path class="cls-10" d="M690.29,258.8a71.33,71.33,0,0,1-6.88,4.73,72.92,72.92,0,0,1-27.58,9.82c-3.55,1.6-7.14,3.11-10.74,4.51-20.29,7.91-41.14,12.57-60,10.85-14.57-1.32-28.41-7.32-40.36-14.68a73.5,73.5,0,0,1-19.86-5.83,97.8,97.8,0,0,0,70.2,26.51c43.84-1,76.91-17.28,95.23-35.91Z"/><path class="cls-13" d="M600.71,262c-12.36-4.26-20.06,0-23.47,2.82a17.17,17.17,0,0,0,9,2.58,23.87,23.87,0,0,0,3.2-.12A18.11,18.11,0,0,0,600.71,262Z"/><path class="cls-8" d="M683.47,447a93.18,93.18,0,0,0,10.23,1.36,84.45,84.45,0,0,0,12.22.06A74.26,74.26,0,0,0,726,444.21a67.6,67.6,0,0,0,17.47-9.4c14-10.42,19.53-23.95,20.92-38.86,1.41-15.29-1.51-32.24-4.36-48.85h0c-1.19-6.92-2.37-13.79-3.15-20.13v-.08a63.79,63.79,0,0,1,.4-18.87,50.91,50.91,0,0,1,5.87-16.53l.21-.39c0-.08.08-.16.13-.24a41.47,41.47,0,0,1,6.66-8.54,35.8,35.8,0,0,1,8.38-6.17,31.79,31.79,0,0,1,9.55-3.27,30.7,30.7,0,0,1,10,0,36.39,36.39,0,0,1,12.3,4.45,51.75,51.75,0,0,1,11.35,9,8.29,8.29,0,1,0,11.92-11.51,68,68,0,0,0-15.81-12.32,52.77,52.77,0,0,0-17.21-6,47.58,47.58,0,0,0-15.3,0,48.18,48.18,0,0,0-14.56,5,52.51,52.51,0,0,0-12,8.81,58.62,58.62,0,0,0-9.59,12.28h0l-.34.55a67.52,67.52,0,0,0-7.8,21.5,80.28,80.28,0,0,0-.61,24.31v0c.85,7,2,13.92,3.25,20.93v.08c2.35,13.62,4.74,27.52,4.21,40-.55,12.93-4.25,24.15-14.29,31.64a51.27,51.27,0,0,1-13.4,7.17,57.33,57.33,0,0,1-15.39,3.18A66.31,66.31,0,0,1,693,431.6a81.77,81.77,0,0,1-8.9-1.48c0,1.39,0,2.77-.07,4.15q-.15,6.51-.53,12.7Z"/><path class="cls-10" d="M683.47,447a93.18,93.18,0,0,0,10.23,1.36,84.45,84.45,0,0,0,12.22.06A74.26,74.26,0,0,0,726,444.21a67.6,67.6,0,0,0,17.47-9.4c14-10.42,19.53-23.95,20.92-38.86,1.41-15.29-1.51-32.24-4.36-48.85h0c-1.19-6.92-2.37-13.79-3.15-20.13v-.08a63.79,63.79,0,0,1,.4-18.87,50.91,50.91,0,0,1,5.87-16.53l.21-.39c0-.08.08-.16.13-.24a41.47,41.47,0,0,1,6.66-8.54,35.8,35.8,0,0,1,8.38-6.17,31.79,31.79,0,0,1,9.55-3.27,30.7,30.7,0,0,1,10,0,36.39,36.39,0,0,1,12.3,4.45,51.75,51.75,0,0,1,11.35,9,8.29,8.29,0,1,0,11.92-11.51c-1.16,6.86-8.83,6.76-26.61-4.82s-54.36,2.52-58.07,38.43c-3.91,37.84,23.66,89.44-6.59,118.08-14.06,13.31-33.3,16.34-44.64,12.54-2.2-.74-3.22-3.88-3.66-7.3l-1.09-.1a81.77,81.77,0,0,1-8.9-1.48c0,1.39,0,2.77-.07,4.15q-.15,6.51-.53,12.7Z"/><path d="M685.76,143.45c-.42,1.13-.87,2.23-1.34,3.29l.15.34c1.2-2.19,2.28-4.37,3.27-6.55,6.26-13.84,8.39-27.27,7.94-37.86-.42-10-3-17.18-6.41-19.31a3.55,3.55,0,0,0-.42-.23c-3.81-1.72-10.72,1-18.09,5.34-12.27,7.24-25.19,18.89-29,23.63a2.86,2.86,0,0,1-3.38.93c-11.58-4.82-25.75-6.76-39.3-6s-26.43,4.11-35.31,9.91a2.87,2.87,0,0,1-2.88.15s-15.48-8-27.54-12.29l-.11,0a64.08,64.08,0,0,0-19.32-4.4c-5.76-.34-10.3.3-12.27,1.81l-.1.08c-1.95,1.64-1,10.5,2.17,21.7a109.85,109.85,0,0,0,15.84,33.2c.32-.81.65-1.63,1-2.46a105.6,105.6,0,0,1-10.72-18.54,61.83,61.83,0,0,1-4.77-14.94c-.73-4.75-.08-8.42,2.12-10.3a2.75,2.75,0,0,1,.26-.22,5.16,5.16,0,0,1,.85-.51l.18-.09c9.35-4.16,27,8.21,33.16,12.56l1.23.86a2.86,2.86,0,0,1,.57,4c-24.76,32.88-24.65,52.78-24.55,70.73.07,12.87.13,24.8-8.13,39.58,4.1,4.68,17.7,19.42,36,30.87a2.71,2.71,0,0,1,.79.5c11.31,7,24.36,12.65,38,13.89,17.89,1.62,37.86-2.88,57.41-10.5,3.61-1.41,7.21-2.93,10.78-4.53l.14-.06a304.77,304.77,0,0,0,45.18-25.51l.26-.18q4.64-3.15,8.91-6.28c-10.35-10.24-14-27.89-17.83-46.85-5.37-26.27-11.27-55.2-36.59-67.52a2.9,2.9,0,0,1-.64-.41,2.86,2.86,0,0,1-.34-4c.06-.07,20.58-24.61,31.68-21.1a1.81,1.81,0,0,1,.31.09l.43.19c3.47,1.68,5.41,9.3,5.35,18.8a86.87,86.87,0,0,1-4.89,28.29Zm-1.68,280.81a75.15,75.15,0,0,0,9.5,1.66,60.83,60.83,0,0,0,10.8.23,51.57,51.57,0,0,0,13.85-2.84,46,46,0,0,0,11.9-6.39c8.42-6.28,11.53-16,12-27.29.5-11.8-1.84-25.42-4.14-38.77v-.07c-1.23-7.11-2.44-14.15-3.3-21.22a86.09,86.09,0,0,1,.68-26,73.29,73.29,0,0,1,8.47-23.32l.22-.38.15-.23h0a64.21,64.21,0,0,1,10.53-13.47,58.24,58.24,0,0,1,13.35-9.77,53,53,0,0,1,33.42-5.58,58.25,58.25,0,0,1,19.08,6.68,73.27,73.27,0,0,1,17.13,13.32,14,14,0,0,1-20.1,19.47,46.15,46.15,0,0,0-10.1-8,30.37,30.37,0,0,0-10.36-3.77,24.75,24.75,0,0,0-8.15,0,26.05,26.05,0,0,0-7.83,2.68,30.27,30.27,0,0,0-7,5.18,35.81,35.81,0,0,0-5.74,7.39c-.11.17-.21.37-.31.55A45.1,45.1,0,0,0,762.9,309a58.34,58.34,0,0,0-.35,17.2v.08c.76,6.24,1.93,13,3.11,19.86h0c2.92,16.94,5.89,34.25,4.4,50.32-1.52,16.44-7.68,31.38-23.17,42.93A73.08,73.08,0,0,1,728,449.58a79.9,79.9,0,0,1-21.66,4.51,89.9,89.9,0,0,1-13-.06,98.58,98.58,0,0,1-10.21-1.33,256.13,256.13,0,0,1-10.9,56.69c13.13.16,22,5.66,26.43,12.5a20.53,20.53,0,0,1,3.25,8.87,17.25,17.25,0,0,1-1.31,8.9c-2.63,6-8.78,10.45-18.5,10.79l-4.4.17c-7.18.29-16.13.65-25,.23-20.68-1-40.93-6.19-40-25.78.7-14.83-.05-33.1-3.28-48-2.07-9.57-5.12-17.66-9.37-22.3-4.26,4.64-7.3,12.73-9.37,22.3-3.23,14.93-4,33.2-3.28,48,.93,19.58-19.32,24.79-40,25.78-8.9.42-17.85.06-25-.23l-4.4-.17c-9.72-.34-15.88-4.84-18.5-10.79a17.14,17.14,0,0,1-1.31-8.9,20.38,20.38,0,0,1,3.24-8.87c4.44-6.84,13.31-12.34,26.43-12.5-7-22.37-11.2-46.33-11.84-75.12-.66-29.65,2.48-64.41,10.24-107.82-13.63-2.42-26.32-9.11-37.72-18.2-14.65-11.68-27.21-27.33-36.91-42.86-2.68-4.29-6.7-7.22-10.89-10.27-7.23-5.27-14.92-10.86-18.78-24-3.06-10.48-1.65-18.87,2.35-25.19a28.63,28.63,0,0,1,12.29-10.48,39.12,39.12,0,0,1,15.76-3.51c9.32-.14,18.38,3,23.43,9.23,2.88,3.56,5.69,8.71,8.95,14.69,8.9,16.32,21.36,39.16,46.6,48.83a178.61,178.61,0,0,1-26.07-24.73,2.84,2.84,0,0,1-.19-3.38c8.41-14.19,8.35-25.78,8.28-38.32-.06-10.32-.12-21.26,4.09-34.69-9.05-11.3-15.53-25.76-19.05-38-3.82-13.3-4-24.58-.34-27.64h0l.21-.16c3.09-2.38,9-3.46,16.14-3a70,70,0,0,1,21,4.76c10.22,3.59,22.64,9.73,26.82,11.85,9.64-5.81,22.89-9.2,36.74-9.94,13.61-.73,27.87,1.1,39.86,5.69A149.18,149.18,0,0,1,668,83.55c8.82-5.21,17.52-8.25,23.33-5.63a9.71,9.71,0,0,1,1.1.59c4.93,3.08,8.59,12,9.09,23.94.48,11.36-1.78,25.71-8.43,40.43a104.51,104.51,0,0,1-5.76,10.92c4,11,6.42,22.81,8.75,34.19,3.24,15.86,6.28,30.74,13.14,40.27,2.81-4.51,5.23-8.87,7.44-12.84,3.23-5.79,6-10.79,8.85-14.29,5-6.24,14.11-9.37,23.43-9.23a39.16,39.16,0,0,1,15.76,3.51A28.69,28.69,0,0,1,777,205.89c4,6.32,5.41,14.71,2.34,25.19-3.85,13.18-11.54,18.77-18.78,24-4.18,3.05-8.2,6-10.88,10.27-9.7,15.53-22.26,31.18-36.91,42.86-11.74,9.35-24.84,16.17-38.92,18.4,6.88,38.53,10.11,70.24,10.28,97.61ZM683.47,447a93.18,93.18,0,0,0,10.23,1.36,84.45,84.45,0,0,0,12.22.06A74.26,74.26,0,0,0,726,444.21a67.6,67.6,0,0,0,17.47-9.4c14-10.42,19.53-23.95,20.92-38.86,1.41-15.29-1.51-32.24-4.36-48.85h0c-1.19-6.92-2.37-13.79-3.15-20.13v-.08a63.79,63.79,0,0,1,.4-18.87,50.91,50.91,0,0,1,5.87-16.53l.21-.39c0-.08.08-.16.13-.24a41.47,41.47,0,0,1,6.66-8.54,35.8,35.8,0,0,1,8.38-6.17,31.79,31.79,0,0,1,9.55-3.27,30.7,30.7,0,0,1,10,0,36.39,36.39,0,0,1,12.3,4.45,51.75,51.75,0,0,1,11.35,9,8.29,8.29,0,1,0,11.92-11.51,68,68,0,0,0-15.81-12.32,52.77,52.77,0,0,0-17.21-6,47.58,47.58,0,0,0-15.3,0,48.18,48.18,0,0,0-14.56,5,52.51,52.51,0,0,0-12,8.81,58.62,58.62,0,0,0-9.59,12.28h0l-.34.55a67.52,67.52,0,0,0-7.8,21.5,80.28,80.28,0,0,0-.61,24.31v0c.85,7,2,13.92,3.25,20.93v.08c2.35,13.62,4.74,27.52,4.21,40-.55,12.93-4.25,24.15-14.29,31.64a51.27,51.27,0,0,1-13.4,7.17,57.33,57.33,0,0,1-15.39,3.18A66.31,66.31,0,0,1,693,431.6a81.77,81.77,0,0,1-8.9-1.48c0,1.39,0,2.77-.07,4.15q-.15,6.51-.53,12.7Zm-66.7-204.88a2.86,2.86,0,0,1,4.59,3.4,26.94,26.94,0,0,1-10.18,8.37,22.59,22.59,0,0,1-3.32,8.31,3.77,3.77,0,0,1-.26.39c-.37.54-.76,1.08-1.18,1.61A23.61,23.61,0,0,1,590,273a33,33,0,0,1-3.92.14c-16.45-.45-21.13-14.22-22.24-18.78a26.86,26.86,0,0,1-11.27-8.86,2.85,2.85,0,1,1,4.58-3.4,22.1,22.1,0,0,0,18,8.79,20.87,20.87,0,0,0,5.34-.65,9.85,9.85,0,0,0,3.28-1.41.35.35,0,0,1,.29-.07v-3.49a2.86,2.86,0,0,1,2.86-2.86H587a2.87,2.87,0,0,1,2.87,2.86v3.49a.34.34,0,0,1,.28.07,9.85,9.85,0,0,0,3.28,1.41,20.87,20.87,0,0,0,5.34.65,22.07,22.07,0,0,0,18-8.79ZM600.71,262c-12.36-4.26-20.06,0-23.47,2.82a17.17,17.17,0,0,0,9,2.58,23.87,23.87,0,0,0,3.2-.12A18.11,18.11,0,0,0,600.71,262Zm70.34,59.27.25-.05c13.62-1.77,26.39-8.32,37.87-17.47,14.09-11.23,26.21-26.36,35.61-41.41,3.24-5.2,7.72-8.46,12.38-11.85,6.48-4.71,13.35-9.72,16.66-21,2.55-8.73,1.48-15.55-1.7-20.57a22.9,22.9,0,0,0-9.87-8.33,33.21,33.21,0,0,0-13.42-3c-7.69-.11-15,2.3-18.94,7.13-2.51,3.11-5.18,7.9-8.28,13.47-2.51,4.5-5.28,9.48-8.48,14.51.46.42.94.82,1.43,1.2a2.84,2.84,0,0,1,.51,4,2.93,2.93,0,0,1-.65.62c-3.67,2.74-7.57,5.53-11.65,8.32a80.9,80.9,0,0,1-19.36,16.68,72.92,72.92,0,0,1-27.58,9.82c-3.55,1.6-7.14,3.11-10.74,4.51-20.29,7.91-41.14,12.57-60,10.85-14.57-1.32-28.41-7.32-40.36-14.68-37.94-5.69-54.1-35.32-65.09-55.48-3.13-5.73-5.82-10.67-8.37-13.82-3.91-4.83-11.25-7.24-18.94-7.13a33.21,33.21,0,0,0-13.42,3,22.9,22.9,0,0,0-9.87,8.33c-3.18,5-4.25,11.84-1.7,20.57,3.31,11.3,10.18,16.31,16.66,21,4.66,3.39,9.14,6.65,12.38,11.85,9.4,15.05,21.52,30.18,35.61,41.41,11.48,9.15,24.25,15.7,37.86,17.47a2.85,2.85,0,0,1,2.46,3.2,1.85,1.85,0,0,1,0,.23C524.2,369,521,404.24,521.61,434.16s5.23,54.31,12.81,77.31a2.85,2.85,0,0,1-1.82,3.6,2.65,2.65,0,0,1-1.21.13c-13-.86-21.4,3.81-25.29,9.8a14.83,14.83,0,0,0-2.35,6.39,11.57,11.57,0,0,0,.87,6c1.79,4.06,6.24,7.14,13.45,7.39l4.44.17c7.06.28,15.86.64,24.54.23,17.81-.85,35.27-4.91,34.56-19.81-.73-15.26,0-34.09,3.39-49.51,2-9.18,4.91-17.23,9-22.81a109.51,109.51,0,0,1-23.44-3.42c-8.91-2.36-16.37-5.81-21.6-10a2.85,2.85,0,1,1,3.55-4.47c4.62,3.67,11.36,6.75,19.5,8.91a112.92,112.92,0,0,0,54.44,0c8.14-2.16,14.87-5.24,19.49-8.91a2.86,2.86,0,1,1,3.56,4.47c-5.23,4.15-12.7,7.6-21.6,10a109.91,109.91,0,0,1-22,3.36c4.12,5.58,7.06,13.66,9,22.87,3.34,15.42,4.12,34.25,3.39,49.51-.7,14.9,16.76,19,34.57,19.81,8.68.41,17.48.05,24.53-.23l4.45-.17c7.2-.25,11.66-3.33,13.45-7.39a11.57,11.57,0,0,0,.86-6,14.7,14.7,0,0,0-2.35-6.39c-3.88-6-12.32-10.66-25.29-9.8a2.68,2.68,0,0,1-1.21-.13,2.85,2.85,0,0,1-1.82-3.6c7.59-23,12.15-47.53,12.81-77.31.67-29.94-2.59-65.21-10.67-109.58a2.86,2.86,0,0,1,2.31-3.31,3,3,0,0,1,1.11,0ZM681,140a82.5,82.5,0,0,0,4-24.81c0-7.32-.71-12.86-2.09-13.62l-.06,0c-5.67-1.94-18,10.93-23.21,16.68A56.9,56.9,0,0,1,681,140Zm-157.57,8.72a155.26,155.26,0,0,1,13.79-22.25c-6.31-4.39-20.27-13.74-26.26-11.17l-.06,0c-.49.51-.49,2.33-.08,5a55.77,55.77,0,0,0,4.33,13.46,98.55,98.55,0,0,0,8.28,14.88Z"/><path class="cls-14" d="M586.9,245.31s-14-7-14.54-14.79,29-9.18,31.45-1.79-16.91,16.58-16.91,16.58Z"/><path class="cls-15" d="M548.16,184.34c7.42.16,13.26,7.13,13,15.56s-6.42,15.13-13.85,15-13.26-7.14-13-15.57,6.42-15.13,13.85-15Z"/><path class="cls-15" d="M637,186.22c7.43.17,13.26,7.14,13,15.57s-6.42,15.13-13.85,15-13.26-7.14-13-15.57,6.42-15.13,13.84-15Z"/><path class="cls-15" d="M661.54,260.38a1.43,1.43,0,1,0,1.94-2.09s-9.29-8.69-25.89-14.31a1.43,1.43,0,1,0-.91,2.71c16,5.43,24.84,13.67,24.86,13.69Zm3.78-13.32a1.42,1.42,0,1,0,1.18-2.59s-11.51-5.39-29-5.62a1.43,1.43,0,1,0,0,2.85c16.91.22,27.85,5.35,27.88,5.36Zm1.14-13.86a1.43,1.43,0,1,0,.42-2.82s-12.56-2-29.45,2.66a1.43,1.43,0,0,0,.76,2.76c16.31-4.49,28.24-2.61,28.27-2.6ZM519.61,253.52a1.43,1.43,0,1,1-1.72-2.28S528,243.5,545,239.51a1.43,1.43,0,1,1,.65,2.78c-16.46,3.85-26,11.21-26.07,11.23Zm-2.47-13.63a1.43,1.43,0,0,1-.92-2.7s12-4.25,29.43-2.78a1.43,1.43,0,0,1-.24,2.84c-16.86-1.41-28.24,2.63-28.27,2.64Zm.2-13.91a1.42,1.42,0,0,1-.14-2.84s12.69-.76,29,5.49a1.43,1.43,0,1,1-1,2.67c-15.8-6-27.85-5.32-27.89-5.32Z"/><path class="cls-16" d="M552.53,190.15c2.08,0,3.76,2.07,3.76,4.62s-1.68,4.63-3.76,4.63-3.75-2.07-3.75-4.63,1.68-4.62,3.75-4.62Z"/><path class="cls-16" d="M640.84,192.09c2.07,0,3.75,2.07,3.75,4.63s-1.68,4.62-3.75,4.62-3.76-2.07-3.76-4.62,1.69-4.63,3.76-4.63Z"/><path class="cls-9" d="M523.41,148.64a154.28,154.28,0,0,1,13.77-22.22c-6.25-4.36-20-13.62-26.06-11.26,0,0,13.22,5.38,8.81,18.55-.63,1.89-1.32,3.77-2,5.62a80.8,80.8,0,0,0,5.52,9.31Z"/><path class="cls-9" d="M680.19,138.65a72.33,72.33,0,0,0,2.18-7.43c-.36-.42-.74-.84-1.12-1.26-9.13-10-10.42-20.41,0-28.64-6.14.41-16.89,11.6-21.61,16.86a56.4,56.4,0,0,1,20.6,20.47Z"/><path class="cls-10" d="M509.57,521.09a18.51,18.51,0,0,0-3.51,4,14.82,14.82,0,0,0-2.36,6.39,11.63,11.63,0,0,0,.87,6c1.79,4.05,6.24,7.14,13.45,7.38l4.44.17c7.06.29,15.86.64,24.54.23,17.81-.84,35.27-4.91,34.56-19.8-.73-15.26.05-34.09,3.39-49.51,2-9.22,4.94-17.3,9.06-22.88A108.71,108.71,0,0,1,572,449.66a68.25,68.25,0,0,1-16.58-6.58h0a158.36,158.36,0,0,1,9.28,51.62c0,27.89,6.7,36.47-20.92,40.76s-37.45-5.7-34.16-14.37Z"/><path class="cls-10" d="M690.29,521a18.1,18.1,0,0,1,3.52,4,14.7,14.7,0,0,1,2.35,6.39,11.57,11.57,0,0,1-.86,6c-1.79,4.06-6.24,7.14-13.45,7.39l-4.45.17c-7,.28-15.85.64-24.53.23-17.81-.85-35.27-4.91-34.56-19.81.72-15.26-.06-34.09-3.4-49.51-2-9.21-4.93-17.29-9-22.87a109.91,109.91,0,0,0,22-3.36A69.15,69.15,0,0,0,644.5,443h0a158.34,158.34,0,0,0-9.28,51.61c0,27.89-6.71,36.48,20.92,40.77s37.45-5.7,34.15-14.37Z"/><path class="cls-17" d="M598.7,317c25.15,0,45.54,37.72,45.54,69.66s-20.39,46-45.54,46-45.55-14-45.55-46S573.54,317,598.7,317Z"/></g></svg>